<?xml version="1.0" encoding="UTF-8"?>
<svg xmlns="http://www.w3.org/2000/svg" xmlns:xlink="http://www.w3.org/1999/xlink" width="2550pt" height="3300pt" viewBox="0 0 2550 3300" version="1.1">
<g id="surface1">
<path style="fill:none;stroke-width:2;stroke-linecap:butt;stroke-linejoin:miter;stroke:rgb(59.2157%,81.1765%,56.4706%);stroke-opacity:1;stroke-miterlimit:10;" d="M 1679.929688 1996.878906 C 1679.929688 2002.101562 1675.699219 2006.335938 1670.476562 2006.339844 C 1665.253906 2006.34375 1661.019531 2002.117188 1661.007812 1996.894531 C 1661 1991.671875 1665.226562 1987.433594 1670.449219 1987.417969 C 1675.667969 1987.40625 1679.914062 1991.628906 1679.929688 1996.851562 M 1536.898438 2040.539062 C 1536.898438 2050.757812 1528.621094 2059.039062 1518.40625 2059.050781 C 1508.1875 2059.058594 1499.898438 2050.785156 1499.882812 2040.570312 C 1499.863281 2030.351562 1508.128906 2022.054688 1518.347656 2022.03125 C 1528.5625 2022.007812 1536.867188 2030.265625 1536.898438 2040.480469 M 1628.09375 1317.160156 C 1628.09375 1322.53125 1623.742188 1326.890625 1618.367188 1326.894531 C 1612.996094 1326.898438 1608.632812 1322.546875 1608.625 1317.175781 C 1608.617188 1311.800781 1612.964844 1307.4375 1618.335938 1307.425781 C 1623.710938 1307.414062 1628.078125 1311.757812 1628.09375 1317.128906 M 2144.714844 1728.691406 C 2144.714844 1732.058594 2141.984375 1734.792969 2138.613281 1734.792969 C 2135.246094 1734.796875 2132.511719 1732.070312 2132.507812 1728.699219 C 2132.5 1725.332031 2135.226562 1722.59375 2138.59375 1722.585938 C 2141.964844 1722.578125 2144.703125 1725.300781 2144.714844 1728.671875 M 441.179688 1282.769531 C 441.179688 1297.28125 429.425781 1309.046875 414.914062 1309.058594 C 400.40625 1309.070312 388.628906 1297.320312 388.605469 1282.8125 C 388.582031 1268.300781 400.320312 1256.515625 414.832031 1256.484375 C 429.339844 1256.449219 441.136719 1268.175781 441.179688 1282.6875 M 701.324219 1127.679688 C 701.324219 1141.609375 690.039062 1152.902344 676.109375 1152.914062 C 662.179688 1152.925781 650.878906 1141.648438 650.855469 1127.71875 C 650.832031 1113.792969 662.101562 1102.476562 676.03125 1102.445312 C 689.957031 1102.410156 701.28125 1113.671875 701.324219 1127.601562 M 890.625 2549.191406 C 890.625 2554.605469 886.238281 2558.992188 880.824219 2558.996094 C 875.414062 2559 871.019531 2554.621094 871.011719 2549.207031 C 871 2543.792969 875.382812 2539.394531 880.792969 2539.382812 C 886.207031 2539.371094 890.609375 2543.746094 890.625 2549.160156 M 1198.167969 766.917969 C 1198.167969 777.199219 1189.835938 785.539062 1179.554688 785.546875 C 1169.273438 785.554688 1160.925781 777.230469 1160.910156 766.949219 C 1160.894531 756.664062 1169.214844 748.3125 1179.496094 748.289062 C 1189.777344 748.265625 1198.136719 756.574219 1198.167969 766.859375 M 1223.660156 1920.699219 C 1223.660156 1944.476562 1204.390625 1963.757812 1180.613281 1963.777344 C 1156.835938 1963.796875 1137.539062 1944.546875 1137.5 1920.769531 C 1137.464844 1896.992188 1156.699219 1877.679688 1180.476562 1877.621094 C 1204.253906 1877.566406 1223.582031 1896.785156 1223.65625 1920.5625 M 1215.054688 2115.589844 C 1215.054688 2134.074219 1200.078125 2149.0625 1181.597656 2149.074219 C 1163.113281 2149.089844 1148.113281 2134.125 1148.085938 2115.644531 C 1148.054688 2097.160156 1163.007812 2082.148438 1181.488281 2082.105469 C 1199.972656 2082.058594 1214.996094 2097 1215.054688 2115.484375 M 1418.296875 2171.199219 C 1418.296875 2188.773438 1404.058594 2203.023438 1386.484375 2203.035156 C 1368.914062 2203.050781 1354.652344 2188.824219 1354.625 2171.25 C 1354.597656 2153.679688 1368.8125 2139.40625 1386.382812 2139.363281 C 1403.957031 2139.324219 1418.238281 2153.527344 1418.296875 2171.097656 M 681.105469 1303.488281 C 681.105469 1330.039062 659.597656 1351.5625 633.050781 1351.585938 C 606.5 1351.605469 584.957031 1330.113281 584.914062 1303.566406 C 584.875 1277.019531 606.347656 1255.457031 632.894531 1255.394531 C 659.445312 1255.332031 681.023438 1276.789062 681.105469 1303.335938 M 2210.296875 1005.691406 C 2210.296875 1011.714844 2205.414062 1016.601562 2199.390625 1016.605469 C 2193.363281 1016.613281 2188.472656 1011.734375 2188.464844 1005.707031 C 2188.453125 999.679688 2193.328125 994.789062 2199.355469 994.773438 C 2205.378906 994.757812 2210.277344 999.628906 2210.296875 1005.65625 M 1060.070312 2125 C 1060.070312 2140.746094 1047.308594 2153.515625 1031.5625 2153.527344 C 1015.816406 2153.542969 1003.035156 2140.792969 1003.011719 2125.046875 C 1002.984375 2109.296875 1015.722656 2096.507812 1031.472656 2096.472656 C 1047.21875 2096.433594 1060.019531 2109.160156 1060.070312 2124.910156 M 1268.554688 658.847656 C 1268.554688 683.464844 1248.609375 703.421875 1223.996094 703.441406 C 1199.382812 703.460938 1179.40625 683.535156 1179.367188 658.921875 C 1179.328125 634.304688 1199.238281 614.316406 1223.851562 614.253906 C 1248.46875 614.195312 1268.476562 634.09375 1268.554688 658.707031 M 750.683594 1454.351562 C 750.683594 1468.648438 739.101562 1480.242188 724.800781 1480.253906 C 710.503906 1480.265625 698.902344 1468.6875 698.878906 1454.390625 C 698.855469 1440.09375 710.421875 1428.480469 724.71875 1428.449219 C 739.015625 1428.414062 750.636719 1439.96875 750.683594 1454.265625 M 1016.625 1835.371094 C 1016.625 1844.832031 1008.960938 1852.507812 999.496094 1852.515625 C 990.035156 1852.519531 982.355469 1844.859375 982.339844 1835.398438 C 982.324219 1825.933594 989.980469 1818.25 999.441406 1818.226562 C 1008.90625 1818.203125 1016.597656 1825.851562 1016.625 1835.316406 M 890.0625 2152 C 890.0625 2155.84375 886.949219 2158.957031 883.105469 2158.960938 C 879.261719 2158.964844 876.144531 2155.855469 876.140625 2152.011719 C 876.132812 2148.167969 879.242188 2145.046875 883.082031 2145.039062 C 886.925781 2145.03125 890.050781 2148.136719 890.0625 2151.976562 M 1169.949219 728.152344 C 1169.949219 745.503906 1155.894531 759.570312 1138.546875 759.582031 C 1121.195312 759.597656 1107.117188 745.550781 1107.089844 728.203125 C 1107.0625 710.855469 1121.097656 696.765625 1138.445312 696.726562 C 1155.792969 696.683594 1169.894531 710.707031 1169.949219 728.054688 M 1668.855469 2607.988281 C 1668.855469 2612.574219 1665.140625 2616.292969 1660.554688 2616.296875 C 1655.972656 2616.300781 1652.25 2612.585938 1652.246094 2608.003906 C 1652.238281 2603.417969 1655.945312 2599.695312 1660.53125 2599.683594 C 1665.113281 2599.671875 1668.839844 2603.378906 1668.855469 2607.964844 M 1281.8125 2345.21875 C 1281.8125 2352.375 1276.015625 2358.175781 1268.859375 2358.183594 C 1261.703125 2358.1875 1255.898438 2352.394531 1255.886719 2345.242188 C 1255.875 2338.085938 1261.664062 2332.273438 1268.820312 2332.257812 C 1275.972656 2332.238281 1281.789062 2338.023438 1281.8125 2345.179688 M 804.03125 1230.171875 C 804.03125 1246.050781 791.164062 1258.925781 775.285156 1258.9375 C 759.40625 1258.949219 746.519531 1246.09375 746.496094 1230.214844 C 746.46875 1214.335938 759.3125 1201.441406 775.191406 1201.402344 C 791.070312 1201.363281 803.980469 1214.199219 804.03125 1230.078125 M 1936.773438 1633.199219 C 1936.773438 1638.367188 1932.585938 1642.558594 1927.417969 1642.5625 C 1922.25 1642.566406 1918.054688 1638.382812 1918.046875 1633.214844 C 1918.039062 1628.046875 1922.21875 1623.847656 1927.386719 1623.835938 C 1932.554688 1623.824219 1936.757812 1628.003906 1936.773438 1633.171875 M 981.398438 2139.21875 C 981.398438 2145.171875 976.574219 2150 970.621094 2150.003906 C 964.667969 2150.007812 959.835938 2145.191406 959.828125 2139.238281 C 959.820312 2133.285156 964.632812 2128.449219 970.585938 2128.433594 C 976.539062 2128.421875 981.378906 2133.234375 981.398438 2139.1875 M 1830.308594 2659.429688 C 1830.308594 2679.367188 1814.15625 2695.535156 1794.21875 2695.550781 C 1774.28125 2695.566406 1758.101562 2679.425781 1758.070312 2659.488281 C 1758.039062 2639.550781 1774.167969 2623.359375 1794.105469 2623.308594 C 1814.039062 2623.261719 1830.246094 2639.378906 1830.308594 2659.316406 M 1787.523438 2489.488281 C 1787.523438 2497.941406 1780.675781 2504.796875 1772.222656 2504.804688 C 1763.769531 2504.808594 1756.910156 2497.96875 1756.898438 2489.515625 C 1756.882812 2481.0625 1763.722656 2474.195312 1772.171875 2474.175781 C 1780.625 2474.15625 1787.496094 2480.988281 1787.523438 2489.441406 M 487.242188 880.761719 C 487.242188 887.144531 482.070312 892.320312 475.6875 892.324219 C 469.308594 892.328125 464.128906 887.164062 464.117188 880.78125 C 464.109375 874.398438 469.269531 869.214844 475.652344 869.199219 C 482.035156 869.183594 487.222656 874.34375 487.242188 880.726562 M 869.542969 716.757812 C 869.542969 720.441406 866.554688 723.429688 862.871094 723.433594 C 859.1875 723.433594 856.195312 720.453125 856.191406 716.769531 C 856.183594 713.082031 859.164062 710.089844 862.851562 710.082031 C 866.535156 710.074219 869.53125 713.050781 869.542969 716.734375 M 840.335938 1082.679688 C 840.335938 1089.792969 834.570312 1095.5625 827.457031 1095.570312 C 820.339844 1095.574219 814.566406 1089.816406 814.554688 1082.699219 C 814.546875 1075.585938 820.300781 1069.808594 827.414062 1069.789062 C 834.53125 1069.773438 840.3125 1075.523438 840.335938 1082.640625 M 2303.738281 1415.390625 C 2303.738281 1425.683594 2295.398438 1434.03125 2285.105469 1434.039062 C 2274.8125 1434.046875 2266.457031 1425.714844 2266.441406 1415.417969 C 2266.425781 1405.125 2274.75 1396.765625 2285.046875 1396.742188 C 2295.339844 1396.714844 2303.707031 1405.035156 2303.738281 1415.332031 M 1380.339844 681.152344 C 1380.339844 700.734375 1364.472656 716.617188 1344.886719 716.632812 C 1325.304688 716.648438 1309.414062 700.792969 1309.382812 681.210938 C 1309.351562 661.625 1325.191406 645.722656 1344.773438 645.675781 C 1364.359375 645.628906 1380.277344 661.457031 1380.339844 681.039062 M 407.804688 2581.941406 C 407.804688 2597.078125 395.539062 2609.355469 380.398438 2609.367188 C 365.261719 2609.378906 352.976562 2597.121094 352.949219 2581.984375 C 352.925781 2566.84375 365.171875 2554.550781 380.3125 2554.511719 C 395.453125 2554.476562 407.757812 2566.714844 407.804688 2581.851562 M 2212.152344 1050.769531 C 2212.152344 1061.640625 2203.34375 1070.453125 2192.476562 1070.460938 C 2181.605469 1070.46875 2172.785156 1061.671875 2172.769531 1050.800781 C 2172.75 1039.933594 2181.542969 1031.105469 2192.414062 1031.078125 C 2203.28125 1031.050781 2212.117188 1039.839844 2212.152344 1050.707031 M 1693.976562 1982.648438 C 1693.976562 1986.246094 1691.0625 1989.164062 1687.464844 1989.167969 C 1683.867188 1989.171875 1680.949219 1986.257812 1680.941406 1982.660156 C 1680.9375 1979.0625 1683.847656 1976.140625 1687.445312 1976.132812 C 1691.042969 1976.125 1693.964844 1979.03125 1693.976562 1982.628906 M 1562.757812 697.160156 C 1562.757812 705.679688 1555.851562 712.589844 1547.332031 712.597656 C 1538.8125 712.601562 1531.898438 705.703125 1531.882812 697.183594 C 1531.871094 688.664062 1538.761719 681.742188 1547.28125 681.722656 C 1555.804688 681.703125 1562.730469 688.589844 1562.757812 697.109375 M 715.335938 1497.5 C 715.335938 1507.023438 707.617188 1514.746094 698.09375 1514.753906 C 688.570312 1514.761719 680.84375 1507.050781 680.828125 1497.527344 C 680.8125 1488.003906 688.515625 1480.269531 698.039062 1480.246094 C 707.5625 1480.222656 715.304688 1487.921875 715.332031 1497.445312 M 287.089844 1346.511719 C 287.089844 1355.355469 279.925781 1362.53125 271.078125 1362.535156 C 262.230469 1362.542969 255.050781 1355.382812 255.039062 1346.535156 C 255.023438 1337.6875 262.179688 1330.503906 271.027344 1330.484375 C 279.871094 1330.460938 287.0625 1337.613281 287.089844 1346.457031 M 1871.765625 1637.648438 C 1871.765625 1644.320312 1866.363281 1649.730469 1859.691406 1649.738281 C 1853.019531 1649.742188 1847.601562 1644.339844 1847.59375 1637.667969 C 1847.582031 1630.996094 1852.980469 1625.578125 1859.652344 1625.5625 C 1866.324219 1625.546875 1871.746094 1630.941406 1871.765625 1637.613281 M 1366.9375 1713.878906 C 1366.9375 1725.96875 1357.144531 1735.769531 1345.058594 1735.777344 C 1332.96875 1735.789062 1323.160156 1726 1323.140625 1713.914062 C 1323.121094 1701.828125 1332.902344 1692.011719 1344.988281 1691.980469 C 1357.074219 1691.953125 1366.898438 1701.722656 1366.9375 1713.808594 M 1058.324219 2100.070312 C 1058.324219 2113.511719 1047.429688 2124.410156 1033.988281 2124.421875 C 1020.546875 2124.433594 1009.640625 2113.550781 1009.617188 2100.109375 C 1009.597656 2086.667969 1020.46875 2075.75 1033.910156 2075.71875 C 1047.355469 2075.6875 1058.28125 2086.550781 1058.324219 2099.992188 M 819.378906 1249.910156 C 819.378906 1261.398438 810.070312 1270.710938 798.585938 1270.722656 C 787.097656 1270.730469 777.773438 1261.429688 777.757812 1249.941406 C 777.738281 1238.457031 787.03125 1229.125 798.519531 1229.097656 C 810.003906 1229.070312 819.34375 1238.355469 819.378906 1249.84375 M 1881.109375 1351.308594 C 1881.109375 1371.859375 1864.460938 1388.523438 1843.910156 1388.539062 C 1823.359375 1388.554688 1806.683594 1371.917969 1806.648438 1351.371094 C 1806.617188 1330.820312 1823.242188 1314.128906 1843.792969 1314.082031 C 1864.339844 1314.03125 1881.042969 1330.640625 1881.109375 1351.191406 M 2296.707031 1308.660156 C 2296.707031 1319.632812 2287.816406 1328.527344 2276.847656 1328.535156 C 2265.875 1328.542969 2256.972656 1319.664062 2256.953125 1308.691406 C 2256.9375 1297.722656 2265.8125 1288.808594 2276.78125 1288.785156 C 2287.753906 1288.757812 2296.671875 1297.625 2296.707031 1308.597656 M 1904.65625 2423.089844 C 1904.65625 2432.417969 1897.101562 2439.980469 1887.773438 2439.988281 C 1878.445312 2439.996094 1870.878906 2432.445312 1870.863281 2423.117188 C 1870.847656 2413.789062 1878.390625 2406.214844 1887.71875 2406.191406 C 1897.046875 2406.171875 1904.628906 2413.710938 1904.65625 2423.035156 M 2166.089844 1271.878906 C 2166.089844 1290.277344 2151.183594 1305.195312 2132.785156 1305.210938 C 2114.386719 1305.226562 2099.457031 1290.332031 2099.429688 1271.933594 C 2099.398438 1253.535156 2114.28125 1238.59375 2132.679688 1238.546875 C 2151.078125 1238.503906 2166.03125 1253.375 2166.089844 1271.773438 M 1550.90625 2250.800781 C 1550.90625 2256.617188 1546.195312 2261.332031 1540.378906 2261.339844 C 1534.5625 2261.34375 1529.839844 2256.632812 1529.832031 2250.816406 C 1529.824219 2245 1534.527344 2240.277344 1540.34375 2240.261719 C 1546.160156 2240.25 1550.890625 2244.949219 1550.90625 2250.765625 M 562.351562 1248.449219 C 562.351562 1268.339844 546.234375 1284.46875 526.34375 1284.484375 C 506.457031 1284.5 490.316406 1268.394531 490.285156 1248.507812 C 490.253906 1228.617188 506.34375 1212.464844 526.230469 1212.417969 C 546.121094 1212.371094 562.285156 1228.445312 562.347656 1248.335938 M 930.296875 654.277344 C 930.296875 658.804688 926.628906 662.476562 922.101562 662.480469 C 917.574219 662.484375 913.898438 658.820312 913.890625 654.292969 C 913.882812 649.761719 917.546875 646.085938 922.074219 646.074219 C 926.601562 646.0625 930.285156 649.722656 930.296875 654.25 M 1227.894531 1745.269531 C 1227.894531 1756.382812 1218.890625 1765.394531 1207.777344 1765.40625 C 1196.664062 1765.414062 1187.644531 1756.414062 1187.625 1745.300781 C 1187.609375 1734.1875 1196.597656 1725.160156 1207.710938 1725.136719 C 1218.824219 1725.109375 1227.859375 1734.09375 1227.894531 1745.207031 M 998.574219 1955.761719 C 998.574219 1967.046875 989.429688 1976.199219 978.144531 1976.207031 C 966.859375 1976.214844 957.699219 1967.078125 957.679688 1955.792969 C 957.664062 1944.507812 966.792969 1935.339844 978.078125 1935.3125 C 989.367188 1935.285156 998.539062 1944.410156 998.574219 1955.695312 M 369.882812 2569.839844 C 369.882812 2584.613281 357.910156 2596.59375 343.136719 2596.605469 C 328.359375 2596.617188 316.371094 2584.65625 316.347656 2569.882812 C 316.324219 2555.109375 328.277344 2543.109375 343.050781 2543.074219 C 357.824219 2543.039062 369.832031 2554.980469 369.882812 2569.753906 M 1046.558594 2350.488281 C 1046.558594 2354.683594 1043.160156 2358.085938 1038.964844 2358.089844 C 1034.773438 2358.09375 1031.367188 2354.695312 1031.359375 2350.503906 C 1031.355469 2346.308594 1034.746094 2342.902344 1038.941406 2342.890625 C 1043.136719 2342.882812 1046.546875 2346.273438 1046.558594 2350.464844 M 1392.226562 2011.699219 C 1392.226562 2034.386719 1373.847656 2052.78125 1351.164062 2052.796875 C 1328.476562 2052.816406 1310.070312 2034.449219 1310.03125 2011.765625 C 1309.996094 1989.082031 1328.347656 1970.65625 1351.03125 1970.601562 C 1373.714844 1970.546875 1392.15625 1988.882812 1392.226562 2011.570312 M 1094.285156 2117.359375 C 1094.285156 2136.382812 1078.871094 2151.8125 1059.847656 2151.828125 C 1040.824219 2151.839844 1025.382812 2136.4375 1025.355469 2117.414062 C 1025.324219 2098.390625 1040.714844 2082.9375 1059.738281 2082.894531 C 1078.761719 2082.847656 1094.226562 2098.226562 1094.285156 2117.25 M 1635.558594 696.804688 C 1635.558594 702.164062 1631.21875 706.511719 1625.859375 706.515625 C 1620.496094 706.519531 1616.148438 702.179688 1616.140625 696.820312 C 1616.132812 691.460938 1620.46875 687.105469 1625.828125 687.09375 C 1631.1875 687.082031 1635.542969 691.414062 1635.558594 696.773438 M 1680.09375 2507.101562 C 1680.09375 2511.859375 1676.238281 2515.71875 1671.476562 2515.722656 C 1666.714844 2515.726562 1662.855469 2511.875 1662.847656 2507.113281 C 1662.839844 2502.355469 1666.6875 2498.488281 1671.449219 2498.476562 C 1676.210938 2498.464844 1680.078125 2502.3125 1680.09375 2507.074219 M 384.09375 2386.25 C 384.09375 2390.183594 380.90625 2393.371094 376.972656 2393.375 C 373.039062 2393.378906 369.847656 2390.195312 369.84375 2386.261719 C 369.835938 2382.328125 373.019531 2379.132812 376.949219 2379.125 C 380.882812 2379.113281 384.082031 2382.292969 384.09375 2386.226562 M 1703.351562 1047.210938 C 1703.351562 1051.117188 1700.183594 1054.289062 1696.277344 1054.289062 C 1692.367188 1054.292969 1689.195312 1051.128906 1689.1875 1047.222656 C 1689.183594 1043.3125 1692.34375 1040.136719 1696.253906 1040.128906 C 1700.160156 1040.121094 1703.339844 1043.277344 1703.351562 1047.1875 M 1842.261719 1367.808594 C 1842.261719 1385.472656 1827.949219 1399.796875 1810.285156 1399.808594 C 1792.621094 1399.824219 1778.289062 1385.523438 1778.261719 1367.859375 C 1778.230469 1350.199219 1792.519531 1335.851562 1810.183594 1335.808594 C 1827.847656 1335.769531 1842.203125 1350.042969 1842.261719 1367.707031 M 656.574219 1455.230469 C 656.574219 1477.746094 638.332031 1496.003906 615.816406 1496.019531 C 593.300781 1496.039062 575.03125 1477.808594 574.992188 1455.296875 C 574.957031 1432.78125 593.171875 1414.492188 615.6875 1414.441406 C 638.203125 1414.386719 656.503906 1432.585938 656.574219 1455.101562 M 2174.382812 1686.570312 C 2174.382812 1690.574219 2171.140625 1693.820312 2167.136719 1693.824219 C 2163.132812 1693.828125 2159.882812 1690.585938 2159.875 1686.582031 C 2159.871094 1682.578125 2163.109375 1679.324219 2167.113281 1679.316406 C 2171.117188 1679.304688 2174.371094 1682.542969 2174.382812 1686.546875 M 1468.226562 1783.140625 C 1468.226562 1793.113281 1460.148438 1801.199219 1450.175781 1801.207031 C 1440.203125 1801.214844 1432.109375 1793.140625 1432.09375 1783.167969 C 1432.074219 1773.195312 1440.144531 1765.097656 1450.117188 1765.070312 C 1460.089844 1765.046875 1468.195312 1773.109375 1468.226562 1783.082031 M 437.96875 1518.789062 C 437.96875 1531.453125 427.710938 1541.722656 415.046875 1541.730469 C 402.382812 1541.742188 392.109375 1531.488281 392.089844 1518.828125 C 392.066406 1506.164062 402.3125 1495.878906 414.972656 1495.847656 C 427.636719 1495.820312 437.929688 1506.054688 437.96875 1518.71875 M 2113.773438 1066.449219 C 2113.773438 1084.585938 2099.082031 1099.289062 2080.945312 1099.304688 C 2062.8125 1099.320312 2048.09375 1084.636719 2048.066406 1066.503906 C 2048.035156 1048.367188 2062.707031 1033.640625 2080.839844 1033.59375 C 2098.976562 1033.550781 2113.714844 1048.210938 2113.773438 1066.34375 M 2051.242188 2331.769531 C 2051.242188 2336.453125 2047.449219 2340.25 2042.765625 2340.253906 C 2038.085938 2340.257812 2034.285156 2336.464844 2034.277344 2331.785156 C 2034.269531 2327.101562 2038.058594 2323.300781 2042.738281 2323.289062 C 2047.421875 2323.277344 2051.226562 2327.0625 2051.242188 2331.742188 M 2033.378906 2512.371094 C 2033.378906 2526.078125 2022.269531 2537.195312 2008.558594 2537.207031 C 1994.851562 2537.21875 1983.722656 2526.121094 1983.703125 2512.410156 C 1983.679688 2498.699219 1994.769531 2487.566406 2008.480469 2487.53125 C 2022.191406 2487.5 2033.335938 2498.582031 2033.378906 2512.289062 M 941.730469 1449.539062 C 941.730469 1454.457031 937.746094 1458.445312 932.832031 1458.449219 C 927.914062 1458.453125 923.921875 1454.472656 923.914062 1449.554688 C 923.90625 1444.636719 927.882812 1440.640625 932.800781 1440.628906 C 937.71875 1440.617188 941.714844 1444.59375 941.730469 1449.511719 M 2061.871094 2426.171875 C 2061.871094 2433.164062 2056.207031 2438.835938 2049.210938 2438.84375 C 2042.214844 2438.847656 2036.539062 2433.183594 2036.527344 2426.191406 C 2036.515625 2419.195312 2042.175781 2413.515625 2049.167969 2413.496094 C 2056.164062 2413.480469 2061.851562 2419.132812 2061.871094 2426.128906 M 556.695312 949.3125 C 556.695312 959.324219 548.585938 967.445312 538.574219 967.453125 C 528.558594 967.460938 520.433594 959.355469 520.417969 949.34375 C 520.402344 939.328125 528.503906 931.199219 538.515625 931.175781 C 548.527344 931.148438 556.664062 939.242188 556.695312 949.253906 M 1595.574219 699.773438 C 1595.574219 709.59375 1587.613281 717.558594 1577.792969 717.566406 C 1567.972656 717.574219 1560.003906 709.621094 1559.988281 699.800781 C 1559.972656 689.980469 1567.917969 682.003906 1577.738281 681.980469 C 1587.558594 681.957031 1595.542969 689.894531 1595.574219 699.714844 M 1143.648438 803.558594 C 1143.648438 817.109375 1132.667969 828.097656 1119.121094 828.105469 C 1105.570312 828.117188 1094.574219 817.148438 1094.554688 803.597656 C 1094.53125 790.050781 1105.492188 779.046875 1119.042969 779.011719 C 1132.589844 778.980469 1143.605469 789.933594 1143.648438 803.480469 M 912 2089.390625 C 912 2095.628906 906.945312 2100.6875 900.703125 2100.695312 C 894.464844 2100.699219 889.402344 2095.648438 889.390625 2089.40625 C 889.382812 2083.167969 894.429688 2078.101562 900.667969 2078.085938 C 906.910156 2078.070312 911.980469 2083.113281 912 2089.355469 M 648.953125 1010.25 C 648.953125 1023.816406 637.960938 1034.816406 624.394531 1034.828125 C 610.828125 1034.839844 599.820312 1023.855469 599.796875 1010.289062 C 599.777344 996.722656 610.75 985.703125 624.316406 985.671875 C 637.882812 985.636719 648.910156 996.605469 648.953125 1010.171875 M 1736.265625 1044.890625 C 1736.265625 1049.480469 1732.546875 1053.203125 1727.957031 1053.207031 C 1723.367188 1053.210938 1719.640625 1049.492188 1719.632812 1044.902344 C 1719.625 1040.3125 1723.339844 1036.585938 1727.929688 1036.574219 C 1732.519531 1036.5625 1736.25 1040.273438 1736.265625 1044.863281 M 435.984375 1485.171875 C 435.984375 1499.550781 424.332031 1511.214844 409.949219 1511.222656 C 395.566406 1511.234375 383.898438 1499.59375 383.875 1485.210938 C 383.851562 1470.832031 395.484375 1459.148438 409.867188 1459.117188 C 424.25 1459.082031 435.9375 1470.707031 435.984375 1485.085938 M 1111.953125 845.375 C 1111.953125 852.550781 1106.136719 858.371094 1098.960938 858.378906 C 1091.78125 858.382812 1085.957031 852.574219 1085.945312 845.394531 C 1085.933594 838.21875 1091.742188 832.390625 1098.917969 832.371094 C 1106.097656 832.355469 1111.929688 838.15625 1111.953125 845.332031 M 692.6875 1599.558594 C 692.6875 1609.777344 684.410156 1618.0625 674.191406 1618.070312 C 663.972656 1618.078125 655.679688 1609.808594 655.664062 1599.589844 C 655.648438 1589.371094 663.914062 1581.074219 674.132812 1581.046875 C 684.351562 1581.023438 692.65625 1589.285156 692.6875 1599.5 M 1730.140625 2004.230469 C 1730.140625 2009.027344 1726.253906 2012.914062 1721.457031 2012.917969 C 1716.660156 2012.921875 1712.769531 2009.039062 1712.761719 2004.242188 C 1712.753906 1999.449219 1716.632812 1995.550781 1721.429688 1995.539062 C 1726.226562 1995.527344 1730.125 1999.40625 1730.140625 2004.203125 M 1426.609375 1901.511719 C 1426.609375 1922.675781 1409.457031 1939.84375 1388.289062 1939.859375 C 1367.125 1939.875 1349.945312 1922.738281 1349.910156 1901.570312 C 1349.878906 1880.402344 1367 1863.210938 1388.167969 1863.160156 C 1409.335938 1863.109375 1426.542969 1880.21875 1426.609375 1901.386719 M 1403.726562 2247.789062 C 1403.726562 2261.40625 1392.695312 2272.445312 1379.078125 2272.457031 C 1365.464844 2272.46875 1354.414062 2261.445312 1354.394531 2247.828125 C 1354.371094 2234.214844 1365.386719 2223.15625 1379 2223.125 C 1392.617188 2223.089844 1403.683594 2234.097656 1403.726562 2247.710938 M 1714.402344 1548.28125 C 1714.402344 1552.375 1711.082031 1555.699219 1706.984375 1555.699219 C 1702.890625 1555.703125 1699.566406 1552.386719 1699.558594 1548.292969 C 1699.550781 1544.195312 1702.867188 1540.867188 1706.960938 1540.859375 C 1711.058594 1540.847656 1714.386719 1544.160156 1714.402344 1548.257812 M 572.335938 1688.058594 C 572.335938 1691.804688 569.300781 1694.84375 565.554688 1694.847656 C 561.808594 1694.847656 558.769531 1691.816406 558.761719 1688.070312 C 558.757812 1684.324219 561.785156 1681.28125 565.53125 1681.273438 C 569.277344 1681.265625 572.320312 1684.292969 572.332031 1688.039062 M 430.492188 912.539062 C 430.492188 918.683594 425.515625 923.664062 419.371094 923.667969 C 413.230469 923.671875 408.242188 918.699219 408.234375 912.558594 C 408.222656 906.414062 413.191406 901.425781 419.335938 901.410156 C 425.480469 901.394531 430.472656 906.359375 430.492188 912.503906 M 2108.585938 1063.191406 C 2108.585938 1082.214844 2093.171875 1097.640625 2074.148438 1097.65625 C 2055.125 1097.671875 2039.683594 1082.269531 2039.65625 1063.246094 C 2039.625 1044.222656 2055.015625 1028.769531 2074.039062 1028.726562 C 2093.0625 1028.679688 2108.523438 1044.058594 2108.585938 1063.082031 M 353.746094 1185.710938 C 353.746094 1198.523438 343.363281 1208.914062 330.546875 1208.925781 C 317.734375 1208.933594 307.335938 1198.5625 307.316406 1185.746094 C 307.292969 1172.933594 317.660156 1162.527344 330.472656 1162.496094 C 343.289062 1162.464844 353.703125 1172.820312 353.746094 1185.636719 M 1227.089844 1582.53125 C 1227.089844 1586.773438 1223.648438 1590.214844 1219.40625 1590.21875 C 1215.164062 1590.222656 1211.71875 1586.785156 1211.710938 1582.542969 C 1211.707031 1578.296875 1215.136719 1574.851562 1219.382812 1574.84375 C 1223.625 1574.832031 1227.074219 1578.261719 1227.089844 1582.503906 M 1652.457031 636.335938 C 1652.457031 641.3125 1648.425781 645.347656 1643.445312 645.351562 C 1638.46875 645.355469 1634.429688 641.328125 1634.421875 636.347656 C 1634.414062 631.371094 1638.441406 627.328125 1643.417969 627.316406 C 1648.394531 627.304688 1652.441406 631.328125 1652.457031 636.304688 M 1175.765625 1921.960938 C 1175.765625 1936.921875 1163.644531 1949.054688 1148.679688 1949.066406 C 1133.71875 1949.078125 1121.578125 1936.964844 1121.554688 1922.003906 C 1121.53125 1907.042969 1133.632812 1894.890625 1148.59375 1894.855469 C 1163.558594 1894.816406 1175.71875 1906.910156 1175.765625 1921.875 M 1140.503906 1641.890625 C 1140.503906 1647.246094 1136.164062 1651.585938 1130.808594 1651.59375 C 1125.453125 1651.597656 1121.105469 1647.261719 1121.097656 1641.90625 C 1121.089844 1636.550781 1125.421875 1632.199219 1130.777344 1632.1875 C 1136.132812 1632.175781 1140.484375 1636.503906 1140.503906 1641.859375 M 421.621094 1279.839844 C 421.621094 1303.988281 402.054688 1323.570312 377.90625 1323.589844 C 353.757812 1323.609375 334.160156 1304.058594 334.125 1279.910156 C 334.085938 1255.761719 353.621094 1236.148438 377.769531 1236.089844 C 401.917969 1236.03125 421.546875 1255.550781 421.621094 1279.699219 M 678.453125 2573.660156 C 678.453125 2587.648438 667.121094 2598.988281 653.132812 2599 C 639.148438 2599.011719 627.796875 2587.6875 627.773438 2573.699219 C 627.753906 2559.714844 639.066406 2548.355469 653.054688 2548.320312 C 667.039062 2548.285156 678.410156 2559.59375 678.453125 2573.578125 M 2066.003906 1522.359375 C 2066.003906 1541.316406 2050.644531 1556.6875 2031.6875 1556.703125 C 2012.730469 1556.71875 1997.347656 1541.371094 1997.316406 1522.414062 C 1997.289062 1503.457031 2012.621094 1488.0625 2031.578125 1488.019531 C 2050.535156 1487.972656 2065.941406 1503.292969 2066 1522.25 M 2137.359375 2395.578125 C 2137.359375 2400.226562 2133.59375 2403.996094 2128.945312 2404 C 2124.296875 2404.003906 2120.527344 2400.242188 2120.519531 2395.59375 C 2120.511719 2390.945312 2124.273438 2387.171875 2128.917969 2387.160156 C 2133.566406 2387.148438 2137.34375 2390.90625 2137.359375 2395.554688 M 1242.351562 1704.578125 C 1242.351562 1712.484375 1235.945312 1718.894531 1228.042969 1718.902344 C 1220.136719 1718.90625 1213.722656 1712.507812 1213.707031 1704.601562 C 1213.695312 1696.699219 1220.089844 1690.277344 1227.996094 1690.257812 C 1235.902344 1690.238281 1242.328125 1696.628906 1242.351562 1704.535156 M 985.15625 841.539062 C 985.15625 845.792969 981.710938 849.242188 977.460938 849.242188 C 973.207031 849.246094 969.757812 845.804688 969.75 841.554688 C 969.746094 837.300781 973.183594 833.847656 977.4375 833.839844 C 981.6875 833.828125 985.144531 837.265625 985.15625 841.515625 M 486.722656 1298.550781 C 486.722656 1314.546875 473.761719 1327.519531 457.765625 1327.53125 C 441.765625 1327.542969 428.785156 1314.59375 428.761719 1298.597656 C 428.734375 1282.597656 441.675781 1269.605469 457.671875 1269.570312 C 473.667969 1269.53125 486.671875 1282.460938 486.722656 1298.457031 M 2067.796875 1101.828125 C 2067.796875 1117.167969 2055.371094 1129.605469 2040.03125 1129.617188 C 2024.695312 1129.628906 2012.25 1117.210938 2012.222656 1101.875 C 2012.199219 1086.535156 2024.605469 1074.082031 2039.945312 1074.042969 C 2055.28125 1074.007812 2067.746094 1086.40625 2067.796875 1101.742188 M 1605.535156 1895.03125 C 1605.535156 1901.328125 1600.429688 1906.4375 1594.128906 1906.445312 C 1587.828125 1906.449219 1582.714844 1901.347656 1582.707031 1895.046875 C 1582.695312 1888.75 1587.792969 1883.632812 1594.09375 1883.617188 C 1600.394531 1883.601562 1605.511719 1888.695312 1605.535156 1894.992188 M 417.609375 1287.660156 C 417.609375 1304.703125 403.800781 1318.523438 386.757812 1318.535156 C 369.714844 1318.550781 355.886719 1304.75 355.859375 1287.710938 C 355.832031 1270.667969 369.617188 1256.824219 386.660156 1256.785156 C 403.703125 1256.742188 417.554688 1270.519531 417.609375 1287.5625 M 1316.308594 2132.449219 C 1316.308594 2150.945312 1301.324219 2165.945312 1282.828125 2165.960938 C 1264.328125 2165.976562 1249.320312 2151 1249.289062 2132.503906 C 1249.261719 2114.007812 1264.222656 2098.984375 1282.71875 2098.941406 C 1301.214844 2098.894531 1316.25 2113.847656 1316.308594 2132.34375 M 1650.285156 2500.910156 C 1650.285156 2504.488281 1647.382812 2507.390625 1643.804688 2507.394531 C 1640.226562 2507.394531 1637.324219 2504.5 1637.316406 2500.921875 C 1637.3125 2497.339844 1640.207031 2494.433594 1643.785156 2494.425781 C 1647.363281 2494.417969 1650.273438 2497.3125 1650.285156 2500.890625 M 1128.628906 874.851562 C 1128.628906 880.648438 1123.933594 885.347656 1118.136719 885.351562 C 1112.34375 885.355469 1107.640625 880.664062 1107.632812 874.871094 C 1107.621094 869.074219 1112.308594 864.367188 1118.105469 864.355469 C 1123.898438 864.339844 1128.609375 869.023438 1128.628906 874.820312 M 1353.902344 2031.011719 C 1353.902344 2055.722656 1333.878906 2075.765625 1309.164062 2075.785156 C 1284.453125 2075.804688 1264.394531 2055.796875 1264.355469 2031.082031 C 1264.316406 2006.367188 1284.308594 1986.296875 1309.023438 1986.234375 C 1333.738281 1986.175781 1353.824219 2006.152344 1353.902344 2030.867188 M 1483.90625 715.042969 C 1483.90625 730.492188 1471.390625 743.015625 1455.941406 743.027344 C 1440.492188 743.042969 1427.957031 730.535156 1427.933594 715.085938 C 1427.90625 699.636719 1440.40625 687.089844 1455.851562 687.054688 C 1471.300781 687.019531 1483.859375 699.503906 1483.90625 714.953125 M 1870.859375 2657.390625 C 1870.859375 2671.167969 1859.695312 2682.335938 1845.917969 2682.347656 C 1832.144531 2682.359375 1820.964844 2671.207031 1820.941406 2657.429688 C 1820.921875 2643.652344 1832.0625 2632.464844 1845.839844 2632.433594 C 1859.617188 2632.398438 1870.8125 2643.535156 1870.859375 2657.308594 M 2102.550781 1110.558594 C 2102.550781 1125.25 2090.652344 1137.160156 2075.960938 1137.171875 C 2061.273438 1137.183594 2049.351562 1125.292969 2049.328125 1110.601562 C 2049.304688 1095.914062 2061.1875 1083.984375 2075.875 1083.949219 C 2090.566406 1083.914062 2102.503906 1095.785156 2102.550781 1110.476562 M 1450.152344 656.296875 C 1450.152344 677.167969 1433.242188 694.09375 1412.371094 694.109375 C 1391.5 694.125 1374.5625 677.226562 1374.527344 656.355469 C 1374.496094 635.484375 1391.378906 618.535156 1412.25 618.484375 C 1433.121094 618.433594 1450.085938 635.304688 1450.152344 656.175781 M 1741.882812 1425.539062 C 1741.882812 1433.351562 1735.554688 1439.6875 1727.742188 1439.691406 C 1719.929688 1439.699219 1713.589844 1433.375 1713.578125 1425.5625 C 1713.566406 1417.75 1719.882812 1411.40625 1727.695312 1411.386719 C 1735.507812 1411.371094 1741.855469 1417.683594 1741.882812 1425.496094 M 1373.757812 2446.378906 C 1373.757812 2450.484375 1370.433594 2453.816406 1366.324219 2453.820312 C 1362.21875 2453.820312 1358.886719 2450.496094 1358.882812 2446.390625 C 1358.875 2442.285156 1362.195312 2438.949219 1366.300781 2438.941406 C 1370.410156 2438.929688 1373.746094 2442.25 1373.757812 2446.355469 M 1253.578125 1920.859375 C 1253.578125 1936.695312 1240.75 1949.535156 1224.914062 1949.550781 C 1209.078125 1949.5625 1196.226562 1936.742188 1196.199219 1920.90625 C 1196.175781 1905.070312 1208.984375 1892.207031 1224.820312 1892.171875 C 1240.65625 1892.132812 1253.527344 1904.933594 1253.578125 1920.769531 M 1974.320312 1563.949219 C 1974.320312 1576.382812 1964.25 1586.460938 1951.816406 1586.472656 C 1939.386719 1586.480469 1929.300781 1576.417969 1929.277344 1563.984375 C 1929.257812 1551.554688 1939.316406 1541.457031 1951.746094 1541.429688 C 1964.175781 1541.398438 1974.28125 1551.449219 1974.320312 1563.878906 M 1583.238281 2120.351562 C 1583.238281 2131.085938 1574.539062 2139.789062 1563.804688 2139.796875 C 1553.070312 2139.808594 1544.359375 2131.117188 1544.34375 2120.382812 C 1544.324219 2109.644531 1553.007812 2100.925781 1563.742188 2100.902344 C 1574.476562 2100.875 1583.203125 2109.554688 1583.238281 2120.289062 M 294.902344 1344.578125 C 294.902344 1354.65625 286.738281 1362.828125 276.664062 1362.835938 C 266.585938 1362.84375 258.410156 1354.683594 258.394531 1344.609375 C 258.375 1334.53125 266.527344 1326.347656 276.605469 1326.324219 C 286.679688 1326.300781 294.871094 1334.445312 294.902344 1344.523438 M 2253.609375 2572.019531 C 2253.609375 2585.421875 2242.75 2596.289062 2229.347656 2596.296875 C 2215.949219 2596.308594 2205.074219 2585.460938 2205.050781 2572.058594 C 2205.03125 2558.65625 2215.871094 2547.773438 2229.273438 2547.742188 C 2242.671875 2547.710938 2253.566406 2558.542969 2253.609375 2571.941406 M 1016.398438 1932.121094 C 1016.398438 1945.339844 1005.6875 1956.058594 992.46875 1956.070312 C 979.25 1956.078125 968.523438 1945.378906 968.5 1932.15625 C 968.480469 1918.9375 979.171875 1908.203125 992.390625 1908.171875 C 1005.609375 1908.140625 1016.355469 1918.824219 1016.398438 1932.042969 M 651.1875 2476.210938 C 651.1875 2487.34375 642.167969 2496.371094 631.035156 2496.378906 C 619.902344 2496.390625 610.867188 2487.375 610.847656 2476.242188 C 610.832031 2465.109375 619.835938 2456.066406 630.96875 2456.039062 C 642.101562 2456.011719 651.152344 2465.011719 651.1875 2476.144531 M 484.175781 2305.851562 C 484.175781 2310.425781 480.46875 2314.136719 475.894531 2314.140625 C 471.316406 2314.144531 467.605469 2310.4375 467.597656 2305.863281 C 467.589844 2301.289062 471.289062 2297.570312 475.867188 2297.5625 C 480.441406 2297.550781 484.160156 2301.25 484.175781 2305.824219 M 686.929688 2528.761719 C 686.929688 2541.53125 676.582031 2551.886719 663.8125 2551.898438 C 651.039062 2551.90625 640.675781 2541.566406 640.65625 2528.796875 C 640.636719 2516.027344 650.96875 2505.652344 663.738281 2505.625 C 676.507812 2505.59375 686.890625 2515.914062 686.929688 2528.6875 M 2246.34375 1560.21875 C 2246.34375 1568.039062 2240.007812 1574.378906 2232.191406 1574.382812 C 2224.375 1574.390625 2218.027344 1568.058594 2218.015625 1560.242188 C 2218.003906 1552.425781 2224.328125 1546.074219 2232.144531 1546.054688 C 2239.964844 1546.039062 2246.320312 1552.355469 2246.34375 1560.175781 M 1942.792969 1491.589844 C 1942.792969 1506.382812 1930.804688 1518.378906 1916.011719 1518.394531 C 1901.21875 1518.40625 1889.210938 1506.425781 1889.1875 1491.632812 C 1889.164062 1476.839844 1901.132812 1464.824219 1915.925781 1464.789062 C 1930.71875 1464.753906 1942.746094 1476.710938 1942.792969 1491.503906 M 1508.847656 2099.441406 C 1508.847656 2113.332031 1497.59375 2124.597656 1483.699219 2124.609375 C 1469.808594 2124.617188 1458.535156 2113.371094 1458.511719 2099.480469 C 1458.488281 2085.589844 1469.726562 2074.304688 1483.621094 2074.273438 C 1497.511719 2074.238281 1508.804688 2085.46875 1508.847656 2099.359375 M 1345.941406 2307.960938 C 1345.941406 2316.949219 1338.660156 2324.234375 1329.671875 2324.242188 C 1320.683594 2324.25 1313.390625 2316.972656 1313.378906 2307.984375 C 1313.363281 2299 1320.632812 2291.699219 1329.621094 2291.675781 C 1338.609375 2291.65625 1345.914062 2298.921875 1345.941406 2307.90625 M 1332.085938 1841.671875 C 1332.085938 1861.855469 1315.734375 1878.222656 1295.550781 1878.238281 C 1275.363281 1878.253906 1258.984375 1861.914062 1258.953125 1841.726562 C 1258.921875 1821.542969 1275.25 1805.152344 1295.433594 1805.101562 C 1315.617188 1805.054688 1332.023438 1821.371094 1332.085938 1841.554688 M 329.804688 1602.53125 C 329.804688 1606.941406 326.234375 1610.515625 321.824219 1610.519531 C 317.410156 1610.523438 313.832031 1606.953125 313.824219 1602.542969 C 313.820312 1598.132812 317.386719 1594.550781 321.796875 1594.539062 C 326.207031 1594.53125 329.792969 1598.09375 329.804688 1602.503906 M 1950.964844 1095.910156 C 1950.964844 1112.820312 1937.261719 1126.53125 1920.355469 1126.542969 C 1903.445312 1126.558594 1889.722656 1112.867188 1889.695312 1095.957031 C 1889.667969 1079.050781 1903.347656 1065.316406 1920.257812 1065.277344 C 1937.164062 1065.234375 1950.910156 1078.902344 1950.964844 1095.8125 M 1256.859375 1578.648438 C 1256.859375 1583.042969 1253.300781 1586.605469 1248.90625 1586.609375 C 1244.511719 1586.613281 1240.945312 1583.054688 1240.941406 1578.664062 C 1240.933594 1574.269531 1244.488281 1570.699219 1248.882812 1570.691406 C 1253.273438 1570.679688 1256.847656 1574.230469 1256.859375 1578.625 M 2271.371094 1325.609375 C 2271.371094 1345.042969 2255.628906 1360.796875 2236.199219 1360.8125 C 2216.765625 1360.828125 2200.996094 1345.097656 2200.96875 1325.667969 C 2200.9375 1306.234375 2216.65625 1290.453125 2236.085938 1290.40625 C 2255.515625 1290.359375 2271.3125 1306.066406 2271.371094 1325.496094 M 2257.394531 1068.101562 C 2257.394531 1075.804688 2251.15625 1082.050781 2243.449219 1082.054688 C 2235.746094 1082.0625 2229.496094 1075.824219 2229.484375 1068.121094 C 2229.472656 1060.417969 2235.703125 1054.164062 2243.40625 1054.144531 C 2251.109375 1054.125 2257.371094 1060.351562 2257.394531 1068.054688 M 2126.699219 1510.570312 C 2126.699219 1527.453125 2113.019531 1541.144531 2096.132812 1541.15625 C 2079.25 1541.171875 2065.546875 1527.503906 2065.523438 1510.617188 C 2065.496094 1493.734375 2079.152344 1480.023438 2096.035156 1479.980469 C 2112.921875 1479.941406 2126.644531 1493.589844 2126.699219 1510.472656 M 1549.6875 1921.589844 C 1549.6875 1929.894531 1542.957031 1936.628906 1534.652344 1936.636719 C 1526.347656 1936.640625 1519.609375 1929.917969 1519.59375 1921.613281 C 1519.582031 1913.308594 1526.300781 1906.5625 1534.605469 1906.542969 C 1542.910156 1906.523438 1549.660156 1913.238281 1549.6875 1921.542969 M 2109.578125 922.964844 C 2109.578125 930.011719 2103.867188 935.726562 2096.820312 935.734375 C 2089.773438 935.738281 2084.050781 930.035156 2084.042969 922.984375 C 2084.03125 915.9375 2089.730469 910.210938 2096.78125 910.195312 C 2103.828125 910.179688 2109.554688 915.875 2109.578125 922.925781 M 345.722656 2554.480469 C 345.722656 2563.359375 338.53125 2570.554688 329.652344 2570.5625 C 320.777344 2570.570312 313.570312 2563.382812 313.558594 2554.503906 C 313.542969 2545.628906 320.726562 2538.417969 329.601562 2538.398438 C 338.480469 2538.375 345.695312 2545.550781 345.722656 2554.429688 M 1699.867188 1528.839844 C 1699.867188 1532.488281 1696.914062 1535.445312 1693.265625 1535.449219 C 1689.617188 1535.453125 1686.65625 1532.5 1686.652344 1528.851562 C 1686.644531 1525.203125 1689.597656 1522.238281 1693.246094 1522.230469 C 1696.890625 1522.222656 1699.855469 1525.171875 1699.867188 1528.820312 M 1757.652344 635.210938 C 1757.652344 638.558594 1754.941406 641.273438 1751.59375 641.277344 C 1748.246094 641.277344 1745.53125 638.570312 1745.527344 635.222656 C 1745.519531 631.875 1748.226562 629.15625 1751.574219 629.148438 C 1754.921875 629.140625 1757.644531 631.84375 1757.652344 635.191406 M 1521.902344 2190.761719 C 1521.902344 2203.417969 1511.648438 2213.683594 1498.988281 2213.691406 C 1486.328125 2213.703125 1476.058594 2203.457031 1476.035156 2190.796875 C 1476.015625 2178.136719 1486.257812 2167.855469 1498.914062 2167.828125 C 1511.574219 2167.796875 1521.863281 2178.027344 1521.902344 2190.6875 M 823.777344 2567.03125 C 823.777344 2577.082031 815.632812 2585.234375 805.578125 2585.242188 C 795.527344 2585.25 787.367188 2577.113281 787.351562 2567.058594 C 787.335938 2557.003906 795.46875 2548.839844 805.523438 2548.816406 C 815.574219 2548.792969 823.746094 2556.917969 823.777344 2566.972656 M 1108.644531 1914.839844 C 1108.644531 1929.933594 1096.414062 1942.171875 1081.320312 1942.183594 C 1066.226562 1942.195312 1053.980469 1929.976562 1053.953125 1914.882812 C 1053.929688 1899.789062 1066.140625 1887.53125 1081.234375 1887.496094 C 1096.328125 1887.460938 1108.597656 1899.660156 1108.644531 1914.753906 M 1415.113281 1865.011719 C 1415.113281 1888.007812 1396.480469 1906.652344 1373.484375 1906.671875 C 1350.488281 1906.691406 1331.824219 1888.074219 1331.789062 1865.078125 C 1331.75 1842.082031 1350.355469 1823.402344 1373.351562 1823.347656 C 1396.347656 1823.292969 1415.039062 1841.882812 1415.113281 1864.878906 M 552.449219 1566.351562 C 552.449219 1576.945312 543.863281 1585.535156 533.269531 1585.542969 C 522.675781 1585.550781 514.078125 1576.976562 514.058594 1566.378906 C 514.042969 1555.785156 522.613281 1547.183594 533.207031 1547.15625 C 543.800781 1547.132812 552.414062 1555.695312 552.449219 1566.289062 M 928.617188 2664.519531 C 928.617188 2672.074219 922.496094 2678.199219 914.941406 2678.207031 C 907.386719 2678.210938 901.257812 2672.097656 901.246094 2664.542969 C 901.234375 2656.988281 907.34375 2650.851562 914.898438 2650.835938 C 922.453125 2650.816406 928.59375 2656.921875 928.617188 2664.476562 M 2097.035156 2550.21875 C 2097.035156 2563.089844 2086.609375 2573.523438 2073.738281 2573.535156 C 2060.871094 2573.546875 2050.425781 2563.125 2050.40625 2550.257812 C 2050.382812 2537.386719 2060.796875 2526.9375 2073.664062 2526.90625 C 2086.535156 2526.875 2096.992188 2537.277344 2097.035156 2550.144531 M 1229.914062 2069.671875 C 1229.914062 2085.707031 1216.917969 2098.710938 1200.882812 2098.722656 C 1184.847656 2098.734375 1171.832031 2085.753906 1171.808594 2069.714844 C 1171.78125 2053.679688 1184.753906 2040.65625 1200.789062 2040.617188 C 1216.828125 2040.578125 1229.863281 2053.542969 1229.914062 2069.578125 M 1993.515625 1339.710938 C 1993.515625 1357.050781 1979.464844 1371.109375 1962.125 1371.125 C 1944.785156 1371.136719 1930.714844 1357.101562 1930.683594 1339.761719 C 1930.65625 1322.421875 1944.683594 1308.335938 1962.023438 1308.296875 C 1979.363281 1308.253906 1993.460938 1322.269531 1993.515625 1339.609375 M 763.601562 1020.859375 C 763.601562 1026.757812 758.824219 1031.542969 752.925781 1031.546875 C 747.027344 1031.550781 742.238281 1026.773438 742.230469 1020.878906 C 742.222656 1014.980469 746.992188 1010.1875 752.890625 1010.175781 C 758.789062 1010.160156 763.582031 1014.925781 763.601562 1020.824219 M 2288.457031 1368.539062 C 2288.457031 1381.785156 2277.722656 1392.527344 2264.480469 1392.535156 C 2251.234375 1392.546875 2240.484375 1381.824219 2240.464844 1368.578125 C 2240.441406 1355.332031 2251.15625 1344.574219 2264.402344 1344.542969 C 2277.648438 1344.511719 2288.414062 1355.21875 2288.457031 1368.464844 M 314.21875 969.761719 C 314.21875 973.292969 311.355469 976.15625 307.824219 976.160156 C 304.292969 976.164062 301.425781 973.304688 301.421875 969.773438 C 301.414062 966.238281 304.273438 963.371094 307.804688 963.363281 C 311.335938 963.355469 314.207031 966.210938 314.21875 969.742188 M 855.660156 2574.398438 C 855.660156 2581.28125 850.085938 2586.863281 843.203125 2586.867188 C 836.320312 2586.875 830.734375 2581.300781 830.722656 2574.417969 C 830.710938 2567.539062 836.28125 2561.949219 843.164062 2561.929688 C 850.042969 2561.914062 855.640625 2567.476562 855.660156 2574.359375 M 323.125 1447.898438 C 323.125 1458.074219 314.882812 1466.328125 304.707031 1466.335938 C 294.53125 1466.34375 286.273438 1458.105469 286.257812 1447.929688 C 286.242188 1437.753906 294.472656 1429.488281 304.648438 1429.464844 C 314.824219 1429.441406 323.09375 1437.664062 323.125 1447.839844 M 1196.769531 1911.269531 C 1196.769531 1925.699219 1185.078125 1937.398438 1170.652344 1937.410156 C 1156.222656 1937.421875 1144.511719 1925.742188 1144.488281 1911.3125 C 1144.464844 1896.882812 1156.136719 1885.164062 1170.566406 1885.128906 C 1184.996094 1885.09375 1196.722656 1896.757812 1196.769531 1911.1875 M 1079.226562 2133.96875 C 1079.226562 2149.902344 1066.316406 2162.820312 1050.382812 2162.835938 C 1034.449219 2162.847656 1021.519531 2149.949219 1021.496094 2134.015625 C 1021.46875 2118.082031 1034.359375 2105.144531 1050.292969 2105.105469 C 1066.222656 2105.066406 1079.171875 2117.945312 1079.222656 2133.878906 M 746.878906 1677.351562 C 746.878906 1680.964844 743.953125 1683.894531 740.335938 1683.898438 C 736.722656 1683.902344 733.789062 1680.976562 733.785156 1677.359375 C 733.777344 1673.746094 736.703125 1670.8125 740.316406 1670.800781 C 743.929688 1670.792969 746.867188 1673.714844 746.878906 1677.328125 M 1102.976562 1848.390625 C 1102.976562 1865.183594 1089.367188 1878.804688 1072.574219 1878.816406 C 1055.78125 1878.828125 1042.148438 1865.234375 1042.125 1848.4375 C 1042.097656 1831.644531 1055.683594 1818.003906 1072.476562 1817.964844 C 1089.273438 1817.921875 1102.921875 1831.5 1102.976562 1848.292969 M 1534.28125 2183.859375 C 1534.28125 2196.714844 1523.863281 2207.140625 1511.007812 2207.152344 C 1498.152344 2207.160156 1487.71875 2196.753906 1487.699219 2183.898438 C 1487.679688 2171.039062 1498.078125 2160.597656 1510.933594 2160.570312 C 1523.789062 2160.539062 1534.242188 2170.929688 1534.28125 2183.785156 M 2056.375 1401.910156 C 2056.375 1425.003906 2037.667969 1443.726562 2014.574219 1443.746094 C 1991.480469 1443.765625 1972.738281 1425.070312 1972.703125 1401.976562 C 1972.667969 1378.882812 1991.347656 1360.128906 2014.441406 1360.074219 C 2037.53125 1360.019531 2056.304688 1378.683594 2056.375 1401.777344 M 794.632812 1162.308594 C 794.632812 1176.15625 783.417969 1187.378906 769.574219 1187.390625 C 755.730469 1187.402344 744.492188 1176.195312 744.472656 1162.351562 C 744.449219 1148.503906 755.648438 1137.261719 769.492188 1137.226562 C 783.335938 1137.195312 794.589844 1148.386719 794.632812 1162.230469 M 1079.558594 2066.378906 C 1079.558594 2085.515625 1064.054688 2101.035156 1044.917969 2101.050781 C 1025.78125 2101.066406 1010.25 2085.570312 1010.21875 2066.433594 C 1010.191406 2047.296875 1025.671875 2031.757812 1044.808594 2031.710938 C 1063.945312 2031.664062 1079.5 2047.132812 1079.558594 2066.269531 M 1442.863281 2118 C 1442.863281 2133.792969 1430.066406 2146.601562 1414.273438 2146.613281 C 1398.476562 2146.628906 1385.660156 2133.839844 1385.636719 2118.046875 C 1385.609375 2102.25 1398.386719 2089.421875 1414.179688 2089.386719 C 1429.976562 2089.347656 1442.816406 2102.113281 1442.863281 2117.910156 M 1422.84375 1960.878906 C 1422.84375 1986.53125 1402.058594 2007.332031 1376.40625 2007.355469 C 1350.753906 2007.375 1329.9375 1986.605469 1329.894531 1960.953125 C 1329.855469 1935.300781 1350.605469 1914.46875 1376.257812 1914.40625 C 1401.910156 1914.34375 1422.761719 1935.078125 1422.84375 1960.730469 M 1162.414062 1724.328125 C 1162.414062 1735.613281 1153.269531 1744.761719 1141.984375 1744.773438 C 1130.703125 1744.78125 1121.546875 1735.644531 1121.527344 1724.363281 C 1121.507812 1713.078125 1130.636719 1703.914062 1141.921875 1703.886719 C 1153.203125 1703.859375 1162.375 1712.980469 1162.414062 1724.265625 M 1390.457031 980.390625 C 1390.457031 984.648438 1387.007812 988.101562 1382.746094 988.105469 C 1378.484375 988.109375 1375.027344 984.660156 1375.023438 980.402344 C 1375.015625 976.140625 1378.460938 972.683594 1382.722656 972.671875 C 1386.980469 972.660156 1390.445312 976.105469 1390.457031 980.363281 M 1935.761719 1685.941406 C 1935.761719 1691.085938 1931.59375 1695.257812 1926.449219 1695.261719 C 1921.300781 1695.265625 1917.125 1691.101562 1917.117188 1685.953125 C 1917.109375 1680.808594 1921.273438 1676.628906 1926.417969 1676.617188 C 1931.5625 1676.605469 1935.746094 1680.765625 1935.761719 1685.910156 M 648.671875 2436.539062 C 648.671875 2446.355469 640.722656 2454.3125 630.90625 2454.320312 C 621.09375 2454.328125 613.128906 2446.382812 613.113281 2436.566406 C 613.097656 2426.753906 621.039062 2418.785156 630.851562 2418.761719 C 640.664062 2418.738281 648.640625 2426.667969 648.671875 2436.484375 M 311.628906 2656.019531 C 311.628906 2670.730469 299.710938 2682.65625 285 2682.667969 C 270.292969 2682.679688 258.355469 2670.773438 258.332031 2656.0625 C 258.308594 2641.351562 270.207031 2629.40625 284.917969 2629.371094 C 299.625 2629.335938 311.582031 2641.226562 311.628906 2655.933594 M 1615.425781 634.96875 C 1615.425781 646.234375 1606.292969 655.371094 1595.027344 655.382812 C 1583.757812 655.390625 1574.613281 646.265625 1574.597656 635 C 1574.578125 623.730469 1583.691406 614.578125 1594.960938 614.554688 C 1606.230469 614.527344 1615.386719 623.632812 1615.425781 634.902344 M 1628.769531 2591.660156 C 1628.769531 2596.09375 1625.179688 2599.6875 1620.746094 2599.691406 C 1616.3125 2599.695312 1612.714844 2596.105469 1612.707031 2591.671875 C 1612.703125 2587.238281 1616.289062 2583.640625 1620.722656 2583.628906 C 1625.152344 2583.617188 1628.757812 2587.203125 1628.769531 2591.632812 M 1011.699219 1948.53125 C 1011.699219 1956.273438 1005.425781 1962.554688 997.679688 1962.558594 C 989.9375 1962.566406 983.652344 1956.296875 983.640625 1948.550781 C 983.628906 1940.808594 989.890625 1934.519531 997.636719 1934.5 C 1005.378906 1934.480469 1011.675781 1940.742188 1011.699219 1948.484375 M 2130.359375 2591.109375 C 2130.359375 2603.816406 2120.0625 2614.117188 2107.359375 2614.128906 C 2094.652344 2614.136719 2084.34375 2603.851562 2084.320312 2591.148438 C 2084.300781 2578.441406 2094.578125 2568.121094 2107.285156 2568.089844 C 2119.992188 2568.0625 2130.316406 2578.332031 2130.359375 2591.035156 M 2289.15625 1426.710938 C 2289.15625 1439.738281 2278.597656 1450.304688 2265.570312 1450.316406 C 2252.539062 1450.324219 2241.964844 1439.777344 2241.945312 1426.746094 C 2241.921875 1413.71875 2252.464844 1403.136719 2265.492188 1403.105469 C 2278.523438 1403.074219 2289.113281 1413.605469 2289.15625 1426.636719 M 1250.40625 1022 C 1250.40625 1025.324219 1247.710938 1028.023438 1244.386719 1028.027344 C 1241.058594 1028.027344 1238.359375 1025.335938 1238.355469 1022.007812 C 1238.347656 1018.683594 1241.039062 1015.980469 1244.367188 1015.972656 C 1247.691406 1015.964844 1250.394531 1018.65625 1250.40625 1021.980469 M 1876.796875 2527 C 1876.796875 2542.585938 1864.167969 2555.226562 1848.582031 2555.238281 C 1832.996094 2555.25 1820.347656 2542.632812 1820.320312 2527.046875 C 1820.296875 2511.457031 1832.90625 2498.800781 1848.492188 2498.761719 C 1864.078125 2498.722656 1876.75 2511.324219 1876.796875 2526.910156 M 2093.484375 2324.230469 C 2093.484375 2327.910156 2090.503906 2330.894531 2086.824219 2330.894531 C 2083.144531 2330.898438 2080.160156 2327.921875 2080.152344 2324.242188 C 2080.148438 2320.5625 2083.125 2317.574219 2086.804688 2317.5625 C 2090.484375 2317.554688 2093.472656 2320.53125 2093.484375 2324.207031 M 481.976562 1229.710938 C 481.976562 1256.691406 460.117188 1278.566406 433.136719 1278.589844 C 406.15625 1278.609375 384.261719 1256.765625 384.21875 1229.789062 C 384.175781 1202.808594 406 1180.894531 432.980469 1180.832031 C 459.960938 1180.765625 481.890625 1202.574219 481.976562 1229.554688 M 1567.324219 1304.480469 C 1567.324219 1309.207031 1563.492188 1313.039062 1558.765625 1313.042969 C 1554.039062 1313.046875 1550.203125 1309.21875 1550.195312 1304.492188 C 1550.1875 1299.765625 1554.011719 1295.929688 1558.738281 1295.917969 C 1563.464844 1295.90625 1567.308594 1299.726562 1567.324219 1304.453125 M 1307.949219 2042.46875 C 1307.949219 2074.378906 1282.09375 2100.253906 1250.1875 2100.277344 C 1218.277344 2100.304688 1192.382812 2074.472656 1192.332031 2042.5625 C 1192.28125 2010.652344 1218.09375 1984.738281 1250 1984.660156 C 1281.910156 1984.585938 1307.847656 2010.378906 1307.949219 2042.285156 M 529.800781 1281.710938 C 529.800781 1301.519531 513.75 1317.585938 493.941406 1317.601562 C 474.128906 1317.617188 458.050781 1301.578125 458.019531 1281.765625 C 457.988281 1261.957031 474.015625 1245.867188 493.824219 1245.820312 C 513.636719 1245.773438 529.738281 1261.785156 529.800781 1281.59375 M 2119.335938 1075.308594 C 2119.335938 1093.632812 2104.488281 1108.492188 2086.167969 1108.503906 C 2067.84375 1108.519531 2052.972656 1093.6875 2052.945312 1075.363281 C 2052.914062 1057.039062 2067.738281 1042.15625 2086.0625 1042.113281 C 2104.382812 1042.070312 2119.277344 1056.882812 2119.335938 1075.203125 M 897.414062 1470.941406 C 897.414062 1475.113281 894.035156 1478.496094 889.863281 1478.5 C 885.691406 1478.5 882.304688 1475.125 882.296875 1470.953125 C 882.292969 1466.78125 885.667969 1463.390625 889.839844 1463.382812 C 894.011719 1463.371094 897.402344 1466.742188 897.414062 1470.914062 M 1044.132812 2345.390625 C 1044.132812 2349.585938 1040.730469 2352.988281 1036.535156 2352.992188 C 1032.339844 2352.996094 1028.933594 2349.597656 1028.929688 2345.402344 C 1028.921875 2341.207031 1032.316406 2337.796875 1036.511719 2337.789062 C 1040.707031 2337.777344 1044.117188 2341.167969 1044.132812 2345.367188 M 1257.503906 729.933594 C 1257.503906 746.167969 1244.351562 759.335938 1228.113281 759.347656 C 1211.878906 759.359375 1198.699219 746.214844 1198.675781 729.980469 C 1198.648438 713.742188 1211.785156 700.558594 1228.019531 700.519531 C 1244.257812 700.480469 1257.453125 713.601562 1257.503906 729.839844 M 2156.296875 2601.089844 C 2156.296875 2616.25 2144.011719 2628.546875 2128.851562 2628.558594 C 2113.691406 2628.570312 2101.386719 2616.296875 2101.363281 2601.132812 C 2101.339844 2585.972656 2113.601562 2573.660156 2128.765625 2573.621094 C 2143.925781 2573.585938 2156.25 2585.839844 2156.296875 2601.003906 M 1530.550781 816.839844 C 1530.550781 822.253906 1526.164062 826.644531 1520.746094 826.648438 C 1515.332031 826.652344 1510.9375 822.269531 1510.929688 816.855469 C 1510.921875 811.4375 1515.300781 807.039062 1520.714844 807.027344 C 1526.132812 807.015625 1530.535156 811.390625 1530.550781 816.808594 M 1626.753906 1906.429688 C 1626.753906 1911.914062 1622.3125 1916.359375 1616.828125 1916.367188 C 1611.34375 1916.371094 1606.894531 1911.929688 1606.882812 1906.445312 C 1606.875 1900.960938 1611.3125 1896.507812 1616.796875 1896.496094 C 1622.28125 1896.480469 1626.738281 1900.914062 1626.753906 1906.398438 M 2117.816406 1353.101562 C 2117.816406 1375.132812 2099.964844 1393 2077.933594 1393.015625 C 2055.898438 1393.035156 2038.019531 1375.195312 2037.984375 1353.164062 C 2037.949219 1331.128906 2055.773438 1313.234375 2077.804688 1313.183594 C 2099.835938 1313.128906 2117.746094 1330.941406 2117.816406 1352.972656 M 1504.574219 2385.488281 C 1504.574219 2389.511719 1501.316406 2392.769531 1497.296875 2392.773438 C 1493.273438 2392.777344 1490.011719 2389.523438 1490.003906 2385.5 C 1490 2381.480469 1493.25 2378.214844 1497.273438 2378.207031 C 1501.292969 2378.195312 1504.5625 2381.445312 1504.574219 2385.46875 M 1692.914062 1207.210938 C 1692.914062 1215.46875 1686.222656 1222.167969 1677.960938 1222.175781 C 1669.703125 1222.179688 1663 1215.492188 1662.984375 1207.234375 C 1662.972656 1198.972656 1669.65625 1192.265625 1677.914062 1192.246094 C 1686.175781 1192.226562 1692.886719 1198.902344 1692.914062 1207.164062 M 1374.765625 701.535156 C 1374.765625 719.046875 1360.578125 733.246094 1343.066406 733.257812 C 1325.554688 733.273438 1311.34375 719.097656 1311.3125 701.585938 C 1311.285156 684.074219 1325.453125 669.851562 1342.964844 669.808594 C 1360.476562 669.765625 1374.710938 683.921875 1374.765625 701.433594 M 917.1875 2114.121094 C 917.1875 2119.132812 913.125 2123.199219 908.109375 2123.203125 C 903.09375 2123.207031 899.023438 2119.148438 899.015625 2114.132812 C 899.007812 2109.121094 903.066406 2105.046875 908.082031 2105.035156 C 913.09375 2105.023438 917.171875 2109.078125 917.1875 2114.089844 M 1006.644531 1849.519531 C 1006.644531 1856.621094 1000.890625 1862.378906 993.789062 1862.382812 C 986.6875 1862.390625 980.925781 1856.640625 980.914062 1849.539062 C 980.902344 1842.441406 986.648438 1836.671875 993.75 1836.65625 C 1000.847656 1836.640625 1006.621094 1842.378906 1006.644531 1849.480469 M 2029.222656 2320.300781 C 2029.222656 2326.097656 2024.527344 2330.800781 2018.726562 2330.804688 C 2012.929688 2330.808594 2008.226562 2326.113281 2008.214844 2320.316406 C 2008.207031 2314.519531 2012.898438 2309.808594 2018.695312 2309.796875 C 2024.492188 2309.78125 2029.207031 2314.46875 2029.222656 2320.265625 M 2176.597656 1158.691406 C 2176.597656 1179.410156 2159.808594 1196.210938 2139.089844 1196.226562 C 2118.371094 1196.246094 2101.554688 1179.46875 2101.523438 1158.75 C 2101.488281 1138.03125 2118.25 1121.203125 2138.96875 1121.152344 C 2159.691406 1121.101562 2176.53125 1137.851562 2176.597656 1158.570312 M 367.894531 1578.300781 C 367.894531 1586.449219 361.289062 1593.058594 353.140625 1593.0625 C 344.992188 1593.070312 338.378906 1586.472656 338.367188 1578.324219 C 338.351562 1570.175781 344.945312 1563.554688 353.09375 1563.535156 C 361.242188 1563.515625 367.867188 1570.105469 367.894531 1578.253906 M 1151.824219 2325.460938 C 1151.824219 2332.953125 1145.753906 2339.027344 1138.261719 2339.03125 C 1130.769531 2339.039062 1124.6875 2332.972656 1124.675781 2325.480469 C 1124.664062 2317.988281 1130.726562 2311.90625 1138.21875 2311.886719 C 1145.710938 2311.871094 1151.800781 2317.925781 1151.824219 2325.417969 M 1339.765625 1803.128906 C 1339.765625 1814.890625 1330.238281 1824.425781 1318.476562 1824.4375 C 1306.714844 1824.445312 1297.171875 1814.925781 1297.152344 1803.164062 C 1297.136719 1791.402344 1306.648438 1781.851562 1318.410156 1781.824219 C 1330.167969 1781.796875 1339.730469 1791.300781 1339.765625 1803.0625 M 1277.566406 1946.589844 C 1277.566406 1962.738281 1264.480469 1975.832031 1248.332031 1975.84375 C 1232.183594 1975.859375 1219.082031 1962.785156 1219.054688 1946.636719 C 1219.027344 1930.488281 1232.09375 1917.375 1248.238281 1917.335938 C 1264.386719 1917.296875 1277.515625 1930.347656 1277.566406 1946.496094 M 486.632812 1480.160156 C 486.632812 1493.554688 475.777344 1504.417969 462.382812 1504.429688 C 448.988281 1504.4375 438.117188 1493.59375 438.09375 1480.199219 C 438.074219 1466.804688 448.910156 1455.921875 462.304688 1455.890625 C 475.703125 1455.859375 486.589844 1466.6875 486.632812 1480.082031 M 1339.386719 1036.359375 C 1339.386719 1039.691406 1336.6875 1042.394531 1333.355469 1042.394531 C 1330.023438 1042.398438 1327.320312 1039.699219 1327.316406 1036.371094 C 1327.308594 1033.039062 1330.003906 1030.332031 1333.335938 1030.324219 C 1336.667969 1030.316406 1339.375 1033.007812 1339.386719 1036.339844 M 1466.722656 2369.050781 C 1466.722656 2373.6875 1462.964844 2377.449219 1458.328125 2377.453125 C 1453.6875 2377.457031 1449.925781 2373.703125 1449.917969 2369.0625 C 1449.910156 2364.425781 1453.660156 2360.65625 1458.300781 2360.648438 C 1462.9375 2360.636719 1466.707031 2364.386719 1466.722656 2369.023438 M 1999.976562 2557.589844 C 1999.976562 2579.390625 1982.3125 2597.070312 1960.511719 2597.085938 C 1938.710938 2597.105469 1921.019531 2579.453125 1920.984375 2557.652344 C 1920.949219 2535.851562 1938.585938 2518.144531 1960.386719 2518.09375 C 1982.1875 2518.042969 1999.90625 2535.664062 1999.976562 2557.464844 M 1801.992188 1419.070312 C 1801.992188 1434.941406 1789.132812 1447.808594 1773.261719 1447.820312 C 1757.394531 1447.832031 1744.515625 1434.984375 1744.488281 1419.117188 C 1744.464844 1403.246094 1757.300781 1390.355469 1773.171875 1390.320312 C 1789.042969 1390.28125 1801.941406 1403.109375 1801.992188 1418.976562 M 283.714844 1040.238281 C 283.714844 1047.230469 278.046875 1052.902344 271.054688 1052.90625 C 264.0625 1052.914062 258.390625 1047.253906 258.378906 1040.261719 C 258.367188 1033.269531 264.023438 1027.589844 271.015625 1027.574219 C 278.007812 1027.554688 283.691406 1033.207031 283.714844 1040.199219 M 1248.878906 2143.410156 C 1248.878906 2165.019531 1231.371094 2182.542969 1209.761719 2182.558594 C 1188.152344 2182.574219 1170.617188 2165.082031 1170.582031 2143.472656 C 1170.546875 2121.863281 1188.027344 2104.3125 1209.636719 2104.261719 C 1231.246094 2104.210938 1248.808594 2121.675781 1248.878906 2143.285156 M 1286.984375 705.632812 C 1286.984375 720.65625 1274.8125 732.835938 1259.792969 732.847656 C 1244.769531 732.859375 1232.578125 720.699219 1232.554688 705.675781 C 1232.53125 690.65625 1244.683594 678.453125 1259.703125 678.417969 C 1274.726562 678.382812 1286.9375 690.523438 1286.984375 705.546875 M 467.984375 1709.339844 C 467.984375 1712.96875 465.042969 1715.914062 461.414062 1715.917969 C 457.78125 1715.917969 454.835938 1712.980469 454.832031 1709.351562 C 454.824219 1705.71875 457.761719 1702.773438 461.390625 1702.761719 C 465.019531 1702.753906 467.972656 1705.6875 467.984375 1709.320312 M 411.410156 1401.300781 C 411.410156 1418.800781 397.226562 1432.992188 379.726562 1433.007812 C 362.226562 1433.019531 348.023438 1418.851562 347.992188 1401.351562 C 347.964844 1383.847656 362.125 1369.632812 379.625 1369.59375 C 397.125 1369.550781 411.351562 1383.699219 411.40625 1401.199219 M 2029.691406 1586.53125 C 2029.691406 1597.703125 2020.640625 1606.761719 2009.464844 1606.773438 C 1998.292969 1606.78125 1989.226562 1597.734375 1989.207031 1586.5625 C 1989.191406 1575.390625 1998.230469 1566.316406 2009.402344 1566.289062 C 2020.574219 1566.261719 2029.65625 1575.292969 2029.691406 1586.464844 M 1195.242188 856.949219 C 1195.242188 867.957031 1186.324219 876.882812 1175.316406 876.890625 C 1164.308594 876.898438 1155.375 867.988281 1155.355469 856.980469 C 1155.339844 845.972656 1164.246094 837.03125 1175.253906 837.003906 C 1186.261719 836.976562 1195.207031 845.875 1195.242188 856.882812 M 930.339844 1893.550781 C 930.339844 1897.792969 926.902344 1901.230469 922.660156 1901.234375 C 918.417969 1901.238281 914.976562 1897.804688 914.96875 1893.5625 C 914.960938 1889.320312 918.394531 1885.875 922.636719 1885.867188 C 926.878906 1885.855469 930.324219 1889.285156 930.339844 1893.527344 M 556.21875 2347.300781 C 556.21875 2352.445312 552.046875 2356.617188 546.902344 2356.621094 C 541.757812 2356.625 537.582031 2352.460938 537.570312 2347.316406 C 537.5625 2342.167969 541.726562 2337.988281 546.871094 2337.976562 C 552.019531 2337.964844 556.203125 2342.125 556.21875 2347.269531 M 1802.886719 2655.28125 C 1802.886719 2670.996094 1790.148438 2683.742188 1774.433594 2683.753906 C 1758.714844 2683.765625 1745.960938 2671.042969 1745.933594 2655.324219 C 1745.910156 2639.609375 1758.625 2626.84375 1774.34375 2626.804688 C 1790.058594 2626.769531 1802.835938 2639.472656 1802.882812 2655.1875 M 2011.175781 2631.96875 C 2011.175781 2655.867188 1991.8125 2675.246094 1967.914062 2675.265625 C 1944.015625 2675.285156 1924.621094 2655.9375 1924.585938 2632.039062 C 1924.546875 2608.140625 1943.878906 2588.730469 1967.777344 2588.675781 C 1991.675781 2588.617188 2011.097656 2607.933594 2011.175781 2631.832031 M 867.933594 1444.410156 C 867.933594 1452.542969 861.34375 1459.136719 853.210938 1459.144531 C 845.078125 1459.148438 838.476562 1452.566406 838.464844 1444.433594 C 838.453125 1436.300781 845.03125 1429.695312 853.164062 1429.675781 C 861.296875 1429.65625 867.90625 1436.230469 867.933594 1444.363281 M 1611.835938 1826.320312 C 1611.835938 1830.339844 1608.578125 1833.601562 1604.554688 1833.605469 C 1600.535156 1833.609375 1597.273438 1830.351562 1597.265625 1826.332031 C 1597.257812 1822.3125 1600.511719 1819.046875 1604.53125 1819.035156 C 1608.554688 1819.027344 1611.820312 1822.277344 1611.835938 1826.296875 M 935.0625 1937.589844 C 935.0625 1946.179688 928.101562 1953.144531 919.511719 1953.152344 C 910.925781 1953.160156 903.953125 1946.203125 903.941406 1937.613281 C 903.925781 1929.023438 910.875 1922.050781 919.464844 1922.027344 C 928.054688 1922.007812 935.035156 1928.949219 935.0625 1937.539062 M 607.90625 1197.761719 C 607.90625 1223.097656 587.375 1243.648438 562.035156 1243.667969 C 536.695312 1243.6875 516.132812 1223.171875 516.09375 1197.832031 C 516.050781 1172.492188 536.550781 1151.914062 561.890625 1151.851562 C 587.230469 1151.792969 607.824219 1172.273438 607.90625 1197.613281 M 850.339844 1305.769531 C 850.339844 1317.664062 840.703125 1327.308594 828.8125 1327.316406 C 816.917969 1327.324219 807.265625 1317.695312 807.246094 1305.804688 C 807.230469 1293.910156 816.851562 1284.253906 828.742188 1284.222656 C 840.636719 1284.195312 850.300781 1293.808594 850.339844 1305.703125 M 533.769531 950.191406 C 533.769531 961.414062 524.675781 970.519531 513.449219 970.527344 C 502.222656 970.535156 493.113281 961.449219 493.097656 950.222656 C 493.078125 938.996094 502.160156 929.878906 513.382812 929.851562 C 524.609375 929.828125 533.734375 938.898438 533.769531 950.125 M 2095.960938 818.855469 C 2095.960938 822.410156 2093.082031 825.292969 2089.523438 825.296875 C 2085.96875 825.296875 2083.085938 822.417969 2083.078125 818.863281 C 2083.074219 815.308594 2085.949219 812.421875 2089.503906 812.414062 C 2093.058594 812.402344 2095.949219 815.277344 2095.960938 818.832031 M 1585.839844 1244.011719 C 1585.839844 1248.640625 1582.089844 1252.398438 1577.457031 1252.402344 C 1572.824219 1252.40625 1569.066406 1248.65625 1569.058594 1244.023438 C 1569.050781 1239.390625 1572.796875 1235.628906 1577.429688 1235.621094 C 1582.0625 1235.609375 1585.824219 1239.351562 1585.839844 1243.984375 M 988.433594 1216.21875 C 988.433594 1220.523438 984.945312 1224.015625 980.640625 1224.019531 C 976.335938 1224.023438 972.839844 1220.539062 972.835938 1216.230469 C 972.828125 1211.925781 976.308594 1208.429688 980.613281 1208.421875 C 984.917969 1208.410156 988.417969 1211.890625 988.433594 1216.195312 M 1426.058594 1838.058594 C 1426.058594 1858.453125 1409.535156 1874.992188 1389.140625 1875.007812 C 1368.746094 1875.023438 1352.195312 1858.511719 1352.164062 1838.117188 C 1352.128906 1817.726562 1368.628906 1801.160156 1389.023438 1801.113281 C 1409.414062 1801.0625 1425.992188 1817.546875 1426.058594 1837.941406 M 1996.074219 1127.410156 C 1996.074219 1141.007812 1985.054688 1152.03125 1971.460938 1152.042969 C 1957.863281 1152.054688 1946.828125 1141.046875 1946.808594 1127.449219 C 1946.785156 1113.851562 1957.785156 1102.808594 1971.382812 1102.777344 C 1984.976562 1102.746094 1996.027344 1113.734375 1996.070312 1127.332031 M 2070.859375 2396.460938 C 2070.859375 2403.324219 2065.296875 2408.890625 2058.429688 2408.898438 C 2051.566406 2408.902344 2045.992188 2403.34375 2045.984375 2396.480469 C 2045.972656 2389.613281 2051.523438 2384.039062 2058.390625 2384.023438 C 2065.253906 2384.007812 2070.835938 2389.554688 2070.859375 2396.421875 M 1361.824219 709.773438 C 1361.824219 725.773438 1348.859375 738.746094 1332.863281 738.757812 C 1316.867188 738.769531 1303.882812 725.820312 1303.859375 709.820312 C 1303.832031 693.824219 1316.773438 680.832031 1332.769531 680.792969 C 1348.769531 680.753906 1361.769531 693.683594 1361.820312 709.683594 M 473.605469 1225.988281 C 473.605469 1242.988281 459.832031 1256.773438 442.832031 1256.789062 C 425.832031 1256.800781 412.035156 1243.039062 412.007812 1226.039062 C 411.980469 1209.039062 425.734375 1195.234375 442.734375 1195.191406 C 459.734375 1195.152344 473.550781 1208.890625 473.605469 1225.890625 M 1321.832031 1595.398438 C 1321.832031 1600.484375 1317.710938 1604.609375 1312.628906 1604.613281 C 1307.542969 1604.617188 1303.414062 1600.5 1303.40625 1595.414062 C 1303.398438 1590.328125 1307.511719 1586.199219 1312.597656 1586.1875 C 1317.683594 1586.175781 1321.816406 1590.285156 1321.832031 1595.371094 M 287.476562 1484.769531 C 287.476562 1490.878906 282.53125 1495.832031 276.421875 1495.835938 C 270.3125 1495.839844 265.355469 1490.894531 265.347656 1484.789062 C 265.335938 1478.679688 270.277344 1473.71875 276.386719 1473.703125 C 282.496094 1473.691406 287.460938 1478.625 287.476562 1484.734375 M 801.96875 2044.78125 C 801.96875 2048.441406 799.003906 2051.410156 795.34375 2051.410156 C 791.683594 2051.414062 788.710938 2048.449219 788.707031 2044.789062 C 788.699219 2041.128906 791.660156 2038.15625 795.320312 2038.148438 C 798.984375 2038.140625 801.957031 2041.097656 801.96875 2044.757812 M 1647.796875 1908.121094 C 1647.796875 1912.425781 1644.308594 1915.914062 1640.007812 1915.917969 C 1635.703125 1915.921875 1632.210938 1912.4375 1632.203125 1908.132812 C 1632.195312 1903.828125 1635.675781 1900.332031 1639.980469 1900.324219 C 1644.285156 1900.3125 1647.785156 1903.792969 1647.796875 1908.09375 M 378.875 1453.210938 C 378.875 1463.875 370.234375 1472.519531 359.570312 1472.53125 C 348.90625 1472.539062 340.253906 1463.90625 340.234375 1453.242188 C 340.21875 1442.578125 348.84375 1433.914062 359.507812 1433.890625 C 370.171875 1433.863281 378.839844 1442.484375 378.875 1453.148438 M 2077.085938 2487.230469 C 2077.085938 2497.730469 2068.578125 2506.246094 2058.074219 2506.257812 C 2047.574219 2506.265625 2039.050781 2497.761719 2039.035156 2487.261719 C 2039.015625 2476.757812 2047.511719 2468.230469 2058.015625 2468.203125 C 2068.515625 2468.179688 2077.050781 2476.667969 2077.085938 2487.167969 "/>
</g>
</svg>
