<?xml version="1.0" encoding="UTF-8"?>
<svg xmlns="http://www.w3.org/2000/svg" xmlns:xlink="http://www.w3.org/1999/xlink" width="2550pt" height="3300pt" viewBox="0 0 2550 3300" version="1.1">
<g id="surface1">
<path style="fill:none;stroke-width:2;stroke-linecap:butt;stroke-linejoin:miter;stroke:rgb(0%,0%,0%);stroke-opacity:1;stroke-miterlimit:10;" d="M 275.378906 898.335938 C 275.378906 909.574219 266.269531 918.691406 255.03125 918.699219 C 243.792969 918.707031 234.671875 909.609375 234.65625 898.371094 C 234.636719 887.128906 243.726562 878.003906 254.96875 877.976562 C 266.207031 877.949219 275.339844 887.03125 275.378906 898.273438 M 366.835938 2014.878906 C 366.835938 2023.636719 359.742188 2030.738281 350.984375 2030.746094 C 342.226562 2030.753906 335.121094 2023.664062 335.105469 2014.90625 C 335.089844 2006.148438 342.175781 1999.035156 350.933594 1999.015625 C 359.691406 1998.992188 366.808594 2006.070312 366.835938 2014.828125 M 2175.207031 1412.339844 C 2175.207031 1419.757812 2169.199219 1425.773438 2161.78125 1425.777344 C 2154.363281 1425.785156 2148.34375 1419.777344 2148.332031 1412.363281 C 2148.320312 1404.945312 2154.320312 1398.917969 2161.738281 1398.902344 C 2169.15625 1398.882812 2175.183594 1404.878906 2175.207031 1412.296875 M 1961.570312 700.527344 C 1961.570312 706.820312 1956.472656 711.921875 1950.179688 711.925781 C 1943.886719 711.929688 1938.78125 706.835938 1938.769531 700.546875 C 1938.761719 694.253906 1943.851562 689.144531 1950.144531 689.128906 C 1956.433594 689.113281 1961.546875 694.199219 1961.570312 700.492188 M 1049.671875 766.359375 C 1049.671875 773.257812 1044.082031 778.855469 1037.179688 778.859375 C 1030.277344 778.867188 1024.679688 773.28125 1024.667969 766.378906 C 1024.65625 759.476562 1030.238281 753.871094 1037.140625 753.855469 C 1044.042969 753.839844 1049.652344 759.417969 1049.671875 766.316406 M 1665.433594 1831.511719 C 1665.433594 1836.707031 1661.222656 1840.917969 1656.027344 1840.921875 C 1650.832031 1840.925781 1646.613281 1836.722656 1646.605469 1831.523438 C 1646.597656 1826.328125 1650.800781 1822.109375 1655.996094 1822.097656 C 1661.195312 1822.085938 1665.417969 1826.285156 1665.433594 1831.480469 M 2123.976562 2184.878906 C 2123.976562 2191.464844 2118.640625 2196.800781 2112.058594 2196.804688 C 2105.476562 2196.8125 2100.132812 2191.480469 2100.125 2184.898438 C 2100.113281 2178.316406 2105.4375 2172.96875 2112.023438 2172.953125 C 2118.605469 2172.9375 2123.957031 2178.257812 2123.976562 2184.84375 M 364.882812 2131.609375 C 364.882812 2138.816406 359.046875 2144.660156 351.839844 2144.667969 C 344.632812 2144.671875 338.78125 2138.835938 338.773438 2131.628906 C 338.761719 2124.425781 344.589844 2118.570312 351.796875 2118.554688 C 359.003906 2118.535156 364.863281 2124.363281 364.882812 2131.570312 M 1557.945312 2173.078125 C 1557.945312 2179.90625 1552.417969 2185.441406 1545.589844 2185.445312 C 1538.761719 2185.453125 1533.222656 2179.925781 1533.214844 2173.101562 C 1533.203125 2166.273438 1538.722656 2160.730469 1545.550781 2160.714844 C 1552.375 2160.695312 1557.925781 2166.214844 1557.945312 2173.039062 M 1012.535156 1133.960938 C 1012.535156 1140.71875 1007.058594 1146.199219 1000.300781 1146.207031 C 993.539062 1146.210938 988.054688 1140.738281 988.042969 1133.980469 C 988.035156 1127.21875 993.5 1121.730469 1000.261719 1121.714844 C 1007.019531 1121.699219 1012.515625 1127.160156 1012.535156 1133.921875 M 1740.796875 2166.851562 C 1740.796875 2173.234375 1735.625 2178.414062 1729.238281 2178.417969 C 1722.855469 2178.421875 1717.671875 2173.253906 1717.660156 2166.867188 C 1717.652344 2160.484375 1722.816406 2155.296875 1729.203125 2155.28125 C 1735.585938 2155.265625 1740.777344 2160.429688 1740.796875 2166.8125 M 419.859375 1918.53125 C 419.859375 1927.683594 412.445312 1935.101562 403.292969 1935.109375 C 394.140625 1935.117188 386.714844 1927.707031 386.699219 1918.554688 C 386.683594 1909.40625 394.085938 1901.972656 403.238281 1901.949219 C 412.390625 1901.929688 419.828125 1909.324219 419.859375 1918.476562 M 820.78125 1520.28125 C 820.78125 1525.5 816.554688 1529.730469 811.335938 1529.734375 C 806.117188 1529.738281 801.882812 1525.511719 801.875 1520.296875 C 801.867188 1515.078125 806.085938 1510.839844 811.304688 1510.824219 C 816.523438 1510.8125 820.765625 1515.03125 820.78125 1520.25 M 998.914062 969.675781 C 998.914062 975.753906 993.988281 980.679688 987.910156 980.6875 C 981.832031 980.691406 976.898438 975.769531 976.890625 969.691406 C 976.878906 963.613281 981.796875 958.679688 987.875 958.664062 C 993.953125 958.648438 998.894531 963.5625 998.914062 969.640625 M 2097.6875 2484.78125 C 2097.6875 2491.109375 2092.558594 2496.242188 2086.230469 2496.246094 C 2079.898438 2496.253906 2074.761719 2491.128906 2074.753906 2484.796875 C 2074.742188 2478.46875 2079.863281 2473.328125 2086.191406 2473.3125 C 2092.523438 2473.296875 2097.667969 2478.414062 2097.6875 2484.742188 M 2112.777344 1659.230469 C 2112.777344 1666.011719 2107.28125 1671.511719 2100.5 1671.519531 C 2093.71875 1671.523438 2088.210938 1666.03125 2088.203125 1659.25 C 2088.191406 1652.464844 2093.675781 1646.957031 2100.460938 1646.941406 C 2107.242188 1646.925781 2112.757812 1652.40625 2112.777344 1659.191406 M 920.726562 2642.75 C 920.726562 2650.972656 914.0625 2657.644531 905.839844 2657.648438 C 897.613281 2657.65625 890.941406 2651 890.925781 2642.773438 C 890.914062 2634.550781 897.566406 2627.871094 905.792969 2627.851562 C 914.015625 2627.832031 920.699219 2634.476562 920.726562 2642.703125 M 815.839844 815.09375 C 815.839844 824.976562 807.832031 832.992188 797.949219 833 C 788.066406 833.007812 780.046875 825.007812 780.03125 815.125 C 780.015625 805.242188 788.007812 797.214844 797.890625 797.191406 C 807.777344 797.167969 815.808594 805.15625 815.839844 815.039062 M 417.152344 1651.441406 C 417.152344 1657.902344 411.917969 1663.140625 405.457031 1663.144531 C 398.996094 1663.148438 393.753906 1657.917969 393.742188 1651.457031 C 393.734375 1644.996094 398.960938 1639.75 405.421875 1639.734375 C 411.878906 1639.71875 417.132812 1644.941406 417.152344 1651.402344 M 834.277344 2494.191406 C 834.277344 2501.933594 828.003906 2508.214844 820.257812 2508.21875 C 812.515625 2508.226562 806.230469 2501.957031 806.21875 2494.210938 C 806.207031 2486.46875 812.46875 2480.179688 820.214844 2480.160156 C 827.957031 2480.140625 834.25 2486.402344 834.277344 2494.144531 M 1211.625 2549.601562 C 1211.625 2554.65625 1207.53125 2558.753906 1202.476562 2558.757812 C 1197.421875 2558.761719 1193.320312 2554.667969 1193.3125 2549.613281 C 1193.304688 2544.558594 1197.394531 2540.457031 1202.449219 2540.441406 C 1207.503906 2540.429688 1211.609375 2544.515625 1211.625 2549.570312 M 1822.449219 2201.21875 C 1822.449219 2208.925781 1816.207031 2215.171875 1808.5 2215.179688 C 1800.796875 2215.183594 1794.542969 2208.945312 1794.53125 2201.242188 C 1794.519531 2193.539062 1800.75 2187.28125 1808.457031 2187.261719 C 1816.160156 2187.242188 1822.425781 2193.46875 1822.449219 2201.175781 M 530.144531 662.371094 C 530.144531 673.078125 521.46875 681.761719 510.761719 681.769531 C 500.050781 681.78125 491.359375 673.109375 491.34375 662.402344 C 491.328125 651.691406 499.988281 642.996094 510.699219 642.96875 C 521.40625 642.945312 530.113281 651.597656 530.144531 662.308594 M 2039.886719 1914.269531 C 2039.886719 1921.8125 2033.773438 1927.929688 2026.230469 1927.933594 C 2018.6875 1927.941406 2012.566406 1921.835938 2012.554688 1914.292969 C 2012.542969 1906.75 2018.644531 1900.621094 2026.1875 1900.605469 C 2033.730469 1900.585938 2039.863281 1906.683594 2039.886719 1914.226562 M 1754.5625 2668.890625 C 1754.5625 2679.777344 1745.742188 2688.601562 1734.855469 2688.613281 C 1723.96875 2688.621094 1715.136719 2679.808594 1715.117188 2668.921875 C 1715.101562 2658.035156 1723.90625 2649.195312 1734.792969 2649.167969 C 1745.679688 2649.140625 1754.527344 2657.941406 1754.5625 2668.828125 M 740.015625 1254.898438 C 740.015625 1260.03125 735.855469 1264.191406 730.726562 1264.195312 C 725.59375 1264.199219 721.429688 1260.046875 721.421875 1254.914062 C 721.414062 1249.785156 725.566406 1245.617188 730.695312 1245.605469 C 735.828125 1245.59375 739.996094 1249.738281 740.015625 1254.871094 M 1104.847656 2346.679688 C 1104.847656 2351.761719 1100.730469 2355.886719 1095.648438 2355.890625 C 1090.5625 2355.894531 1086.4375 2351.777344 1086.429688 2346.695312 C 1086.421875 2341.613281 1090.535156 2337.484375 1095.617188 2337.472656 C 1100.703125 2337.457031 1104.832031 2341.566406 1104.847656 2346.652344 M 849.90625 993.789062 C 849.90625 998.75 845.882812 1002.777344 840.921875 1002.78125 C 835.957031 1002.785156 831.929688 998.765625 831.921875 993.800781 C 831.914062 988.839844 835.929688 984.808594 840.890625 984.796875 C 845.855469 984.785156 849.890625 988.796875 849.90625 993.757812 M 1792.199219 1761.351562 C 1792.199219 1767.246094 1787.425781 1772.027344 1781.527344 1772.03125 C 1775.632812 1772.035156 1770.847656 1767.261719 1770.839844 1761.367188 C 1770.828125 1755.472656 1775.597656 1750.683594 1781.496094 1750.667969 C 1787.390625 1750.65625 1792.183594 1755.421875 1792.199219 1761.316406 M 1538.320312 2347.761719 C 1538.320312 2352.523438 1534.460938 2356.386719 1529.695312 2356.390625 C 1524.933594 2356.394531 1521.066406 2352.539062 1521.058594 2347.773438 C 1521.050781 2343.007812 1524.90625 2339.140625 1529.667969 2339.128906 C 1534.433594 2339.117188 1538.304688 2342.96875 1538.320312 2347.734375 M 697.324219 2088.011719 C 697.324219 2092.597656 693.609375 2096.316406 689.019531 2096.320312 C 684.433594 2096.324219 680.707031 2092.609375 680.703125 2088.023438 C 680.695312 2083.433594 684.40625 2079.710938 688.992188 2079.699219 C 693.582031 2079.6875 697.308594 2083.394531 697.324219 2087.984375 M 449.769531 1190.160156 C 449.769531 1195.210938 445.675781 1199.304688 440.628906 1199.308594 C 435.578125 1199.3125 431.480469 1195.222656 431.472656 1190.175781 C 431.464844 1185.125 435.546875 1181.023438 440.597656 1181.011719 C 445.648438 1181 449.753906 1185.082031 449.769531 1190.128906 M 1116.140625 684.828125 C 1116.140625 693.648438 1108.996094 700.804688 1100.171875 700.808594 C 1091.351562 700.816406 1084.191406 693.675781 1084.179688 684.851562 C 1084.164062 676.03125 1091.300781 668.867188 1100.121094 668.847656 C 1108.941406 668.824219 1116.113281 675.957031 1116.140625 684.777344 M 2179.898438 1119.421875 C 2179.898438 1125.816406 2174.714844 1131 2168.320312 1131.007812 C 2161.921875 1131.011719 2156.734375 1125.835938 2156.722656 1119.4375 C 2156.710938 1113.042969 2161.886719 1107.847656 2168.28125 1107.832031 C 2174.679688 1107.816406 2179.875 1112.988281 2179.898438 1119.382812 M 916.792969 2439.460938 C 916.792969 2447.195312 910.527344 2453.46875 902.792969 2453.472656 C 895.058594 2453.480469 888.78125 2447.21875 888.765625 2439.480469 C 888.753906 2431.746094 895.011719 2425.464844 902.746094 2425.445312 C 910.484375 2425.429688 916.769531 2431.679688 916.792969 2439.414062 M 572.671875 2019.949219 C 572.671875 2026.015625 567.757812 2030.933594 561.691406 2030.9375 C 555.628906 2030.941406 550.707031 2026.03125 550.695312 2019.96875 C 550.6875 2013.902344 555.59375 2008.976562 561.65625 2008.960938 C 567.722656 2008.949219 572.652344 2013.851562 572.671875 2019.914062 M 1464.492188 2354.96875 C 1464.492188 2361.390625 1459.289062 2366.597656 1452.871094 2366.605469 C 1446.449219 2366.609375 1441.234375 2361.410156 1441.226562 2354.988281 C 1441.214844 2348.566406 1446.410156 2343.351562 1452.832031 2343.335938 C 1459.253906 2343.320312 1464.472656 2348.511719 1464.492188 2354.933594 M 2214.351562 1764.539062 C 2214.351562 1770.238281 2209.734375 1774.855469 2204.039062 1774.859375 C 2198.339844 1774.863281 2193.71875 1770.253906 2193.710938 1764.554688 C 2193.699219 1758.859375 2198.308594 1754.234375 2204.003906 1754.21875 C 2209.703125 1754.207031 2214.332031 1758.8125 2214.351562 1764.507812 M 2271.816406 1463.878906 C 2271.816406 1469.882812 2266.953125 1474.753906 2260.949219 1474.757812 C 2254.945312 1474.761719 2250.070312 1469.902344 2250.0625 1463.898438 C 2250.050781 1457.894531 2254.910156 1453.015625 2260.914062 1453.003906 C 2266.917969 1452.988281 2271.796875 1457.839844 2271.816406 1463.84375 M 1415.847656 1144.339844 C 1415.847656 1149.007812 1412.066406 1152.792969 1407.398438 1152.796875 C 1402.730469 1152.800781 1398.941406 1149.023438 1398.933594 1144.351562 C 1398.925781 1139.683594 1402.703125 1135.894531 1407.371094 1135.882812 C 1412.039062 1135.871094 1415.832031 1139.644531 1415.847656 1144.3125 M 1211.808594 2590.628906 C 1211.808594 2596.253906 1207.25 2600.8125 1201.628906 2600.816406 C 1196.003906 2600.824219 1191.441406 2596.269531 1191.433594 2590.644531 C 1191.421875 2585.023438 1195.972656 2580.457031 1201.59375 2580.441406 C 1207.21875 2580.429688 1211.789062 2584.972656 1211.808594 2590.597656 M 674.265625 1281.269531 C 674.265625 1287.761719 669.007812 1293.027344 662.515625 1293.03125 C 656.023438 1293.039062 650.753906 1287.78125 650.742188 1281.289062 C 650.730469 1274.796875 655.984375 1269.523438 662.476562 1269.507812 C 668.96875 1269.492188 674.246094 1274.738281 674.265625 1281.234375 M 526.585938 1958.558594 C 526.585938 1965.785156 520.730469 1971.644531 513.503906 1971.652344 C 506.277344 1971.65625 500.414062 1965.808594 500.402344 1958.582031 C 500.390625 1951.355469 506.234375 1945.484375 513.460938 1945.46875 C 520.6875 1945.449219 526.5625 1951.292969 526.585938 1958.519531 M 1904.984375 1135.601562 C 1904.984375 1142.066406 1899.746094 1147.308594 1893.28125 1147.3125 C 1886.8125 1147.320312 1881.566406 1142.085938 1881.554688 1135.617188 C 1881.546875 1129.152344 1886.777344 1123.902344 1893.242188 1123.886719 C 1899.707031 1123.871094 1904.964844 1129.097656 1904.984375 1135.5625 M 2103.734375 1500.050781 C 2103.734375 1505.195312 2099.5625 1509.371094 2094.417969 1509.375 C 2089.269531 1509.378906 2085.09375 1505.210938 2085.085938 1500.066406 C 2085.078125 1494.917969 2089.242188 1490.738281 2094.386719 1490.726562 C 2099.535156 1490.714844 2103.71875 1494.875 2103.734375 1500.019531 M 2197.992188 1467.039062 C 2197.992188 1472.628906 2193.464844 1477.15625 2187.878906 1477.160156 C 2182.289062 1477.167969 2177.757812 1472.644531 2177.746094 1467.054688 C 2177.738281 1461.46875 2182.257812 1456.929688 2187.847656 1456.917969 C 2193.433594 1456.90625 2197.972656 1461.421875 2197.992188 1467.007812 M 2074.109375 818.035156 C 2074.109375 824.871094 2068.570312 830.417969 2061.730469 830.421875 C 2054.890625 830.429688 2049.339844 824.890625 2049.332031 818.054688 C 2049.320312 811.214844 2054.851562 805.660156 2061.691406 805.644531 C 2068.527344 805.628906 2074.085938 811.15625 2074.109375 817.996094 M 411.042969 1375.289062 C 411.042969 1381.402344 406.089844 1386.359375 399.980469 1386.363281 C 393.867188 1386.367188 388.90625 1381.417969 388.898438 1375.308594 C 388.886719 1369.195312 393.832031 1364.230469 399.945312 1364.214844 C 406.054688 1364.203125 411.023438 1369.140625 411.042969 1375.253906 M 543.777344 2227.628906 C 543.777344 2234.890625 537.894531 2240.777344 530.632812 2240.78125 C 523.375 2240.789062 517.480469 2234.910156 517.46875 2227.652344 C 517.457031 2220.390625 523.332031 2214.496094 530.589844 2214.476562 C 537.851562 2214.460938 543.753906 2220.328125 543.777344 2227.589844 M 2166.515625 1959.359375 C 2166.515625 1965.375 2161.644531 1970.253906 2155.628906 1970.257812 C 2149.613281 1970.261719 2144.734375 1965.390625 2144.722656 1959.378906 C 2144.714844 1953.363281 2149.578125 1948.476562 2155.59375 1948.464844 C 2161.609375 1948.449219 2166.496094 1953.308594 2166.515625 1959.324219 M 1652.355469 2484.199219 C 1652.355469 2490.265625 1647.445312 2495.183594 1641.378906 2495.1875 C 1635.3125 2495.191406 1630.390625 2490.28125 1630.382812 2484.21875 C 1630.375 2478.152344 1635.277344 2473.226562 1641.34375 2473.210938 C 1647.410156 2473.199219 1652.335938 2478.101562 1652.355469 2484.164062 M 2022.304688 1591.378906 C 2022.304688 1597.539062 2017.316406 1602.53125 2011.160156 1602.535156 C 2005 1602.539062 2000.003906 1597.554688 1999.992188 1591.398438 C 1999.984375 1585.238281 2004.964844 1580.238281 2011.125 1580.222656 C 2017.28125 1580.210938 2022.285156 1585.1875 2022.304688 1591.34375 M 1491.976562 2297.828125 C 1491.976562 2304.550781 1486.53125 2310.003906 1479.808594 2310.007812 C 1473.089844 2310.011719 1467.632812 2304.570312 1467.621094 2297.847656 C 1467.613281 2291.128906 1473.050781 2285.667969 1479.769531 2285.652344 C 1486.492188 2285.636719 1491.957031 2291.070312 1491.976562 2297.792969 M 1212.5 2570.789062 C 1212.5 2578.804688 1206.003906 2585.300781 1197.992188 2585.308594 C 1189.976562 2585.316406 1183.472656 2578.828125 1183.460938 2570.8125 C 1183.449219 2562.800781 1189.929688 2556.289062 1197.945312 2556.273438 C 1205.960938 2556.253906 1212.472656 2562.730469 1212.5 2570.742188 M 1162.867188 2312.378906 C 1162.867188 2318.804688 1157.664062 2324.011719 1151.238281 2324.019531 C 1144.816406 2324.023438 1139.601562 2318.824219 1139.589844 2312.398438 C 1139.582031 2305.972656 1144.777344 2300.757812 1151.203125 2300.742188 C 1157.625 2300.726562 1162.847656 2305.917969 1162.867188 2312.34375 M 1707.253906 2643.78125 C 1707.253906 2654.683594 1698.421875 2663.527344 1687.515625 2663.535156 C 1676.613281 2663.542969 1667.761719 2654.714844 1667.746094 2643.8125 C 1667.726562 2632.90625 1676.546875 2624.050781 1687.453125 2624.023438 C 1698.355469 2624 1707.21875 2632.8125 1707.253906 2643.71875 M 2004.171875 1220.210938 C 2004.171875 1227.15625 1998.546875 1232.789062 1991.601562 1232.792969 C 1984.652344 1232.800781 1979.019531 1227.175781 1979.007812 1220.230469 C 1978.996094 1213.285156 1984.613281 1207.644531 1991.558594 1207.625 C 1998.503906 1207.609375 2004.152344 1213.222656 2004.171875 1220.167969 M 1315.730469 841.003906 C 1315.730469 847.230469 1310.683594 852.277344 1304.457031 852.285156 C 1298.234375 852.289062 1293.179688 847.25 1293.171875 841.023438 C 1293.160156 834.796875 1298.199219 829.742188 1304.421875 829.726562 C 1310.648438 829.710938 1315.707031 834.742188 1315.730469 840.96875 M 1442.691406 2418.191406 C 1442.691406 2424.367188 1437.6875 2429.375 1431.507812 2429.382812 C 1425.332031 2429.386719 1420.316406 2424.386719 1420.308594 2418.207031 C 1420.296875 2412.03125 1425.296875 2407.011719 1431.472656 2407 C 1437.652344 2406.984375 1442.671875 2411.976562 1442.691406 2418.15625 M 1758.441406 2403.300781 C 1758.441406 2411.441406 1751.84375 2418.042969 1743.703125 2418.050781 C 1735.558594 2418.058594 1728.953125 2411.464844 1728.941406 2403.324219 C 1728.925781 2395.183594 1735.511719 2388.570312 1743.65625 2388.550781 C 1751.796875 2388.53125 1758.414062 2395.109375 1758.441406 2403.253906 M 1901.453125 2071.328125 C 1901.453125 2078.496094 1895.644531 2084.308594 1888.480469 2084.3125 C 1881.3125 2084.316406 1875.5 2078.515625 1875.488281 2071.351562 C 1875.476562 2064.183594 1881.273438 2058.363281 1888.4375 2058.347656 C 1895.605469 2058.332031 1901.429688 2064.121094 1901.453125 2071.289062 M 311.585938 2437.5 C 311.585938 2447.234375 303.695312 2455.128906 293.964844 2455.136719 C 284.230469 2455.144531 276.328125 2447.261719 276.3125 2437.527344 C 276.296875 2427.792969 284.171875 2419.886719 293.90625 2419.863281 C 303.640625 2419.839844 311.554688 2427.710938 311.585938 2437.445312 M 1214.953125 762.996094 C 1214.953125 771.148438 1208.34375 777.761719 1200.191406 777.765625 C 1192.039062 777.773438 1185.421875 771.171875 1185.410156 763.019531 C 1185.394531 754.863281 1191.992188 748.242188 1200.144531 748.222656 C 1208.296875 748.203125 1214.925781 754.792969 1214.953125 762.949219 M 680.53125 2499.929688 C 680.53125 2510.109375 672.285156 2518.363281 662.105469 2518.371094 C 651.929688 2518.378906 643.667969 2510.136719 643.652344 2499.960938 C 643.636719 2489.78125 651.871094 2481.515625 662.046875 2481.488281 C 672.226562 2481.464844 680.5 2489.691406 680.53125 2499.871094 M 2079.644531 1739.648438 C 2079.644531 1744.621094 2075.617188 1748.652344 2070.648438 1748.65625 C 2065.675781 1748.660156 2061.640625 1744.636719 2061.632812 1739.664062 C 2061.625 1734.695312 2065.648438 1730.65625 2070.617188 1730.644531 C 2075.589844 1730.632812 2079.628906 1734.648438 2079.644531 1739.621094 M 1185.289062 2648.300781 C 1185.289062 2654.691406 1180.113281 2659.875 1173.71875 2659.882812 C 1167.328125 2659.886719 1162.140625 2654.710938 1162.128906 2648.320312 C 1162.117188 2641.925781 1167.289062 2636.734375 1173.683594 2636.71875 C 1180.074219 2636.703125 1185.269531 2641.871094 1185.289062 2648.261719 M 2064.722656 1527.039062 C 2064.722656 1533.359375 2059.601562 1538.488281 2053.277344 1538.492188 C 2046.957031 1538.496094 2041.828125 1533.378906 2041.816406 1527.058594 C 2041.808594 1520.738281 2046.921875 1515.601562 2053.242188 1515.589844 C 2059.5625 1515.574219 2064.703125 1520.683594 2064.722656 1527.003906 M 1909.011719 1374.921875 C 1909.011719 1379.578125 1905.234375 1383.355469 1900.578125 1383.359375 C 1895.917969 1383.363281 1892.136719 1379.59375 1892.128906 1374.933594 C 1892.121094 1370.273438 1895.890625 1366.492188 1900.550781 1366.480469 C 1905.207031 1366.46875 1908.996094 1370.234375 1909.011719 1374.894531 M 2311.8125 943.351562 C 2311.8125 953.625 2303.488281 961.957031 2293.214844 961.964844 C 2282.941406 961.972656 2274.605469 953.65625 2274.585938 943.382812 C 2274.570312 933.109375 2282.882812 924.765625 2293.15625 924.742188 C 2303.429688 924.714844 2311.78125 933.019531 2311.8125 943.292969 M 1522.226562 631.214844 C 1522.226562 636.664062 1517.808594 641.085938 1512.359375 641.089844 C 1506.90625 641.09375 1502.480469 636.683594 1502.472656 631.230469 C 1502.464844 625.777344 1506.875 621.351562 1512.328125 621.335938 C 1517.777344 621.324219 1522.210938 625.730469 1522.226562 631.183594 M 1842.273438 2113.761719 C 1842.273438 2119.078125 1837.964844 2123.390625 1832.648438 2123.394531 C 1827.332031 2123.398438 1823.015625 2119.09375 1823.007812 2113.773438 C 1823 2108.457031 1827.300781 2104.140625 1832.617188 2104.128906 C 1837.933594 2104.113281 1842.257812 2108.414062 1842.273438 2113.730469 M 1115.171875 2022.289062 C 1115.171875 2026.710938 1111.589844 2030.296875 1107.167969 2030.300781 C 1102.746094 2030.304688 1099.15625 2026.726562 1099.148438 2022.304688 C 1099.140625 2017.878906 1102.71875 2014.289062 1107.140625 2014.277344 C 1111.5625 2014.269531 1115.15625 2017.84375 1115.171875 2022.265625 M 688.773438 2336.300781 C 688.773438 2344.601562 682.046875 2351.332031 673.746094 2351.335938 C 665.445312 2351.34375 658.710938 2344.625 658.695312 2336.324219 C 658.683594 2328.023438 665.398438 2321.28125 673.699219 2321.261719 C 682 2321.242188 688.746094 2327.953125 688.769531 2336.253906 M 1956.398438 822.878906 C 1956.398438 828.863281 1951.550781 833.710938 1945.570312 833.71875 C 1939.585938 833.722656 1934.730469 828.878906 1934.722656 822.898438 C 1934.714844 816.914062 1939.550781 812.058594 1945.535156 812.042969 C 1951.515625 812.027344 1956.378906 816.863281 1956.398438 822.84375 M 704.222656 795.363281 C 704.222656 802.863281 698.144531 808.945312 690.644531 808.949219 C 683.148438 808.957031 677.0625 802.886719 677.046875 795.386719 C 677.035156 787.886719 683.101562 781.796875 690.601562 781.777344 C 698.101562 781.761719 704.195312 787.820312 704.222656 795.320312 M 2213.53125 2562.988281 C 2213.53125 2571.886719 2206.320312 2579.101562 2197.421875 2579.109375 C 2188.523438 2579.117188 2181.304688 2571.914062 2181.289062 2563.015625 C 2181.277344 2554.117188 2188.472656 2546.890625 2197.371094 2546.871094 C 2206.269531 2546.847656 2213.5 2554.042969 2213.53125 2562.9375 M 812.417969 2042.019531 C 812.417969 2046.558594 808.742188 2050.234375 804.203125 2050.238281 C 799.667969 2050.242188 795.984375 2046.570312 795.980469 2042.03125 C 795.972656 2037.496094 799.640625 2033.8125 804.179688 2033.800781 C 808.714844 2033.789062 812.402344 2037.457031 812.417969 2041.992188 M 1851.148438 2229.078125 C 1851.148438 2235.339844 1846.078125 2240.414062 1839.820312 2240.417969 C 1833.558594 2240.425781 1828.480469 2235.355469 1828.472656 2229.097656 C 1828.460938 2222.839844 1833.523438 2217.757812 1839.78125 2217.742188 C 1846.042969 2217.726562 1851.128906 2222.785156 1851.148438 2229.042969 M 659.824219 2635.800781 C 659.824219 2643.253906 653.785156 2649.296875 646.332031 2649.300781 C 638.878906 2649.308594 632.832031 2643.273438 632.820312 2635.820312 C 632.808594 2628.367188 638.835938 2622.316406 646.289062 2622.296875 C 653.742188 2622.28125 659.800781 2628.304688 659.824219 2635.757812 M 1940.382812 908.367188 C 1940.382812 915.625 1934.503906 921.507812 1927.25 921.511719 C 1919.996094 921.519531 1914.109375 915.644531 1914.097656 908.390625 C 1914.085938 901.132812 1919.953125 895.242188 1927.207031 895.222656 C 1934.464844 895.207031 1940.359375 901.070312 1940.382812 908.324219 M 1493.902344 990.835938 C 1493.902344 997.925781 1488.160156 1003.675781 1481.070312 1003.679688 C 1473.980469 1003.6875 1468.226562 997.945312 1468.214844 990.855469 C 1468.203125 983.765625 1473.941406 978.007812 1481.03125 977.992188 C 1488.117188 977.976562 1493.882812 983.707031 1493.902344 990.796875 M 590.886719 2645.390625 C 590.886719 2653.179688 584.574219 2659.496094 576.785156 2659.503906 C 568.992188 2659.511719 562.671875 2653.203125 562.65625 2645.414062 C 562.644531 2637.621094 568.949219 2631.292969 576.738281 2631.277344 C 584.527344 2631.257812 590.859375 2637.554688 590.886719 2645.34375 M 742.90625 837.339844 C 742.90625 843.613281 737.824219 848.703125 731.550781 848.707031 C 725.277344 848.710938 720.1875 843.632812 720.175781 837.359375 C 720.164062 831.085938 725.242188 825.988281 731.515625 825.972656 C 737.789062 825.957031 742.886719 831.03125 742.90625 837.304688 M 1559.480469 2049.851562 C 1559.480469 2055.179688 1555.160156 2059.503906 1549.828125 2059.507812 C 1544.496094 2059.511719 1540.167969 2055.195312 1540.160156 2049.867188 C 1540.152344 2044.535156 1544.464844 2040.203125 1549.796875 2040.191406 C 1555.128906 2040.179688 1559.460938 2044.488281 1559.480469 2049.820312 M 1686.566406 2166 C 1686.566406 2172.195312 1681.546875 2177.222656 1675.347656 2177.226562 C 1669.152344 2177.230469 1664.121094 2172.214844 1664.113281 2166.019531 C 1664.101562 2159.820312 1669.117188 2154.789062 1675.3125 2154.773438 C 1681.511719 2154.757812 1686.546875 2159.765625 1686.566406 2165.964844 M 1561.679688 745.140625 C 1561.679688 753.132812 1555.203125 759.613281 1547.210938 759.617188 C 1539.21875 759.625 1532.734375 753.152344 1532.722656 745.160156 C 1532.707031 737.171875 1539.171875 730.679688 1547.164062 730.660156 C 1555.15625 730.640625 1561.652344 737.101562 1561.679688 745.09375 M 729.734375 1280.308594 C 729.734375 1286.734375 724.53125 1291.945312 718.105469 1291.949219 C 711.679688 1291.953125 706.464844 1286.753906 706.457031 1280.328125 C 706.445312 1273.902344 711.644531 1268.6875 718.066406 1268.671875 C 724.492188 1268.65625 729.714844 1273.847656 729.734375 1280.273438 M 508.417969 2185.640625 C 508.417969 2193.28125 502.222656 2199.480469 494.582031 2199.484375 C 486.941406 2199.492188 480.738281 2193.304688 480.726562 2185.660156 C 480.714844 2178.019531 486.894531 2171.8125 494.539062 2171.792969 C 502.179688 2171.777344 508.390625 2177.953125 508.417969 2185.597656 M 1698.628906 921.8125 C 1698.628906 927.070312 1694.367188 931.335938 1689.109375 931.339844 C 1683.847656 931.34375 1679.582031 927.085938 1679.574219 921.828125 C 1679.5625 916.566406 1683.816406 912.296875 1689.078125 912.285156 C 1694.335938 912.273438 1698.609375 916.523438 1698.628906 921.78125 M 1258.449219 2384.859375 C 1258.449219 2392.25 1252.460938 2398.242188 1245.070312 2398.25 C 1237.679688 2398.253906 1231.683594 2392.273438 1231.671875 2384.882812 C 1231.660156 2377.492188 1237.636719 2371.488281 1245.027344 2371.472656 C 1252.417969 2371.453125 1258.425781 2377.425781 1258.449219 2384.816406 M 540.867188 1708.238281 C 540.867188 1713.644531 536.488281 1718.027344 531.085938 1718.03125 C 525.679688 1718.035156 521.296875 1713.660156 521.289062 1708.253906 C 521.277344 1702.851562 525.652344 1698.460938 531.054688 1698.449219 C 536.457031 1698.4375 540.851562 1702.804688 540.867188 1708.207031 M 791.355469 1385.261719 C 791.355469 1389.851562 787.636719 1393.570312 783.046875 1393.574219 C 778.457031 1393.578125 774.730469 1389.863281 774.722656 1385.273438 C 774.714844 1380.683594 778.429688 1376.957031 783.019531 1376.945312 C 787.609375 1376.933594 791.339844 1380.644531 791.355469 1385.234375 M 837.453125 789.65625 C 837.453125 796.664062 831.777344 802.347656 824.769531 802.351562 C 817.761719 802.359375 812.074219 796.683594 812.0625 789.675781 C 812.050781 782.667969 817.71875 776.980469 824.726562 776.960938 C 831.734375 776.945312 837.429688 782.609375 837.453125 789.617188 M 783.726562 2000.441406 C 783.726562 2006.359375 778.929688 2011.160156 773.007812 2011.164062 C 767.089844 2011.167969 762.285156 2006.375 762.277344 2000.457031 C 762.265625 1994.539062 767.054688 1989.730469 772.976562 1989.714844 C 778.894531 1989.703125 783.707031 1994.488281 783.726562 2000.40625 M 1312.441406 2116.359375 C 1312.441406 2121.335938 1308.414062 2125.367188 1303.4375 2125.375 C 1298.460938 2125.378906 1294.425781 2121.347656 1294.417969 2116.375 C 1294.410156 2111.398438 1298.433594 2107.359375 1303.410156 2107.347656 C 1308.382812 2107.335938 1312.425781 2111.355469 1312.441406 2116.332031 M 2199.347656 1569.820312 C 2199.347656 1579.230469 2191.722656 1586.859375 2182.3125 1586.867188 C 2172.902344 1586.875 2165.265625 1579.257812 2165.253906 1569.847656 C 2165.238281 1560.4375 2172.847656 1552.796875 2182.257812 1552.773438 C 2191.667969 1552.75 2199.316406 1560.355469 2199.347656 1569.765625 M 2286.304688 936.804688 C 2286.304688 947.199219 2277.882812 955.628906 2267.484375 955.636719 C 2257.089844 955.644531 2248.652344 947.230469 2248.636719 936.832031 C 2248.621094 926.4375 2257.027344 917.992188 2267.425781 917.96875 C 2277.820312 917.945312 2286.269531 926.347656 2286.304688 936.742188 M 1960.753906 660.5 C 1960.753906 668.28125 1954.445312 674.59375 1946.660156 674.601562 C 1938.878906 674.605469 1932.558594 668.304688 1932.546875 660.519531 C 1932.535156 652.738281 1938.832031 646.414062 1946.617188 646.398438 C 1954.398438 646.378906 1960.726562 652.671875 1960.753906 660.453125 M 811.441406 2608.980469 C 811.441406 2615.90625 805.828125 2621.523438 798.902344 2621.527344 C 791.972656 2621.535156 786.351562 2615.925781 786.34375 2609 C 786.332031 2602.074219 791.933594 2596.449219 798.859375 2596.429688 C 805.789062 2596.414062 811.417969 2602.011719 811.441406 2608.941406 M 1988.277344 2045.808594 C 1988.277344 2052.195312 1983.101562 2057.371094 1976.71875 2057.375 C 1970.335938 2057.382812 1965.152344 2052.210938 1965.144531 2045.828125 C 1965.132812 2039.445312 1970.296875 2034.257812 1976.683594 2034.242188 C 1983.066406 2034.230469 1988.253906 2039.390625 1988.277344 2045.773438 M 1934.496094 675.050781 C 1934.496094 682.007812 1928.859375 687.652344 1921.898438 687.65625 C 1914.941406 687.664062 1909.296875 682.03125 1909.285156 675.070312 C 1909.273438 668.113281 1914.902344 662.460938 1921.859375 662.445312 C 1928.816406 662.429688 1934.472656 668.050781 1934.496094 675.011719 M 1706.210938 2073.96875 C 1706.210938 2078.957031 1702.171875 2082.996094 1697.1875 2083 C 1692.203125 2083.003906 1688.15625 2078.96875 1688.148438 2073.984375 C 1688.140625 2069 1692.171875 2064.949219 1697.160156 2064.9375 C 1702.144531 2064.925781 1706.195312 2068.957031 1706.210938 2073.941406 M 1454.734375 2163.488281 C 1454.734375 2169.890625 1449.550781 2175.082031 1443.148438 2175.085938 C 1436.75 2175.089844 1431.554688 2169.910156 1431.542969 2163.507812 C 1431.535156 2157.109375 1436.710938 2151.910156 1443.113281 2151.894531 C 1449.511719 2151.878906 1454.714844 2157.050781 1454.734375 2163.453125 M 1685.257812 1200.199219 C 1685.257812 1206.308594 1680.308594 1211.265625 1674.199219 1211.269531 C 1668.089844 1211.273438 1663.132812 1206.328125 1663.121094 1200.21875 C 1663.113281 1194.109375 1668.054688 1189.144531 1674.164062 1189.132812 C 1680.273438 1189.117188 1685.238281 1194.054688 1685.257812 1200.164062 M 620.96875 638.679688 C 620.96875 647.929688 613.472656 655.433594 604.21875 655.441406 C 594.964844 655.449219 587.457031 647.957031 587.441406 638.703125 C 587.425781 629.449219 594.910156 621.9375 604.164062 621.914062 C 613.417969 621.890625 620.941406 629.371094 620.96875 638.625 M 437.613281 962.683594 C 437.613281 973.492188 428.855469 982.257812 418.046875 982.265625 C 407.238281 982.277344 398.464844 973.523438 398.449219 962.714844 C 398.429688 951.90625 407.175781 943.128906 417.984375 943.101562 C 428.792969 943.078125 437.578125 951.8125 437.613281 962.621094 M 1863.253906 2153.230469 C 1863.253906 2159.277344 1858.355469 2164.179688 1852.308594 2164.183594 C 1846.261719 2164.191406 1841.355469 2159.292969 1841.34375 2153.246094 C 1841.335938 2147.199219 1846.226562 2142.289062 1852.273438 2142.273438 C 1858.320312 2142.261719 1863.234375 2147.148438 1863.253906 2153.195312 M 282.628906 1822.96875 C 282.628906 1831.078125 276.058594 1837.652344 267.949219 1837.660156 C 259.839844 1837.667969 253.257812 1831.101562 253.246094 1822.992188 C 253.234375 1814.882812 259.792969 1808.300781 267.902344 1808.28125 C 276.011719 1808.261719 282.601562 1814.816406 282.628906 1822.921875 M 403.332031 1739.808594 C 403.332031 1746.410156 397.984375 1751.765625 391.382812 1751.769531 C 384.78125 1751.773438 379.425781 1746.429688 379.414062 1739.828125 C 379.40625 1733.226562 384.746094 1727.867188 391.34375 1727.851562 C 397.945312 1727.835938 403.3125 1733.171875 403.332031 1739.773438 M 705.855469 1416.96875 C 705.855469 1422.804688 701.128906 1427.539062 695.292969 1427.542969 C 689.457031 1427.546875 684.722656 1422.824219 684.714844 1416.988281 C 684.703125 1411.152344 689.425781 1406.410156 695.257812 1406.398438 C 701.09375 1406.382812 705.839844 1411.101562 705.855469 1416.9375 M 1608.378906 2077.011719 C 1608.378906 2081.929688 1604.394531 2085.914062 1599.476562 2085.917969 C 1594.558594 2085.921875 1590.566406 2081.941406 1590.558594 2077.023438 C 1590.550781 2072.105469 1594.53125 2068.113281 1599.449219 2068.101562 C 1604.367188 2068.089844 1608.363281 2072.0625 1608.378906 2076.980469 M 837.460938 2294.5 C 837.460938 2300.390625 832.6875 2305.167969 826.796875 2305.171875 C 820.90625 2305.179688 816.125 2300.410156 816.113281 2294.515625 C 816.105469 2288.625 820.871094 2283.839844 826.761719 2283.828125 C 832.65625 2283.8125 837.445312 2288.574219 837.460938 2294.464844 M 480.910156 1692.761719 C 480.910156 1700.578125 474.574219 1706.917969 466.757812 1706.921875 C 458.941406 1706.929688 452.59375 1700.601562 452.582031 1692.78125 C 452.570312 1684.964844 458.894531 1678.617188 466.710938 1678.597656 C 474.53125 1678.578125 480.882812 1684.898438 480.910156 1692.714844 M 715.980469 742.769531 C 715.980469 748.71875 711.15625 753.546875 705.207031 753.550781 C 699.253906 753.554688 694.425781 748.738281 694.414062 742.785156 C 694.40625 736.835938 699.222656 732 705.171875 731.988281 C 711.125 731.972656 715.960938 736.785156 715.980469 742.734375 M 592.515625 2106.480469 C 592.515625 2112.308594 587.792969 2117.03125 581.96875 2117.035156 C 576.140625 2117.042969 571.410156 2112.324219 571.402344 2106.496094 C 571.394531 2100.671875 576.105469 2095.9375 581.933594 2095.921875 C 587.761719 2095.910156 592.496094 2100.621094 592.515625 2106.445312 M 371.113281 1604.71875 C 371.113281 1611.832031 365.351562 1617.601562 358.238281 1617.605469 C 351.125 1617.613281 345.355469 1611.851562 345.34375 1604.742188 C 345.332031 1597.628906 351.085938 1591.851562 358.199219 1591.835938 C 365.3125 1591.816406 371.09375 1597.566406 371.113281 1604.679688 M 851.835938 2330.710938 C 851.835938 2338.167969 845.792969 2344.21875 838.332031 2344.222656 C 830.875 2344.230469 824.820312 2338.191406 824.808594 2330.730469 C 824.796875 2323.273438 830.832031 2317.214844 838.289062 2317.195312 C 845.75 2317.179688 851.8125 2323.207031 851.835938 2330.667969 M 390.140625 2643.238281 C 390.140625 2653.113281 382.136719 2661.121094 372.265625 2661.128906 C 362.390625 2661.136719 354.378906 2653.140625 354.359375 2643.269531 C 354.34375 2633.394531 362.332031 2625.375 372.207031 2625.351562 C 382.082031 2625.328125 390.105469 2633.308594 390.136719 2643.183594 M 270.214844 2376.628906 C 270.214844 2383.164062 264.921875 2388.460938 258.390625 2388.464844 C 251.859375 2388.46875 246.558594 2383.179688 246.546875 2376.648438 C 246.535156 2370.117188 251.820312 2364.8125 258.351562 2364.796875 C 264.886719 2364.78125 270.195312 2370.058594 270.214844 2376.59375 M 1772.273438 2015.839844 C 1772.273438 2021.246094 1767.894531 2025.628906 1762.488281 2025.636719 C 1757.082031 2025.640625 1752.695312 2021.261719 1752.683594 2015.855469 C 1752.675781 2010.449219 1757.050781 2006.058594 1762.457031 2006.046875 C 1767.863281 2006.03125 1772.257812 2010.402344 1772.273438 2015.808594 M 349.832031 879.914062 C 349.832031 892.1875 339.890625 902.136719 327.617188 902.148438 C 315.34375 902.15625 305.382812 892.222656 305.363281 879.949219 C 305.34375 867.675781 315.273438 857.710938 327.546875 857.679688 C 339.820312 857.652344 349.792969 867.570312 349.832031 879.84375 M 650.601562 1346.691406 C 650.601562 1353.046875 645.449219 1358.203125 639.09375 1358.210938 C 632.734375 1358.214844 627.574219 1353.066406 627.5625 1346.707031 C 627.554688 1340.351562 632.699219 1335.1875 639.054688 1335.171875 C 645.414062 1335.15625 650.582031 1340.296875 650.601562 1346.652344 M 1506.722656 886.902344 C 1506.722656 893.632812 1501.269531 899.089844 1494.539062 899.097656 C 1487.808594 899.101562 1482.347656 893.652344 1482.335938 886.921875 C 1482.324219 880.191406 1487.769531 874.726562 1494.5 874.710938 C 1501.230469 874.691406 1506.703125 880.132812 1506.722656 886.863281 M 2218.257812 1358.128906 C 2218.257812 1367.535156 2210.636719 1375.160156 2201.234375 1375.167969 C 2191.828125 1375.175781 2184.199219 1367.5625 2184.183594 1358.15625 C 2184.167969 1348.753906 2191.773438 1341.113281 2201.179688 1341.09375 C 2210.582031 1341.070312 2218.226562 1348.671875 2218.257812 1358.074219 M 2255.210938 1158.390625 C 2255.210938 1165.421875 2249.515625 1171.128906 2242.480469 1171.132812 C 2235.445312 1171.136719 2229.738281 1165.445312 2229.726562 1158.410156 C 2229.714844 1151.375 2235.40625 1145.664062 2242.441406 1145.648438 C 2249.472656 1145.628906 2255.191406 1151.316406 2255.210938 1158.347656 M 1133.472656 2288.621094 C 1133.472656 2295.699219 1127.738281 2301.4375 1120.660156 2301.441406 C 1113.582031 2301.449219 1107.839844 2295.71875 1107.828125 2288.640625 C 1107.816406 2281.5625 1113.542969 2275.816406 1120.621094 2275.796875 C 1127.695312 2275.78125 1133.449219 2281.5 1133.472656 2288.578125 M 766.589844 2181.660156 C 766.589844 2188.632812 760.941406 2194.289062 753.964844 2194.296875 C 746.992188 2194.300781 741.332031 2188.65625 741.320312 2181.679688 C 741.308594 2174.707031 746.953125 2169.039062 753.925781 2169.023438 C 760.898438 2169.007812 766.570312 2174.644531 766.589844 2181.621094 M 1185.835938 1167.789062 C 1185.835938 1172.789062 1181.785156 1176.839844 1176.789062 1176.84375 C 1171.789062 1176.847656 1167.734375 1172.800781 1167.726562 1167.804688 C 1167.71875 1162.804688 1171.761719 1158.746094 1176.757812 1158.734375 C 1181.757812 1158.722656 1185.820312 1162.761719 1185.835938 1167.761719 M 503.21875 1057.511719 C 503.21875 1063.257812 498.5625 1067.917969 492.8125 1067.921875 C 487.066406 1067.925781 482.402344 1063.273438 482.390625 1057.527344 C 482.382812 1051.777344 487.03125 1047.109375 492.78125 1047.097656 C 498.527344 1047.082031 503.199219 1051.730469 503.21875 1057.476562 M 1382.117188 642.402344 C 1382.117188 648.632812 1377.070312 653.683594 1370.839844 653.6875 C 1364.609375 653.691406 1359.554688 648.648438 1359.542969 642.421875 C 1359.535156 636.191406 1364.574219 631.132812 1370.804688 631.117188 C 1377.03125 631.101562 1382.097656 636.136719 1382.117188 642.367188 M 1666.828125 1395.628906 C 1666.828125 1400.875 1662.582031 1405.125 1657.335938 1405.128906 C 1652.09375 1405.132812 1647.839844 1400.890625 1647.828125 1395.644531 C 1647.820312 1390.402344 1652.0625 1386.140625 1657.308594 1386.128906 C 1662.550781 1386.117188 1666.8125 1390.355469 1666.828125 1395.601562 M 518.925781 2615.628906 C 518.925781 2622.089844 513.691406 2627.332031 507.230469 2627.335938 C 500.769531 2627.339844 495.523438 2622.109375 495.515625 2615.648438 C 495.503906 2609.1875 500.730469 2603.9375 507.191406 2603.925781 C 513.652344 2603.910156 518.90625 2609.132812 518.925781 2615.59375 M 433.695312 1638.261719 C 433.695312 1646.414062 427.085938 1653.027344 418.933594 1653.035156 C 410.777344 1653.039062 404.160156 1646.4375 404.148438 1638.285156 C 404.132812 1630.128906 410.730469 1623.507812 418.882812 1623.488281 C 427.039062 1623.46875 433.667969 1630.058594 433.695312 1638.214844 M 2173.570312 1140.320312 C 2173.570312 1147.578125 2167.691406 1153.464844 2160.429688 1153.472656 C 2153.171875 1153.476562 2147.28125 1147.601562 2147.269531 1140.339844 C 2147.257812 1133.082031 2153.128906 1127.183594 2160.386719 1127.167969 C 2167.648438 1127.152344 2173.550781 1133.019531 2173.570312 1140.277344 M 1834.296875 1649.910156 C 1834.296875 1655.597656 1829.6875 1660.210938 1824 1660.214844 C 1818.308594 1660.222656 1813.691406 1655.617188 1813.683594 1649.925781 C 1813.675781 1644.238281 1818.277344 1639.617188 1823.964844 1639.605469 C 1829.652344 1639.589844 1834.277344 1644.1875 1834.296875 1649.878906 M 1635.484375 2020.601562 C 1635.484375 2026.011719 1631.101562 2030.402344 1625.6875 2030.40625 C 1620.273438 2030.410156 1615.882812 2026.027344 1615.875 2020.617188 C 1615.867188 2015.203125 1620.242188 2010.808594 1625.65625 2010.792969 C 1631.070312 2010.78125 1635.46875 2015.15625 1635.484375 2020.570312 M 341.714844 1100.371094 C 341.714844 1107.28125 336.113281 1112.886719 329.199219 1112.894531 C 322.289062 1112.898438 316.675781 1107.300781 316.667969 1100.390625 C 316.65625 1093.476562 322.246094 1087.863281 329.160156 1087.847656 C 336.074219 1087.828125 341.691406 1093.417969 341.714844 1100.332031 M 1600.214844 968.492188 C 1600.214844 975.710938 1594.367188 981.5625 1587.152344 981.566406 C 1579.933594 981.574219 1574.078125 975.730469 1574.066406 968.511719 C 1574.054688 961.296875 1579.890625 955.433594 1587.109375 955.417969 C 1594.324219 955.398438 1600.191406 961.234375 1600.214844 968.449219 M 598.753906 727.183594 C 598.753906 737.035156 590.769531 745.019531 580.921875 745.027344 C 571.070312 745.035156 563.074219 737.0625 563.058594 727.210938 C 563.042969 717.359375 571.011719 709.359375 580.863281 709.335938 C 590.714844 709.3125 598.71875 717.277344 598.75 727.125 M 526.289062 2566.28125 C 526.289062 2575.332031 518.953125 2582.671875 509.902344 2582.679688 C 500.847656 2582.6875 493.503906 2575.359375 493.488281 2566.304688 C 493.472656 2557.253906 500.796875 2549.902344 509.847656 2549.878906 C 518.902344 2549.859375 526.257812 2557.175781 526.289062 2566.226562 M 1530.621094 2494.609375 C 1530.621094 2499.410156 1526.734375 2503.300781 1521.9375 2503.304688 C 1517.136719 2503.308594 1513.246094 2499.421875 1513.238281 2494.625 C 1513.230469 2489.824219 1517.109375 2485.929688 1521.910156 2485.917969 C 1526.707031 2485.90625 1530.609375 2489.785156 1530.621094 2494.582031 M 1473.957031 2102.621094 C 1473.957031 2107.105469 1470.320312 2110.742188 1465.835938 2110.746094 C 1461.351562 2110.75 1457.710938 2107.117188 1457.703125 2102.632812 C 1457.695312 2098.148438 1461.324219 2094.503906 1465.8125 2094.496094 C 1470.296875 2094.484375 1473.941406 2098.109375 1473.957031 2102.59375 M 377.976562 1530.929688 C 377.976562 1538.347656 371.964844 1544.363281 364.546875 1544.367188 C 357.128906 1544.375 351.109375 1538.367188 351.097656 1530.953125 C 351.085938 1523.535156 357.085938 1517.507812 364.503906 1517.492188 C 371.921875 1517.472656 377.953125 1523.46875 377.976562 1530.886719 M 1844.007812 763.328125 C 1844.007812 771.183594 1837.640625 777.558594 1829.78125 777.5625 C 1821.921875 777.570312 1815.546875 771.207031 1815.535156 763.351562 C 1815.519531 755.492188 1821.878906 749.109375 1829.734375 749.089844 C 1837.59375 749.070312 1843.980469 755.421875 1844.007812 763.28125 M 2260.816406 1584.191406 C 2260.816406 1591.015625 2255.285156 1596.550781 2248.460938 1596.558594 C 2241.632812 1596.5625 2236.09375 1591.035156 2236.082031 1584.210938 C 2236.070312 1577.382812 2241.59375 1571.839844 2248.421875 1571.824219 C 2255.246094 1571.804688 2260.796875 1577.324219 2260.816406 1584.152344 M 618.683594 1389.941406 C 618.683594 1397.703125 612.390625 1404 604.625 1404.007812 C 596.859375 1404.015625 590.558594 1397.726562 590.546875 1389.960938 C 590.535156 1382.199219 596.816406 1375.890625 604.582031 1375.871094 C 612.34375 1375.855469 618.65625 1382.128906 618.683594 1389.894531 M 2234.085938 1150.109375 C 2234.085938 1156.0625 2229.261719 1160.890625 2223.308594 1160.894531 C 2217.355469 1160.898438 2212.523438 1156.078125 2212.515625 1150.128906 C 2212.507812 1144.175781 2217.320312 1139.339844 2223.273438 1139.324219 C 2229.226562 1139.3125 2234.066406 1144.121094 2234.085938 1150.074219 M 516.53125 1703.730469 C 516.53125 1708.632812 512.558594 1712.605469 507.65625 1712.609375 C 502.757812 1712.613281 498.78125 1708.644531 498.773438 1703.746094 C 498.765625 1698.84375 502.730469 1694.863281 507.628906 1694.851562 C 512.53125 1694.839844 516.515625 1698.800781 516.53125 1703.703125 M 1325.761719 844.578125 C 1325.761719 852.65625 1319.210938 859.210938 1311.132812 859.21875 C 1303.050781 859.222656 1296.492188 852.679688 1296.480469 844.601562 C 1296.46875 836.519531 1303.003906 829.957031 1311.085938 829.9375 C 1319.167969 829.917969 1325.734375 836.449219 1325.761719 844.53125 M 1720.371094 1806.621094 C 1720.371094 1811.996094 1716.015625 1816.355469 1710.636719 1816.359375 C 1705.261719 1816.363281 1700.898438 1812.011719 1700.890625 1806.636719 C 1700.882812 1801.257812 1705.230469 1796.890625 1710.605469 1796.878906 C 1715.984375 1796.867188 1720.351562 1801.210938 1720.371094 1806.589844 M 1816.140625 2336.660156 C 1816.140625 2344.5625 1809.734375 2350.972656 1801.832031 2350.980469 C 1793.929688 2350.984375 1787.515625 2344.585938 1787.5 2336.683594 C 1787.488281 2328.777344 1793.882812 2322.359375 1801.785156 2322.339844 C 1809.6875 2322.324219 1816.113281 2328.710938 1816.136719 2336.613281 M 1062.859375 2537.890625 C 1062.859375 2545.714844 1056.515625 2552.0625 1048.691406 2552.066406 C 1040.867188 2552.074219 1034.515625 2545.738281 1034.503906 2537.914062 C 1034.488281 2530.085938 1040.820312 2523.730469 1048.644531 2523.710938 C 1056.472656 2523.695312 1062.832031 2530.019531 1062.859375 2537.84375 M 486.140625 1071.429688 C 486.140625 1080.816406 478.535156 1088.425781 469.152344 1088.433594 C 459.765625 1088.441406 452.148438 1080.84375 452.132812 1071.457031 C 452.117188 1062.070312 459.710938 1054.449219 469.097656 1054.425781 C 478.484375 1054.402344 486.113281 1061.988281 486.140625 1071.375 M 1338.976562 1994.390625 C 1338.976562 1998.804688 1335.402344 2002.382812 1330.988281 2002.386719 C 1326.570312 2002.390625 1322.988281 1998.816406 1322.984375 1994.402344 C 1322.976562 1989.988281 1326.546875 1986.402344 1330.960938 1986.390625 C 1335.375 1986.382812 1338.964844 1989.949219 1338.976562 1994.363281 M 761 2081.589844 C 761 2086.417969 757.085938 2090.335938 752.257812 2090.339844 C 747.429688 2090.34375 743.511719 2086.433594 743.503906 2081.605469 C 743.496094 2076.773438 747.402344 2072.851562 752.230469 2072.839844 C 757.058594 2072.828125 760.984375 2076.734375 761 2081.5625 M 1048.515625 795.25 C 1048.515625 802.179688 1042.898438 807.800781 1035.96875 807.804688 C 1029.039062 807.8125 1023.417969 802.199219 1023.40625 795.269531 C 1023.394531 788.339844 1029 782.714844 1035.929688 782.695312 C 1042.859375 782.679688 1048.492188 788.28125 1048.515625 795.210938 M 741.980469 2252.519531 C 741.980469 2259.105469 736.644531 2264.445312 730.058594 2264.449219 C 723.472656 2264.453125 718.128906 2259.125 718.121094 2252.539062 C 718.109375 2245.953125 723.4375 2240.605469 730.019531 2240.589844 C 736.605469 2240.574219 741.957031 2245.898438 741.980469 2252.480469 M 279 1172.878906 C 279 1182.492188 271.214844 1190.285156 261.601562 1190.292969 C 251.988281 1190.300781 244.1875 1182.519531 244.171875 1172.90625 C 244.15625 1163.296875 251.933594 1155.488281 261.546875 1155.464844 C 271.15625 1155.441406 278.96875 1163.210938 279 1172.824219 M 1135.652344 1011.121094 C 1135.652344 1018.441406 1129.722656 1024.378906 1122.402344 1024.382812 C 1115.078125 1024.390625 1109.140625 1018.460938 1109.128906 1011.140625 C 1109.117188 1003.820312 1115.039062 997.875 1122.359375 997.855469 C 1129.679688 997.839844 1135.628906 1003.757812 1135.652344 1011.078125 M 546.304688 2253.550781 C 546.304688 2263.410156 538.316406 2271.40625 528.453125 2271.414062 C 518.59375 2271.421875 510.589844 2263.4375 510.574219 2253.578125 C 510.558594 2243.71875 518.535156 2235.707031 528.398438 2235.683594 C 538.257812 2235.660156 546.273438 2243.632812 546.304688 2253.492188 M 972.492188 1226.628906 C 972.492188 1231.382812 968.640625 1235.234375 963.890625 1235.238281 C 959.136719 1235.242188 955.28125 1231.394531 955.273438 1226.644531 C 955.265625 1221.890625 959.109375 1218.03125 963.863281 1218.019531 C 968.613281 1218.007812 972.476562 1221.851562 972.492188 1226.601562 M 1955.453125 2332.050781 C 1955.453125 2340.738281 1948.414062 2347.785156 1939.722656 2347.792969 C 1931.03125 2347.800781 1923.980469 2340.765625 1923.964844 2332.074219 C 1923.953125 2323.386719 1930.980469 2316.328125 1939.671875 2316.304688 C 1948.363281 2316.285156 1955.425781 2323.308594 1955.453125 2332 M 938.730469 2266.25 C 938.730469 2272.699219 933.503906 2277.929688 927.054688 2277.9375 C 920.605469 2277.941406 915.371094 2272.71875 915.359375 2266.269531 C 915.351562 2259.816406 920.566406 2254.578125 927.019531 2254.5625 C 933.46875 2254.546875 938.710938 2259.761719 938.730469 2266.210938 M 360.871094 714.496094 C 360.871094 721.882812 354.890625 727.867188 347.503906 727.875 C 340.121094 727.878906 334.128906 721.902344 334.117188 714.519531 C 334.105469 707.136719 340.078125 701.140625 347.464844 701.121094 C 354.847656 701.105469 360.847656 707.070312 360.871094 714.457031 M 1834.816406 755.933594 C 1834.816406 764.214844 1828.105469 770.929688 1819.820312 770.9375 C 1811.539062 770.941406 1804.820312 764.238281 1804.804688 755.957031 C 1804.792969 747.671875 1811.492188 740.949219 1819.773438 740.925781 C 1828.054688 740.90625 1834.789062 747.601562 1834.8125 755.882812 M 2162.34375 1079.851562 C 2162.34375 1086.40625 2157.035156 1091.71875 2150.480469 1091.722656 C 2143.925781 1091.730469 2138.605469 1086.421875 2138.59375 1079.867188 C 2138.585938 1073.3125 2143.886719 1067.992188 2150.441406 1067.976562 C 2156.996094 1067.960938 2162.324219 1073.257812 2162.34375 1079.8125 M 451.832031 2057.371094 C 451.832031 2065.808594 444.996094 2072.648438 436.558594 2072.65625 C 428.121094 2072.664062 421.273438 2065.832031 421.257812 2057.394531 C 421.246094 2048.957031 428.070312 2042.105469 436.507812 2042.085938 C 444.945312 2042.0625 451.804688 2048.882812 451.832031 2057.320312 M 1273.273438 1164.03125 C 1273.273438 1169.121094 1269.148438 1173.25 1264.058594 1173.253906 C 1258.964844 1173.257812 1254.835938 1169.136719 1254.828125 1164.042969 C 1254.820312 1158.953125 1258.9375 1154.820312 1264.027344 1154.808594 C 1269.117188 1154.792969 1273.257812 1158.910156 1273.273438 1164 M 1035.21875 1039.308594 C 1035.21875 1043.917969 1031.484375 1047.65625 1026.875 1047.660156 C 1022.269531 1047.664062 1018.527344 1043.933594 1018.519531 1039.324219 C 1018.515625 1034.714844 1022.242188 1030.972656 1026.851562 1030.960938 C 1031.457031 1030.949219 1035.203125 1034.675781 1035.21875 1039.285156 M 2258.230469 1536.820312 C 2258.230469 1542.152344 2253.910156 1546.476562 2248.578125 1546.480469 C 2243.246094 1546.484375 2238.917969 1542.167969 2238.910156 1536.835938 C 2238.902344 1531.503906 2243.214844 1527.171875 2248.546875 1527.160156 C 2253.878906 1527.144531 2258.214844 1531.457031 2258.230469 1536.789062 M 1339.539062 694.542969 C 1339.539062 703.402344 1332.359375 710.582031 1323.503906 710.589844 C 1314.644531 710.597656 1307.457031 703.425781 1307.441406 694.570312 C 1307.429688 685.710938 1314.59375 678.515625 1323.453125 678.496094 C 1332.308594 678.472656 1339.507812 685.632812 1339.539062 694.492188 M 1471.117188 2308.699219 C 1471.117188 2313.820312 1466.96875 2317.972656 1461.847656 2317.976562 C 1456.726562 2317.980469 1452.570312 2313.835938 1452.5625 2308.714844 C 1452.554688 2303.59375 1456.695312 2299.433594 1461.816406 2299.421875 C 1466.9375 2299.410156 1471.101562 2303.550781 1471.117188 2308.671875 M 736.898438 1724.519531 C 736.898438 1729.1875 733.113281 1732.976562 728.445312 1732.980469 C 723.777344 1732.984375 719.988281 1729.203125 719.980469 1724.535156 C 719.972656 1719.863281 723.75 1716.070312 728.417969 1716.0625 C 733.089844 1716.050781 736.882812 1719.824219 736.898438 1724.492188 M 1097.207031 2644.140625 C 1097.207031 2654.570312 1088.753906 2663.027344 1078.324219 2663.035156 C 1067.894531 2663.046875 1059.429688 2654.601562 1059.414062 2644.171875 C 1059.398438 2633.738281 1067.835938 2625.269531 1078.265625 2625.242188 C 1088.695312 2625.21875 1097.171875 2633.648438 1097.207031 2644.078125 M 2002.917969 2399.730469 C 2002.917969 2406.816406 1997.175781 2412.5625 1990.089844 2412.570312 C 1983.003906 2412.574219 1977.253906 2406.835938 1977.242188 2399.75 C 1977.230469 2392.664062 1982.960938 2386.910156 1990.050781 2386.890625 C 1997.136719 2386.875 2002.894531 2392.601562 2002.917969 2399.6875 M 576.476562 2665.101562 C 576.476562 2675.457031 568.085938 2683.855469 557.730469 2683.863281 C 547.375 2683.871094 538.96875 2675.484375 538.953125 2665.128906 C 538.9375 2654.773438 547.316406 2646.363281 557.671875 2646.339844 C 568.027344 2646.3125 576.445312 2654.683594 576.476562 2665.039062 M 1224.355469 2531.109375 C 1224.355469 2539.105469 1217.878906 2545.589844 1209.882812 2545.597656 C 1201.886719 2545.601562 1195.394531 2539.128906 1195.382812 2531.132812 C 1195.371094 2523.136719 1201.839844 2516.640625 1209.835938 2516.625 C 1217.832031 2516.605469 1224.332031 2523.066406 1224.355469 2531.0625 M 1928.953125 1734.730469 C 1928.953125 1740.539062 1924.246094 1745.25 1918.4375 1745.253906 C 1912.628906 1745.257812 1907.914062 1740.554688 1907.90625 1734.746094 C 1907.894531 1728.9375 1912.59375 1724.21875 1918.40625 1724.203125 C 1924.214844 1724.191406 1928.9375 1728.886719 1928.953125 1734.695312 M 599.199219 2558.308594 C 599.199219 2569.015625 590.523438 2577.699219 579.816406 2577.707031 C 569.109375 2577.71875 560.417969 2569.046875 560.402344 2558.339844 C 560.386719 2547.632812 569.046875 2538.9375 579.753906 2538.910156 C 590.460938 2538.886719 599.164062 2547.539062 599.199219 2558.25 M 586.644531 713.792969 C 586.644531 721.851562 580.113281 728.386719 572.054688 728.390625 C 563.996094 728.398438 557.457031 721.875 557.445312 713.816406 C 557.429688 705.757812 563.949219 699.210938 572.007812 699.191406 C 580.066406 699.171875 586.617188 705.6875 586.644531 713.746094 M 495.625 826.9375 C 495.625 835.871094 488.386719 843.117188 479.453125 843.125 C 470.519531 843.132812 463.269531 835.898438 463.253906 826.964844 C 463.238281 818.027344 470.46875 810.773438 479.402344 810.75 C 488.335938 810.730469 495.597656 817.953125 495.625 826.886719 M 318.082031 1775.429688 C 318.082031 1785.023438 310.3125 1792.800781 300.71875 1792.808594 C 291.128906 1792.816406 283.34375 1785.050781 283.328125 1775.457031 C 283.3125 1765.867188 291.074219 1758.074219 300.664062 1758.050781 C 310.257812 1758.027344 318.054688 1765.78125 318.082031 1775.375 M 1691.703125 676.511719 C 1691.703125 683.046875 1686.40625 688.347656 1679.871094 688.351562 C 1673.332031 688.359375 1668.027344 683.066406 1668.019531 676.53125 C 1668.007812 669.992188 1673.296875 664.683594 1679.832031 664.667969 C 1686.367188 664.652344 1691.679688 669.9375 1691.703125 676.472656 M 554.917969 2509.078125 C 554.917969 2516.183594 549.164062 2521.945312 542.058594 2521.949219 C 534.957031 2521.953125 529.191406 2516.203125 529.179688 2509.101562 C 529.167969 2501.996094 534.914062 2496.226562 542.019531 2496.210938 C 549.121094 2496.195312 554.894531 2501.9375 554.917969 2509.039062 M 326.066406 2039.898438 C 326.066406 2049.46875 318.316406 2057.226562 308.746094 2057.234375 C 299.179688 2057.242188 291.414062 2049.496094 291.398438 2039.925781 C 291.382812 2030.359375 299.125 2022.589844 308.691406 2022.566406 C 318.257812 2022.542969 326.035156 2030.277344 326.066406 2039.84375 M 1725.613281 787.742188 C 1725.613281 795.839844 1719.050781 802.410156 1710.953125 802.414062 C 1702.851562 802.421875 1696.28125 795.863281 1696.265625 787.765625 C 1696.253906 779.667969 1702.804688 773.089844 1710.90625 773.070312 C 1719.003906 773.050781 1725.585938 779.597656 1725.613281 787.695312 M 2159.292969 2526.578125 C 2159.292969 2535.558594 2152.019531 2542.835938 2143.042969 2542.84375 C 2134.066406 2542.851562 2126.78125 2535.582031 2126.765625 2526.605469 C 2126.753906 2517.628906 2134.015625 2510.339844 2142.992188 2510.316406 C 2151.96875 2510.296875 2159.265625 2517.550781 2159.292969 2526.527344 M 1300.4375 2325.761719 C 1300.4375 2333.078125 1294.507812 2339.011719 1287.191406 2339.015625 C 1279.875 2339.023438 1273.9375 2333.097656 1273.925781 2325.78125 C 1273.914062 2318.464844 1279.832031 2312.519531 1287.148438 2312.503906 C 1294.464844 2312.488281 1300.414062 2318.402344 1300.4375 2325.71875 M 1490.714844 2106.628906 C 1490.714844 2111.253906 1486.96875 2115 1482.347656 2115.003906 C 1477.722656 2115.007812 1473.972656 2111.265625 1473.964844 2106.644531 C 1473.957031 2102.019531 1477.699219 2098.265625 1482.320312 2098.253906 C 1486.941406 2098.246094 1490.699219 2101.980469 1490.714844 2106.601562 M 1270.15625 959.296875 C 1270.15625 966.960938 1263.945312 973.175781 1256.28125 973.183594 C 1248.617188 973.191406 1242.394531 966.984375 1242.382812 959.316406 C 1242.371094 951.652344 1248.570312 945.425781 1256.238281 945.410156 C 1263.902344 945.390625 1270.132812 951.585938 1270.15625 959.25 M 1434.953125 1187.429688 C 1434.953125 1191.988281 1431.257812 1195.6875 1426.695312 1195.691406 C 1422.136719 1195.695312 1418.4375 1192.003906 1418.429688 1187.441406 C 1418.421875 1182.882812 1422.109375 1179.179688 1426.671875 1179.167969 C 1431.230469 1179.15625 1434.9375 1182.84375 1434.949219 1187.402344 M 1166.203125 938.480469 C 1166.203125 944.511719 1161.320312 949.402344 1155.289062 949.40625 C 1149.257812 949.410156 1144.363281 944.53125 1144.355469 938.5 C 1144.34375 932.46875 1149.222656 927.570312 1155.253906 927.558594 C 1161.285156 927.542969 1166.183594 932.417969 1166.203125 938.445312 M 1757.523438 694.578125 C 1757.523438 700.398438 1752.808594 705.117188 1746.988281 705.121094 C 1741.167969 705.125 1736.445312 700.414062 1736.4375 694.597656 C 1736.429688 688.777344 1741.136719 684.050781 1746.953125 684.035156 C 1752.773438 684.023438 1757.503906 688.726562 1757.523438 694.546875 M 767.734375 848.648438 C 767.734375 855.625 762.078125 861.285156 755.101562 861.289062 C 748.121094 861.296875 742.457031 855.648438 742.445312 848.667969 C 742.4375 841.691406 748.082031 836.023438 755.058594 836.003906 C 762.039062 835.988281 767.710938 841.628906 767.734375 848.609375 M 2177.855469 2204.941406 C 2177.855469 2213.1875 2171.171875 2219.878906 2162.921875 2219.882812 C 2154.671875 2219.890625 2147.976562 2213.210938 2147.964844 2204.964844 C 2147.953125 2196.714844 2154.625 2190.015625 2162.875 2189.996094 C 2171.125 2189.976562 2177.828125 2196.644531 2177.855469 2204.890625 M 1499.636719 1201.410156 C 1499.636719 1206.5625 1495.460938 1210.742188 1490.308594 1210.746094 C 1485.15625 1210.75 1480.972656 1206.578125 1480.964844 1201.425781 C 1480.957031 1196.273438 1485.125 1192.085938 1490.277344 1192.074219 C 1495.429688 1192.0625 1499.617188 1196.226562 1499.636719 1201.378906 M 1347.910156 2544.039062 C 1347.910156 2549.953125 1343.121094 2554.746094 1337.207031 2554.75 C 1331.296875 2554.753906 1326.5 2549.96875 1326.488281 2544.058594 C 1326.480469 2538.144531 1331.261719 2533.34375 1337.175781 2533.328125 C 1343.085938 2533.316406 1347.890625 2538.09375 1347.910156 2544.007812 M 2148.648438 2020.238281 C 2148.648438 2029.257812 2141.339844 2036.570312 2132.324219 2036.578125 C 2123.304688 2036.585938 2115.988281 2029.285156 2115.972656 2020.265625 C 2115.957031 2011.25 2123.253906 2003.925781 2132.269531 2003.902344 C 2141.289062 2003.882812 2148.617188 2011.171875 2148.648438 2020.1875 M 2105.179688 1142.898438 C 2105.179688 1151.269531 2098.398438 1158.054688 2090.03125 1158.058594 C 2081.664062 1158.066406 2074.875 1151.292969 2074.859375 1142.925781 C 2074.847656 1134.554688 2081.617188 1127.761719 2089.984375 1127.742188 C 2098.351562 1127.71875 2105.152344 1134.484375 2105.179688 1142.851562 M 279.617188 2539.308594 C 279.617188 2547.472656 273 2554.09375 264.835938 2554.101562 C 256.671875 2554.109375 250.046875 2547.5 250.03125 2539.332031 C 250.019531 2531.167969 256.625 2524.539062 264.789062 2524.519531 C 272.953125 2524.5 279.589844 2531.097656 279.617188 2539.261719 M 2023.234375 1199.011719 C 2023.234375 1208.039062 2015.921875 1215.359375 2006.894531 1215.367188 C 1997.863281 1215.375 1990.539062 1208.0625 1990.523438 1199.035156 C 1990.507812 1190.007812 1997.8125 1182.675781 2006.839844 1182.652344 C 2015.871094 1182.632812 2023.207031 1189.929688 2023.234375 1198.957031 M 1299.753906 880.816406 C 1299.753906 886.800781 1294.902344 891.65625 1288.917969 891.660156 C 1282.933594 891.664062 1278.078125 886.820312 1278.066406 880.835938 C 1278.058594 874.851562 1282.898438 869.988281 1288.882812 869.976562 C 1294.867188 869.960938 1299.734375 874.796875 1299.753906 880.785156 M 1831.464844 833.726562 C 1831.464844 841.160156 1825.445312 847.1875 1818.011719 847.191406 C 1810.578125 847.199219 1804.546875 841.179688 1804.535156 833.746094 C 1804.523438 826.316406 1810.535156 820.277344 1817.96875 820.261719 C 1825.402344 820.242188 1831.441406 826.25 1831.464844 833.683594 M 967.90625 1236.011719 C 967.90625 1241.511719 963.445312 1245.972656 957.945312 1245.980469 C 952.441406 1245.984375 947.976562 1241.527344 947.96875 1236.027344 C 947.957031 1230.523438 952.410156 1226.054688 957.914062 1226.042969 C 963.414062 1226.027344 967.886719 1230.476562 967.90625 1235.976562 M 509.925781 2617.671875 C 509.925781 2629.480469 500.355469 2639.058594 488.546875 2639.066406 C 476.734375 2639.078125 467.148438 2629.515625 467.128906 2617.703125 C 467.113281 2605.894531 476.664062 2596.300781 488.476562 2596.273438 C 500.289062 2596.246094 509.886719 2605.789062 509.925781 2617.601562 M 595.761719 955.542969 C 595.761719 960.988281 591.347656 965.402344 585.902344 965.40625 C 580.457031 965.414062 576.039062 961.003906 576.03125 955.558594 C 576.023438 950.113281 580.425781 945.691406 585.871094 945.679688 C 591.316406 945.664062 595.742188 950.066406 595.761719 955.511719 M 569.480469 1584.929688 C 569.480469 1590.453125 565.003906 1594.933594 559.480469 1594.9375 C 553.957031 1594.941406 549.476562 1590.46875 549.464844 1584.945312 C 549.457031 1579.421875 553.925781 1574.9375 559.449219 1574.921875 C 564.972656 1574.910156 569.460938 1579.375 569.480469 1584.898438 M 2068.894531 1495.230469 C 2068.894531 1501.375 2063.914062 1506.359375 2057.769531 1506.363281 C 2051.625 1506.367188 2046.636719 1501.394531 2046.625 1495.246094 C 2046.617188 1489.101562 2051.589844 1484.113281 2057.734375 1484.097656 C 2063.878906 1484.082031 2068.875 1489.050781 2068.894531 1495.195312 M 1935.167969 2461.21875 C 1935.167969 2471.574219 1926.78125 2479.972656 1916.425781 2479.980469 C 1906.070312 2479.988281 1897.667969 2471.605469 1897.648438 2461.25 C 1897.632812 2450.894531 1906.011719 2442.484375 1916.363281 2442.460938 C 1926.71875 2442.4375 1935.136719 2450.804688 1935.167969 2461.160156 M 2104.476562 2200.890625 C 2104.476562 2206.960938 2099.558594 2211.882812 2093.488281 2211.886719 C 2087.417969 2211.890625 2082.492188 2206.976562 2082.484375 2200.90625 C 2082.472656 2194.835938 2087.382812 2189.90625 2093.453125 2189.894531 C 2099.523438 2189.878906 2104.457031 2194.785156 2104.476562 2200.855469 M 1439.4375 694.0625 C 1439.4375 703.257812 1431.988281 710.714844 1422.792969 710.722656 C 1413.597656 710.730469 1406.136719 703.285156 1406.121094 694.089844 C 1406.105469 684.894531 1413.542969 677.425781 1422.738281 677.40625 C 1431.9375 677.382812 1439.410156 684.816406 1439.4375 694.011719 M 1329.789062 2387.710938 C 1329.789062 2392.9375 1325.554688 2397.171875 1320.328125 2397.175781 C 1315.101562 2397.183594 1310.859375 2392.949219 1310.851562 2387.726562 C 1310.84375 2382.5 1315.070312 2378.253906 1320.296875 2378.242188 C 1325.523438 2378.230469 1329.769531 2382.453125 1329.789062 2387.679688 M 2039.460938 1827.199219 C 2039.460938 1833.101562 2034.679688 1837.882812 2028.777344 1837.890625 C 2022.878906 1837.894531 2018.089844 1833.117188 2018.082031 1827.21875 C 2018.070312 1821.316406 2022.84375 1816.523438 2028.746094 1816.511719 C 2034.644531 1816.496094 2039.441406 1821.265625 2039.457031 1827.164062 M 1924.085938 1702.371094 C 1924.085938 1709.445312 1918.355469 1715.183594 1911.28125 1715.1875 C 1904.207031 1715.191406 1898.464844 1709.464844 1898.453125 1702.390625 C 1898.441406 1695.316406 1904.164062 1689.570312 1911.238281 1689.550781 C 1918.3125 1689.535156 1924.066406 1695.253906 1924.085938 1702.328125 M 2061.617188 1319.691406 C 2061.617188 1325.109375 2057.226562 1329.503906 2051.808594 1329.507812 C 2046.390625 1329.511719 2041.992188 1325.125 2041.984375 1319.707031 C 2041.972656 1314.285156 2046.359375 1309.886719 2051.777344 1309.871094 C 2057.195312 1309.859375 2061.601562 1314.238281 2061.617188 1319.660156 M 1783.832031 2096.601562 C 1783.832031 2103.695312 1778.085938 2109.445312 1770.992188 2109.453125 C 1763.894531 2109.457031 1758.140625 2103.714844 1758.128906 2096.621094 C 1758.117188 2089.527344 1763.855469 2083.765625 1770.949219 2083.746094 C 1778.042969 2083.730469 1783.808594 2089.464844 1783.832031 2096.558594 M 421.070312 2078.628906 C 421.070312 2088.242188 413.28125 2096.039062 403.667969 2096.046875 C 394.054688 2096.054688 386.253906 2088.269531 386.238281 2078.65625 C 386.222656 2069.042969 394 2061.238281 403.613281 2061.214844 C 413.222656 2061.191406 421.039062 2068.960938 421.070312 2078.574219 M 998.089844 813.300781 C 998.089844 818.796875 993.636719 823.253906 988.140625 823.257812 C 982.644531 823.261719 978.1875 818.8125 978.175781 813.316406 C 978.167969 807.820312 982.613281 803.355469 988.109375 803.34375 C 993.605469 803.328125 998.074219 807.773438 998.089844 813.269531 M 1119.035156 826.714844 C 1119.035156 834.316406 1112.875 840.480469 1105.269531 840.488281 C 1097.667969 840.492188 1091.5 834.339844 1091.484375 826.734375 C 1091.472656 819.132812 1097.625 812.957031 1105.226562 812.941406 C 1112.828125 812.921875 1119.007812 819.066406 1119.035156 826.671875 M 1415.332031 2288.621094 C 1415.332031 2295.578125 1409.695312 2301.21875 1402.738281 2301.222656 C 1395.785156 2301.226562 1390.136719 2295.597656 1390.128906 2288.640625 C 1390.117188 2281.683594 1395.742188 2276.035156 1402.699219 2276.015625 C 1409.65625 2276 1415.3125 2281.625 1415.332031 2288.578125 M 1836.664062 1925.820312 C 1836.664062 1932.539062 1831.21875 1937.988281 1824.5 1937.992188 C 1817.78125 1938 1812.328125 1932.558594 1812.316406 1925.839844 C 1812.304688 1919.121094 1817.742188 1913.664062 1824.460938 1913.648438 C 1831.179688 1913.628906 1836.640625 1919.0625 1836.664062 1925.78125 M 2055.507812 1622.398438 C 2055.507812 1627.117188 2051.683594 1630.945312 2046.96875 1630.949219 C 2042.25 1630.953125 2038.417969 1627.132812 2038.410156 1622.414062 C 2038.40625 1617.695312 2042.222656 1613.863281 2046.941406 1613.851562 C 2051.65625 1613.839844 2055.492188 1617.65625 2055.507812 1622.371094 M 515.65625 786.714844 C 515.65625 793.507812 510.152344 799.015625 503.359375 799.023438 C 496.566406 799.027344 491.054688 793.527344 491.042969 786.734375 C 491.03125 779.941406 496.527344 774.425781 503.320312 774.410156 C 510.113281 774.394531 515.632812 779.882812 515.65625 786.675781 M 1067.992188 2620.800781 C 1067.992188 2629.3125 1061.09375 2636.214844 1052.582031 2636.21875 C 1044.070312 2636.226562 1037.164062 2629.335938 1037.148438 2620.824219 C 1037.136719 2612.3125 1044.019531 2605.398438 1052.53125 2605.378906 C 1061.042969 2605.359375 1067.964844 2612.238281 1067.992188 2620.75 M 1656.632812 2483.730469 C 1656.632812 2490.34375 1651.273438 2495.707031 1644.660156 2495.714844 C 1638.042969 2495.71875 1632.675781 2490.363281 1632.667969 2483.75 C 1632.65625 2477.132812 1638.007812 2471.761719 1644.621094 2471.746094 C 1651.234375 2471.730469 1656.613281 2477.078125 1656.632812 2483.691406 M 2020.761719 2250.328125 C 2020.761719 2257.488281 2014.960938 2263.296875 2007.800781 2263.300781 C 2000.640625 2263.308594 1994.828125 2257.511719 1994.816406 2250.351562 C 1994.808594 2243.191406 2000.597656 2237.375 2007.757812 2237.359375 C 2014.917969 2237.339844 2020.738281 2243.128906 2020.761719 2250.289062 M 417.515625 1647.210938 C 417.515625 1654.140625 411.902344 1659.757812 404.972656 1659.765625 C 398.042969 1659.769531 392.417969 1654.160156 392.40625 1647.230469 C 392.398438 1640.300781 398.003906 1634.671875 404.933594 1634.65625 C 411.863281 1634.640625 417.492188 1640.242188 417.515625 1647.171875 M 2168.636719 1242.25 C 2168.636719 1248.121094 2163.878906 1252.882812 2158.007812 1252.886719 C 2152.136719 1252.890625 2147.371094 1248.136719 2147.363281 1242.265625 C 2147.351562 1236.394531 2152.101562 1231.625 2157.972656 1231.613281 C 2163.847656 1231.597656 2168.617188 1236.34375 2168.636719 1242.214844 M 500.839844 793.855469 C 500.839844 805.667969 491.269531 815.25 479.453125 815.257812 C 467.640625 815.265625 458.054688 805.703125 458.039062 793.890625 C 458.019531 782.078125 467.574219 772.484375 479.386719 772.457031 C 491.199219 772.429688 500.800781 781.976562 500.839844 793.789062 M 1099.507812 1116.359375 C 1099.507812 1122.886719 1094.21875 1128.183594 1087.6875 1128.1875 C 1081.160156 1128.191406 1075.863281 1122.90625 1075.851562 1116.378906 C 1075.84375 1109.851562 1081.125 1104.546875 1087.652344 1104.53125 C 1094.179688 1104.515625 1099.484375 1109.792969 1099.507812 1116.324219 M 1965.277344 1034.078125 C 1965.277344 1039.59375 1960.808594 1044.0625 1955.296875 1044.066406 C 1949.785156 1044.070312 1945.3125 1039.609375 1945.304688 1034.097656 C 1945.296875 1028.582031 1949.753906 1024.105469 1955.265625 1024.09375 C 1960.777344 1024.082031 1965.257812 1028.535156 1965.277344 1034.046875 M 666.667969 1321.800781 C 666.667969 1327.984375 661.660156 1332.996094 655.476562 1333 C 649.292969 1333.007812 644.277344 1328 644.265625 1321.816406 C 644.257812 1315.636719 649.257812 1310.613281 655.441406 1310.597656 C 661.621094 1310.585938 666.648438 1315.582031 666.667969 1321.765625 M 1143.390625 933.527344 C 1143.390625 940.296875 1137.902344 945.789062 1131.128906 945.796875 C 1124.355469 945.800781 1118.859375 940.316406 1118.851562 933.546875 C 1118.839844 926.773438 1124.316406 921.273438 1131.089844 921.257812 C 1137.863281 921.242188 1143.367188 926.714844 1143.390625 933.488281 M 2299.9375 2054.058594 C 2299.9375 2061.964844 2293.535156 2068.371094 2285.632812 2068.378906 C 2277.726562 2068.382812 2271.316406 2061.984375 2271.300781 2054.082031 C 2271.289062 2046.179688 2277.683594 2039.761719 2285.585938 2039.742188 C 2293.488281 2039.722656 2299.914062 2046.109375 2299.9375 2054.015625 M 2004.074219 2301.839844 C 2004.074219 2310.972656 1996.675781 2318.378906 1987.542969 2318.386719 C 1978.410156 2318.390625 1971 2311 1970.984375 2301.867188 C 1970.96875 2292.734375 1978.359375 2285.316406 1987.492188 2285.296875 C 1996.621094 2285.273438 2004.046875 2292.65625 2004.074219 2301.789062 M 1032.914062 649.601562 C 1032.914062 657.574219 1026.457031 664.039062 1018.480469 664.046875 C 1010.507812 664.050781 1004.035156 657.597656 1004.023438 649.621094 C 1004.011719 641.648438 1010.460938 635.171875 1018.433594 635.152344 C 1026.410156 635.136719 1032.890625 641.582031 1032.914062 649.554688 M 1894.226562 1399.820312 C 1894.226562 1404.898438 1890.113281 1409.015625 1885.039062 1409.019531 C 1879.960938 1409.023438 1875.839844 1404.910156 1875.832031 1399.835938 C 1875.824219 1394.757812 1879.929688 1390.632812 1885.007812 1390.621094 C 1890.085938 1390.609375 1894.210938 1394.714844 1894.226562 1399.789062 M 1057.625 1311.988281 C 1057.625 1316.429688 1054.027344 1320.03125 1049.585938 1320.035156 C 1045.144531 1320.039062 1041.542969 1316.445312 1041.535156 1312.003906 C 1041.527344 1307.5625 1045.121094 1303.957031 1049.5625 1303.945312 C 1054 1303.933594 1057.609375 1307.523438 1057.625 1311.964844 M 564.292969 1224.710938 C 564.292969 1232.273438 558.164062 1238.40625 550.601562 1238.410156 C 543.039062 1238.417969 536.902344 1232.292969 536.890625 1224.730469 C 536.878906 1217.167969 542.996094 1211.027344 550.558594 1211.007812 C 558.121094 1210.988281 564.269531 1217.101562 564.292969 1224.667969 M 2007.09375 1271.988281 C 2007.09375 1277.058594 2002.984375 1281.167969 1997.917969 1281.171875 C 1992.847656 1281.175781 1988.734375 1277.074219 1988.726562 1272.003906 C 1988.71875 1266.9375 1992.820312 1262.820312 1997.886719 1262.808594 C 2002.957031 1262.792969 2007.078125 1266.890625 2007.09375 1271.960938 M 1502.296875 641.398438 C 1502.296875 651.726562 1493.929688 660.101562 1483.605469 660.109375 C 1473.277344 660.117188 1464.898438 651.757812 1464.882812 641.429688 C 1464.867188 631.101562 1473.21875 622.714844 1483.546875 622.691406 C 1493.871094 622.667969 1502.265625 631.015625 1502.296875 641.339844 M 806.011719 1223.640625 C 806.011719 1230.363281 800.566406 1235.816406 793.839844 1235.820312 C 787.117188 1235.828125 781.660156 1230.382812 781.652344 1223.660156 C 781.640625 1216.9375 787.078125 1211.476562 793.804688 1211.457031 C 800.527344 1211.441406 805.992188 1216.878906 806.011719 1223.601562 M 517.160156 1924.621094 C 517.160156 1929.257812 513.402344 1933.019531 508.765625 1933.023438 C 504.125 1933.027344 500.363281 1929.269531 500.355469 1924.632812 C 500.347656 1919.996094 504.097656 1916.230469 508.738281 1916.21875 C 513.375 1916.207031 517.144531 1919.957031 517.160156 1924.59375 M 1884.824219 1774.269531 C 1884.824219 1778.832031 1881.128906 1782.53125 1876.566406 1782.535156 C 1872.003906 1782.539062 1868.300781 1778.84375 1868.292969 1774.28125 C 1868.289062 1769.722656 1871.976562 1766.015625 1876.539062 1766.003906 C 1881.101562 1765.992188 1884.8125 1769.679688 1884.824219 1774.242188 M 1732.09375 2347.769531 C 1732.09375 2353.296875 1727.617188 2357.78125 1722.089844 2357.785156 C 1716.558594 2357.789062 1712.074219 2353.3125 1712.066406 2347.785156 C 1712.054688 2342.257812 1716.527344 2337.769531 1722.054688 2337.753906 C 1727.585938 2337.742188 1732.078125 2342.210938 1732.09375 2347.738281 M 421.289062 1043 C 421.289062 1051.628906 414.296875 1058.628906 405.667969 1058.632812 C 397.039062 1058.640625 390.035156 1051.65625 390.019531 1043.023438 C 390.007812 1034.394531 396.988281 1027.386719 405.617188 1027.367188 C 414.246094 1027.34375 421.261719 1034.320312 421.289062 1042.949219 M 1964.289062 1492.011719 C 1964.289062 1499.175781 1958.484375 1504.984375 1951.320312 1504.988281 C 1944.15625 1504.996094 1938.339844 1499.195312 1938.328125 1492.03125 C 1938.320312 1484.867188 1944.113281 1479.046875 1951.277344 1479.03125 C 1958.445312 1479.011719 1964.265625 1484.804688 1964.289062 1491.96875 M 863.265625 999.640625 C 863.265625 1005.410156 858.589844 1010.089844 852.816406 1010.097656 C 847.046875 1010.101562 842.359375 1005.425781 842.351562 999.65625 C 842.34375 993.882812 847.011719 989.195312 852.785156 989.183594 C 858.554688 989.167969 863.246094 993.832031 863.265625 999.605469 M 2172.535156 1832.421875 C 2172.535156 1839.019531 2167.1875 1844.371094 2160.589844 1844.375 C 2153.988281 1844.382812 2148.632812 1839.039062 2148.625 1832.4375 C 2148.613281 1825.839844 2153.953125 1820.480469 2160.550781 1820.464844 C 2167.152344 1820.449219 2172.515625 1825.78125 2172.535156 1832.382812 M 1095.796875 732.980469 C 1095.796875 740.15625 1089.984375 745.972656 1082.808594 745.980469 C 1075.636719 745.984375 1069.8125 740.175781 1069.804688 733.003906 C 1069.792969 725.828125 1075.59375 720.003906 1082.769531 719.984375 C 1089.941406 719.96875 1095.773438 725.765625 1095.796875 732.941406 M 1481.585938 2156.550781 C 1481.585938 2162.5625 1476.710938 2167.441406 1470.699219 2167.445312 C 1464.683594 2167.449219 1459.804688 2162.582031 1459.796875 2156.566406 C 1459.785156 2150.554688 1464.648438 2145.667969 1470.664062 2145.65625 C 1476.675781 2145.640625 1481.566406 2150.5 1481.585938 2156.515625 M 539.484375 843.34375 C 539.484375 852.835938 531.792969 860.53125 522.300781 860.539062 C 512.808594 860.546875 505.105469 852.863281 505.089844 843.371094 C 505.074219 833.878906 512.753906 826.167969 522.246094 826.144531 C 531.738281 826.121094 539.453125 833.796875 539.484375 843.289062 M 1966.867188 1815.820312 C 1966.867188 1822.320312 1961.597656 1827.589844 1955.097656 1827.597656 C 1948.597656 1827.601562 1943.324219 1822.339844 1943.3125 1815.839844 C 1943.304688 1809.339844 1948.5625 1804.058594 1955.0625 1804.042969 C 1961.5625 1804.027344 1966.84375 1809.28125 1966.867188 1815.78125 M 2280.636719 668.589844 C 2280.636719 680.890625 2270.667969 690.863281 2258.367188 690.875 C 2246.066406 690.882812 2236.085938 680.925781 2236.066406 668.625 C 2236.046875 656.324219 2245.996094 646.332031 2258.296875 646.304688 C 2270.597656 646.273438 2280.597656 656.21875 2280.636719 668.519531 M 668.3125 2604.160156 C 668.3125 2613.085938 661.082031 2620.320312 652.15625 2620.328125 C 643.234375 2620.335938 635.992188 2613.109375 635.976562 2604.1875 C 635.960938 2595.261719 643.183594 2588.011719 652.105469 2587.992188 C 661.03125 2587.96875 668.285156 2595.183594 668.3125 2604.109375 M 834.222656 2098.378906 C 834.222656 2104.164062 829.535156 2108.855469 823.75 2108.859375 C 817.964844 2108.863281 813.273438 2104.179688 813.261719 2098.398438 C 813.253906 2092.613281 817.933594 2087.914062 823.71875 2087.898438 C 829.503906 2087.886719 834.203125 2092.5625 834.222656 2098.347656 M 1978.007812 2332.769531 C 1978.007812 2341.246094 1971.140625 2348.121094 1962.664062 2348.128906 C 1954.183594 2348.132812 1947.304688 2341.273438 1947.292969 2332.792969 C 1947.277344 2324.316406 1954.136719 2317.433594 1962.613281 2317.414062 C 1971.089844 2317.390625 1977.980469 2324.242188 1978.007812 2332.722656 M 1753.109375 1941.769531 C 1753.109375 1946.183594 1749.53125 1949.765625 1745.117188 1949.769531 C 1740.703125 1949.769531 1737.121094 1946.199219 1737.113281 1941.78125 C 1737.105469 1937.367188 1740.675781 1933.78125 1745.089844 1933.773438 C 1749.503906 1933.761719 1753.09375 1937.328125 1753.109375 1941.746094 M 2042.714844 1532.441406 C 2042.714844 1540.484375 2036.195312 1547.007812 2028.152344 1547.011719 C 2020.109375 1547.019531 2013.578125 1540.507812 2013.566406 1532.464844 C 2013.554688 1524.417969 2020.0625 1517.886719 2028.105469 1517.867188 C 2036.148438 1517.847656 2042.6875 1524.351562 2042.710938 1532.394531 M 830.265625 2571.578125 C 830.265625 2577.578125 825.40625 2582.441406 819.410156 2582.445312 C 813.414062 2582.449219 808.546875 2577.59375 808.539062 2571.597656 C 808.527344 2565.601562 813.378906 2560.730469 819.375 2560.714844 C 825.371094 2560.703125 830.246094 2565.546875 830.265625 2571.546875 M 1117.707031 2336.210938 C 1117.707031 2343.964844 1111.425781 2350.253906 1103.671875 2350.257812 C 1095.917969 2350.265625 1089.625 2343.988281 1089.613281 2336.230469 C 1089.597656 2328.476562 1095.871094 2322.179688 1103.625 2322.160156 C 1111.378906 2322.144531 1117.683594 2328.410156 1117.707031 2336.164062 M 1940.949219 2526.980469 C 1940.949219 2536.367188 1933.339844 2543.980469 1923.953125 2543.988281 C 1914.566406 2543.996094 1906.949219 2536.394531 1906.933594 2527.007812 C 1906.917969 2517.621094 1914.511719 2509.996094 1923.898438 2509.972656 C 1933.285156 2509.949219 1940.917969 2517.539062 1940.949219 2526.925781 M 766.886719 2550.511719 C 766.886719 2559.175781 759.867188 2566.207031 751.199219 2566.210938 C 742.53125 2566.21875 735.496094 2559.203125 735.484375 2550.535156 C 735.46875 2541.867188 742.480469 2534.828125 751.148438 2534.808594 C 759.816406 2534.785156 766.859375 2541.792969 766.886719 2550.460938 M 528.84375 1133.828125 C 528.84375 1143.066406 521.359375 1150.554688 512.121094 1150.5625 C 502.886719 1150.570312 495.390625 1143.09375 495.375 1133.855469 C 495.359375 1124.621094 502.832031 1117.117188 512.070312 1117.097656 C 521.304688 1117.074219 528.8125 1124.539062 528.84375 1133.777344 M 671.554688 962.433594 C 671.554688 971.460938 664.242188 978.777344 655.214844 978.785156 C 646.191406 978.792969 638.867188 971.484375 638.851562 962.460938 C 638.839844 953.433594 646.140625 946.105469 655.164062 946.082031 C 664.1875 946.0625 671.523438 953.355469 671.554688 962.382812 M 1634.167969 1428.769531 C 1634.167969 1433.742188 1630.140625 1437.773438 1625.167969 1437.777344 C 1620.195312 1437.78125 1616.160156 1433.757812 1616.152344 1428.785156 C 1616.144531 1423.8125 1620.167969 1419.773438 1625.136719 1419.761719 C 1630.109375 1419.75 1634.152344 1423.769531 1634.167969 1428.742188 M 1624.730469 865.835938 C 1624.730469 870.441406 1621 874.175781 1616.398438 874.179688 C 1611.792969 874.183594 1608.054688 870.453125 1608.046875 865.851562 C 1608.039062 861.246094 1611.765625 857.503906 1616.371094 857.496094 C 1620.976562 857.484375 1624.71875 861.207031 1624.730469 865.808594 M 1439.140625 695.828125 C 1439.140625 702.714844 1433.5625 708.296875 1426.679688 708.300781 C 1419.796875 708.308594 1414.207031 702.734375 1414.199219 695.847656 C 1414.1875 688.964844 1419.753906 683.375 1426.640625 683.355469 C 1433.523438 683.339844 1439.121094 688.90625 1439.140625 695.789062 M 2012.105469 1386.511719 C 2012.105469 1393.539062 2006.410156 1399.242188 1999.378906 1399.246094 C 1992.347656 1399.253906 1986.644531 1393.5625 1986.632812 1386.53125 C 1986.621094 1379.5 1992.308594 1373.789062 1999.339844 1373.773438 C 2006.371094 1373.757812 2012.085938 1379.4375 2012.105469 1386.46875 M 1446.253906 752.316406 C 1446.253906 760.78125 1439.394531 767.644531 1430.933594 767.648438 C 1422.46875 767.65625 1415.601562 760.804688 1415.589844 752.34375 C 1415.574219 743.878906 1422.421875 737.007812 1430.882812 736.984375 C 1439.347656 736.964844 1446.226562 743.804688 1446.253906 752.269531 M 463.785156 2460.378906 C 463.785156 2472.253906 454.164062 2481.878906 442.292969 2481.890625 C 430.417969 2481.898438 420.785156 2472.285156 420.765625 2460.414062 C 420.746094 2448.542969 430.351562 2438.898438 442.222656 2438.871094 C 454.09375 2438.84375 463.746094 2448.4375 463.785156 2460.3125 M 1482.761719 697.328125 C 1482.761719 705.984375 1475.75 713.003906 1467.09375 713.011719 C 1458.4375 713.015625 1451.410156 706.007812 1451.398438 697.351562 C 1451.382812 688.695312 1458.386719 681.664062 1467.042969 681.644531 C 1475.699219 681.625 1482.734375 688.621094 1482.761719 697.277344 M 1247.886719 1185.78125 C 1247.886719 1191.394531 1243.335938 1195.949219 1237.71875 1195.957031 C 1232.101562 1195.960938 1227.542969 1191.414062 1227.535156 1185.796875 C 1227.527344 1180.179688 1232.070312 1175.617188 1237.6875 1175.605469 C 1243.300781 1175.589844 1247.867188 1180.132812 1247.886719 1185.746094 M 768.132812 2574.648438 C 768.132812 2582.796875 761.53125 2589.402344 753.382812 2589.410156 C 745.238281 2589.414062 738.625 2582.820312 738.613281 2574.671875 C 738.601562 2566.527344 745.191406 2559.910156 753.335938 2559.890625 C 761.484375 2559.871094 768.105469 2566.457031 768.132812 2574.601562 M 535.027344 2591.328125 C 535.027344 2602.792969 525.738281 2612.089844 514.277344 2612.097656 C 502.8125 2612.105469 493.511719 2602.828125 493.492188 2591.363281 C 493.472656 2579.898438 502.746094 2570.589844 514.210938 2570.5625 C 525.671875 2570.535156 534.988281 2579.800781 535.027344 2591.265625 M 717.71875 644.296875 C 717.71875 654.894531 709.132812 663.492188 698.53125 663.5 C 687.929688 663.507812 679.328125 654.925781 679.3125 644.328125 C 679.296875 633.726562 687.871094 625.117188 698.46875 625.09375 C 709.070312 625.066406 717.6875 633.636719 717.71875 644.234375 M 376.839844 2588.511719 C 376.839844 2599.019531 368.324219 2607.539062 357.816406 2607.546875 C 347.308594 2607.554688 338.78125 2599.046875 338.765625 2588.539062 C 338.75 2578.03125 347.25 2569.5 357.757812 2569.472656 C 368.265625 2569.449219 376.804688 2577.941406 376.839844 2588.449219 M 1433.257812 909.671875 C 1433.257812 914.371094 1429.449219 918.183594 1424.746094 918.1875 C 1420.046875 918.191406 1416.230469 914.386719 1416.222656 909.683594 C 1416.214844 904.984375 1420.019531 901.167969 1424.71875 901.15625 C 1429.421875 901.144531 1433.242188 904.941406 1433.253906 909.644531 M 1948.496094 1653.78125 C 1948.496094 1659.992188 1943.460938 1665.03125 1937.25 1665.035156 C 1931.035156 1665.042969 1925.992188 1660.011719 1925.984375 1653.796875 C 1925.972656 1647.585938 1931 1642.539062 1937.214844 1642.523438 C 1943.425781 1642.507812 1948.476562 1647.53125 1948.496094 1653.746094 M 2108.269531 1994.570312 C 2108.269531 2000.65625 2103.335938 2005.59375 2097.25 2005.597656 C 2091.160156 2005.601562 2086.222656 2000.675781 2086.210938 1994.585938 C 2086.203125 1988.5 2091.125 1983.554688 2097.214844 1983.542969 C 2103.300781 1983.527344 2108.25 1988.449219 2108.269531 1994.535156 M 766.175781 881.824219 C 766.175781 890.355469 759.265625 897.269531 750.734375 897.277344 C 742.207031 897.285156 735.285156 890.378906 735.273438 881.851562 C 735.257812 873.320312 742.15625 866.394531 750.6875 866.375 C 759.214844 866.355469 766.148438 873.246094 766.175781 881.777344 M 1589.902344 1040.480469 C 1589.902344 1047.5625 1584.164062 1053.308594 1577.082031 1053.3125 C 1569.996094 1053.320312 1564.246094 1047.585938 1564.234375 1040.5 C 1564.226562 1033.417969 1569.957031 1027.664062 1577.039062 1027.644531 C 1584.125 1027.628906 1589.882812 1033.355469 1589.902344 1040.4375 M 314.792969 845.347656 C 314.792969 852.953125 308.632812 859.117188 301.027344 859.125 C 293.421875 859.132812 287.25 852.972656 287.238281 845.367188 C 287.226562 837.765625 293.375 831.585938 300.980469 831.570312 C 308.585938 831.550781 314.769531 837.699219 314.792969 845.304688 M 1002.714844 2220.5 C 1002.714844 2226.761719 997.644531 2231.835938 991.382812 2231.839844 C 985.121094 2231.847656 980.042969 2226.777344 980.03125 2220.519531 C 980.023438 2214.257812 985.085938 2209.171875 991.347656 2209.160156 C 997.605469 2209.144531 1002.695312 2214.203125 1002.714844 2220.464844 M 585 1225.871094 C 585 1231.0625 580.792969 1235.269531 575.601562 1235.273438 C 570.410156 1235.277344 566.199219 1231.074219 566.191406 1225.886719 C 566.183594 1220.695312 570.382812 1216.476562 575.574219 1216.464844 C 580.761719 1216.453125 584.980469 1220.648438 585 1225.839844 M 720.902344 1999.558594 C 720.902344 2004.835938 716.625 2009.117188 711.347656 2009.121094 C 706.070312 2009.125 701.789062 2004.851562 701.78125 1999.574219 C 701.773438 1994.296875 706.039062 1990.011719 711.316406 1990 C 716.59375 1989.988281 720.886719 1994.253906 720.902344 1999.53125 M 2074.132812 1811.898438 C 2074.132812 1817.78125 2069.367188 1822.546875 2063.488281 1822.554688 C 2057.609375 1822.558594 2052.835938 1817.796875 2052.828125 1811.917969 C 2052.816406 1806.035156 2057.574219 1801.261719 2063.453125 1801.246094 C 2069.335938 1801.234375 2074.113281 1805.984375 2074.132812 1811.867188 M 1155.984375 2057.261719 C 1155.984375 2062.238281 1151.953125 2066.273438 1146.976562 2066.277344 C 1142 2066.28125 1137.960938 2062.25 1137.953125 2057.273438 C 1137.945312 2052.296875 1141.972656 2048.253906 1146.949219 2048.242188 C 1151.925781 2048.230469 1155.96875 2052.253906 1155.984375 2057.230469 M 1882.085938 2362.101562 C 1882.085938 2368.417969 1876.96875 2373.542969 1870.648438 2373.546875 C 1864.332031 2373.550781 1859.203125 2368.4375 1859.195312 2362.117188 C 1859.183594 2355.800781 1864.292969 2350.667969 1870.613281 2350.652344 C 1876.929688 2350.636719 1882.066406 2355.746094 1882.085938 2362.0625 M 807.355469 976.71875 C 807.355469 983.589844 801.789062 989.160156 794.917969 989.164062 C 788.050781 989.171875 782.476562 983.609375 782.464844 976.738281 C 782.453125 969.871094 788.011719 964.292969 794.878906 964.273438 C 801.75 964.257812 807.332031 969.8125 807.355469 976.679688 M 424.59375 2667.421875 C 424.59375 2678.625 415.515625 2687.710938 404.3125 2687.71875 C 393.105469 2687.726562 384.015625 2678.65625 383.996094 2667.453125 C 383.980469 2656.25 393.042969 2647.148438 404.246094 2647.121094 C 415.449219 2647.09375 424.558594 2656.152344 424.59375 2667.355469 M 518.21875 965.78125 C 518.21875 973.449219 512.007812 979.664062 504.339844 979.671875 C 496.675781 979.675781 490.457031 973.46875 490.441406 965.804688 C 490.429688 958.140625 496.632812 951.914062 504.296875 951.894531 C 511.960938 951.878906 518.191406 958.074219 518.21875 965.738281 M 1843.742188 1065.679688 C 1843.742188 1071.980469 1838.640625 1077.089844 1832.339844 1077.09375 C 1826.039062 1077.097656 1820.925781 1072 1820.914062 1065.699219 C 1820.90625 1059.398438 1826.003906 1054.28125 1832.300781 1054.265625 C 1838.601562 1054.25 1843.722656 1059.34375 1843.742188 1065.644531 M 335.304688 2525.820312 C 335.304688 2532.902344 329.570312 2538.640625 322.488281 2538.648438 C 315.40625 2538.652344 309.660156 2532.921875 309.648438 2525.839844 C 309.640625 2518.761719 315.367188 2513.007812 322.449219 2512.992188 C 329.527344 2512.976562 335.285156 2518.699219 335.304688 2525.777344 M 807.773438 1613.378906 C 807.773438 1618.648438 803.503906 1622.921875 798.234375 1622.925781 C 792.960938 1622.929688 788.6875 1618.664062 788.675781 1613.394531 C 788.667969 1608.125 792.933594 1603.84375 798.203125 1603.832031 C 803.472656 1603.820312 807.753906 1608.078125 807.773438 1613.347656 M 790.121094 1066.390625 C 790.121094 1071.785156 785.753906 1076.160156 780.359375 1076.164062 C 774.964844 1076.167969 770.585938 1071.800781 770.578125 1066.40625 C 770.570312 1061.011719 774.933594 1056.628906 780.328125 1056.617188 C 785.722656 1056.605469 790.105469 1060.964844 790.121094 1066.359375 M 1044.296875 1054.570312 C 1044.296875 1061.644531 1038.566406 1067.382812 1031.488281 1067.386719 C 1024.414062 1067.394531 1018.671875 1061.664062 1018.664062 1054.589844 C 1018.652344 1047.515625 1024.375 1041.769531 1031.449219 1041.753906 C 1038.523438 1041.734375 1044.273438 1047.453125 1044.296875 1054.527344 M 1823.476562 1887.789062 C 1823.476562 1893.191406 1819.101562 1897.574219 1813.699219 1897.578125 C 1808.296875 1897.582031 1803.910156 1893.207031 1803.902344 1887.804688 C 1803.894531 1882.402344 1808.265625 1878.015625 1813.667969 1878.003906 C 1819.070312 1877.988281 1823.460938 1882.355469 1823.476562 1887.757812 M 992.171875 2482.011719 C 992.171875 2487.667969 987.589844 2492.257812 981.929688 2492.261719 C 976.273438 2492.265625 971.679688 2487.683594 971.671875 2482.027344 C 971.664062 2476.367188 976.238281 2471.773438 981.898438 2471.757812 C 987.554688 2471.746094 992.15625 2476.320312 992.171875 2481.976562 M 503.722656 2243.929688 C 503.722656 2252.730469 496.589844 2259.867188 487.789062 2259.875 C 478.988281 2259.882812 471.847656 2252.757812 471.832031 2243.957031 C 471.820312 2235.15625 478.9375 2228.007812 487.738281 2227.984375 C 496.539062 2227.964844 503.695312 2235.078125 503.722656 2243.878906 M 303.757812 2155.859375 C 303.757812 2162.222656 298.605469 2167.382812 292.242188 2167.386719 C 285.878906 2167.390625 280.714844 2162.242188 280.703125 2155.878906 C 280.695312 2149.515625 285.84375 2144.347656 292.203125 2144.332031 C 298.566406 2144.316406 303.738281 2149.460938 303.757812 2155.824219 M 2092.066406 1965.441406 C 2092.066406 1971.695312 2086.996094 1976.769531 2080.738281 1976.773438 C 2074.480469 1976.78125 2069.40625 1971.714844 2069.394531 1965.457031 C 2069.382812 1959.203125 2074.445312 1954.121094 2080.703125 1954.105469 C 2086.960938 1954.089844 2092.046875 1959.148438 2092.066406 1965.402344 M 1043.8125 1068.699219 C 1043.8125 1073.5 1039.925781 1077.390625 1035.125 1077.394531 C 1030.328125 1077.398438 1026.433594 1073.511719 1026.425781 1068.714844 C 1026.417969 1063.914062 1030.300781 1060.015625 1035.097656 1060.003906 C 1039.898438 1059.996094 1043.800781 1063.875 1043.8125 1068.671875 M 311.988281 2495.308594 C 311.988281 2506.738281 302.730469 2516.007812 291.296875 2516.019531 C 279.867188 2516.027344 270.59375 2506.773438 270.574219 2495.34375 C 270.554688 2483.914062 279.800781 2474.628906 291.234375 2474.601562 C 302.664062 2474.574219 311.953125 2483.8125 311.988281 2495.242188 M 1067.964844 2119.171875 C 1067.964844 2124.867188 1063.347656 2129.488281 1057.648438 2129.492188 C 1051.949219 2129.5 1047.324219 2124.886719 1047.316406 2119.1875 C 1047.308594 2113.488281 1051.917969 2108.859375 1057.617188 2108.847656 C 1063.3125 2108.832031 1067.945312 2113.4375 1067.964844 2119.136719 "/>
</g>
</svg>
