<?xml version="1.0" encoding="UTF-8"?>
<svg xmlns="http://www.w3.org/2000/svg" xmlns:xlink="http://www.w3.org/1999/xlink" width="2550pt" height="3300pt" viewBox="0 0 2550 3300" version="1.1">
<g id="surface1">
<path style="fill:none;stroke-width:2;stroke-linecap:butt;stroke-linejoin:miter;stroke:rgb(0%,0%,0%);stroke-opacity:1;stroke-miterlimit:10;" d="M 266.363281 1916.738281 C 266.363281 1922.835938 261.425781 1927.78125 255.328125 1927.785156 C 249.230469 1927.789062 244.285156 1922.855469 244.273438 1916.757812 C 244.265625 1910.660156 249.195312 1905.710938 255.292969 1905.695312 C 261.390625 1905.679688 266.34375 1910.609375 266.363281 1916.703125 M 618.140625 1966.898438 C 618.140625 1972.539062 613.574219 1977.113281 607.933594 1977.117188 C 602.292969 1977.121094 597.714844 1972.554688 597.707031 1966.917969 C 597.699219 1961.277344 602.261719 1956.695312 607.902344 1956.683594 C 613.539062 1956.667969 618.125 1961.226562 618.140625 1966.867188 M 2188.382812 1807.679688 C 2188.382812 1815.386719 2182.140625 1821.636719 2174.429688 1821.644531 C 2166.722656 1821.652344 2160.46875 1815.410156 2160.457031 1807.703125 C 2160.445312 1799.996094 2166.679688 1793.734375 2174.386719 1793.714844 C 2182.09375 1793.699219 2188.359375 1799.925781 2188.382812 1807.636719 M 1767.339844 2220.25 C 1767.339844 2226.878906 1761.96875 2232.253906 1755.339844 2232.257812 C 1748.710938 2232.265625 1743.332031 2226.898438 1743.320312 2220.269531 C 1743.3125 2213.640625 1748.671875 2208.257812 1755.300781 2208.242188 C 1761.929688 2208.226562 1767.316406 2213.582031 1767.339844 2220.210938 M 2154.128906 1728.691406 C 2154.128906 1737.257812 2147.1875 1744.203125 2138.621094 1744.210938 C 2130.054688 1744.214844 2123.105469 1737.28125 2123.089844 1728.714844 C 2123.078125 1720.148438 2130.007812 1713.191406 2138.574219 1713.171875 C 2147.140625 1713.152344 2154.101562 1720.074219 2154.128906 1728.640625 M 424.089844 1282.769531 C 424.089844 1287.847656 419.976562 1291.960938 414.902344 1291.964844 C 409.824219 1291.96875 405.707031 1287.859375 405.699219 1282.785156 C 405.691406 1277.707031 409.796875 1273.585938 414.871094 1273.574219 C 419.949219 1273.5625 424.074219 1277.664062 424.089844 1282.742188 M 685.90625 1127.679688 C 685.90625 1133.097656 681.515625 1137.488281 676.097656 1137.496094 C 670.679688 1137.5 666.285156 1133.113281 666.277344 1127.695312 C 666.265625 1122.277344 670.648438 1117.878906 676.066406 1117.867188 C 681.484375 1117.851562 685.886719 1122.230469 685.90625 1127.648438 M 2206.691406 2102.140625 C 2206.691406 2110.496094 2199.917969 2117.273438 2191.5625 2117.28125 C 2183.207031 2117.285156 2176.421875 2110.519531 2176.410156 2102.164062 C 2176.398438 2093.808594 2183.15625 2087.019531 2191.515625 2087 C 2199.871094 2086.980469 2206.664062 2093.734375 2206.691406 2102.089844 M 1601.324219 891.546875 C 1601.324219 899.648438 1594.761719 906.214844 1586.660156 906.222656 C 1578.5625 906.230469 1571.988281 899.671875 1571.976562 891.570312 C 1571.960938 883.472656 1578.515625 876.890625 1586.613281 876.871094 C 1594.714844 876.855469 1601.300781 883.402344 1601.324219 891.5 M 896.261719 2549.191406 C 896.261719 2557.714844 889.355469 2564.628906 880.832031 2564.632812 C 872.304688 2564.640625 865.386719 2557.738281 865.375 2549.214844 C 865.359375 2540.691406 872.257812 2533.765625 880.78125 2533.746094 C 889.304688 2533.726562 896.234375 2540.617188 896.261719 2549.140625 M 1188.40625 766.917969 C 1188.40625 771.8125 1184.441406 775.78125 1179.546875 775.785156 C 1174.652344 775.789062 1170.679688 771.828125 1170.671875 766.933594 C 1170.664062 762.039062 1174.625 758.0625 1179.519531 758.050781 C 1184.414062 758.039062 1188.390625 761.996094 1188.40625 766.890625 M 1395.09375 2171.199219 C 1395.09375 2175.964844 1391.234375 2179.832031 1386.46875 2179.835938 C 1381.699219 2179.839844 1377.832031 2175.980469 1377.824219 2171.214844 C 1377.816406 2166.449219 1381.671875 2162.578125 1386.4375 2162.566406 C 1391.207031 2162.554688 1395.078125 2166.40625 1395.09375 2171.171875 M 645.707031 1303.488281 C 645.707031 1310.496094 640.027344 1316.179688 633.019531 1316.183594 C 626.015625 1316.191406 620.328125 1310.515625 620.316406 1303.511719 C 620.304688 1296.503906 625.972656 1290.8125 632.980469 1290.796875 C 639.988281 1290.777344 645.683594 1296.441406 645.707031 1303.449219 M 2212.117188 1005.691406 C 2212.117188 1012.71875 2206.417969 1018.421875 2199.390625 1018.425781 C 2192.359375 1018.429688 2186.65625 1012.738281 2186.644531 1005.710938 C 2186.632812 998.679688 2192.320312 992.972656 2199.347656 992.953125 C 2206.378906 992.9375 2212.09375 998.621094 2212.117188 1005.648438 M 459.328125 814.535156 C 459.328125 822.527344 452.851562 829.007812 444.859375 829.015625 C 436.863281 829.019531 430.378906 822.550781 430.363281 814.558594 C 430.351562 806.5625 436.816406 800.070312 444.8125 800.054688 C 452.804688 800.035156 459.300781 806.496094 459.328125 814.488281 M 1042.386719 2125 C 1042.386719 2130.984375 1037.535156 2135.839844 1031.546875 2135.84375 C 1025.5625 2135.851562 1020.703125 2131.003906 1020.695312 2125.015625 C 1020.683594 2119.03125 1025.527344 2114.167969 1031.515625 2114.15625 C 1037.5 2114.140625 1042.367188 2118.980469 1042.386719 2124.964844 M 928.152344 2291.898438 C 928.152344 2299.878906 921.6875 2306.347656 913.707031 2306.355469 C 905.730469 2306.363281 899.253906 2299.902344 899.242188 2291.921875 C 899.226562 2283.945312 905.683594 2277.464844 913.660156 2277.445312 C 921.640625 2277.425781 928.125 2283.875 928.152344 2291.855469 M 1239.84375 658.847656 C 1239.84375 667.617188 1232.742188 674.726562 1223.972656 674.734375 C 1215.203125 674.742188 1208.089844 667.644531 1208.074219 658.875 C 1208.058594 650.105469 1215.152344 642.984375 1223.921875 642.964844 C 1232.691406 642.941406 1239.816406 650.03125 1239.84375 658.796875 M 1368.253906 1193.75 C 1368.253906 1198.339844 1364.535156 1202.058594 1359.945312 1202.0625 C 1355.359375 1202.066406 1351.632812 1198.351562 1351.625 1193.761719 C 1351.617188 1189.175781 1355.332031 1185.445312 1359.921875 1185.4375 C 1364.507812 1185.425781 1368.238281 1189.132812 1368.253906 1193.722656 M 734.386719 1454.351562 C 734.386719 1459.652344 730.089844 1463.949219 724.789062 1463.957031 C 719.488281 1463.960938 715.183594 1459.667969 715.175781 1454.367188 C 715.167969 1449.0625 719.457031 1444.757812 724.757812 1444.746094 C 730.0625 1444.730469 734.371094 1449.015625 734.386719 1454.320312 M 1308.609375 2647.878906 C 1308.609375 2657.152344 1301.097656 2664.671875 1291.824219 2664.679688 C 1282.550781 2664.6875 1275.023438 2657.179688 1275.007812 2647.90625 C 1274.996094 2638.632812 1282.496094 2631.101562 1291.769531 2631.078125 C 1301.042969 2631.058594 1308.582031 2638.554688 1308.609375 2647.828125 M 1617.671875 887.929688 C 1617.671875 892.523438 1613.949219 896.25 1609.355469 896.253906 C 1604.761719 896.257812 1601.035156 892.539062 1601.027344 887.945312 C 1601.019531 883.351562 1604.734375 879.617188 1609.332031 879.609375 C 1613.925781 879.597656 1617.660156 883.308594 1617.671875 887.90625 M 811.933594 2307.429688 C 811.933594 2315.910156 805.0625 2322.789062 796.578125 2322.796875 C 788.097656 2322.804688 781.214844 2315.9375 781.199219 2307.453125 C 781.1875 2298.972656 788.046875 2292.085938 796.53125 2292.0625 C 805.011719 2292.042969 811.90625 2298.898438 811.933594 2307.382812 M 759.460938 2323.628906 C 759.460938 2330.015625 754.289062 2335.191406 747.902344 2335.195312 C 741.519531 2335.199219 736.339844 2330.03125 736.328125 2323.648438 C 736.320312 2317.265625 741.484375 2312.078125 747.867188 2312.0625 C 754.25 2312.046875 759.441406 2317.210938 759.460938 2323.59375 M 892.058594 2152 C 892.058594 2156.945312 888.050781 2160.953125 883.105469 2160.957031 C 878.164062 2160.960938 874.148438 2156.957031 874.140625 2152.015625 C 874.132812 2147.070312 878.132812 2143.054688 883.078125 2143.042969 C 888.023438 2143.03125 892.042969 2147.027344 892.058594 2151.972656 M 1153.394531 728.152344 C 1153.394531 736.363281 1146.742188 743.023438 1138.53125 743.027344 C 1130.320312 743.035156 1123.65625 736.386719 1123.644531 728.175781 C 1123.632812 719.96875 1130.273438 713.296875 1138.484375 713.277344 C 1146.695312 713.257812 1153.367188 719.894531 1153.394531 728.105469 M 1671.359375 2607.988281 C 1671.359375 2613.957031 1666.523438 2618.792969 1660.558594 2618.796875 C 1654.59375 2618.800781 1649.75 2613.972656 1649.742188 2608.007812 C 1649.734375 2602.042969 1654.558594 2597.195312 1660.523438 2597.183594 C 1666.488281 2597.167969 1671.339844 2601.988281 1671.359375 2607.957031 M 2246.386719 817.019531 C 2246.386719 828.636719 2236.972656 838.058594 2225.355469 838.070312 C 2213.738281 838.078125 2204.3125 828.671875 2204.292969 817.054688 C 2204.273438 805.4375 2213.671875 796 2225.289062 795.972656 C 2236.90625 795.945312 2246.351562 805.335938 2246.386719 816.953125 M 1277.292969 2345.21875 C 1277.292969 2349.878906 1273.515625 2353.65625 1268.855469 2353.660156 C 1264.195312 2353.664062 1260.414062 2349.894531 1260.410156 2345.234375 C 1260.402344 2340.574219 1264.171875 2336.789062 1268.828125 2336.777344 C 1273.488281 2336.765625 1277.277344 2340.535156 1277.292969 2345.191406 M 786.074219 1230.171875 C 786.074219 1236.136719 781.238281 1240.976562 775.269531 1240.980469 C 769.304688 1240.988281 764.460938 1236.15625 764.449219 1230.1875 C 764.441406 1224.21875 769.269531 1219.371094 775.234375 1219.359375 C 781.203125 1219.34375 786.054688 1224.167969 786.074219 1230.136719 M 1814.046875 2258.359375 C 1814.046875 2265.445312 1808.304688 2271.191406 1801.21875 2271.199219 C 1794.132812 2271.203125 1788.382812 2265.464844 1788.371094 2258.378906 C 1788.359375 2251.292969 1794.09375 2245.539062 1801.179688 2245.523438 C 1808.265625 2245.503906 1814.023438 2251.234375 1814.046875 2258.320312 M 285.511719 1908.929688 C 285.511719 1918.226562 277.980469 1925.765625 268.683594 1925.773438 C 259.386719 1925.777344 251.84375 1918.253906 251.828125 1908.957031 C 251.8125 1899.660156 259.332031 1892.109375 268.628906 1892.089844 C 277.925781 1892.066406 285.480469 1899.582031 285.511719 1908.875 M 1814.828125 2659.429688 C 1814.828125 2670.824219 1805.597656 2680.0625 1794.207031 2680.070312 C 1782.8125 2680.078125 1773.566406 2670.855469 1773.550781 2659.460938 C 1773.53125 2648.070312 1782.746094 2638.816406 1794.140625 2638.789062 C 1805.535156 2638.761719 1814.792969 2647.972656 1814.828125 2659.363281 M 1788.980469 2489.488281 C 1788.980469 2498.746094 1781.480469 2506.253906 1772.222656 2506.261719 C 1762.964844 2506.265625 1755.453125 2498.773438 1755.441406 2489.515625 C 1755.425781 2480.261719 1762.914062 2472.742188 1772.171875 2472.71875 C 1781.425781 2472.699219 1788.949219 2480.179688 1788.980469 2489.4375 M 496.046875 880.761719 C 496.046875 892.003906 486.9375 901.117188 475.695312 901.128906 C 464.453125 901.136719 455.332031 892.035156 455.3125 880.792969 C 455.296875 869.554688 464.390625 860.421875 475.632812 860.394531 C 486.871094 860.371094 496.011719 869.457031 496.046875 880.695312 M 1627.535156 987.679688 C 1627.535156 995.234375 1621.414062 1001.359375 1613.859375 1001.367188 C 1606.308594 1001.371094 1600.179688 995.257812 1600.164062 987.703125 C 1600.152344 980.148438 1606.265625 974.015625 1613.816406 973.996094 C 1621.371094 973.980469 1627.511719 980.085938 1627.535156 987.636719 M 879.96875 716.757812 C 879.96875 726.199219 872.320312 733.851562 862.878906 733.859375 C 853.4375 733.867188 845.777344 726.226562 845.761719 716.785156 C 845.746094 707.34375 853.382812 699.675781 862.824219 699.652344 C 872.265625 699.628906 879.941406 707.261719 879.96875 716.703125 M 838.515625 1082.679688 C 838.515625 1088.792969 833.566406 1093.746094 827.453125 1093.75 C 821.34375 1093.757812 816.382812 1088.808594 816.375 1082.699219 C 816.363281 1076.585938 821.308594 1071.625 827.417969 1071.609375 C 833.53125 1071.59375 838.496094 1076.535156 838.515625 1082.644531 M 2300.621094 1415.390625 C 2300.621094 1423.960938 2293.675781 1430.914062 2285.101562 1430.921875 C 2276.53125 1430.925781 2269.574219 1423.988281 2269.558594 1415.414062 C 2269.546875 1406.84375 2276.480469 1399.878906 2285.054688 1399.859375 C 2293.625 1399.839844 2300.59375 1406.769531 2300.621094 1415.339844 M 1358.140625 681.152344 C 1358.140625 688.484375 1352.203125 694.429688 1344.871094 694.433594 C 1337.539062 694.441406 1331.589844 688.503906 1331.578125 681.175781 C 1331.566406 673.84375 1337.496094 667.886719 1344.828125 667.871094 C 1352.160156 667.851562 1358.117188 673.78125 1358.140625 681.109375 M 398.105469 2581.941406 C 398.105469 2591.726562 390.179688 2599.660156 380.390625 2599.667969 C 370.605469 2599.675781 362.664062 2591.753906 362.648438 2581.96875 C 362.632812 2572.183594 370.550781 2564.234375 380.335938 2564.210938 C 390.121094 2564.1875 398.074219 2572.097656 398.105469 2581.882812 M 1874.691406 762.613281 C 1874.691406 771.265625 1867.683594 778.28125 1859.03125 778.285156 C 1850.382812 778.292969 1843.359375 771.289062 1843.347656 762.640625 C 1843.332031 753.988281 1850.332031 746.960938 1858.984375 746.941406 C 1867.632812 746.921875 1874.664062 753.914062 1874.691406 762.5625 M 340.082031 1711.089844 C 340.082031 1720.363281 332.566406 1727.882812 323.292969 1727.890625 C 314.019531 1727.898438 306.492188 1720.390625 306.476562 1711.117188 C 306.460938 1701.84375 313.964844 1694.308594 323.238281 1694.289062 C 332.511719 1694.265625 340.050781 1701.761719 340.082031 1711.035156 M 2209.128906 1050.769531 C 2209.128906 1059.972656 2201.675781 1067.433594 2192.472656 1067.441406 C 2183.273438 1067.449219 2175.804688 1060 2175.789062 1050.796875 C 2175.773438 1041.59375 2183.21875 1034.121094 2192.421875 1034.097656 C 2201.621094 1034.078125 2209.101562 1041.515625 2209.128906 1050.71875 M 1719.519531 2350.679688 C 1719.519531 2356.238281 1715.015625 2360.746094 1709.457031 2360.75 C 1703.898438 2360.753906 1699.386719 2356.253906 1699.378906 2350.695312 C 1699.371094 2345.136719 1703.867188 2340.621094 1709.425781 2340.609375 C 1714.984375 2340.597656 1719.503906 2345.089844 1719.519531 2350.648438 M 2289.253906 723.847656 C 2289.253906 731.394531 2283.136719 737.515625 2275.589844 737.519531 C 2268.042969 737.527344 2261.917969 731.414062 2261.90625 723.867188 C 2261.894531 716.320312 2268 710.191406 2275.546875 710.175781 C 2283.09375 710.15625 2289.230469 716.257812 2289.253906 723.804688 M 1559.625 697.160156 C 1559.625 703.949219 1554.121094 709.457031 1547.328125 709.460938 C 1540.539062 709.46875 1535.027344 703.96875 1535.015625 697.179688 C 1535.007812 690.386719 1540.5 684.871094 1547.289062 684.855469 C 1554.082031 684.839844 1559.601562 690.328125 1559.621094 697.121094 M 282.109375 1346.511719 C 282.109375 1352.605469 277.171875 1357.550781 271.074219 1357.554688 C 264.976562 1357.5625 260.027344 1352.625 260.019531 1346.527344 C 260.007812 1340.429688 264.941406 1335.476562 271.039062 1335.464844 C 277.136719 1335.449219 282.09375 1340.378906 282.109375 1346.476562 M 771.582031 685.792969 C 771.582031 695.167969 763.984375 702.773438 754.609375 702.777344 C 745.230469 702.785156 737.621094 695.195312 737.609375 685.820312 C 737.59375 676.441406 745.179688 668.828125 754.554688 668.804688 C 763.929688 668.78125 771.550781 676.363281 771.582031 685.738281 M 1870.675781 1637.648438 C 1870.675781 1643.71875 1865.757812 1648.640625 1859.6875 1648.644531 C 1853.621094 1648.648438 1848.695312 1643.738281 1848.683594 1637.667969 C 1848.675781 1631.597656 1853.585938 1626.667969 1859.652344 1626.65625 C 1865.722656 1626.640625 1870.65625 1631.546875 1870.675781 1637.613281 M 355.835938 2145.539062 C 355.835938 2151.503906 351.003906 2156.34375 345.039062 2156.347656 C 339.074219 2156.351562 334.234375 2151.523438 334.222656 2145.558594 C 334.214844 2139.59375 339.039062 2134.746094 345.003906 2134.734375 C 350.96875 2134.71875 355.820312 2139.539062 355.835938 2145.503906 M 325.242188 2234.101562 C 325.242188 2244.277344 316.996094 2252.53125 306.816406 2252.539062 C 296.636719 2252.546875 288.378906 2244.308594 288.363281 2234.128906 C 288.347656 2223.949219 296.578125 2215.683594 306.757812 2215.660156 C 316.9375 2215.636719 325.210938 2223.863281 325.242188 2234.042969 M 855.894531 770.105469 C 855.894531 776.703125 850.542969 782.058594 843.945312 782.0625 C 837.34375 782.066406 831.984375 776.722656 831.976562 770.121094 C 831.964844 763.523438 837.304688 758.160156 843.90625 758.144531 C 850.507812 758.128906 855.871094 763.464844 855.890625 770.066406 M 305.402344 896.648438 C 305.402344 908.246094 296.003906 917.652344 284.40625 917.660156 C 272.804688 917.671875 263.394531 908.28125 263.375 896.679688 C 263.355469 885.082031 272.738281 875.660156 284.339844 875.632812 C 295.9375 875.605469 305.367188 884.980469 305.402344 896.578125 M 1042.34375 2100.070312 C 1042.34375 2104.691406 1038.597656 2108.441406 1033.976562 2108.445312 C 1029.355469 2108.449219 1025.601562 2104.707031 1025.59375 2100.082031 C 1025.585938 2095.460938 1029.328125 2091.707031 1033.949219 2091.695312 C 1038.574219 2091.683594 1042.332031 2095.421875 1042.34375 2100.042969 M 806.785156 1249.910156 C 806.785156 1254.445312 803.109375 1258.121094 798.574219 1258.125 C 794.039062 1258.128906 790.359375 1254.457031 790.351562 1249.921875 C 790.34375 1245.386719 794.011719 1241.703125 798.546875 1241.695312 C 803.082031 1241.683594 806.769531 1245.347656 806.785156 1249.882812 M 1854.777344 1351.308594 C 1854.777344 1357.324219 1849.902344 1362.203125 1843.890625 1362.207031 C 1837.875 1362.210938 1832.992188 1357.34375 1832.984375 1351.328125 C 1832.972656 1345.3125 1837.839844 1340.429688 1843.855469 1340.414062 C 1849.867188 1340.398438 1854.757812 1345.261719 1854.777344 1351.273438 M 2289.964844 1308.660156 C 2289.964844 1315.910156 2284.089844 1321.789062 2276.839844 1321.792969 C 2269.589844 1321.800781 2263.707031 1315.929688 2263.695312 1308.679688 C 2263.683594 1301.433594 2269.550781 1295.542969 2276.796875 1295.527344 C 2284.046875 1295.507812 2289.941406 1301.367188 2289.964844 1308.617188 M 1904.515625 2423.089844 C 1904.515625 2432.335938 1897.019531 2439.835938 1887.773438 2439.84375 C 1878.527344 2439.851562 1871.019531 2432.363281 1871.007812 2423.117188 C 1870.992188 2413.867188 1878.472656 2406.359375 1887.71875 2406.335938 C 1896.96875 2406.3125 1904.484375 2413.789062 1904.515625 2423.035156 M 283.347656 2235.988281 C 283.347656 2243.8125 277.007812 2250.15625 269.1875 2250.160156 C 261.363281 2250.167969 255.015625 2243.835938 255.003906 2236.011719 C 254.992188 2228.191406 261.320312 2221.835938 269.140625 2221.820312 C 276.964844 2221.800781 283.320312 2228.121094 283.347656 2235.945312 M 2144.398438 1271.878906 C 2144.398438 1278.304688 2139.191406 1283.511719 2132.769531 1283.519531 C 2126.34375 1283.523438 2121.132812 1278.320312 2121.121094 1271.898438 C 2121.113281 1265.476562 2126.308594 1260.257812 2132.730469 1260.242188 C 2139.15625 1260.226562 2144.378906 1265.417969 2144.398438 1271.84375 M 1549.492188 2250.800781 C 1549.492188 2255.835938 1545.414062 2259.917969 1540.378906 2259.921875 C 1535.339844 2259.925781 1531.253906 2255.851562 1531.246094 2250.816406 C 1531.238281 2245.777344 1535.3125 2241.6875 1540.347656 2241.675781 C 1545.382812 2241.664062 1549.476562 2245.734375 1549.492188 2250.769531 M 536.523438 1248.449219 C 536.523438 1254.085938 531.960938 1258.652344 526.324219 1258.65625 C 520.691406 1258.664062 516.117188 1254.101562 516.109375 1248.464844 C 516.101562 1242.832031 520.65625 1238.253906 526.292969 1238.242188 C 531.925781 1238.230469 536.507812 1242.78125 536.523438 1248.417969 M 2277.628906 777.0625 C 2277.628906 787.367188 2269.28125 795.726562 2258.976562 795.734375 C 2248.667969 795.742188 2240.304688 787.398438 2240.289062 777.09375 C 2240.273438 766.789062 2248.609375 758.417969 2258.914062 758.394531 C 2269.222656 758.367188 2277.597656 766.699219 2277.628906 777.003906 M 932.222656 654.277344 C 932.222656 659.867188 927.691406 664.398438 922.101562 664.402344 C 916.511719 664.410156 911.976562 659.882812 911.96875 654.292969 C 911.960938 648.703125 916.480469 644.164062 922.070312 644.152344 C 927.660156 644.136719 932.203125 648.65625 932.222656 654.246094 M 480.222656 2115.929688 C 480.222656 2121.746094 475.511719 2126.464844 469.695312 2126.46875 C 463.875 2126.472656 459.15625 2121.765625 459.144531 2115.945312 C 459.136719 2110.128906 463.84375 2105.40625 469.660156 2105.390625 C 475.476562 2105.378906 480.207031 2110.078125 480.222656 2115.894531 M 1439.347656 2447.589844 C 1439.347656 2454.804688 1433.503906 2460.652344 1426.289062 2460.660156 C 1419.078125 2460.664062 1413.222656 2454.824219 1413.210938 2447.609375 C 1413.199219 2440.398438 1419.035156 2434.539062 1426.25 2434.519531 C 1433.460938 2434.503906 1439.324219 2440.335938 1439.347656 2447.546875 M 817.886719 1897.28125 C 817.886719 1902.898438 813.335938 1907.453125 807.71875 1907.457031 C 802.097656 1907.460938 797.539062 1902.914062 797.53125 1897.296875 C 797.523438 1891.679688 802.066406 1887.117188 807.683594 1887.101562 C 813.304688 1887.089844 817.871094 1891.628906 817.886719 1897.246094 M 363.957031 2569.839844 C 363.957031 2581.34375 354.636719 2590.671875 343.128906 2590.683594 C 331.625 2590.691406 322.289062 2581.378906 322.273438 2569.875 C 322.253906 2558.367188 331.558594 2549.023438 343.0625 2548.996094 C 354.570312 2548.96875 363.917969 2558.269531 363.957031 2569.773438 M 1051.421875 2350.488281 C 1051.421875 2357.367188 1045.847656 2362.945312 1038.96875 2362.949219 C 1032.09375 2362.957031 1026.511719 2357.386719 1026.5 2350.511719 C 1026.488281 2343.632812 1032.050781 2338.046875 1038.929688 2338.03125 C 1045.808594 2338.011719 1051.398438 2343.574219 1051.421875 2350.449219 M 1576.914062 2423.871094 C 1576.914062 2429.363281 1572.460938 2433.820312 1566.96875 2433.824219 C 1561.472656 2433.828125 1557.015625 2429.378906 1557.007812 2423.886719 C 1556.996094 2418.390625 1561.441406 2413.929688 1566.9375 2413.917969 C 1572.429688 2413.902344 1576.894531 2418.34375 1576.914062 2423.839844 M 1975.734375 1986.019531 C 1975.734375 1993.925781 1969.328125 2000.335938 1961.421875 2000.34375 C 1953.515625 2000.347656 1947.101562 1993.949219 1947.085938 1986.042969 C 1947.074219 1978.136719 1953.46875 1971.714844 1961.375 1971.699219 C 1969.28125 1971.679688 1975.707031 1978.070312 1975.734375 1985.972656 M 1070.84375 2117.359375 C 1070.84375 2123.445312 1065.914062 2128.378906 1059.828125 2128.382812 C 1053.742188 2128.386719 1048.804688 2123.460938 1048.796875 2117.378906 C 1048.785156 2111.292969 1053.707031 2106.351562 1059.792969 2106.335938 C 1065.878906 2106.320312 1070.824219 2111.238281 1070.84375 2117.324219 M 310.871094 1726.71875 C 310.871094 1734.8125 304.316406 1741.371094 296.222656 1741.378906 C 288.132812 1741.386719 281.566406 1734.835938 281.554688 1726.742188 C 281.539062 1718.652344 288.085938 1712.082031 296.175781 1712.0625 C 304.269531 1712.042969 310.84375 1718.582031 310.871094 1726.671875 M 580.199219 2177.828125 C 580.199219 2183.222656 575.832031 2187.59375 570.441406 2187.597656 C 565.046875 2187.601562 560.671875 2183.238281 560.664062 2177.84375 C 560.65625 2172.453125 565.015625 2168.074219 570.410156 2168.0625 C 575.800781 2168.050781 580.183594 2172.40625 580.199219 2177.800781 M 1639.210938 696.804688 C 1639.210938 704.179688 1633.238281 710.160156 1625.859375 710.167969 C 1618.484375 710.171875 1612.5 704.203125 1612.488281 696.828125 C 1612.476562 689.449219 1618.441406 683.460938 1625.816406 683.441406 C 1633.195312 683.425781 1639.1875 689.386719 1639.210938 696.761719 M 1688.632812 2507.101562 C 1688.632812 2516.574219 1680.957031 2524.253906 1671.484375 2524.261719 C 1662.011719 2524.269531 1654.324219 2516.601562 1654.308594 2507.128906 C 1654.292969 2497.652344 1661.957031 2489.960938 1671.429688 2489.9375 C 1680.902344 2489.914062 1688.601562 2497.570312 1688.632812 2507.046875 M 2157.695312 749.96875 C 2157.695312 758.792969 2150.546875 765.945312 2141.722656 765.953125 C 2132.898438 765.960938 2125.738281 758.816406 2125.726562 749.996094 C 2125.710938 741.171875 2132.847656 734.007812 2141.671875 733.984375 C 2150.496094 733.964844 2157.664062 741.09375 2157.695312 749.917969 M 1634.957031 892.777344 C 1634.957031 901.621094 1627.792969 908.789062 1618.953125 908.792969 C 1610.113281 908.800781 1602.9375 901.644531 1602.925781 892.804688 C 1602.910156 883.964844 1610.0625 876.785156 1618.902344 876.761719 C 1627.742188 876.742188 1634.925781 883.886719 1634.957031 892.726562 M 975.941406 1142.890625 C 975.941406 1148.140625 971.6875 1152.398438 966.433594 1152.402344 C 961.183594 1152.40625 956.921875 1148.15625 956.914062 1142.90625 C 956.90625 1137.652344 961.152344 1133.390625 966.402344 1133.375 C 971.65625 1133.363281 975.925781 1137.609375 975.941406 1142.859375 M 429.855469 2179.949219 C 429.855469 2188.378906 423.023438 2195.214844 414.59375 2195.222656 C 406.167969 2195.226562 399.324219 2188.402344 399.3125 2179.972656 C 399.296875 2171.546875 406.117188 2164.699219 414.546875 2164.679688 C 422.976562 2164.660156 429.828125 2171.472656 429.855469 2179.902344 M 390.28125 2386.25 C 390.28125 2393.597656 384.328125 2399.554688 376.980469 2399.5625 C 369.628906 2399.566406 363.667969 2393.621094 363.65625 2386.269531 C 363.644531 2378.921875 369.589844 2372.957031 376.9375 2372.9375 C 384.285156 2372.921875 390.257812 2378.859375 390.28125 2386.207031 M 1705.613281 1047.210938 C 1705.613281 1052.367188 1701.433594 1056.546875 1696.277344 1056.550781 C 1691.121094 1056.554688 1686.9375 1052.382812 1686.929688 1047.226562 C 1686.917969 1042.066406 1691.089844 1037.878906 1696.246094 1037.867188 C 1701.402344 1037.855469 1705.59375 1042.023438 1705.613281 1047.179688 M 545.761719 2221.058594 C 545.761719 2227.605469 540.457031 2232.914062 533.910156 2232.921875 C 527.363281 2232.925781 522.050781 2227.625 522.039062 2221.078125 C 522.027344 2214.53125 527.324219 2209.214844 533.871094 2209.199219 C 540.417969 2209.183594 545.742188 2214.476562 545.761719 2221.023438 M 1820.511719 1367.808594 C 1820.511719 1373.46875 1815.925781 1378.058594 1810.269531 1378.0625 C 1804.609375 1378.066406 1800.015625 1373.484375 1800.007812 1367.828125 C 1800 1362.167969 1804.578125 1357.570312 1810.234375 1357.558594 C 1815.894531 1357.542969 1820.496094 1362.117188 1820.511719 1367.777344 M 628.804688 1455.230469 C 628.804688 1462.417969 622.980469 1468.246094 615.792969 1468.25 C 608.605469 1468.257812 602.773438 1462.4375 602.761719 1455.25 C 602.75 1448.0625 608.566406 1442.226562 615.753906 1442.210938 C 622.941406 1442.191406 628.78125 1448 628.804688 1455.1875 M 2182.3125 1686.570312 C 2182.3125 1694.949219 2175.523438 1701.746094 2167.140625 1701.753906 C 2158.761719 1701.757812 2151.960938 1694.972656 2151.949219 1686.59375 C 2151.933594 1678.214844 2158.714844 1671.40625 2167.09375 1671.386719 C 2175.472656 1671.367188 2182.285156 1678.140625 2182.3125 1686.523438 M 427.925781 1518.789062 C 427.925781 1525.910156 422.160156 1531.683594 415.039062 1531.6875 C 407.917969 1531.695312 402.140625 1525.929688 402.128906 1518.808594 C 402.121094 1511.691406 407.878906 1505.910156 415 1505.890625 C 422.117188 1505.875 427.90625 1511.628906 427.925781 1518.75 M 2097.980469 1066.449219 C 2097.980469 1075.867188 2090.351562 1083.5 2080.933594 1083.507812 C 2071.515625 1083.515625 2063.875 1075.894531 2063.859375 1066.476562 C 2063.847656 1057.0625 2071.464844 1049.414062 2080.878906 1049.390625 C 2090.296875 1049.367188 2097.949219 1056.980469 2097.980469 1066.394531 M 1143.222656 1055.710938 C 1143.222656 1060.441406 1139.390625 1064.28125 1134.65625 1064.285156 C 1129.925781 1064.289062 1126.082031 1060.457031 1126.074219 1055.722656 C 1126.066406 1050.992188 1129.898438 1047.148438 1134.628906 1047.136719 C 1139.363281 1047.125 1143.210938 1050.949219 1143.222656 1055.683594 M 729.738281 704.78125 C 729.738281 711.09375 724.625 716.210938 718.3125 716.214844 C 712 716.222656 706.878906 711.113281 706.871094 704.800781 C 706.859375 698.488281 711.964844 693.363281 718.277344 693.347656 C 724.589844 693.332031 729.71875 698.433594 729.738281 704.746094 M 1758.84375 646.070312 C 1758.84375 654.09375 1752.34375 660.597656 1744.320312 660.601562 C 1736.300781 660.609375 1729.789062 654.117188 1729.777344 646.09375 C 1729.765625 638.074219 1736.253906 631.558594 1744.273438 631.539062 C 1752.296875 631.519531 1758.816406 638.003906 1758.84375 646.023438 M 2056.90625 2331.769531 C 2056.90625 2339.578125 2050.578125 2345.910156 2042.769531 2345.914062 C 2034.964844 2345.921875 2028.628906 2339.601562 2028.613281 2331.792969 C 2028.601562 2323.984375 2034.917969 2317.644531 2042.726562 2317.625 C 2050.535156 2317.605469 2056.878906 2323.917969 2056.90625 2331.726562 M 2022.867188 2512.371094 C 2022.867188 2520.277344 2016.457031 2526.6875 2008.550781 2526.695312 C 2000.644531 2526.703125 1994.226562 2520.300781 1994.214844 2512.394531 C 1994.203125 2504.484375 2000.597656 2498.0625 2008.503906 2498.042969 C 2016.414062 2498.027344 2022.839844 2504.417969 2022.867188 2512.324219 M 941.863281 1449.539062 C 941.863281 1454.53125 937.820312 1458.574219 932.832031 1458.578125 C 927.839844 1458.582031 923.792969 1454.542969 923.78125 1449.554688 C 923.773438 1444.566406 927.8125 1440.511719 932.800781 1440.5 C 937.792969 1440.488281 941.847656 1444.519531 941.863281 1449.511719 M 2060.652344 2426.171875 C 2060.652344 2432.492188 2055.53125 2437.617188 2049.210938 2437.621094 C 2042.886719 2437.625 2037.757812 2432.507812 2037.75 2426.1875 C 2037.738281 2419.867188 2042.851562 2414.734375 2049.171875 2414.71875 C 2055.492188 2414.703125 2060.632812 2419.8125 2060.652344 2426.132812 M 555.25 949.3125 C 555.25 958.527344 547.785156 965.996094 538.570312 966.003906 C 529.359375 966.011719 521.882812 958.550781 521.867188 949.339844 C 521.851562 940.128906 529.304688 932.644531 538.519531 932.621094 C 547.730469 932.601562 555.21875 940.046875 555.25 949.261719 M 1595.132812 699.773438 C 1595.132812 709.351562 1587.371094 717.117188 1577.792969 717.125 C 1568.214844 717.132812 1560.445312 709.378906 1560.429688 699.800781 C 1560.414062 690.222656 1568.160156 682.441406 1577.738281 682.421875 C 1587.316406 682.398438 1595.101562 690.140625 1595.132812 699.714844 M 2127.769531 1834.078125 C 2127.769531 1839.078125 2123.71875 1843.132812 2118.71875 1843.136719 C 2113.71875 1843.140625 2109.660156 1839.09375 2109.652344 1834.09375 C 2109.644531 1829.09375 2113.6875 1825.035156 2118.6875 1825.023438 C 2123.6875 1825.011719 2127.753906 1829.050781 2127.769531 1834.050781 M 1135.148438 803.558594 C 1135.148438 812.417969 1127.972656 819.601562 1119.113281 819.609375 C 1110.253906 819.617188 1103.066406 812.445312 1103.050781 803.585938 C 1103.039062 794.726562 1110.203125 787.53125 1119.0625 787.511719 C 1127.917969 787.492188 1135.121094 794.652344 1135.148438 803.507812 M 1616.699219 2534.511719 C 1616.699219 2543.136719 1609.707031 2550.132812 1601.082031 2550.136719 C 1592.457031 2550.144531 1585.457031 2543.160156 1585.441406 2534.535156 C 1585.429688 2525.910156 1592.40625 2518.902344 1601.03125 2518.882812 C 1609.660156 2518.859375 1616.671875 2525.832031 1616.699219 2534.460938 M 525.214844 2049.320312 C 525.214844 2055.652344 520.082031 2060.789062 513.75 2060.792969 C 507.417969 2060.796875 502.277344 2055.671875 502.269531 2049.339844 C 502.257812 2043.003906 507.378906 2037.863281 513.714844 2037.847656 C 520.046875 2037.832031 525.195312 2042.949219 525.214844 2049.285156 M 957.285156 2426.128906 C 957.285156 2434.308594 950.660156 2440.9375 942.480469 2440.945312 C 934.304688 2440.949219 927.667969 2434.332031 927.65625 2426.152344 C 927.640625 2417.976562 934.257812 2411.335938 942.433594 2411.316406 C 950.613281 2411.296875 957.257812 2417.90625 957.285156 2426.082031 M 910.101562 2089.390625 C 910.101562 2094.582031 905.894531 2098.789062 900.703125 2098.792969 C 895.511719 2098.796875 891.300781 2094.597656 891.292969 2089.40625 C 891.285156 2084.214844 895.484375 2080 900.671875 2079.984375 C 905.863281 2079.972656 910.082031 2084.167969 910.101562 2089.359375 M 639.980469 1010.25 C 639.980469 1018.863281 633 1025.847656 624.386719 1025.855469 C 615.777344 1025.859375 608.785156 1018.886719 608.773438 1010.273438 C 608.757812 1001.660156 615.726562 994.667969 624.339844 994.644531 C 632.953125 994.625 639.953125 1001.585938 639.980469 1010.199219 M 1736.90625 1044.890625 C 1736.90625 1049.835938 1732.902344 1053.84375 1727.957031 1053.847656 C 1723.011719 1053.851562 1719 1049.847656 1718.992188 1044.902344 C 1718.984375 1039.960938 1722.984375 1035.945312 1727.929688 1035.933594 C 1732.871094 1035.921875 1736.890625 1039.917969 1736.90625 1044.863281 M 422.898438 1485.171875 C 422.898438 1492.328125 417.097656 1498.132812 409.9375 1498.136719 C 402.78125 1498.144531 396.972656 1492.347656 396.960938 1485.191406 C 396.949219 1478.03125 402.738281 1472.21875 409.898438 1472.203125 C 417.054688 1472.183594 422.875 1477.96875 422.898438 1485.128906 M 1110.378906 845.375 C 1110.378906 851.683594 1105.265625 856.796875 1098.960938 856.800781 C 1092.652344 856.808594 1087.53125 851.699219 1087.523438 845.394531 C 1087.511719 839.085938 1092.613281 833.960938 1098.921875 833.949219 C 1105.230469 833.933594 1110.359375 839.03125 1110.378906 845.339844 M 686.445312 1599.558594 C 686.445312 1606.332031 680.957031 1611.824219 674.1875 1611.832031 C 667.414062 1611.835938 661.917969 1606.351562 661.90625 1599.578125 C 661.894531 1592.804688 667.375 1587.304688 674.148438 1587.289062 C 680.917969 1587.273438 686.425781 1592.746094 686.445312 1599.519531 M 290.464844 1764.421875 C 290.464844 1770.425781 285.597656 1775.292969 279.59375 1775.296875 C 273.589844 1775.304688 268.714844 1770.441406 268.707031 1764.4375 C 268.699219 1758.433594 273.554688 1753.554688 279.558594 1753.542969 C 285.566406 1753.527344 290.445312 1758.378906 290.464844 1764.386719 M 1079.285156 2526.769531 C 1079.285156 2531.601562 1075.371094 2535.523438 1070.535156 2535.527344 C 1065.703125 2535.53125 1061.78125 2531.617188 1061.773438 2526.785156 C 1061.765625 2521.949219 1065.675781 2518.023438 1070.507812 2518.011719 C 1075.34375 2518 1079.269531 2521.910156 1079.285156 2526.742188 M 1733.039062 2004.230469 C 1733.039062 2010.628906 1727.855469 2015.816406 1721.460938 2015.820312 C 1715.0625 2015.824219 1709.871094 2010.644531 1709.859375 2004.25 C 1709.851562 1997.851562 1715.023438 1992.65625 1721.421875 1992.640625 C 1727.820312 1992.625 1733.019531 1997.796875 1733.039062 2004.191406 M 575.535156 2134.828125 C 575.535156 2143.410156 568.582031 2150.367188 560.003906 2150.371094 C 551.425781 2150.378906 544.460938 2143.433594 544.449219 2134.855469 C 544.433594 2126.277344 551.375 2119.308594 559.953125 2119.289062 C 568.53125 2119.265625 575.507812 2126.203125 575.535156 2134.78125 M 340.53125 882.660156 C 340.53125 892.542969 332.523438 900.5625 322.636719 900.570312 C 312.75 900.578125 304.730469 892.574219 304.714844 882.6875 C 304.699219 872.800781 312.695312 864.773438 322.582031 864.75 C 332.464844 864.726562 340.5 872.714844 340.53125 882.601562 M 1388.742188 2247.789062 C 1388.742188 2253.132812 1384.410156 2257.464844 1379.066406 2257.46875 C 1373.722656 2257.476562 1369.386719 2253.148438 1369.378906 2247.804688 C 1369.371094 2242.460938 1373.695312 2238.121094 1379.035156 2238.109375 C 1384.378906 2238.097656 1388.722656 2242.414062 1388.742188 2247.757812 M 1855.339844 1826.75 C 1855.339844 1832.722656 1850.5 1837.5625 1844.527344 1837.570312 C 1838.558594 1837.574219 1833.710938 1832.738281 1833.703125 1826.765625 C 1833.691406 1820.796875 1838.523438 1815.945312 1844.496094 1815.929688 C 1850.464844 1815.917969 1855.320312 1820.742188 1855.339844 1826.714844 M 1829.9375 683.804688 C 1829.9375 691.140625 1823.996094 697.085938 1816.660156 697.09375 C 1809.324219 697.097656 1803.375 691.160156 1803.363281 683.824219 C 1803.351562 676.492188 1809.285156 670.535156 1816.617188 670.515625 C 1823.953125 670.5 1829.914062 676.429688 1829.9375 683.761719 M 437.929688 912.539062 C 437.929688 922.785156 429.625 931.097656 419.378906 931.105469 C 409.128906 931.113281 400.8125 922.816406 400.796875 912.570312 C 400.78125 902.320312 409.070312 893.996094 419.320312 893.972656 C 429.566406 893.949219 437.894531 902.230469 437.929688 912.480469 M 1258.488281 1162.359375 C 1258.488281 1168.203125 1253.753906 1172.945312 1247.910156 1172.949219 C 1242.0625 1172.953125 1237.320312 1168.222656 1237.3125 1162.375 C 1237.300781 1156.53125 1242.03125 1151.785156 1247.875 1151.769531 C 1253.71875 1151.757812 1258.46875 1156.480469 1258.488281 1162.328125 M 2092.011719 1063.191406 C 2092.011719 1073.066406 2084.011719 1081.074219 2074.132812 1081.082031 C 2064.257812 1081.089844 2056.242188 1073.09375 2056.226562 1063.21875 C 2056.210938 1053.34375 2064.199219 1045.320312 2074.078125 1045.296875 C 2083.953125 1045.273438 2091.980469 1053.257812 2092.011719 1063.132812 M 343.523438 1185.710938 C 343.523438 1192.882812 337.714844 1198.699219 330.539062 1198.707031 C 323.367188 1198.710938 317.546875 1192.902344 317.535156 1185.730469 C 317.523438 1178.558594 323.324219 1172.730469 330.5 1172.714844 C 337.671875 1172.699219 343.503906 1178.496094 343.523438 1185.667969 M 940.320312 1020.140625 C 940.320312 1025.230469 936.195312 1029.359375 931.105469 1029.363281 C 926.015625 1029.367188 921.886719 1025.246094 921.878906 1020.15625 C 921.871094 1015.066406 925.988281 1010.929688 931.078125 1010.917969 C 936.167969 1010.90625 940.304688 1015.019531 940.320312 1020.109375 M 2188.230469 878.039062 C 2188.230469 887.234375 2180.78125 894.691406 2171.582031 894.699219 C 2162.386719 894.707031 2154.921875 887.261719 2154.910156 878.066406 C 2154.894531 868.867188 2162.332031 861.398438 2171.53125 861.375 C 2180.726562 861.355469 2188.203125 868.789062 2188.230469 877.984375 M 2284.972656 1931.859375 C 2284.972656 1940.753906 2277.765625 1947.964844 2268.871094 1947.972656 C 2259.980469 1947.980469 2252.761719 1940.78125 2252.746094 1931.886719 C 2252.734375 1922.992188 2259.929688 1915.769531 2268.820312 1915.746094 C 2277.714844 1915.726562 2284.945312 1922.914062 2284.972656 1931.808594 M 1791.085938 1662.648438 C 1791.085938 1667.933594 1786.800781 1672.21875 1781.519531 1672.226562 C 1776.234375 1672.230469 1771.945312 1667.949219 1771.933594 1662.664062 C 1771.925781 1657.378906 1776.203125 1653.089844 1781.488281 1653.074219 C 1786.773438 1653.0625 1791.066406 1657.335938 1791.085938 1662.621094 M 1504.546875 2435.179688 C 1504.546875 2441.328125 1499.566406 2446.3125 1493.417969 2446.316406 C 1487.269531 2446.324219 1482.28125 2441.34375 1482.273438 2435.199219 C 1482.261719 2429.050781 1487.234375 2424.058594 1493.382812 2424.042969 C 1499.53125 2424.027344 1504.527344 2428.996094 1504.546875 2435.144531 M 1655.523438 636.335938 C 1655.523438 643.003906 1650.121094 648.414062 1643.449219 648.417969 C 1636.777344 648.425781 1631.367188 643.023438 1631.355469 636.355469 C 1631.34375 629.683594 1636.742188 624.265625 1643.410156 624.25 C 1650.082031 624.234375 1655.503906 629.625 1655.523438 636.296875 M 1054.441406 2668.179688 C 1054.441406 2678.992188 1045.679688 2687.761719 1034.867188 2687.769531 C 1024.050781 2687.777344 1015.277344 2679.023438 1015.261719 2668.210938 C 1015.242188 2657.398438 1023.988281 2648.617188 1034.804688 2648.589844 C 1045.617188 2648.5625 1054.40625 2657.304688 1054.441406 2668.117188 M 1746.871094 1877.328125 C 1746.871094 1881.785156 1743.261719 1885.398438 1738.804688 1885.402344 C 1734.351562 1885.40625 1730.734375 1881.796875 1730.726562 1877.34375 C 1730.71875 1872.886719 1734.324219 1869.269531 1738.78125 1869.257812 C 1743.238281 1869.246094 1746.859375 1872.847656 1746.871094 1877.304688 M 782.285156 736.972656 C 782.285156 744.21875 776.417969 750.089844 769.175781 750.097656 C 761.929688 750.101562 756.054688 744.238281 756.042969 736.996094 C 756.03125 729.75 761.890625 723.867188 769.132812 723.851562 C 776.375 723.835938 782.261719 729.6875 782.285156 736.933594 M 395.308594 1279.839844 C 395.308594 1289.464844 387.511719 1297.269531 377.886719 1297.277344 C 368.261719 1297.28125 360.453125 1289.492188 360.4375 1279.867188 C 360.421875 1270.242188 368.207031 1262.425781 377.832031 1262.40625 C 387.457031 1262.382812 395.277344 1270.160156 395.308594 1279.785156 M 666.019531 2573.660156 C 666.019531 2580.78125 660.246094 2586.558594 653.125 2586.566406 C 646 2586.570312 640.222656 2580.804688 640.210938 2573.679688 C 640.199219 2566.558594 645.960938 2560.773438 653.082031 2560.753906 C 660.207031 2560.738281 665.996094 2566.496094 666.019531 2573.617188 M 1288.550781 2635.609375 C 1288.550781 2644.332031 1281.484375 2651.402344 1272.761719 2651.410156 C 1264.042969 2651.417969 1256.964844 2644.355469 1256.949219 2635.636719 C 1256.9375 2626.914062 1263.992188 2619.832031 1272.710938 2619.808594 C 1281.433594 2619.789062 1288.523438 2626.839844 1288.550781 2635.558594 M 2046.414062 1522.359375 C 2046.414062 1530.503906 2039.816406 1537.109375 2031.671875 1537.117188 C 2023.527344 1537.121094 2016.917969 1530.527344 2016.90625 1522.382812 C 2016.890625 1514.238281 2023.480469 1507.625 2031.625 1507.605469 C 2039.769531 1507.585938 2046.390625 1514.167969 2046.414062 1522.3125 M 420.011719 2328.609375 C 420.011719 2336.492188 413.625 2342.882812 405.742188 2342.890625 C 397.859375 2342.898438 391.460938 2336.515625 391.449219 2328.632812 C 391.4375 2320.75 397.8125 2314.347656 405.695312 2314.328125 C 413.578125 2314.308594 419.988281 2320.683594 420.011719 2328.566406 M 1159.230469 1256.539062 C 1159.230469 1261.457031 1155.246094 1265.449219 1150.328125 1265.453125 C 1145.40625 1265.457031 1141.417969 1261.472656 1141.410156 1256.554688 C 1141.402344 1251.636719 1145.378906 1247.640625 1150.296875 1247.628906 C 1155.21875 1247.617188 1159.214844 1251.59375 1159.230469 1256.511719 M 2140.636719 2395.578125 C 2140.636719 2402.035156 2135.40625 2407.273438 2128.949219 2407.277344 C 2122.492188 2407.28125 2117.253906 2402.054688 2117.242188 2395.597656 C 2117.230469 2389.140625 2122.457031 2383.898438 2128.910156 2383.882812 C 2135.367188 2383.867188 2140.617188 2389.085938 2140.636719 2395.542969 M 873.355469 832.265625 C 873.355469 839.125 867.800781 844.683594 860.941406 844.691406 C 854.082031 844.695312 848.515625 839.144531 848.507812 832.285156 C 848.496094 825.425781 854.042969 819.855469 860.902344 819.839844 C 867.757812 819.824219 873.335938 825.367188 873.355469 832.226562 M 992.824219 841.539062 C 992.824219 850.023438 985.949219 856.902344 977.464844 856.910156 C 968.984375 856.917969 962.097656 850.050781 962.085938 841.566406 C 962.070312 833.082031 968.933594 826.191406 977.417969 826.171875 C 985.902344 826.152344 992.796875 833.007812 992.824219 841.492188 M 607.695312 2123.191406 C 607.695312 2132.167969 600.417969 2139.449219 591.441406 2139.457031 C 582.460938 2139.464844 575.171875 2132.195312 575.160156 2123.214844 C 575.144531 2114.238281 582.410156 2106.945312 591.386719 2106.921875 C 600.367188 2106.902344 607.667969 2114.160156 607.695312 2123.136719 M 1856.640625 2067.859375 C 1856.640625 2072.265625 1853.070312 2075.839844 1848.667969 2075.84375 C 1844.261719 2075.84375 1840.683594 2072.277344 1840.679688 2067.871094 C 1840.671875 2063.46875 1844.234375 2059.886719 1848.640625 2059.878906 C 1853.046875 2059.867188 1856.628906 2063.429688 1856.640625 2067.835938 M 756.648438 2241.789062 C 756.648438 2246.554688 752.785156 2250.421875 748.019531 2250.425781 C 743.253906 2250.429688 739.386719 2246.570312 739.378906 2241.804688 C 739.371094 2237.039062 743.226562 2233.167969 747.992188 2233.15625 C 752.757812 2233.144531 756.632812 2236.996094 756.648438 2241.761719 M 341.699219 2279.96875 C 341.699219 2289.714844 333.800781 2297.617188 324.054688 2297.625 C 314.308594 2297.632812 306.398438 2289.746094 306.382812 2280 C 306.367188 2270.253906 314.253906 2262.335938 324 2262.3125 C 333.746094 2262.289062 341.667969 2270.167969 341.699219 2279.914062 M 466.707031 1298.550781 C 466.707031 1303.5 462.695312 1307.511719 457.75 1307.515625 C 452.800781 1307.519531 448.785156 1303.511719 448.777344 1298.5625 C 448.769531 1293.617188 452.769531 1289.597656 457.71875 1289.585938 C 462.667969 1289.574219 466.691406 1293.574219 466.707031 1298.519531 M 2051.507812 1101.828125 C 2051.507812 1108.175781 2046.363281 1113.320312 2040.019531 1113.328125 C 2033.671875 1113.332031 2028.523438 1108.195312 2028.511719 1101.847656 C 2028.503906 1095.503906 2033.636719 1090.347656 2039.984375 1090.332031 C 2046.328125 1090.320312 2051.484375 1095.449219 2051.507812 1101.792969 M 1611.722656 2480.390625 C 1611.722656 2489.085938 1604.675781 2496.132812 1595.984375 2496.140625 C 1587.289062 2496.148438 1580.234375 2489.109375 1580.21875 2480.414062 C 1580.203125 2471.722656 1587.238281 2464.660156 1595.933594 2464.636719 C 1604.625 2464.617188 1611.695312 2471.644531 1611.722656 2480.339844 M 398.605469 1287.660156 C 398.605469 1294.210938 393.296875 1299.523438 386.742188 1299.53125 C 380.191406 1299.535156 374.875 1294.230469 374.863281 1287.679688 C 374.855469 1281.128906 380.152344 1275.804688 386.707031 1275.789062 C 393.257812 1275.773438 398.582031 1281.070312 398.605469 1287.621094 M 1660.933594 2500.910156 C 1660.933594 2510.367188 1653.269531 2518.035156 1643.8125 2518.042969 C 1634.355469 2518.050781 1626.683594 2510.394531 1626.667969 2500.9375 C 1626.652344 2491.480469 1634.300781 2483.800781 1643.757812 2483.777344 C 1653.214844 2483.753906 1660.902344 2491.398438 1660.933594 2500.855469 M 1128.117188 874.851562 C 1128.117188 880.367188 1123.652344 884.835938 1118.136719 884.839844 C 1112.625 884.84375 1108.152344 880.382812 1108.140625 874.867188 C 1108.132812 869.355469 1112.59375 864.878906 1118.105469 864.867188 C 1123.617188 864.851562 1128.101562 869.308594 1128.117188 874.820312 M 2205.539062 2362.691406 C 2205.539062 2369.800781 2199.78125 2375.566406 2192.671875 2375.570312 C 2185.5625 2375.574219 2179.789062 2369.820312 2179.78125 2362.710938 C 2179.769531 2355.601562 2185.519531 2349.828125 2192.628906 2349.808594 C 2199.738281 2349.792969 2205.519531 2355.539062 2205.539062 2362.648438 M 1470.832031 715.042969 C 1470.832031 723.273438 1464.164062 729.945312 1455.933594 729.953125 C 1447.703125 729.960938 1441.023438 723.296875 1441.007812 715.066406 C 1440.996094 706.835938 1447.652344 700.152344 1455.882812 700.132812 C 1464.113281 700.113281 1470.804688 706.765625 1470.832031 714.996094 M 2115.597656 2319.949219 C 2115.597656 2325.855469 2110.8125 2330.644531 2104.910156 2330.648438 C 2099.003906 2330.652344 2094.210938 2325.871094 2094.203125 2319.96875 C 2094.191406 2314.0625 2098.96875 2309.265625 2104.875 2309.253906 C 2110.78125 2309.238281 2115.578125 2314.011719 2115.597656 2319.914062 M 960.328125 1108.640625 C 960.328125 1113.648438 956.269531 1117.710938 951.261719 1117.714844 C 946.25 1117.71875 942.1875 1113.664062 942.179688 1108.65625 C 942.171875 1103.644531 946.222656 1099.578125 951.230469 1099.566406 C 956.238281 1099.554688 960.308594 1103.601562 960.328125 1108.609375 M 1858.054688 2657.390625 C 1858.054688 2664.097656 1852.617188 2669.539062 1845.910156 2669.542969 C 1839.199219 2669.550781 1833.757812 2664.117188 1833.746094 2657.410156 C 1833.734375 2650.699219 1839.164062 2645.25 1845.871094 2645.234375 C 1852.578125 2645.21875 1858.03125 2650.640625 1858.054688 2657.351562 M 2087.300781 1110.558594 C 2087.300781 1116.832031 2082.21875 1121.914062 2075.949219 1121.921875 C 2069.679688 1121.925781 2064.589844 1116.847656 2064.578125 1110.578125 C 2064.570312 1104.308594 2069.640625 1099.214844 2075.914062 1099.199219 C 2082.183594 1099.183594 2087.28125 1104.253906 2087.300781 1110.523438 M 1428.078125 656.296875 C 1428.078125 664.984375 1421.039062 672.027344 1412.351562 672.035156 C 1403.667969 672.039062 1396.617188 665.007812 1396.601562 656.320312 C 1396.589844 647.636719 1403.617188 640.582031 1412.300781 640.558594 C 1420.988281 640.539062 1428.050781 647.558594 1428.078125 656.246094 M 1379.652344 2446.378906 C 1379.652344 2453.738281 1373.691406 2459.707031 1366.332031 2459.710938 C 1358.972656 2459.71875 1353 2453.761719 1352.988281 2446.402344 C 1352.976562 2439.042969 1358.929688 2433.066406 1366.289062 2433.046875 C 1373.648438 2433.03125 1379.628906 2438.980469 1379.652344 2446.335938 M 1962.875 1563.949219 C 1962.875 1570.0625 1957.921875 1575.019531 1951.808594 1575.023438 C 1945.695312 1575.027344 1940.734375 1570.082031 1940.726562 1563.96875 C 1940.714844 1557.855469 1945.660156 1552.890625 1951.773438 1552.875 C 1957.886719 1552.859375 1962.855469 1557.800781 1962.875 1563.914062 M 1573.328125 2120.351562 C 1573.328125 2125.613281 1569.0625 2129.882812 1563.796875 2129.886719 C 1558.53125 2129.890625 1554.261719 2125.628906 1554.253906 2120.363281 C 1554.242188 2115.101562 1558.503906 2110.824219 1563.765625 2110.8125 C 1569.03125 2110.800781 1573.3125 2115.054688 1573.328125 2120.320312 M 413.910156 2152.851562 C 413.910156 2159.914062 408.183594 2165.644531 401.117188 2165.652344 C 394.050781 2165.65625 388.316406 2159.9375 388.308594 2152.871094 C 388.296875 2145.804688 394.011719 2140.066406 401.078125 2140.050781 C 408.144531 2140.03125 413.886719 2145.742188 413.910156 2152.808594 M 288.785156 1344.578125 C 288.785156 1351.28125 283.359375 1356.714844 276.65625 1356.71875 C 269.957031 1356.722656 264.519531 1351.300781 264.507812 1344.597656 C 264.5 1337.898438 269.917969 1332.457031 276.617188 1332.441406 C 283.320312 1332.425781 288.765625 1337.839844 288.785156 1344.542969 M 2250.097656 2572.019531 C 2250.097656 2583.480469 2240.808594 2592.777344 2229.347656 2592.785156 C 2217.882812 2592.792969 2208.582031 2583.515625 2208.5625 2572.054688 C 2208.546875 2560.589844 2217.816406 2551.28125 2229.28125 2551.253906 C 2240.742188 2551.226562 2250.058594 2560.492188 2250.09375 2571.953125 M 1000.972656 1932.121094 C 1000.972656 1936.824219 997.160156 1940.636719 992.457031 1940.640625 C 987.75 1940.644531 983.933594 1936.835938 983.925781 1932.132812 C 983.917969 1927.429688 987.726562 1923.609375 992.429688 1923.597656 C 997.132812 1923.585938 1000.957031 1927.390625 1000.972656 1932.09375 M 894.867188 2324.609375 C 894.867188 2330.832031 889.824219 2335.875 883.605469 2335.878906 C 877.382812 2335.882812 872.335938 2330.847656 872.328125 2324.628906 C 872.316406 2318.40625 877.347656 2313.355469 883.570312 2313.339844 C 889.789062 2313.324219 894.847656 2318.355469 894.867188 2324.574219 M 645.113281 2476.210938 C 645.113281 2483.992188 638.808594 2490.300781 631.027344 2490.304688 C 623.25 2490.3125 616.933594 2484.011719 616.921875 2476.234375 C 616.910156 2468.453125 623.203125 2462.132812 630.984375 2462.113281 C 638.765625 2462.09375 645.089844 2468.382812 645.113281 2476.164062 M 494.179688 2305.851562 C 494.179688 2315.945312 485.996094 2324.132812 475.902344 2324.144531 C 465.804688 2324.152344 457.609375 2315.976562 457.59375 2305.878906 C 457.578125 2295.78125 465.746094 2287.582031 475.84375 2287.558594 C 485.9375 2287.535156 494.144531 2295.695312 494.179688 2305.792969 M 677.636719 2528.761719 C 677.636719 2536.398438 671.445312 2542.597656 663.804688 2542.601562 C 656.164062 2542.609375 649.964844 2536.421875 649.953125 2528.78125 C 649.9375 2521.140625 656.121094 2514.9375 663.761719 2514.917969 C 671.398438 2514.898438 677.609375 2521.074219 677.632812 2528.714844 M 2249.089844 1560.21875 C 2249.089844 1569.554688 2241.527344 1577.121094 2232.195312 1577.128906 C 2222.859375 1577.136719 2215.285156 1569.578125 2215.269531 1560.246094 C 2215.257812 1550.914062 2222.804688 1543.332031 2232.140625 1543.3125 C 2241.472656 1543.289062 2249.058594 1550.832031 2249.089844 1560.167969 M 1122.617188 2501.570312 C 1122.617188 2507.746094 1117.613281 2512.75 1111.4375 2512.757812 C 1105.265625 2512.761719 1100.253906 2507.761719 1100.242188 2501.585938 C 1100.234375 2495.414062 1105.230469 2490.398438 1111.402344 2490.382812 C 1117.578125 2490.371094 1122.597656 2495.359375 1122.617188 2501.535156 M 1925.710938 1491.589844 C 1925.710938 1496.953125 1921.363281 1501.304688 1915.996094 1501.308594 C 1910.632812 1501.3125 1906.277344 1496.96875 1906.269531 1491.605469 C 1906.261719 1486.242188 1910.601562 1481.882812 1915.964844 1481.871094 C 1921.332031 1481.859375 1925.691406 1486.195312 1925.710938 1491.558594 M 1338.117188 2307.960938 C 1338.117188 2312.628906 1334.335938 2316.414062 1329.667969 2316.417969 C 1325 2316.417969 1321.210938 2312.640625 1321.203125 2307.972656 C 1321.195312 2303.304688 1324.972656 2299.515625 1329.640625 2299.503906 C 1334.308594 2299.492188 1338.101562 2303.265625 1338.117188 2307.933594 M 823.230469 1744.828125 C 823.230469 1750.050781 819 1754.285156 813.777344 1754.289062 C 808.554688 1754.292969 804.316406 1750.066406 804.308594 1744.84375 C 804.300781 1739.625 808.523438 1735.382812 813.746094 1735.371094 C 818.96875 1735.355469 823.210938 1739.578125 823.230469 1744.800781 M 509.691406 1905.238281 C 509.691406 1911.382812 504.714844 1916.367188 498.570312 1916.371094 C 492.425781 1916.375 487.4375 1911.402344 487.429688 1905.257812 C 487.417969 1899.113281 492.390625 1894.125 498.535156 1894.109375 C 504.675781 1894.09375 509.671875 1899.058594 509.691406 1905.203125 M 334.484375 1602.53125 C 334.484375 1609.523438 328.816406 1615.191406 321.824219 1615.199219 C 314.832031 1615.203125 309.160156 1609.542969 309.148438 1602.550781 C 309.136719 1595.558594 314.792969 1589.878906 321.785156 1589.863281 C 328.777344 1589.84375 334.460938 1595.496094 334.484375 1602.488281 M 1932.972656 1095.910156 C 1932.972656 1102.886719 1927.316406 1108.546875 1920.339844 1108.550781 C 1913.363281 1108.558594 1907.699219 1102.910156 1907.6875 1095.929688 C 1907.675781 1088.953125 1913.320312 1083.285156 1920.300781 1083.269531 C 1927.277344 1083.25 1932.949219 1088.890625 1932.972656 1095.871094 M 2254.90625 1325.609375 C 2254.90625 1335.953125 2246.527344 1344.339844 2236.183594 1344.347656 C 2225.84375 1344.355469 2217.449219 1335.980469 2217.433594 1325.640625 C 2217.417969 1315.296875 2225.78125 1306.898438 2236.125 1306.871094 C 2246.46875 1306.847656 2254.875 1315.207031 2254.90625 1325.550781 M 2257.765625 1068.101562 C 2257.765625 1076.007812 2251.359375 1082.417969 2243.453125 1082.425781 C 2235.542969 1082.429688 2229.128906 1076.03125 2229.113281 1068.121094 C 2229.101562 1060.214844 2235.5 1053.792969 2243.40625 1053.773438 C 2251.3125 1053.757812 2257.738281 1060.148438 2257.765625 1068.054688 M 2110.621094 1510.570312 C 2110.621094 1518.582031 2104.132812 1525.074219 2096.121094 1525.082031 C 2088.113281 1525.089844 2081.609375 1518.601562 2081.597656 1510.59375 C 2081.585938 1502.582031 2088.066406 1496.078125 2096.074219 1496.058594 C 2104.085938 1496.039062 2110.597656 1502.515625 2110.621094 1510.523438 M 1951.988281 679.648438 C 1951.988281 685.945312 1946.886719 691.054688 1940.589844 691.058594 C 1934.292969 691.0625 1929.179688 685.964844 1929.171875 679.667969 C 1929.160156 673.371094 1934.253906 668.253906 1940.554688 668.238281 C 1946.851562 668.222656 1951.96875 673.316406 1951.988281 679.613281 M 2113.863281 922.964844 C 2113.863281 932.378906 2106.238281 940.011719 2096.824219 940.019531 C 2087.410156 940.027344 2079.769531 932.40625 2079.753906 922.992188 C 2079.738281 913.578125 2087.355469 905.933594 2096.769531 905.910156 C 2106.183594 905.886719 2113.835938 913.496094 2113.863281 922.910156 M 343.816406 2554.480469 C 343.816406 2562.304688 337.476562 2568.648438 329.652344 2568.65625 C 321.828125 2568.660156 315.476562 2562.328125 315.464844 2554.503906 C 315.453125 2546.679688 321.78125 2540.324219 329.605469 2540.304688 C 337.429688 2540.285156 343.792969 2546.609375 343.816406 2554.433594 M 1771.898438 635.210938 C 1771.898438 646.421875 1762.816406 655.511719 1751.605469 655.519531 C 1740.394531 655.53125 1731.296875 646.453125 1731.28125 635.246094 C 1731.261719 624.035156 1740.332031 614.929688 1751.542969 614.902344 C 1762.75 614.875 1771.863281 623.9375 1771.898438 635.148438 M 575.925781 2133.460938 C 575.925781 2140.847656 569.9375 2146.839844 562.550781 2146.84375 C 555.164062 2146.851562 549.167969 2140.871094 549.15625 2133.480469 C 549.144531 2126.09375 555.121094 2120.09375 562.507812 2120.074219 C 569.894531 2120.058594 575.902344 2126.03125 575.925781 2133.417969 M 692.273438 2025.300781 C 692.273438 2031.324219 687.394531 2036.207031 681.371094 2036.210938 C 675.347656 2036.21875 670.460938 2031.339844 670.449219 2025.316406 C 670.441406 2019.292969 675.3125 2014.402344 681.335938 2014.386719 C 687.359375 2014.375 692.253906 2019.242188 692.273438 2025.265625 M 489.570312 1858.230469 C 489.570312 1862.984375 485.71875 1866.835938 480.964844 1866.839844 C 476.210938 1866.84375 472.355469 1862.996094 472.347656 1858.242188 C 472.339844 1853.492188 476.183594 1849.628906 480.9375 1849.621094 C 485.691406 1849.609375 489.554688 1853.449219 489.570312 1858.203125 M 1509.53125 2190.761719 C 1509.53125 2196.589844 1504.808594 2201.316406 1498.976562 2201.320312 C 1493.148438 2201.324219 1488.417969 2196.605469 1488.410156 2190.777344 C 1488.402344 2184.949219 1493.117188 2180.214844 1498.945312 2180.199219 C 1504.773438 2180.1875 1509.511719 2184.898438 1509.53125 2190.726562 M 821.738281 2567.03125 C 821.738281 2575.957031 814.503906 2583.195312 805.578125 2583.203125 C 796.652344 2583.207031 789.40625 2575.980469 789.394531 2567.054688 C 789.378906 2558.128906 796.601562 2550.878906 805.527344 2550.859375 C 814.453125 2550.835938 821.707031 2558.050781 821.738281 2566.976562 M 2287.410156 688.023438 C 2287.410156 694.617188 2282.066406 699.964844 2275.46875 699.972656 C 2268.875 699.976562 2263.519531 694.636719 2263.511719 688.042969 C 2263.5 681.445312 2268.835938 676.089844 2275.429688 676.074219 C 2282.027344 676.058594 2287.386719 681.386719 2287.410156 687.984375 M 465.03125 2096.191406 C 465.03125 2103.671875 458.96875 2109.738281 451.488281 2109.742188 C 444.007812 2109.75 437.9375 2103.691406 437.925781 2096.210938 C 437.910156 2088.730469 443.964844 2082.65625 451.445312 2082.636719 C 458.925781 2082.621094 465.007812 2088.664062 465.03125 2096.148438 M 543.1875 1566.351562 C 543.1875 1571.832031 538.746094 1576.277344 533.261719 1576.285156 C 527.777344 1576.289062 523.328125 1571.847656 523.320312 1566.367188 C 523.3125 1560.882812 527.746094 1556.429688 533.230469 1556.417969 C 538.714844 1556.402344 543.171875 1560.835938 543.1875 1566.316406 M 367.097656 2118.839844 C 367.097656 2125.058594 362.058594 2130.097656 355.839844 2130.105469 C 349.625 2130.109375 344.578125 2125.074219 344.566406 2118.859375 C 344.558594 2112.640625 349.585938 2107.589844 355.804688 2107.574219 C 362.023438 2107.5625 367.078125 2112.585938 367.097656 2118.804688 M 933.390625 2664.519531 C 933.390625 2674.707031 925.136719 2682.96875 914.945312 2682.976562 C 904.757812 2682.984375 896.492188 2674.738281 896.472656 2664.550781 C 896.457031 2654.359375 904.699219 2646.085938 914.886719 2646.0625 C 925.074219 2646.039062 933.355469 2654.273438 933.390625 2664.460938 M 2086.542969 2550.21875 C 2086.542969 2557.296875 2080.808594 2563.039062 2073.730469 2563.042969 C 2066.652344 2563.050781 2060.90625 2557.320312 2060.894531 2550.242188 C 2060.886719 2543.160156 2066.609375 2537.414062 2073.6875 2537.394531 C 2080.769531 2537.378906 2086.519531 2543.101562 2086.542969 2550.179688 M 1970.371094 1339.710938 C 1970.371094 1344.277344 1966.671875 1347.976562 1962.105469 1347.980469 C 1957.542969 1347.984375 1953.835938 1344.289062 1953.828125 1339.722656 C 1953.820312 1335.15625 1957.515625 1331.449219 1962.082031 1331.4375 C 1966.644531 1331.429688 1970.355469 1335.117188 1970.371094 1339.683594 M 762.199219 1020.859375 C 762.199219 1025.984375 758.046875 1030.136719 752.921875 1030.140625 C 747.800781 1030.144531 743.640625 1026 743.632812 1020.875 C 743.625 1015.75 747.769531 1011.589844 752.894531 1011.578125 C 758.015625 1011.566406 762.183594 1015.707031 762.199219 1020.832031 M 2280.144531 1368.539062 C 2280.144531 1377.199219 2273.128906 1384.21875 2264.472656 1384.226562 C 2255.8125 1384.234375 2248.789062 1377.222656 2248.773438 1368.566406 C 2248.761719 1359.90625 2255.765625 1352.875 2264.421875 1352.855469 C 2273.082031 1352.832031 2280.117188 1359.832031 2280.144531 1368.488281 M 321.003906 969.761719 C 321.003906 977.039062 315.105469 982.9375 307.832031 982.945312 C 300.554688 982.949219 294.648438 977.058594 294.636719 969.78125 C 294.625 962.507812 300.511719 956.597656 307.789062 956.578125 C 315.066406 956.5625 320.980469 962.445312 321.003906 969.71875 M 856.621094 2574.398438 C 856.621094 2581.8125 850.613281 2587.824219 843.203125 2587.828125 C 835.789062 2587.835938 829.773438 2581.832031 829.761719 2574.421875 C 829.75 2567.007812 835.746094 2560.988281 843.160156 2560.972656 C 850.574219 2560.953125 856.597656 2566.945312 856.621094 2574.355469 M 318.042969 1447.898438 C 318.042969 1455.269531 312.070312 1461.246094 304.703125 1461.25 C 297.332031 1461.257812 291.351562 1455.289062 291.339844 1447.921875 C 291.328125 1440.550781 297.289062 1434.566406 304.660156 1434.550781 C 312.03125 1434.53125 318.019531 1440.488281 318.042969 1447.859375 M 1170.5625 1104.171875 C 1170.5625 1109.25 1166.445312 1113.367188 1161.367188 1113.371094 C 1156.289062 1113.375 1152.164062 1109.265625 1152.15625 1104.183594 C 1152.148438 1099.105469 1156.257812 1094.980469 1161.339844 1094.96875 C 1166.417969 1094.957031 1170.546875 1099.0625 1170.5625 1104.140625 M 1060.648438 2133.96875 C 1060.648438 2139.648438 1056.046875 2144.253906 1050.367188 2144.257812 C 1044.691406 2144.261719 1040.082031 2139.664062 1040.070312 2133.988281 C 1040.0625 2128.308594 1044.65625 2123.695312 1050.335938 2123.683594 C 1056.015625 2123.667969 1060.628906 2128.257812 1060.648438 2133.9375 M 750.726562 1677.351562 C 750.726562 1683.085938 746.078125 1687.738281 740.339844 1687.746094 C 734.601562 1687.75 729.945312 1683.105469 729.9375 1677.367188 C 729.929688 1671.628906 734.570312 1666.96875 740.308594 1666.957031 C 746.042969 1666.941406 750.707031 1671.578125 750.726562 1677.316406 M 1522.039062 2183.859375 C 1522.039062 2189.957031 1517.097656 2194.90625 1511 2194.910156 C 1504.898438 2194.914062 1499.949219 2189.976562 1499.941406 2183.878906 C 1499.929688 2177.777344 1504.863281 2172.824219 1510.964844 2172.8125 C 1517.0625 2172.796875 1522.019531 2177.726562 1522.039062 2183.824219 M 2026.792969 1401.910156 C 2026.792969 1408.675781 2021.3125 1414.160156 2014.550781 1414.164062 C 2007.785156 1414.171875 2002.296875 1408.695312 2002.285156 1401.929688 C 2002.273438 1395.164062 2007.746094 1389.671875 2014.511719 1389.65625 C 2021.273438 1389.640625 2026.773438 1395.105469 2026.792969 1401.871094 M 1198.191406 1042.628906 C 1198.191406 1048.222656 1193.660156 1052.757812 1188.066406 1052.761719 C 1182.476562 1052.765625 1177.9375 1048.238281 1177.925781 1042.644531 C 1177.917969 1037.054688 1182.441406 1032.511719 1188.035156 1032.496094 C 1193.628906 1032.484375 1198.175781 1037.003906 1198.191406 1042.597656 M 648.097656 2256.011719 C 648.097656 2261.761719 643.4375 2266.421875 637.6875 2266.429688 C 631.9375 2266.433594 627.269531 2261.777344 627.261719 2256.027344 C 627.253906 2250.277344 631.90625 2245.605469 637.65625 2245.589844 C 643.40625 2245.578125 648.078125 2250.226562 648.097656 2255.976562 M 953.722656 2524.289062 C 953.722656 2531.703125 947.714844 2537.714844 940.300781 2537.71875 C 932.890625 2537.726562 926.875 2531.722656 926.863281 2524.3125 C 926.851562 2516.898438 932.847656 2510.878906 940.261719 2510.859375 C 947.671875 2510.84375 953.695312 2516.835938 953.722656 2524.246094 M 780.6875 1162.308594 C 780.6875 1168.453125 775.707031 1173.4375 769.5625 1173.441406 C 763.417969 1173.449219 758.429688 1168.472656 758.421875 1162.328125 C 758.410156 1156.183594 763.382812 1151.191406 769.527344 1151.175781 C 775.671875 1151.164062 780.667969 1156.128906 780.6875 1162.273438 M 1055.132812 2066.378906 C 1055.132812 2072.035156 1050.550781 2076.617188 1044.898438 2076.621094 C 1039.246094 2076.628906 1034.65625 2072.050781 1034.648438 2066.394531 C 1034.636719 2060.742188 1039.210938 2056.152344 1044.867188 2056.136719 C 1050.519531 2056.125 1055.113281 2060.695312 1055.132812 2066.347656 M 1394.933594 980.390625 C 1394.933594 987.117188 1389.480469 992.574219 1382.75 992.582031 C 1376.019531 992.585938 1370.558594 987.136719 1370.546875 980.410156 C 1370.539062 973.679688 1375.980469 968.214844 1382.710938 968.195312 C 1389.441406 968.179688 1394.910156 973.621094 1394.933594 980.351562 M 1937.023438 1685.941406 C 1937.023438 1691.78125 1932.292969 1696.519531 1926.449219 1696.523438 C 1920.605469 1696.53125 1915.863281 1691.800781 1915.855469 1685.957031 C 1915.84375 1680.113281 1920.570312 1675.367188 1926.414062 1675.355469 C 1932.257812 1675.339844 1937.007812 1680.0625 1937.023438 1685.90625 M 1536.890625 984.574219 C 1536.890625 989.53125 1532.875 993.550781 1527.917969 993.554688 C 1522.960938 993.558594 1518.9375 989.546875 1518.929688 984.589844 C 1518.921875 979.632812 1522.933594 975.609375 1527.886719 975.597656 C 1532.84375 975.582031 1536.875 979.589844 1536.890625 984.546875 M 646.089844 2436.539062 C 646.089844 2444.925781 639.292969 2451.730469 630.90625 2451.734375 C 622.519531 2451.742188 615.710938 2444.953125 615.699219 2436.5625 C 615.683594 2428.175781 622.46875 2421.363281 630.859375 2421.34375 C 639.246094 2421.324219 646.0625 2428.105469 646.089844 2436.492188 M 1229.730469 2614.128906 C 1229.730469 2622.675781 1222.808594 2629.601562 1214.261719 2629.609375 C 1205.71875 2629.617188 1198.785156 2622.699219 1198.769531 2614.15625 C 1198.757812 2605.609375 1205.667969 2598.671875 1214.214844 2598.648438 C 1222.757812 2598.628906 1229.703125 2605.535156 1229.730469 2614.082031 M 306.03125 2656.019531 C 306.03125 2667.640625 296.617188 2677.0625 284.996094 2677.074219 C 273.375 2677.082031 263.945312 2667.675781 263.925781 2656.054688 C 263.910156 2644.433594 273.308594 2634.996094 284.929688 2634.96875 C 296.550781 2634.941406 305.996094 2644.332031 306.03125 2655.953125 M 1614.277344 634.96875 C 1614.277344 645.601562 1605.660156 654.226562 1595.023438 654.234375 C 1584.390625 654.242188 1575.761719 645.632812 1575.742188 634.996094 C 1575.726562 624.363281 1584.328125 615.726562 1594.964844 615.699219 C 1605.597656 615.675781 1614.242188 624.269531 1614.277344 634.90625 M 673.449219 1867.140625 C 673.449219 1872.492188 669.113281 1876.832031 663.761719 1876.835938 C 658.410156 1876.839844 654.066406 1872.507812 654.054688 1867.15625 C 654.046875 1861.804688 658.378906 1857.457031 663.730469 1857.445312 C 669.082031 1857.429688 673.433594 1861.757812 673.449219 1867.109375 M 599.40625 2197.140625 C 599.40625 2203.082031 594.589844 2207.898438 588.648438 2207.90625 C 582.707031 2207.910156 577.882812 2203.097656 577.875 2197.15625 C 577.867188 2191.214844 582.671875 2186.390625 588.613281 2186.375 C 594.554688 2186.359375 599.386719 2191.164062 599.40625 2197.105469 M 1635.882812 2591.660156 C 1635.882812 2600.019531 1629.109375 2606.792969 1620.753906 2606.800781 C 1612.394531 2606.808594 1605.613281 2600.042969 1605.597656 2591.683594 C 1605.585938 2583.328125 1612.347656 2576.539062 1620.703125 2576.519531 C 1629.0625 2576.5 1635.855469 2583.253906 1635.882812 2591.613281 M 2159.238281 2226.058594 C 2159.238281 2234.285156 2152.574219 2240.953125 2144.351562 2240.957031 C 2136.128906 2240.964844 2129.453125 2234.308594 2129.441406 2226.082031 C 2129.429688 2217.859375 2136.082031 2211.179688 2144.304688 2211.160156 C 2152.527344 2211.140625 2159.210938 2217.789062 2159.238281 2226.011719 M 1910.503906 2085.519531 C 1910.503906 2092.457031 1904.886719 2098.078125 1897.949219 2098.085938 C 1891.015625 2098.089844 1885.386719 2092.476562 1885.375 2085.539062 C 1885.363281 2078.605469 1890.972656 2072.972656 1897.910156 2072.953125 C 1904.84375 2072.9375 1910.484375 2078.542969 1910.503906 2085.480469 M 1470.6875 2620.53125 C 1470.6875 2627.816406 1464.785156 2633.722656 1457.5 2633.726562 C 1450.214844 2633.734375 1444.304688 2627.835938 1444.292969 2620.550781 C 1444.28125 2613.265625 1450.175781 2607.351562 1457.457031 2607.332031 C 1464.742188 2607.316406 1470.664062 2613.203125 1470.6875 2620.488281 M 2119.523438 2591.109375 C 2119.523438 2597.835938 2114.074219 2603.289062 2107.351562 2603.292969 C 2100.625 2603.300781 2095.167969 2597.855469 2095.15625 2591.128906 C 2095.144531 2584.402344 2100.585938 2578.941406 2107.3125 2578.925781 C 2114.035156 2578.910156 2119.503906 2584.347656 2119.523438 2591.070312 M 2283.523438 1426.710938 C 2283.523438 1436.628906 2275.484375 1444.675781 2265.5625 1444.683594 C 2255.644531 1444.691406 2247.59375 1436.660156 2247.578125 1426.738281 C 2247.5625 1416.816406 2255.585938 1408.761719 2265.507812 1408.738281 C 2275.425781 1408.714844 2283.492188 1416.730469 2283.523438 1426.652344 M 1254.800781 1022 C 1254.800781 1027.75 1250.140625 1032.414062 1244.386719 1032.417969 C 1238.636719 1032.421875 1233.96875 1027.769531 1233.960938 1022.015625 C 1233.953125 1016.265625 1238.605469 1011.59375 1244.355469 1011.582031 C 1250.105469 1011.566406 1254.78125 1016.214844 1254.800781 1021.96875 M 1867.316406 2527 C 1867.316406 2537.355469 1858.929688 2545.75 1848.574219 2545.757812 C 1838.222656 2545.765625 1829.820312 2537.382812 1829.800781 2527.03125 C 1829.785156 2516.675781 1838.160156 2508.265625 1848.515625 2508.242188 C 1858.867188 2508.21875 1867.285156 2516.585938 1867.316406 2526.941406 M 2266.441406 1746.449219 C 2266.441406 1752.421875 2261.601562 1757.269531 2255.628906 1757.273438 C 2249.65625 1757.277344 2244.808594 1752.441406 2244.796875 1746.46875 C 2244.789062 1740.492188 2249.621094 1735.640625 2255.59375 1735.628906 C 2261.566406 1735.613281 2266.421875 1740.441406 2266.441406 1746.414062 M 1879.953125 2029.71875 C 1879.953125 2037.082031 1873.992188 2043.046875 1866.628906 2043.054688 C 1859.269531 2043.058594 1853.296875 2037.101562 1853.285156 2029.742188 C 1853.273438 2022.382812 1859.226562 2016.402344 1866.589844 2016.386719 C 1873.949219 2016.367188 1879.929688 2022.316406 1879.953125 2029.675781 M 2100.113281 2324.230469 C 2100.113281 2331.566406 2094.167969 2337.519531 2086.832031 2337.523438 C 2079.492188 2337.53125 2073.539062 2331.589844 2073.527344 2324.25 C 2073.515625 2316.914062 2079.449219 2310.953125 2086.789062 2310.9375 C 2094.125 2310.917969 2100.089844 2316.851562 2100.113281 2324.1875 M 450.09375 1229.710938 C 450.09375 1239.09375 442.492188 1246.699219 433.109375 1246.707031 C 423.726562 1246.714844 416.113281 1239.121094 416.097656 1229.738281 C 416.085938 1220.355469 423.675781 1212.734375 433.054688 1212.710938 C 442.4375 1212.691406 450.066406 1220.273438 450.09375 1229.65625 M 362.726562 857.996094 C 362.726562 866.804688 355.59375 873.945312 346.789062 873.949219 C 337.980469 873.957031 330.835938 866.828125 330.820312 858.023438 C 330.808594 849.21875 337.929688 842.066406 346.738281 842.046875 C 355.542969 842.023438 362.699219 849.140625 362.726562 857.945312 M 1568.351562 1304.480469 C 1568.351562 1309.773438 1564.0625 1314.066406 1558.769531 1314.070312 C 1553.472656 1314.074219 1549.179688 1309.789062 1549.167969 1304.496094 C 1549.160156 1299.203125 1553.441406 1294.902344 1558.738281 1294.890625 C 1564.03125 1294.875 1568.332031 1299.15625 1568.351562 1304.449219 M 844.714844 2302.789062 C 844.714844 2310.003906 838.871094 2315.855469 831.65625 2315.859375 C 824.441406 2315.867188 818.585938 2310.027344 818.574219 2302.8125 C 818.5625 2295.597656 824.398438 2289.738281 831.613281 2289.71875 C 838.828125 2289.703125 844.691406 2295.535156 844.714844 2302.75 M 1259.3125 2042.46875 C 1259.3125 2047.53125 1255.210938 2051.636719 1250.148438 2051.640625 C 1245.085938 2051.644531 1240.976562 2047.546875 1240.96875 2042.484375 C 1240.960938 2037.421875 1245.054688 2033.3125 1250.117188 2033.300781 C 1255.179688 2033.285156 1259.296875 2037.378906 1259.3125 2042.441406 M 504.257812 1281.710938 C 504.257812 1287.421875 499.628906 1292.054688 493.917969 1292.058594 C 488.207031 1292.0625 483.574219 1287.4375 483.5625 1281.726562 C 483.554688 1276.015625 488.175781 1271.375 493.886719 1271.363281 C 499.597656 1271.347656 504.242188 1275.964844 504.257812 1281.675781 M 2102.902344 1075.308594 C 2102.902344 1084.5625 2095.40625 1092.0625 2086.152344 1092.070312 C 2076.902344 1092.078125 2069.394531 1084.589844 2069.378906 1075.335938 C 2069.363281 1066.085938 2076.847656 1058.570312 2086.101562 1058.550781 C 2095.351562 1058.527344 2102.871094 1066.003906 2102.902344 1075.257812 M 1048.621094 2345.390625 C 1048.621094 2352.0625 1043.210938 2357.472656 1036.539062 2357.480469 C 1029.867188 2357.484375 1024.449219 2352.082031 1024.441406 2345.410156 C 1024.429688 2338.734375 1029.828125 2333.316406 1036.5 2333.300781 C 1043.175781 2333.285156 1048.597656 2338.679688 1048.621094 2345.351562 M 1239.832031 729.933594 C 1239.832031 736.414062 1234.578125 741.667969 1228.097656 741.675781 C 1221.617188 741.679688 1216.359375 736.433594 1216.347656 729.953125 C 1216.339844 723.472656 1221.582031 718.207031 1228.0625 718.191406 C 1234.542969 718.175781 1239.808594 723.414062 1239.832031 729.894531 M 2020.058594 1902.789062 C 2020.058594 1907.695312 2016.085938 1911.675781 2011.175781 1911.679688 C 2006.269531 1911.683594 2002.289062 1907.710938 2002.28125 1902.804688 C 2002.273438 1897.898438 2006.242188 1893.910156 2011.148438 1893.898438 C 2016.054688 1893.886719 2020.042969 1897.855469 2020.058594 1902.761719 M 1656.449219 2238.300781 C 1656.449219 2243.6875 1652.085938 2248.054688 1646.699219 2248.058594 C 1641.3125 2248.0625 1636.941406 2243.703125 1636.933594 2238.316406 C 1636.921875 2232.929688 1641.28125 2228.554688 1646.667969 2228.542969 C 1652.054688 2228.527344 1656.429688 2232.882812 1656.449219 2238.269531 M 798.195312 1765.480469 C 798.195312 1771.21875 793.546875 1775.875 787.804688 1775.878906 C 782.0625 1775.886719 777.40625 1771.238281 777.394531 1765.496094 C 777.386719 1759.757812 782.03125 1755.09375 787.769531 1755.078125 C 793.511719 1755.066406 798.179688 1759.707031 798.195312 1765.445312 M 513.082031 649.652344 C 513.082031 661.796875 503.242188 671.644531 491.097656 671.652344 C 478.953125 671.660156 469.097656 661.832031 469.078125 649.6875 C 469.058594 637.542969 478.882812 627.679688 491.027344 627.648438 C 503.171875 627.621094 513.042969 637.4375 513.082031 649.582031 M 2143.714844 2601.089844 C 2143.714844 2609.304688 2137.058594 2615.96875 2128.84375 2615.976562 C 2120.625 2615.980469 2113.957031 2609.328125 2113.945312 2601.113281 C 2113.933594 2592.898438 2120.578125 2586.222656 2128.792969 2586.203125 C 2137.011719 2586.183594 2143.6875 2592.828125 2143.714844 2601.042969 M 1531.777344 816.839844 C 1531.777344 822.929688 1526.839844 827.871094 1520.75 827.875 C 1514.65625 827.878906 1509.714844 822.945312 1509.703125 816.855469 C 1509.695312 810.765625 1514.621094 805.816406 1520.714844 805.800781 C 1526.804688 805.789062 1531.757812 810.710938 1531.777344 816.804688 M 2090.101562 1353.101562 C 2090.101562 1359.835938 2084.644531 1365.296875 2077.910156 1365.300781 C 2071.175781 1365.304688 2065.710938 1359.855469 2065.699219 1353.121094 C 2065.6875 1346.386719 2071.136719 1340.914062 2077.871094 1340.898438 C 2084.605469 1340.882812 2090.078125 1346.328125 2090.101562 1353.0625 M 1512.511719 2385.488281 C 1512.511719 2393.890625 1505.703125 2400.703125 1497.300781 2400.710938 C 1488.898438 2400.71875 1482.082031 2393.917969 1482.070312 2385.515625 C 1482.054688 2377.113281 1488.851562 2370.289062 1497.253906 2370.269531 C 1505.65625 2370.25 1512.484375 2377.039062 1512.511719 2385.441406 M 1687.1875 1207.210938 C 1687.1875 1212.308594 1683.054688 1216.441406 1677.957031 1216.445312 C 1672.859375 1216.449219 1668.722656 1212.324219 1668.714844 1207.226562 C 1668.707031 1202.125 1672.828125 1197.984375 1677.929688 1197.972656 C 1683.027344 1197.960938 1687.171875 1202.082031 1687.1875 1207.179688 M 1048.035156 2358.710938 C 1048.035156 2364.320312 1043.488281 2368.871094 1037.878906 2368.875 C 1032.265625 2368.878906 1027.714844 2364.335938 1027.703125 2358.726562 C 1027.695312 2353.113281 1032.234375 2348.558594 1037.847656 2348.542969 C 1043.457031 2348.53125 1048.019531 2353.066406 1048.035156 2358.675781 M 1355.285156 701.535156 C 1355.285156 708.292969 1349.808594 713.777344 1343.050781 713.78125 C 1336.289062 713.785156 1330.804688 708.3125 1330.792969 701.554688 C 1330.78125 694.792969 1336.25 689.304688 1343.011719 689.285156 C 1349.769531 689.269531 1355.265625 694.734375 1355.285156 701.496094 M 2037.117188 2320.300781 C 2037.117188 2330.453125 2028.890625 2338.6875 2018.734375 2338.695312 C 2008.582031 2338.703125 2000.339844 2330.484375 2000.324219 2320.328125 C 2000.308594 2310.175781 2008.523438 2301.929688 2018.675781 2301.902344 C 2028.832031 2301.878906 2037.082031 2310.085938 2037.117188 2320.242188 M 1332.226562 2546.53125 C 1332.226562 2554.839844 1325.492188 2561.578125 1317.183594 2561.585938 C 1308.871094 2561.59375 1302.128906 2554.863281 1302.113281 2546.554688 C 1302.101562 2538.242188 1308.824219 2531.492188 1317.132812 2531.472656 C 1325.445312 2531.453125 1332.199219 2538.171875 1332.226562 2546.480469 M 2155.316406 1158.691406 C 2155.316406 1167.664062 2148.046875 1174.9375 2139.074219 1174.945312 C 2130.101562 1174.953125 2122.816406 1167.6875 2122.804688 1158.714844 C 2122.789062 1149.742188 2130.046875 1142.453125 2139.019531 1142.433594 C 2147.996094 1142.414062 2155.289062 1149.664062 2155.316406 1158.636719 M 368.910156 1578.300781 C 368.910156 1587.011719 361.851562 1594.074219 353.140625 1594.078125 C 344.433594 1594.085938 337.363281 1587.035156 337.351562 1578.324219 C 337.335938 1569.613281 344.382812 1562.539062 353.09375 1562.519531 C 361.800781 1562.5 368.882812 1569.539062 368.910156 1578.25 M 1148.25 2325.460938 C 1148.25 2330.980469 1143.777344 2335.453125 1138.257812 2335.457031 C 1132.738281 2335.464844 1128.261719 2330.996094 1128.25 2325.476562 C 1128.242188 2319.957031 1132.707031 2315.472656 1138.226562 2315.460938 C 1143.746094 2315.449219 1148.230469 2319.910156 1148.25 2325.429688 M 472.367188 1480.160156 C 472.367188 1485.679688 467.894531 1490.15625 462.371094 1490.160156 C 456.851562 1490.167969 452.371094 1485.695312 452.363281 1480.175781 C 452.351562 1474.65625 456.820312 1470.171875 462.339844 1470.15625 C 467.859375 1470.144531 472.347656 1474.605469 472.367188 1480.128906 M 1345.5 1036.359375 C 1345.5 1043.066406 1340.066406 1048.503906 1333.359375 1048.511719 C 1326.652344 1048.515625 1321.210938 1043.085938 1321.199219 1036.378906 C 1321.1875 1029.671875 1326.613281 1024.226562 1333.320312 1024.210938 C 1340.027344 1024.191406 1345.480469 1029.613281 1345.5 1036.320312 M 1469.6875 2369.050781 C 1469.6875 2375.324219 1464.601562 2380.410156 1458.328125 2380.414062 C 1452.054688 2380.421875 1446.964844 2375.339844 1446.953125 2369.066406 C 1446.945312 2362.792969 1452.019531 2357.699219 1458.292969 2357.683594 C 1464.566406 2357.667969 1469.664062 2362.738281 1469.6875 2369.015625 M 1980.070312 2557.589844 C 1980.070312 2568.402344 1971.308594 2577.171875 1960.496094 2577.179688 C 1949.683594 2577.191406 1940.90625 2568.433594 1940.890625 2557.621094 C 1940.871094 2546.808594 1949.621094 2538.023438 1960.433594 2538 C 1971.246094 2537.972656 1980.035156 2546.714844 1980.070312 2557.527344 M 2071.742188 1976.550781 C 2071.742188 1984.859375 2065.011719 1991.597656 2056.703125 1991.601562 C 2048.394531 1991.609375 2041.648438 1984.882812 2041.636719 1976.574219 C 2041.625 1968.265625 2048.34375 1961.515625 2056.652344 1961.496094 C 2064.964844 1961.476562 2071.714844 1968.191406 2071.742188 1976.503906 M 1784.523438 1419.070312 C 1784.523438 1425.296875 1779.476562 1430.347656 1773.25 1430.351562 C 1767.019531 1430.359375 1761.96875 1425.316406 1761.957031 1419.089844 C 1761.949219 1412.859375 1766.984375 1407.800781 1773.214844 1407.789062 C 1779.441406 1407.773438 1784.503906 1412.804688 1784.523438 1419.035156 M 2079.359375 763.097656 C 2079.359375 772.429688 2071.796875 780 2062.464844 780.007812 C 2053.128906 780.015625 2045.554688 772.457031 2045.539062 763.121094 C 2045.523438 753.789062 2053.074219 746.207031 2062.410156 746.183594 C 2071.746094 746.164062 2079.332031 753.707031 2079.359375 763.042969 M 978.308594 915.925781 C 978.308594 923.09375 972.5 928.90625 965.332031 928.910156 C 958.164062 928.917969 952.34375 923.113281 952.332031 915.945312 C 952.320312 908.777344 958.121094 902.953125 965.289062 902.9375 C 972.457031 902.917969 978.285156 908.714844 978.308594 915.882812 M 290.960938 1040.238281 C 290.960938 1051.230469 282.054688 1060.144531 271.0625 1060.152344 C 260.070312 1060.164062 251.148438 1051.265625 251.132812 1040.273438 C 251.113281 1029.28125 260.007812 1020.351562 271 1020.324219 C 281.992188 1020.300781 290.925781 1029.183594 290.960938 1040.175781 M 1218.394531 2143.410156 C 1218.394531 2148.191406 1214.519531 2152.070312 1209.738281 2152.074219 C 1204.953125 2152.078125 1201.070312 2148.207031 1201.0625 2143.421875 C 1201.054688 2138.640625 1204.925781 2134.753906 1209.710938 2134.746094 C 1214.492188 2134.734375 1218.378906 2138.597656 1218.394531 2143.382812 M 1269.890625 705.632812 C 1269.890625 711.21875 1265.367188 715.75 1259.777344 715.753906 C 1254.191406 715.757812 1249.65625 711.238281 1249.648438 705.648438 C 1249.640625 700.0625 1254.160156 695.523438 1259.746094 695.511719 C 1265.332031 695.496094 1269.875 700.011719 1269.890625 705.601562 M 472.386719 1709.339844 C 472.386719 1715.398438 467.476562 1720.3125 461.414062 1720.320312 C 455.355469 1720.324219 450.4375 1715.417969 450.429688 1709.359375 C 450.417969 1703.296875 455.320312 1698.375 461.378906 1698.359375 C 467.441406 1698.347656 472.367188 1703.246094 472.386719 1709.304688 M 393.5625 1401.300781 C 393.5625 1408.953125 387.363281 1415.15625 379.710938 1415.164062 C 372.058594 1415.167969 365.851562 1408.972656 365.839844 1401.320312 C 365.828125 1393.671875 372.015625 1387.457031 379.667969 1387.4375 C 387.320312 1387.417969 393.539062 1393.605469 393.5625 1401.253906 M 1765.800781 2322.929688 C 1765.800781 2330.183594 1759.921875 2336.066406 1752.671875 2336.070312 C 1745.417969 2336.078125 1739.53125 2330.203125 1739.519531 2322.949219 C 1739.507812 2315.699219 1745.375 2309.808594 1752.628906 2309.789062 C 1759.882812 2309.773438 1765.777344 2315.636719 1765.800781 2322.886719 M 2021.035156 1586.53125 C 2021.035156 1592.925781 2015.855469 1598.109375 2009.460938 1598.117188 C 2003.0625 1598.121094 1997.875 1592.941406 1997.863281 1586.546875 C 1997.855469 1580.152344 2003.027344 1574.960938 2009.421875 1574.945312 C 2015.816406 1574.929688 2021.015625 1580.097656 2021.035156 1586.492188 M 2239.363281 679.640625 C 2239.363281 692.277344 2229.125 702.523438 2216.488281 702.535156 C 2203.851562 702.542969 2193.597656 692.3125 2193.578125 679.675781 C 2193.554688 667.039062 2203.777344 656.777344 2216.414062 656.746094 C 2229.050781 656.714844 2239.324219 666.929688 2239.363281 679.566406 M 1189.191406 856.949219 C 1189.191406 864.617188 1182.976562 870.832031 1175.3125 870.839844 C 1167.644531 870.84375 1161.421875 864.636719 1161.410156 856.96875 C 1161.398438 849.304688 1167.597656 843.074219 1175.265625 843.058594 C 1182.933594 843.039062 1189.167969 849.238281 1189.191406 856.902344 M 711.226562 1840.058594 C 711.226562 1844.894531 707.3125 1848.8125 702.476562 1848.816406 C 697.644531 1848.820312 693.722656 1844.90625 693.714844 1840.074219 C 693.707031 1835.242188 697.617188 1831.316406 702.449219 1831.304688 C 707.28125 1831.292969 711.210938 1835.199219 711.226562 1840.03125 M 560.117188 2347.300781 C 560.117188 2354.597656 554.203125 2360.515625 546.90625 2360.519531 C 539.609375 2360.527344 533.6875 2354.617188 533.675781 2347.320312 C 533.664062 2340.023438 539.566406 2334.097656 546.863281 2334.078125 C 554.160156 2334.0625 560.09375 2339.960938 560.117188 2347.257812 M 1754.753906 1827.980469 C 1754.753906 1833.574219 1750.222656 1838.113281 1744.628906 1838.117188 C 1739.035156 1838.121094 1734.492188 1833.589844 1734.484375 1827.996094 C 1734.476562 1822.402344 1739 1817.859375 1744.597656 1817.84375 C 1750.191406 1817.832031 1754.738281 1822.351562 1754.753906 1827.949219 M 1792.074219 2655.28125 C 1792.074219 2665.03125 1784.175781 2672.9375 1774.425781 2672.945312 C 1764.671875 2672.953125 1756.761719 2665.058594 1756.746094 2655.308594 C 1756.730469 2645.558594 1764.617188 2637.636719 1774.367188 2637.613281 C 1784.117188 2637.589844 1792.042969 2645.472656 1792.074219 2655.222656 M 1986.15625 2631.96875 C 1986.15625 2642.058594 1977.984375 2650.238281 1967.894531 2650.246094 C 1957.804688 2650.253906 1949.621094 2642.085938 1949.605469 2632 C 1949.585938 2621.910156 1957.75 2613.71875 1967.835938 2613.695312 C 1977.925781 2613.667969 1986.125 2621.824219 1986.15625 2631.910156 M 861.976562 1444.410156 C 861.976562 1449.253906 858.050781 1453.183594 853.207031 1453.1875 C 848.359375 1453.191406 844.429688 1449.269531 844.421875 1444.425781 C 844.414062 1439.578125 848.332031 1435.644531 853.179688 1435.632812 C 858.023438 1435.621094 861.960938 1439.539062 861.976562 1444.382812 M 1210.203125 2618.421875 C 1210.203125 2623.554688 1206.042969 2627.71875 1200.90625 2627.722656 C 1195.773438 2627.726562 1191.605469 2623.570312 1191.597656 2618.433594 C 1191.589844 2613.300781 1195.742188 2609.128906 1200.878906 2609.117188 C 1206.011719 2609.105469 1210.183594 2613.257812 1210.203125 2618.390625 M 1210.519531 1183.570312 C 1210.519531 1188.460938 1206.554688 1192.425781 1201.667969 1192.429688 C 1196.777344 1192.433594 1192.808594 1188.472656 1192.800781 1183.585938 C 1192.792969 1178.695312 1196.75 1174.722656 1201.640625 1174.710938 C 1206.527344 1174.699219 1210.503906 1178.652344 1210.519531 1183.542969 M 929.074219 1937.589844 C 929.074219 1942.875 924.792969 1947.15625 919.507812 1947.160156 C 914.226562 1947.164062 909.9375 1942.886719 909.929688 1937.605469 C 909.921875 1932.320312 914.195312 1928.03125 919.476562 1928.019531 C 924.761719 1928.007812 929.054688 1932.277344 929.074219 1937.558594 M 575.613281 1197.761719 C 575.613281 1205.273438 569.523438 1211.367188 562.011719 1211.375 C 554.496094 1211.378906 548.398438 1205.296875 548.382812 1197.78125 C 548.371094 1190.265625 554.453125 1184.164062 561.964844 1184.144531 C 569.480469 1184.128906 575.589844 1190.203125 575.613281 1197.714844 M 1516.085938 961.429688 C 1516.085938 967.765625 1510.953125 972.902344 1504.617188 972.90625 C 1498.285156 972.910156 1493.144531 967.785156 1493.132812 961.449219 C 1493.125 955.113281 1498.25 949.96875 1504.582031 949.957031 C 1510.917969 949.941406 1516.066406 955.058594 1516.085938 961.394531 M 837.910156 1305.769531 C 837.910156 1310.800781 833.832031 1314.882812 828.800781 1314.886719 C 823.769531 1314.890625 819.6875 1310.816406 819.679688 1305.785156 C 819.671875 1300.753906 823.742188 1296.667969 828.773438 1296.65625 C 833.804688 1296.644531 837.894531 1300.710938 837.910156 1305.742188 M 532.570312 950.191406 C 532.570312 960.753906 524.011719 969.320312 513.449219 969.328125 C 502.882812 969.335938 494.3125 960.785156 494.296875 950.21875 C 494.277344 939.65625 502.824219 931.078125 513.386719 931.050781 C 523.949219 931.027344 532.539062 939.566406 532.570312 950.128906 M 845.976562 2308.53125 C 845.976562 2317.042969 839.078125 2323.945312 830.566406 2323.953125 C 822.050781 2323.960938 815.144531 2317.066406 815.128906 2308.554688 C 815.117188 2300.042969 822.003906 2293.128906 830.515625 2293.105469 C 839.027344 2293.085938 845.949219 2299.96875 845.976562 2308.480469 M 1011.667969 2587.128906 C 1011.667969 2593.765625 1006.292969 2599.144531 999.660156 2599.152344 C 993.023438 2599.15625 987.640625 2593.785156 987.628906 2587.148438 C 987.617188 2580.515625 992.984375 2575.125 999.621094 2575.109375 C 1006.253906 2575.09375 1011.648438 2580.457031 1011.667969 2587.089844 M 2110.25 818.855469 C 2110.25 830.296875 2100.980469 839.574219 2089.535156 839.585938 C 2078.09375 839.59375 2068.808594 830.328125 2068.789062 818.886719 C 2068.769531 807.445312 2078.027344 798.148438 2089.46875 798.121094 C 2100.914062 798.09375 2110.214844 807.34375 2110.25 818.789062 M 1586.472656 1244.011719 C 1586.472656 1248.992188 1582.4375 1253.03125 1577.457031 1253.035156 C 1572.476562 1253.039062 1568.433594 1249.003906 1568.425781 1244.023438 C 1568.417969 1239.042969 1572.449219 1235 1577.429688 1234.988281 C 1582.410156 1234.972656 1586.457031 1239 1586.472656 1243.980469 M 990.367188 1216.21875 C 990.367188 1221.59375 986.011719 1225.949219 980.640625 1225.953125 C 975.269531 1225.957031 970.910156 1221.609375 970.898438 1216.234375 C 970.890625 1210.863281 975.238281 1206.5 980.609375 1206.488281 C 985.980469 1206.472656 990.347656 1210.816406 990.367188 1216.1875 M 2040.421875 1853.320312 C 2040.421875 1860.285156 2034.777344 1865.9375 2027.808594 1865.941406 C 2020.84375 1865.945312 2015.191406 1860.304688 2015.179688 1853.339844 C 2015.167969 1846.375 2020.804688 1840.714844 2027.769531 1840.699219 C 2034.738281 1840.683594 2040.398438 1846.3125 2040.421875 1853.28125 "/>
</g>
</svg>
