<?xml version="1.0" encoding="UTF-8"?>
<svg xmlns="http://www.w3.org/2000/svg" xmlns:xlink="http://www.w3.org/1999/xlink" width="2550pt" height="3300pt" viewBox="0 0 2550 3300" version="1.1">
<g id="surface1">
<path style="fill:none;stroke-width:2;stroke-linecap:butt;stroke-linejoin:miter;stroke:rgb(6.66667%,58.0392%,38.4314%);stroke-opacity:1;stroke-miterlimit:10;" d="M 270.25 2560.109375 C 270.25 2568.265625 263.644531 2574.875 255.492188 2574.882812 C 247.335938 2574.886719 240.71875 2568.289062 240.707031 2560.132812 C 240.695312 2551.980469 247.289062 2545.359375 255.445312 2545.339844 C 263.597656 2545.320312 270.226562 2551.910156 270.25 2560.0625 M 1833.15625 2635.351562 C 1833.15625 2651.226562 1820.289062 2664.101562 1804.414062 2664.117188 C 1788.535156 2664.128906 1775.648438 2651.273438 1775.625 2635.394531 C 1775.597656 2619.519531 1788.441406 2606.621094 1804.320312 2606.585938 C 1820.199219 2606.546875 1833.105469 2619.378906 1833.15625 2635.257812 M 344.410156 1660.328125 C 344.410156 1663.753906 341.636719 1666.53125 338.210938 1666.535156 C 334.785156 1666.539062 332.003906 1663.765625 332 1660.339844 C 331.996094 1656.914062 334.765625 1654.132812 338.191406 1654.125 C 341.613281 1654.117188 344.398438 1656.886719 344.410156 1660.308594 M 2081.40625 904.34375 C 2081.40625 909.175781 2077.488281 913.09375 2072.65625 913.097656 C 2067.824219 913.101562 2063.902344 909.1875 2063.894531 904.355469 C 2063.886719 899.523438 2067.796875 895.597656 2072.628906 895.585938 C 2077.460938 895.574219 2081.390625 899.480469 2081.40625 904.3125 M 1322.691406 640.746094 C 1322.691406 664.285156 1303.617188 683.375 1280.074219 683.394531 C 1256.53125 683.414062 1237.425781 664.355469 1237.390625 640.8125 C 1237.351562 617.269531 1256.398438 598.152344 1279.9375 598.09375 C 1303.480469 598.039062 1322.613281 617.066406 1322.691406 640.609375 M 1523.652344 1995.371094 C 1523.652344 2016.433594 1506.585938 2033.515625 1485.519531 2033.53125 C 1464.457031 2033.550781 1447.363281 2016.496094 1447.328125 1995.429688 C 1447.292969 1974.367188 1464.335938 1957.257812 1485.398438 1957.207031 C 1506.464844 1957.15625 1523.585938 1974.183594 1523.652344 1995.25 M 1054.453125 2278.039062 C 1054.453125 2285.792969 1048.171875 2292.078125 1040.421875 2292.082031 C 1032.667969 2292.089844 1026.378906 2285.8125 1026.367188 2278.0625 C 1026.355469 2270.3125 1032.625 2264.015625 1040.375 2263.996094 C 1048.128906 2263.976562 1054.429688 2270.242188 1054.453125 2277.996094 M 1144.253906 798.210938 C 1144.253906 811.691406 1133.332031 822.625 1119.847656 822.636719 C 1106.367188 822.644531 1095.425781 811.730469 1095.40625 798.25 C 1095.382812 784.769531 1106.289062 773.820312 1119.773438 773.785156 C 1133.253906 773.753906 1144.210938 784.652344 1144.253906 798.132812 M 2234.335938 1468.78125 C 2234.335938 1480.15625 2225.121094 1489.378906 2213.746094 1489.386719 C 2202.371094 1489.394531 2193.140625 1480.1875 2193.125 1468.8125 C 2193.105469 1457.4375 2202.304688 1448.199219 2213.679688 1448.171875 C 2225.054688 1448.144531 2234.300781 1457.339844 2234.335938 1468.714844 M 1650.550781 1855.378906 C 1650.550781 1860.199219 1646.648438 1864.109375 1641.828125 1864.113281 C 1637.007812 1864.117188 1633.09375 1860.214844 1633.085938 1855.394531 C 1633.082031 1850.574219 1636.980469 1846.660156 1641.800781 1846.648438 C 1646.617188 1846.636719 1650.535156 1850.53125 1650.550781 1855.351562 M 655.863281 2566.039062 C 655.863281 2583.972656 641.335938 2598.515625 623.402344 2598.527344 C 605.46875 2598.542969 590.914062 2584.023438 590.886719 2566.089844 C 590.859375 2548.160156 605.367188 2533.59375 623.296875 2533.550781 C 641.230469 2533.507812 655.808594 2548.003906 655.863281 2565.9375 M 631.628906 818.378906 C 631.628906 822.121094 628.597656 825.15625 624.855469 825.15625 C 621.113281 825.160156 618.074219 822.132812 618.070312 818.390625 C 618.0625 814.644531 621.089844 811.605469 624.832031 811.597656 C 628.578125 811.589844 631.617188 814.613281 631.628906 818.355469 M 1877.042969 2660.238281 C 1877.042969 2679.574219 1861.378906 2695.25 1842.046875 2695.265625 C 1822.714844 2695.28125 1807.027344 2679.628906 1806.996094 2660.296875 C 1806.964844 2640.964844 1822.605469 2625.261719 1841.9375 2625.214844 C 1861.269531 2625.167969 1876.980469 2640.796875 1877.042969 2660.128906 M 2192.851562 1193.539062 C 2192.851562 1216.332031 2174.386719 1234.8125 2151.59375 1234.832031 C 2128.800781 1234.851562 2110.304688 1216.398438 2110.265625 1193.605469 C 2110.230469 1170.8125 2128.667969 1152.300781 2151.460938 1152.246094 C 2174.253906 1152.191406 2192.78125 1170.617188 2192.851562 1193.410156 M 551.375 906.800781 C 551.375 913.207031 546.183594 918.398438 539.777344 918.40625 C 533.375 918.410156 528.175781 913.226562 528.164062 906.820312 C 528.15625 900.414062 533.335938 895.210938 539.742188 895.195312 C 546.144531 895.179688 551.351562 900.359375 551.371094 906.765625 M 1454.628906 1852.5 C 1454.628906 1871.714844 1439.0625 1887.292969 1419.847656 1887.308594 C 1400.632812 1887.324219 1385.042969 1871.769531 1385.011719 1852.554688 C 1384.980469 1833.34375 1400.523438 1817.738281 1419.738281 1817.691406 C 1438.949219 1817.644531 1454.566406 1833.175781 1454.628906 1852.390625 M 902.949219 1475.628906 C 902.949219 1481.449219 898.234375 1486.171875 892.414062 1486.175781 C 886.59375 1486.179688 881.871094 1481.46875 881.863281 1475.648438 C 881.851562 1469.828125 886.558594 1465.097656 892.378906 1465.085938 C 898.199219 1465.070312 902.933594 1469.777344 902.949219 1475.597656 M 2184.675781 1097.96875 C 2184.675781 1112.097656 2173.230469 1123.554688 2159.101562 1123.566406 C 2144.972656 1123.578125 2133.503906 1112.140625 2133.484375 1098.011719 C 2133.460938 1083.882812 2144.890625 1072.40625 2159.019531 1072.371094 C 2173.148438 1072.339844 2184.632812 1083.757812 2184.675781 1097.886719 M 1988.480469 846.519531 C 1988.480469 851.378906 1984.539062 855.324219 1979.675781 855.328125 C 1974.816406 855.332031 1970.867188 851.394531 1970.859375 846.53125 C 1970.851562 841.667969 1974.785156 837.71875 1979.648438 837.707031 C 1984.511719 837.695312 1988.464844 841.628906 1988.480469 846.488281 M 1818.6875 1601.101562 C 1818.6875 1607.351562 1813.621094 1612.421875 1807.367188 1612.425781 C 1801.117188 1612.433594 1796.042969 1607.371094 1796.03125 1601.117188 C 1796.023438 1594.867188 1801.082031 1589.789062 1807.332031 1589.773438 C 1813.585938 1589.757812 1818.667969 1594.8125 1818.6875 1601.0625 M 359.886719 2438.058594 C 359.886719 2442.566406 356.238281 2446.21875 351.730469 2446.222656 C 347.226562 2446.226562 343.570312 2442.578125 343.5625 2438.074219 C 343.554688 2433.566406 347.199219 2429.910156 351.707031 2429.898438 C 356.210938 2429.886719 359.871094 2433.527344 359.886719 2438.035156 M 1841.386719 2636.820312 C 1841.386719 2654.027344 1827.445312 2667.984375 1810.234375 2667.996094 C 1793.027344 2668.011719 1779.058594 2654.078125 1779.03125 2636.871094 C 1779.003906 2619.660156 1792.925781 2605.683594 1810.136719 2605.640625 C 1827.34375 2605.601562 1841.332031 2619.511719 1841.386719 2636.71875 M 2295.015625 1016.898438 C 2295.015625 1021.582031 2291.21875 1025.382812 2286.535156 1025.386719 C 2281.851562 1025.390625 2278.050781 1021.597656 2278.042969 1016.914062 C 2278.035156 1012.230469 2281.824219 1008.425781 2286.507812 1008.414062 C 2291.195312 1008.402344 2295 1012.1875 2295.015625 1016.871094 M 1091.832031 2126.148438 C 1091.832031 2139.664062 1080.882812 2150.621094 1067.371094 2150.632812 C 1053.855469 2150.640625 1042.890625 2139.703125 1042.867188 2126.1875 C 1042.847656 2112.675781 1053.777344 2101.699219 1067.292969 2101.667969 C 1080.804688 2101.636719 1091.789062 2112.558594 1091.832031 2126.070312 M 1208.359375 873.003906 C 1208.359375 879.191406 1203.347656 884.207031 1197.160156 884.214844 C 1190.972656 884.21875 1185.949219 879.207031 1185.9375 873.019531 C 1185.929688 866.832031 1190.933594 861.808594 1197.125 861.792969 C 1203.3125 861.777344 1208.339844 866.777344 1208.359375 872.96875 M 346.582031 2576.980469 C 346.582031 2589.816406 336.183594 2600.222656 323.347656 2600.234375 C 310.511719 2600.242188 300.097656 2589.851562 300.078125 2577.015625 C 300.054688 2564.179688 310.4375 2553.757812 323.273438 2553.726562 C 336.109375 2553.695312 346.542969 2564.070312 346.582031 2576.90625 M 1214.203125 1930.53125 C 1214.203125 1954.648438 1194.664062 1974.207031 1170.542969 1974.226562 C 1146.425781 1974.242188 1126.855469 1954.71875 1126.816406 1930.597656 C 1126.777344 1906.480469 1146.289062 1886.894531 1170.40625 1886.835938 C 1194.523438 1886.777344 1214.128906 1906.273438 1214.203125 1930.390625 M 1803.976562 1162.820312 C 1803.976562 1178.382812 1791.367188 1191.003906 1775.800781 1191.015625 C 1760.238281 1191.027344 1747.609375 1178.425781 1747.585938 1162.863281 C 1747.558594 1147.300781 1760.148438 1134.664062 1775.710938 1134.625 C 1791.277344 1134.589844 1803.925781 1147.167969 1803.976562 1162.730469 M 1755.90625 1114.789062 C 1755.90625 1121.578125 1750.40625 1127.082031 1743.621094 1127.085938 C 1736.832031 1127.09375 1731.324219 1121.597656 1731.3125 1114.808594 C 1731.300781 1108.023438 1736.792969 1102.507812 1743.582031 1102.492188 C 1750.367188 1102.476562 1755.886719 1107.964844 1755.90625 1114.75 M 1145.976562 2274.828125 C 1145.976562 2283.785156 1138.71875 2291.050781 1129.761719 2291.054688 C 1120.804688 2291.0625 1113.539062 2283.8125 1113.523438 2274.855469 C 1113.507812 2265.898438 1120.753906 2258.625 1129.710938 2258.605469 C 1138.667969 2258.582031 1145.949219 2265.820312 1145.976562 2274.777344 M 558.132812 1032.539062 C 558.132812 1045.6875 547.480469 1056.347656 534.332031 1056.359375 C 521.1875 1056.371094 510.515625 1045.726562 510.496094 1032.578125 C 510.476562 1019.429688 521.109375 1008.753906 534.257812 1008.722656 C 547.40625 1008.691406 558.09375 1019.316406 558.132812 1032.464844 M 1366.421875 1873.828125 C 1366.421875 1894.804688 1349.425781 1911.8125 1328.449219 1911.832031 C 1307.476562 1911.847656 1290.453125 1894.867188 1290.417969 1873.890625 C 1290.386719 1852.914062 1307.355469 1835.878906 1328.328125 1835.828125 C 1349.304688 1835.78125 1366.355469 1852.734375 1366.421875 1873.707031 M 1621.59375 2026.140625 C 1621.59375 2034.734375 1614.628906 2041.707031 1606.03125 2041.714844 C 1597.4375 2041.71875 1590.460938 2034.761719 1590.445312 2026.164062 C 1590.433594 2017.570312 1597.386719 2010.585938 1605.984375 2010.566406 C 1614.578125 2010.546875 1621.566406 2017.496094 1621.59375 2026.089844 M 2141.402344 2329.019531 C 2141.402344 2333.285156 2137.941406 2336.746094 2133.675781 2336.75 C 2129.410156 2336.753906 2125.945312 2333.300781 2125.9375 2329.03125 C 2125.933594 2324.765625 2129.382812 2321.300781 2133.652344 2321.289062 C 2137.917969 2321.277344 2141.386719 2324.726562 2141.402344 2328.996094 M 1895.859375 1726.730469 C 1895.859375 1730.085938 1893.140625 1732.808594 1889.785156 1732.808594 C 1886.429688 1732.8125 1883.707031 1730.09375 1883.699219 1726.738281 C 1883.695312 1723.382812 1886.410156 1720.65625 1889.765625 1720.648438 C 1893.121094 1720.640625 1895.847656 1723.355469 1895.859375 1726.710938 M 464.097656 1517.921875 C 464.097656 1529.53125 454.691406 1538.941406 443.082031 1538.953125 C 431.472656 1538.960938 422.054688 1529.5625 422.035156 1517.953125 C 422.015625 1506.34375 431.40625 1496.914062 443.015625 1496.886719 C 454.625 1496.859375 464.0625 1506.242188 464.097656 1517.851562 M 1451.085938 2191.03125 C 1451.085938 2210.023438 1435.699219 2225.421875 1416.707031 2225.4375 C 1397.714844 2225.453125 1382.300781 2210.078125 1382.273438 2191.085938 C 1382.242188 2172.09375 1397.605469 2156.667969 1416.597656 2156.621094 C 1435.589844 2156.578125 1451.027344 2171.929688 1451.085938 2190.921875 M 562.167969 2588.75 C 562.167969 2609.769531 545.136719 2626.8125 524.121094 2626.828125 C 503.101562 2626.84375 486.046875 2609.828125 486.011719 2588.8125 C 485.980469 2567.792969 502.980469 2550.722656 524 2550.671875 C 545.015625 2550.621094 562.101562 2567.609375 562.167969 2588.628906 M 372.933594 1638.96875 C 372.933594 1644.070312 368.800781 1648.207031 363.699219 1648.210938 C 358.601562 1648.214844 354.460938 1644.085938 354.453125 1638.984375 C 354.445312 1633.882812 358.570312 1629.742188 363.671875 1629.730469 C 368.769531 1629.71875 372.917969 1633.839844 372.933594 1638.941406 M 1269.707031 1790.769531 C 1269.707031 1803.921875 1259.050781 1814.585938 1245.898438 1814.597656 C 1232.746094 1814.605469 1222.074219 1803.960938 1222.054688 1790.808594 C 1222.03125 1777.65625 1232.671875 1766.976562 1245.824219 1766.945312 C 1258.972656 1766.914062 1269.664062 1777.542969 1269.707031 1790.695312 M 1948.5 911.253906 C 1948.5 916.15625 1944.527344 920.128906 1939.628906 920.132812 C 1934.726562 920.136719 1930.75 916.167969 1930.742188 911.269531 C 1930.734375 906.367188 1934.699219 902.386719 1939.597656 902.375 C 1944.5 902.363281 1948.484375 906.324219 1948.5 911.226562 M 2033.191406 1733.691406 C 2033.191406 1738.546875 2029.253906 1742.484375 2024.398438 1742.488281 C 2019.539062 1742.492188 2015.597656 1738.5625 2015.589844 1733.703125 C 2015.582031 1728.847656 2019.511719 1724.902344 2024.367188 1724.890625 C 2029.226562 1724.878906 2033.175781 1728.804688 2033.191406 1733.660156 M 1384.476562 2016.148438 C 1384.476562 2033.6875 1370.265625 2047.910156 1352.726562 2047.925781 C 1335.1875 2047.9375 1320.953125 2033.738281 1320.925781 2016.199219 C 1320.898438 1998.660156 1335.085938 1984.417969 1352.625 1984.375 C 1370.164062 1984.332031 1384.417969 1998.511719 1384.476562 2016.046875 M 1154.304688 840.15625 C 1154.304688 848.9375 1147.191406 856.054688 1138.414062 856.0625 C 1129.632812 856.070312 1122.507812 848.960938 1122.496094 840.179688 C 1122.480469 831.402344 1129.582031 824.269531 1138.363281 824.25 C 1147.140625 824.230469 1154.277344 831.324219 1154.304688 840.105469 M 883.097656 1235.820312 C 883.097656 1243.019531 877.265625 1248.855469 870.070312 1248.859375 C 862.871094 1248.867188 857.027344 1243.039062 857.019531 1235.839844 C 857.007812 1228.644531 862.828125 1222.796875 870.027344 1222.78125 C 877.226562 1222.761719 883.074219 1228.582031 883.097656 1235.777344 M 308.882812 1029.96875 C 308.882812 1035.378906 304.5 1039.765625 299.09375 1039.769531 C 293.683594 1039.773438 289.292969 1035.394531 289.285156 1029.984375 C 289.277344 1024.578125 293.652344 1020.183594 299.0625 1020.171875 C 304.46875 1020.15625 308.867188 1024.53125 308.882812 1029.9375 M 1452.335938 1815.101562 C 1452.335938 1831.039062 1439.421875 1843.964844 1423.484375 1843.976562 C 1407.542969 1843.988281 1394.609375 1831.085938 1394.582031 1815.144531 C 1394.558594 1799.207031 1407.453125 1786.261719 1423.390625 1786.222656 C 1439.332031 1786.183594 1452.285156 1799.070312 1452.335938 1815.007812 M 2120.898438 2579.859375 C 2120.898438 2596.722656 2107.234375 2610.394531 2090.375 2610.40625 C 2073.511719 2610.421875 2059.832031 2596.769531 2059.804688 2579.910156 C 2059.777344 2563.046875 2073.417969 2549.355469 2090.277344 2549.3125 C 2107.136719 2549.273438 2120.84375 2562.902344 2120.898438 2579.761719 M 1629.367188 691.960938 C 1629.367188 698.054688 1624.425781 703 1618.328125 703.003906 C 1612.230469 703.011719 1607.28125 698.074219 1607.273438 691.976562 C 1607.261719 685.878906 1612.195312 680.925781 1618.292969 680.914062 C 1624.390625 680.898438 1629.347656 685.828125 1629.367188 691.921875 M 1697.683594 1279.640625 C 1697.683594 1287.117188 1691.625 1293.175781 1684.152344 1293.183594 C 1676.675781 1293.1875 1670.609375 1287.136719 1670.597656 1279.660156 C 1670.585938 1272.1875 1676.632812 1266.113281 1684.109375 1266.097656 C 1691.582031 1266.078125 1697.660156 1272.121094 1697.683594 1279.597656 M 1339.191406 2018.980469 C 1339.191406 2042.675781 1319.992188 2061.894531 1296.292969 2061.910156 C 1272.597656 2061.929688 1253.367188 2042.746094 1253.328125 2019.046875 C 1253.289062 1995.351562 1272.460938 1976.105469 1296.15625 1976.046875 C 1319.855469 1975.992188 1339.117188 1995.144531 1339.191406 2018.84375 M 689.28125 2577.671875 C 689.28125 2592.742188 677.070312 2604.964844 661.996094 2604.976562 C 646.925781 2604.988281 634.691406 2592.785156 634.667969 2577.714844 C 634.644531 2562.640625 646.835938 2550.398438 661.910156 2550.363281 C 676.980469 2550.328125 689.234375 2562.511719 689.28125 2577.582031 M 1283.003906 666.417969 C 1283.003906 681.519531 1270.765625 693.769531 1255.660156 693.78125 C 1240.558594 693.792969 1228.300781 681.5625 1228.277344 666.460938 C 1228.253906 651.355469 1240.472656 639.089844 1255.574219 639.054688 C 1270.679688 639.019531 1282.953125 651.226562 1283.003906 666.328125 M 1347.347656 1598.648438 C 1347.347656 1602.875 1343.921875 1606.304688 1339.695312 1606.308594 C 1335.46875 1606.3125 1332.039062 1602.890625 1332.03125 1598.664062 C 1332.027344 1594.433594 1335.445312 1591.003906 1339.671875 1590.992188 C 1343.898438 1590.980469 1347.335938 1594.398438 1347.347656 1598.625 M 2020.917969 2336.390625 C 2020.917969 2341.351562 2016.898438 2345.375 2011.9375 2345.378906 C 2006.976562 2345.382812 2002.949219 2341.367188 2002.941406 2336.40625 C 2002.933594 2331.441406 2006.945312 2327.414062 2011.910156 2327.402344 C 2016.871094 2327.390625 2020.902344 2331.398438 2020.917969 2336.363281 M 2146.558594 2439.800781 C 2146.558594 2447.78125 2140.09375 2454.253906 2132.113281 2454.257812 C 2124.128906 2454.265625 2117.652344 2447.804688 2117.640625 2439.824219 C 2117.628906 2431.84375 2124.085938 2425.359375 2132.066406 2425.339844 C 2140.046875 2425.320312 2146.535156 2431.773438 2146.558594 2439.753906 M 1220.652344 2300.808594 C 1220.652344 2310.585938 1212.730469 2318.511719 1202.953125 2318.519531 C 1193.179688 2318.527344 1185.246094 2310.613281 1185.230469 2300.839844 C 1185.214844 2291.0625 1193.121094 2283.121094 1202.898438 2283.097656 C 1212.671875 2283.074219 1220.621094 2290.976562 1220.652344 2300.753906 M 1482.015625 821.042969 C 1482.015625 831.957031 1473.171875 840.808594 1462.253906 840.820312 C 1451.339844 840.828125 1442.480469 831.988281 1442.464844 821.074219 C 1442.445312 810.15625 1451.277344 801.292969 1462.191406 801.265625 C 1473.109375 801.238281 1481.980469 810.0625 1482.015625 820.980469 M 350.960938 1255.078125 C 350.960938 1273.925781 335.691406 1289.207031 316.847656 1289.222656 C 298 1289.238281 282.707031 1273.980469 282.675781 1255.132812 C 282.644531 1236.289062 297.890625 1220.980469 316.738281 1220.9375 C 335.582031 1220.890625 350.902344 1236.125 350.960938 1254.972656 M 351.464844 2425.648438 C 351.464844 2432.140625 346.207031 2437.402344 339.714844 2437.40625 C 333.226562 2437.410156 327.960938 2432.15625 327.949219 2425.667969 C 327.941406 2419.179688 333.191406 2413.910156 339.679688 2413.894531 C 346.167969 2413.878906 351.441406 2419.125 351.464844 2425.613281 M 269.6875 2044.171875 C 269.6875 2049.015625 265.761719 2052.945312 260.917969 2052.949219 C 256.070312 2052.953125 252.140625 2049.027344 252.132812 2044.183594 C 252.125 2039.339844 256.042969 2035.402344 260.890625 2035.390625 C 265.734375 2035.382812 269.671875 2039.296875 269.6875 2044.140625 M 1333.121094 2419.328125 C 1333.121094 2425.390625 1328.210938 2430.304688 1322.148438 2430.308594 C 1316.089844 2430.3125 1311.171875 2425.40625 1311.160156 2419.347656 C 1311.152344 2413.289062 1316.054688 2408.363281 1322.113281 2408.351562 C 1328.175781 2408.335938 1333.101562 2413.234375 1333.121094 2419.296875 M 1545.59375 1934.921875 C 1545.59375 1952.15625 1531.628906 1966.128906 1514.394531 1966.144531 C 1497.160156 1966.160156 1483.171875 1952.203125 1483.144531 1934.96875 C 1483.117188 1917.734375 1497.058594 1903.738281 1514.296875 1903.695312 C 1531.53125 1903.65625 1545.539062 1917.585938 1545.59375 1934.820312 M 486.179688 1224.371094 C 486.179688 1250.992188 464.609375 1272.578125 437.992188 1272.597656 C 411.371094 1272.621094 389.765625 1251.066406 389.722656 1224.445312 C 389.683594 1197.828125 411.214844 1176.207031 437.835938 1176.140625 C 464.457031 1176.078125 486.09375 1197.597656 486.179688 1224.214844 M 1415.703125 2275.808594 C 1415.703125 2286.191406 1407.292969 2294.605469 1396.914062 2294.613281 C 1386.535156 2294.621094 1378.113281 2286.21875 1378.097656 2275.839844 C 1378.078125 2265.460938 1386.476562 2257.03125 1396.855469 2257.003906 C 1407.234375 2256.980469 1415.671875 2265.371094 1415.703125 2275.75 M 384.425781 2377.148438 C 384.425781 2381.066406 381.253906 2384.242188 377.335938 2384.246094 C 373.421875 2384.25 370.242188 2381.078125 370.238281 2377.160156 C 370.230469 2373.246094 373.398438 2370.0625 377.316406 2370.054688 C 381.230469 2370.046875 384.414062 2373.210938 384.425781 2377.128906 M 1576.902344 1736.71875 C 1576.902344 1741.695312 1572.871094 1745.726562 1567.898438 1745.730469 C 1562.921875 1745.734375 1558.886719 1741.707031 1558.878906 1736.734375 C 1558.871094 1731.761719 1562.894531 1727.722656 1567.867188 1727.710938 C 1572.84375 1727.699219 1576.882812 1731.71875 1576.902344 1736.691406 M 1116.785156 2380.828125 C 1116.785156 2385.726562 1112.816406 2389.699219 1107.917969 2389.703125 C 1103.019531 2389.707031 1099.042969 2385.742188 1099.035156 2380.84375 C 1099.027344 2375.945312 1102.992188 2371.96875 1107.890625 2371.957031 C 1112.785156 2371.945312 1116.769531 2375.902344 1116.785156 2380.800781 M 1581.441406 2288.570312 C 1581.441406 2292.414062 1578.328125 2295.527344 1574.484375 2295.53125 C 1570.644531 2295.535156 1567.523438 2292.421875 1567.519531 2288.582031 C 1567.511719 2284.738281 1570.621094 2281.617188 1574.464844 2281.609375 C 1578.304688 2281.601562 1581.429688 2284.707031 1581.441406 2288.546875 M 1475.308594 1674.109375 C 1475.308594 1677.613281 1472.46875 1680.453125 1468.964844 1680.457031 C 1465.460938 1680.460938 1462.617188 1677.625 1462.613281 1674.121094 C 1462.605469 1670.617188 1465.441406 1667.769531 1468.945312 1667.761719 C 1472.449219 1667.753906 1475.296875 1670.585938 1475.308594 1674.089844 M 908.316406 1142.660156 C 908.316406 1149.109375 903.09375 1154.335938 896.644531 1154.339844 C 890.195312 1154.347656 884.964844 1149.125 884.953125 1142.679688 C 884.945312 1136.230469 890.160156 1130.996094 896.605469 1130.980469 C 903.054688 1130.964844 908.296875 1136.175781 908.316406 1142.621094 M 2063.832031 1544.96875 C 2063.832031 1555.691406 2055.148438 1564.382812 2044.425781 1564.394531 C 2033.703125 1564.402344 2025.003906 1555.722656 2024.988281 1545 C 2024.96875 1534.28125 2033.640625 1525.574219 2044.363281 1525.546875 C 2055.085938 1525.519531 2063.800781 1534.1875 2063.832031 1544.90625 M 861.410156 1413.558594 C 861.410156 1422.449219 854.207031 1429.65625 845.320312 1429.660156 C 836.433594 1429.667969 829.21875 1422.472656 829.207031 1413.585938 C 829.191406 1404.699219 836.382812 1397.480469 845.269531 1397.457031 C 854.15625 1397.4375 861.382812 1404.621094 861.410156 1413.507812 M 1354.972656 1981.519531 C 1354.972656 2010.980469 1331.101562 2034.867188 1301.640625 2034.890625 C 1272.183594 2034.914062 1248.273438 2011.066406 1248.226562 1981.605469 C 1248.179688 1952.144531 1272.011719 1928.21875 1301.472656 1928.148438 C 1330.933594 1928.078125 1354.878906 1951.890625 1354.972656 1981.351562 M 700.984375 1108.96875 C 700.984375 1120.367188 691.75 1129.605469 680.351562 1129.617188 C 668.957031 1129.625 659.707031 1120.398438 659.691406 1109.003906 C 659.671875 1097.605469 668.890625 1088.351562 680.289062 1088.324219 C 691.683594 1088.296875 700.945312 1097.507812 700.984375 1108.902344 M 1246.273438 1754.660156 C 1246.273438 1769.621094 1234.152344 1781.753906 1219.191406 1781.765625 C 1204.230469 1781.777344 1192.089844 1769.664062 1192.066406 1754.703125 C 1192.042969 1739.742188 1204.144531 1727.589844 1219.105469 1727.554688 C 1234.066406 1727.519531 1246.226562 1739.613281 1246.273438 1754.574219 M 2071.714844 1416.121094 C 2071.714844 1438.835938 2053.308594 1457.253906 2030.59375 1457.273438 C 2007.875 1457.292969 1989.441406 1438.902344 1989.40625 1416.183594 C 1989.371094 1393.46875 2007.746094 1375.019531 2030.460938 1374.964844 C 2053.175781 1374.910156 2071.640625 1393.273438 2071.714844 1415.988281 M 544 890.339844 C 544 897.433594 538.253906 903.183594 531.160156 903.1875 C 524.066406 903.195312 518.3125 897.453125 518.300781 890.359375 C 518.289062 883.269531 524.027344 877.507812 531.121094 877.492188 C 538.210938 877.472656 543.976562 883.207031 544 890.300781 M 290.984375 1284.191406 C 290.984375 1297.867188 279.902344 1308.957031 266.226562 1308.96875 C 252.550781 1308.976562 241.449219 1297.90625 241.429688 1284.230469 C 241.40625 1270.554688 252.46875 1259.445312 266.148438 1259.414062 C 279.824219 1259.378906 290.9375 1270.433594 290.984375 1284.109375 M 1257.964844 1799.089844 C 1257.964844 1818.089844 1242.570312 1833.5 1223.566406 1833.515625 C 1204.566406 1833.527344 1189.144531 1818.144531 1189.117188 1799.144531 C 1189.085938 1780.144531 1204.457031 1764.710938 1223.457031 1764.667969 C 1242.457031 1764.621094 1257.902344 1779.980469 1257.964844 1798.980469 M 1853.488281 1200.371094 C 1853.488281 1213.855469 1842.5625 1224.789062 1829.078125 1224.800781 C 1815.59375 1224.808594 1804.652344 1213.894531 1804.628906 1200.410156 C 1804.609375 1186.925781 1815.515625 1175.972656 1829 1175.941406 C 1842.484375 1175.910156 1853.445312 1186.808594 1853.488281 1200.292969 M 1539.839844 1973.058594 C 1539.839844 1983.496094 1531.382812 1991.960938 1520.945312 1991.96875 C 1510.507812 1991.976562 1502.039062 1983.527344 1502.019531 1973.089844 C 1502.003906 1962.652344 1510.449219 1954.175781 1520.886719 1954.152344 C 1531.320312 1954.125 1539.804688 1962.5625 1539.839844 1973 M 1475.246094 651.347656 C 1475.246094 673.742188 1457.097656 691.902344 1434.703125 691.921875 C 1412.304688 691.9375 1394.132812 673.808594 1394.097656 651.410156 C 1394.058594 629.015625 1412.175781 610.828125 1434.574219 610.773438 C 1456.96875 610.71875 1475.171875 628.820312 1475.242188 651.21875 M 932.921875 2036.679688 C 932.921875 2043.214844 927.628906 2048.511719 921.09375 2048.515625 C 914.558594 2048.523438 909.257812 2043.234375 909.246094 2036.699219 C 909.238281 2030.164062 914.523438 2024.859375 921.058594 2024.84375 C 927.589844 2024.828125 932.902344 2030.109375 932.921875 2036.640625 M 627.082031 1405.128906 C 627.082031 1420.476562 614.644531 1432.925781 599.296875 1432.9375 C 583.949219 1432.949219 571.492188 1420.523438 571.46875 1405.175781 C 571.441406 1389.824219 583.859375 1377.359375 599.207031 1377.324219 C 614.554688 1377.285156 627.03125 1389.691406 627.082031 1405.042969 M 1540.425781 2073.808594 C 1540.425781 2084.234375 1531.980469 2092.6875 1521.554688 2092.695312 C 1511.128906 2092.703125 1502.671875 2084.265625 1502.652344 2073.839844 C 1502.636719 2063.414062 1511.070312 2054.949219 1521.496094 2054.921875 C 1531.917969 2054.898438 1540.394531 2063.324219 1540.425781 2073.75 M 1768.714844 1428.539062 C 1768.714844 1441.984375 1757.820312 1452.882812 1744.378906 1452.894531 C 1730.9375 1452.90625 1720.027344 1442.019531 1720.007812 1428.578125 C 1719.984375 1415.136719 1730.859375 1404.21875 1744.300781 1404.1875 C 1757.746094 1404.152344 1768.671875 1415.019531 1768.714844 1428.460938 M 2274.023438 2582.789062 C 2274.023438 2592.855469 2265.867188 2601.015625 2255.804688 2601.023438 C 2245.742188 2601.03125 2237.574219 2592.882812 2237.558594 2582.820312 C 2237.542969 2572.753906 2245.683594 2564.582031 2255.746094 2564.558594 C 2265.808594 2564.535156 2273.992188 2572.667969 2274.023438 2582.730469 M 1712 1038.789062 C 1712 1044.523438 1707.351562 1049.171875 1701.617188 1049.179688 C 1695.882812 1049.183594 1691.230469 1044.539062 1691.222656 1038.804688 C 1691.210938 1033.074219 1695.851562 1028.414062 1701.585938 1028.402344 C 1707.320312 1028.386719 1711.980469 1033.023438 1712 1038.757812 M 1101.480469 2317.769531 C 1101.480469 2322.664062 1097.511719 2326.636719 1092.617188 2326.640625 C 1087.722656 2326.644531 1083.75 2322.679688 1083.742188 2317.785156 C 1083.734375 2312.886719 1087.691406 2308.914062 1092.589844 2308.902344 C 1097.484375 2308.890625 1101.464844 2312.847656 1101.480469 2317.742188 M 439.722656 2667.269531 C 439.722656 2686.558594 424.097656 2702.199219 404.808594 2702.214844 C 385.519531 2702.230469 369.867188 2686.613281 369.835938 2667.324219 C 369.804688 2648.039062 385.410156 2632.371094 404.695312 2632.324219 C 423.984375 2632.28125 439.664062 2647.871094 439.722656 2667.160156 M 602.273438 1547.949219 C 602.273438 1562.734375 590.296875 1574.722656 575.511719 1574.734375 C 560.730469 1574.746094 548.734375 1562.777344 548.710938 1547.992188 C 548.683594 1533.210938 560.644531 1521.203125 575.429688 1521.167969 C 590.210938 1521.132812 602.226562 1533.082031 602.273438 1547.863281 M 466.054688 2501 C 466.054688 2514.996094 454.714844 2526.34375 440.71875 2526.355469 C 426.722656 2526.367188 415.367188 2515.035156 415.34375 2501.039062 C 415.320312 2487.046875 426.640625 2475.679688 440.636719 2475.644531 C 454.632812 2475.613281 466.007812 2486.925781 466.054688 2500.917969 M 1901.6875 1505.480469 C 1901.6875 1521.773438 1888.484375 1534.984375 1872.195312 1534.996094 C 1855.902344 1535.011719 1842.679688 1521.820312 1842.652344 1505.527344 C 1842.625 1489.234375 1855.808594 1476 1872.097656 1475.960938 C 1888.390625 1475.925781 1901.636719 1489.09375 1901.6875 1505.386719 M 1790.714844 1598.421875 C 1790.714844 1603.4375 1786.652344 1607.503906 1781.636719 1607.507812 C 1776.621094 1607.511719 1772.550781 1603.449219 1772.542969 1598.433594 C 1772.535156 1593.417969 1776.59375 1589.34375 1781.609375 1589.332031 C 1786.625 1589.320312 1790.699219 1593.375 1790.714844 1598.390625 M 608.59375 2589.800781 C 608.59375 2606.695312 594.902344 2620.394531 578.007812 2620.410156 C 561.109375 2620.421875 547.398438 2606.746094 547.371094 2589.847656 C 547.34375 2572.953125 561.011719 2559.230469 577.910156 2559.191406 C 594.804688 2559.148438 608.539062 2572.808594 608.589844 2589.703125 M 909.152344 695.769531 C 909.152344 701.6875 904.355469 706.488281 898.4375 706.492188 C 892.519531 706.496094 887.71875 701.707031 887.707031 695.789062 C 887.699219 689.871094 892.484375 685.0625 898.402344 685.050781 C 904.320312 685.035156 909.132812 689.820312 909.152344 695.738281 M 559.234375 988.210938 C 559.234375 996.941406 552.160156 1004.019531 543.425781 1004.027344 C 534.695312 1004.035156 527.609375 996.964844 527.597656 988.234375 C 527.582031 979.503906 534.644531 972.414062 543.378906 972.390625 C 552.109375 972.371094 559.207031 979.429688 559.234375 988.160156 M 1346.875 947.3125 C 1346.875 951.835938 1343.210938 955.503906 1338.6875 955.507812 C 1334.160156 955.511719 1330.492188 951.847656 1330.484375 947.324219 C 1330.476562 942.800781 1334.136719 939.125 1338.660156 939.113281 C 1343.183594 939.105469 1346.863281 942.761719 1346.875 947.285156 M 1631.789062 746.785156 C 1631.789062 750.261719 1628.972656 753.082031 1625.496094 753.082031 C 1622.019531 753.085938 1619.199219 750.273438 1619.191406 746.796875 C 1619.1875 743.320312 1622 740.496094 1625.476562 740.488281 C 1628.949219 740.480469 1631.777344 743.289062 1631.789062 746.765625 M 2038.886719 1007.691406 C 2038.886719 1021.140625 2027.988281 1032.042969 2014.539062 1032.054688 C 2001.089844 1032.066406 1990.175781 1021.175781 1990.15625 1007.730469 C 1990.132812 994.28125 2001.011719 983.355469 2014.460938 983.324219 C 2027.910156 983.292969 2038.84375 994.164062 2038.886719 1007.613281 M 378.085938 1064.960938 C 378.085938 1075.738281 369.355469 1084.476562 358.578125 1084.484375 C 347.800781 1084.492188 339.054688 1075.769531 339.035156 1064.992188 C 339.019531 1054.214844 347.738281 1045.460938 358.515625 1045.433594 C 369.292969 1045.410156 378.050781 1054.121094 378.085938 1064.898438 M 569.339844 1632.828125 C 569.339844 1638.476562 564.765625 1643.054688 559.121094 1643.058594 C 553.472656 1643.0625 548.890625 1638.492188 548.882812 1632.847656 C 548.875 1627.199219 553.441406 1622.613281 559.085938 1622.601562 C 564.734375 1622.585938 569.324219 1627.152344 569.339844 1632.796875 M 910.304688 1337.738281 C 910.304688 1347.554688 902.351562 1355.515625 892.53125 1355.523438 C 882.714844 1355.53125 874.75 1347.585938 874.734375 1337.769531 C 874.71875 1327.953125 882.660156 1319.980469 892.476562 1319.957031 C 902.292969 1319.933594 910.273438 1327.867188 910.304688 1337.683594 M 500.824219 2636.488281 C 500.824219 2663.105469 479.257812 2684.691406 452.640625 2684.710938 C 426.023438 2684.734375 404.421875 2663.183594 404.378906 2636.566406 C 404.335938 2609.949219 425.867188 2588.332031 452.484375 2588.269531 C 479.101562 2588.203125 500.738281 2609.71875 500.824219 2636.335938 M 304.3125 2416.371094 C 304.3125 2419.746094 301.578125 2422.484375 298.199219 2422.488281 C 294.824219 2422.488281 292.082031 2419.757812 292.078125 2416.378906 C 292.074219 2413.003906 294.804688 2410.261719 298.179688 2410.253906 C 301.558594 2410.246094 304.300781 2412.972656 304.3125 2416.351562 M 556.34375 997.277344 C 556.34375 1011.988281 544.429688 1023.914062 529.722656 1023.925781 C 515.011719 1023.9375 503.078125 1012.027344 503.054688 997.320312 C 503.03125 982.613281 514.929688 970.667969 529.636719 970.632812 C 544.34375 970.597656 556.296875 982.488281 556.34375 997.195312 M 1142.917969 2209.039062 C 1142.917969 2220.867188 1133.335938 2230.460938 1121.507812 2230.46875 C 1109.679688 2230.476562 1100.078125 2220.902344 1100.0625 2209.074219 C 1100.042969 2197.246094 1109.609375 2187.640625 1121.4375 2187.609375 C 1133.265625 2187.582031 1142.882812 2197.144531 1142.917969 2208.972656 M 1629.109375 2651.089844 C 1629.109375 2655.371094 1625.640625 2658.84375 1621.355469 2658.847656 C 1617.074219 2658.851562 1613.597656 2655.386719 1613.589844 2651.101562 C 1613.585938 2646.820312 1617.050781 2643.339844 1621.332031 2643.332031 C 1625.613281 2643.320312 1629.09375 2646.78125 1629.109375 2651.066406 M 1977.003906 2370.851562 C 1977.003906 2376.695312 1972.265625 2381.4375 1966.417969 2381.441406 C 1960.570312 2381.445312 1955.828125 2376.714844 1955.816406 2370.867188 C 1955.808594 2365.019531 1960.539062 2360.273438 1966.382812 2360.257812 C 1972.230469 2360.242188 1976.984375 2364.96875 1977.003906 2370.816406 M 992.226562 669.445312 C 992.226562 681.15625 982.738281 690.652344 971.027344 690.660156 C 959.316406 690.667969 949.816406 681.1875 949.796875 669.480469 C 949.777344 657.769531 959.25 648.257812 970.960938 648.230469 C 982.671875 648.203125 992.1875 657.667969 992.226562 669.378906 M 911.199219 1314.578125 C 911.199219 1319.667969 907.078125 1323.792969 901.992188 1323.796875 C 896.90625 1323.800781 892.777344 1319.683594 892.769531 1314.59375 C 892.761719 1309.507812 896.875 1305.375 901.964844 1305.363281 C 907.050781 1305.351562 911.183594 1309.464844 911.199219 1314.550781 M 1723.878906 2566.289062 C 1723.878906 2574.042969 1717.597656 2580.332031 1709.839844 2580.339844 C 1702.085938 2580.34375 1695.792969 2574.066406 1695.78125 2566.3125 C 1695.769531 2558.558594 1702.042969 2552.257812 1709.796875 2552.242188 C 1717.550781 2552.222656 1723.855469 2558.492188 1723.878906 2566.246094 M 1342.027344 681.871094 C 1342.027344 700.945312 1326.570312 716.414062 1307.496094 716.425781 C 1288.421875 716.441406 1272.945312 701 1272.914062 681.925781 C 1272.882812 662.851562 1288.3125 647.359375 1307.386719 647.316406 C 1326.460938 647.269531 1341.964844 662.6875 1342.027344 681.761719 M 367.914062 2583.179688 C 367.914062 2597.941406 355.953125 2609.910156 341.195312 2609.921875 C 326.433594 2609.933594 314.457031 2597.984375 314.433594 2583.222656 C 314.410156 2568.460938 326.347656 2556.472656 341.109375 2556.4375 C 355.871094 2556.402344 367.867188 2568.335938 367.914062 2583.09375 M 1875.289062 1359.320312 C 1875.289062 1379.332031 1859.074219 1395.5625 1839.058594 1395.578125 C 1819.046875 1395.59375 1802.804688 1379.390625 1802.773438 1359.378906 C 1802.738281 1339.363281 1818.929688 1323.109375 1838.945312 1323.0625 C 1858.957031 1323.015625 1875.222656 1339.191406 1875.289062 1359.203125 M 572.421875 1397.351562 C 572.421875 1426.476562 548.820312 1450.097656 519.691406 1450.121094 C 490.5625 1450.144531 466.925781 1426.5625 466.878906 1397.433594 C 466.832031 1368.304688 490.394531 1344.648438 519.523438 1344.578125 C 548.652344 1344.507812 572.328125 1368.054688 572.421875 1397.183594 M 1091.953125 1814.171875 C 1091.953125 1821.867188 1085.71875 1828.105469 1078.019531 1828.113281 C 1070.324219 1828.121094 1064.078125 1821.886719 1064.066406 1814.191406 C 1064.054688 1806.496094 1070.28125 1800.246094 1077.976562 1800.226562 C 1085.671875 1800.207031 1091.929688 1806.429688 1091.953125 1814.125 M 1831.515625 2447.5 C 1831.515625 2456.179688 1824.484375 2463.21875 1815.800781 2463.226562 C 1807.121094 2463.234375 1800.078125 2456.207031 1800.0625 2447.523438 C 1800.050781 2438.84375 1807.070312 2431.792969 1815.753906 2431.773438 C 1824.433594 2431.753906 1831.488281 2438.769531 1831.515625 2447.449219 M 651.085938 2542.871094 C 651.085938 2559.84375 637.335938 2573.605469 620.363281 2573.617188 C 603.394531 2573.632812 589.621094 2559.890625 589.59375 2542.917969 C 589.566406 2525.945312 603.292969 2512.164062 620.265625 2512.121094 C 637.238281 2512.082031 651.035156 2525.800781 651.085938 2542.773438 M 747.910156 1032.96875 C 747.910156 1045.148438 738.042969 1055.023438 725.867188 1055.03125 C 713.6875 1055.042969 703.804688 1045.183594 703.785156 1033.003906 C 703.765625 1020.828125 713.617188 1010.9375 725.796875 1010.90625 C 737.972656 1010.878906 747.871094 1020.722656 747.910156 1032.898438 M 2012.082031 930.855469 C 2012.082031 939.363281 2005.191406 946.261719 1996.683594 946.269531 C 1988.175781 946.273438 1981.269531 939.386719 1981.257812 930.878906 C 1981.242188 922.375 1988.125 915.464844 1996.632812 915.445312 C 2005.140625 915.421875 2012.054688 922.300781 2012.082031 930.808594 M 2200.425781 2567.378906 C 2200.425781 2581.707031 2188.816406 2593.324219 2174.492188 2593.335938 C 2160.164062 2593.347656 2148.535156 2581.75 2148.511719 2567.421875 C 2148.488281 2553.09375 2160.082031 2541.457031 2174.40625 2541.421875 C 2188.734375 2541.390625 2200.382812 2552.96875 2200.425781 2567.296875 M 1614.53125 1893.308594 C 1614.53125 1898.417969 1610.394531 1902.558594 1605.289062 1902.5625 C 1600.179688 1902.566406 1596.035156 1898.433594 1596.027344 1893.324219 C 1596.019531 1888.21875 1600.152344 1884.070312 1605.257812 1884.058594 C 1610.363281 1884.046875 1614.515625 1888.171875 1614.53125 1893.28125 M 382.480469 958.253906 C 382.480469 963.820312 377.96875 968.335938 372.398438 968.339844 C 366.832031 968.347656 362.3125 963.839844 362.304688 958.269531 C 362.296875 952.703125 366.800781 948.179688 372.367188 948.167969 C 377.9375 948.152344 382.460938 952.652344 382.480469 958.222656 M 1488.820312 1657.820312 C 1488.820312 1662.75 1484.824219 1666.746094 1479.898438 1666.75 C 1474.96875 1666.753906 1470.96875 1662.761719 1470.960938 1657.835938 C 1470.953125 1652.90625 1474.941406 1648.902344 1479.867188 1648.890625 C 1484.796875 1648.878906 1488.804688 1652.863281 1488.820312 1657.792969 M 902.179688 682.957031 C 902.179688 687.171875 898.765625 690.589844 894.550781 690.59375 C 890.335938 690.597656 886.914062 687.183594 886.90625 682.96875 C 886.902344 678.753906 890.3125 675.332031 894.527344 675.320312 C 898.742188 675.3125 902.167969 678.71875 902.179688 682.933594 M 618.9375 1452.351562 C 618.9375 1466.152344 607.757812 1477.339844 593.957031 1477.351562 C 580.15625 1477.363281 568.957031 1466.191406 568.933594 1452.390625 C 568.910156 1438.589844 580.074219 1427.378906 593.875 1427.347656 C 607.675781 1427.316406 618.894531 1438.46875 618.9375 1452.269531 M 2128.996094 931.144531 C 2128.996094 935.582031 2125.402344 939.179688 2120.964844 939.183594 C 2116.53125 939.183594 2112.929688 935.59375 2112.925781 931.160156 C 2112.917969 926.722656 2116.503906 923.121094 2120.941406 923.109375 C 2125.375 923.101562 2128.980469 926.683594 2128.996094 931.121094 M 1952.324219 2482.511719 C 1952.324219 2493.355469 1943.539062 2502.148438 1932.695312 2502.15625 C 1921.851562 2502.164062 1913.050781 2493.386719 1913.035156 2482.542969 C 1913.015625 2471.699219 1921.789062 2462.890625 1932.632812 2462.863281 C 1943.476562 2462.839844 1952.292969 2471.601562 1952.324219 2482.449219 M 1842.011719 1380.429688 C 1842.011719 1397.289062 1828.351562 1410.960938 1811.496094 1410.972656 C 1794.636719 1410.988281 1780.953125 1397.335938 1780.925781 1380.480469 C 1780.898438 1363.621094 1794.539062 1349.925781 1811.398438 1349.886719 C 1828.257812 1349.847656 1841.960938 1363.472656 1842.011719 1380.332031 M 2283.300781 2661.769531 C 2283.300781 2671.925781 2275.070312 2680.164062 2264.914062 2680.171875 C 2254.757812 2680.179688 2246.515625 2671.957031 2246.5 2661.800781 C 2246.484375 2651.640625 2254.699219 2643.394531 2264.855469 2643.367188 C 2275.011719 2643.34375 2283.269531 2651.554688 2283.300781 2661.710938 M 602.09375 2512.410156 C 602.09375 2529.136719 588.539062 2542.703125 571.8125 2542.714844 C 555.082031 2542.726562 541.507812 2529.1875 541.480469 2512.457031 C 541.457031 2495.730469 554.988281 2482.144531 571.714844 2482.105469 C 588.441406 2482.066406 602.039062 2495.585938 602.09375 2512.3125 M 1261.941406 717.808594 C 1261.941406 735.886719 1247.292969 750.546875 1229.214844 750.558594 C 1211.136719 750.574219 1196.464844 735.9375 1196.4375 717.859375 C 1196.410156 699.78125 1211.03125 685.097656 1229.113281 685.054688 C 1247.191406 685.011719 1261.886719 699.625 1261.941406 717.703125 M 1335.414062 2106.96875 C 1335.414062 2127.777344 1318.558594 2144.648438 1297.75 2144.664062 C 1276.941406 2144.683594 1260.058594 2127.835938 1260.023438 2107.03125 C 1259.992188 2086.222656 1276.824219 2069.324219 1297.628906 2069.273438 C 1318.4375 2069.222656 1335.347656 2086.042969 1335.414062 2106.851562 M 630.96875 2551.910156 C 630.96875 2564.339844 620.894531 2574.421875 608.464844 2574.429688 C 596.03125 2574.441406 585.945312 2564.378906 585.925781 2551.945312 C 585.90625 2539.515625 595.960938 2529.417969 608.390625 2529.390625 C 620.824219 2529.359375 630.925781 2539.40625 630.96875 2551.839844 M 993.351562 2201.019531 C 993.351562 2206.734375 988.71875 2211.367188 983.003906 2211.375 C 977.289062 2211.378906 972.652344 2206.75 972.644531 2201.035156 C 972.632812 2195.320312 977.257812 2190.679688 982.972656 2190.667969 C 988.6875 2190.652344 993.332031 2195.273438 993.351562 2200.988281 M 1128.792969 920.785156 C 1128.792969 926.195312 1124.410156 930.582031 1118.996094 930.585938 C 1113.585938 930.589844 1109.195312 926.210938 1109.1875 920.800781 C 1109.179688 915.390625 1113.554688 910.996094 1118.964844 910.980469 C 1124.378906 910.96875 1128.777344 915.34375 1128.792969 920.753906 M 672.289062 1248.949219 C 672.289062 1269.761719 655.425781 1286.636719 634.617188 1286.652344 C 613.804688 1286.667969 596.917969 1269.820312 596.882812 1249.011719 C 596.851562 1228.199219 613.683594 1211.296875 634.496094 1211.246094 C 655.304688 1211.199219 672.222656 1228.019531 672.289062 1248.828125 M 1289.0625 2451.429688 C 1289.0625 2454.808594 1286.324219 2457.550781 1282.945312 2457.554688 C 1279.5625 2457.558594 1276.820312 2454.820312 1276.816406 2451.441406 C 1276.808594 2448.058594 1279.542969 2445.3125 1282.925781 2445.304688 C 1286.304688 2445.296875 1289.054688 2448.03125 1289.0625 2451.410156 M 2079.726562 1428.46875 C 2079.726562 1446.628906 2065.011719 1461.351562 2046.855469 1461.363281 C 2028.699219 1461.378906 2013.964844 1446.679688 2013.933594 1428.523438 C 2013.90625 1410.367188 2028.59375 1395.617188 2046.75 1395.574219 C 2064.910156 1395.53125 2079.667969 1410.207031 2079.726562 1428.363281 M 985.960938 1842.011719 C 985.960938 1848.683594 980.554688 1854.09375 973.882812 1854.097656 C 967.210938 1854.105469 961.796875 1848.703125 961.785156 1842.027344 C 961.773438 1835.355469 967.171875 1829.9375 973.84375 1829.921875 C 980.515625 1829.90625 985.941406 1835.300781 985.960938 1841.972656 M 1592.6875 1251.488281 C 1592.6875 1255.480469 1589.457031 1258.714844 1585.464844 1258.71875 C 1581.476562 1258.722656 1578.238281 1255.492188 1578.230469 1251.5 C 1578.226562 1247.511719 1581.453125 1244.269531 1585.441406 1244.261719 C 1589.433594 1244.253906 1592.675781 1247.476562 1592.6875 1251.46875 M 933.214844 1155.578125 C 933.214844 1159.222656 930.261719 1162.175781 926.621094 1162.175781 C 922.980469 1162.179688 920.023438 1159.230469 920.019531 1155.589844 C 920.011719 1151.949219 922.957031 1148.992188 926.601562 1148.984375 C 930.242188 1148.972656 933.203125 1151.917969 933.214844 1155.558594 M 1769.015625 1193.910156 C 1769.015625 1208.734375 1757.003906 1220.753906 1742.179688 1220.765625 C 1727.355469 1220.777344 1715.328125 1208.777344 1715.304688 1193.953125 C 1715.28125 1179.128906 1727.273438 1167.089844 1742.097656 1167.054688 C 1756.917969 1167.019531 1768.96875 1179 1769.015625 1193.824219 M 1844.941406 2319.808594 C 1844.941406 2323.179688 1842.210938 2325.910156 1838.84375 2325.910156 C 1835.476562 2325.914062 1832.742188 2323.1875 1832.738281 2319.820312 C 1832.734375 2316.453125 1835.457031 2313.714844 1838.824219 2313.707031 C 1842.191406 2313.699219 1844.929688 2316.421875 1844.941406 2319.789062 M 704.5625 2586.191406 C 704.5625 2603.132812 690.835938 2616.867188 673.894531 2616.882812 C 656.953125 2616.894531 643.203125 2603.179688 643.175781 2586.238281 C 643.152344 2569.296875 656.855469 2555.539062 673.796875 2555.496094 C 690.738281 2555.457031 704.507812 2569.152344 704.5625 2586.09375 M 876.515625 1465.710938 C 876.515625 1470.339844 872.765625 1474.09375 868.136719 1474.097656 C 863.507812 1474.097656 859.75 1470.351562 859.742188 1465.722656 C 859.738281 1461.09375 863.480469 1457.335938 868.109375 1457.324219 C 872.738281 1457.3125 876.5 1461.054688 876.515625 1465.683594 M 764.996094 940.714844 C 764.996094 945.976562 760.730469 950.246094 755.46875 950.25 C 750.203125 950.253906 745.933594 945.992188 745.925781 940.730469 C 745.917969 935.46875 750.175781 931.191406 755.4375 931.179688 C 760.699219 931.167969 764.976562 935.421875 764.996094 940.683594 M 280.550781 2552.488281 C 280.550781 2561.839844 272.972656 2569.421875 263.625 2569.429688 C 254.273438 2569.4375 246.6875 2561.867188 246.671875 2552.515625 C 246.65625 2543.167969 254.222656 2535.574219 263.570312 2535.550781 C 272.921875 2535.53125 280.519531 2543.085938 280.550781 2552.4375 M 2084.636719 984.09375 C 2084.636719 992.710938 2077.652344 999.699219 2069.03125 999.707031 C 2060.414062 999.714844 2053.417969 992.734375 2053.40625 984.117188 C 2053.390625 975.496094 2060.363281 968.496094 2068.984375 968.476562 C 2077.601562 968.457031 2084.609375 975.421875 2084.636719 984.042969 M 356.648438 1587.789062 C 356.648438 1592.011719 353.230469 1595.433594 349.011719 1595.4375 C 344.789062 1595.4375 341.363281 1592.023438 341.359375 1587.800781 C 341.351562 1583.582031 344.765625 1580.152344 348.984375 1580.144531 C 353.207031 1580.132812 356.636719 1583.546875 356.648438 1587.765625 M 2073.375 1575.789062 C 2073.375 1583.875 2066.828125 1590.429688 2058.742188 1590.4375 C 2050.65625 1590.441406 2044.097656 1583.898438 2044.082031 1575.8125 C 2044.070312 1567.730469 2050.609375 1561.164062 2058.695312 1561.144531 C 2066.78125 1561.125 2073.351562 1567.660156 2073.375 1575.742188 M 2036.617188 2551.671875 C 2036.617188 2564.417969 2026.285156 2574.757812 2013.539062 2574.765625 C 2000.789062 2574.777344 1990.445312 2564.457031 1990.421875 2551.707031 C 1990.402344 2538.957031 2000.714844 2528.605469 2013.464844 2528.574219 C 2026.214844 2528.542969 2036.574219 2538.847656 2036.617188 2551.597656 M 1268.980469 1825.058594 C 1268.980469 1846.117188 1251.917969 1863.191406 1230.859375 1863.207031 C 1209.804688 1863.226562 1192.714844 1846.179688 1192.679688 1825.121094 C 1192.648438 1804.0625 1209.683594 1786.960938 1230.738281 1786.910156 C 1251.796875 1786.859375 1268.910156 1803.882812 1268.976562 1824.9375 M 749.398438 1218 C 749.398438 1234.746094 735.832031 1248.324219 719.085938 1248.335938 C 702.34375 1248.347656 688.753906 1234.792969 688.726562 1218.046875 C 688.699219 1201.304688 702.246094 1187.703125 718.992188 1187.664062 C 735.734375 1187.625 749.347656 1201.160156 749.398438 1217.902344 M 637.078125 1435.511719 C 637.078125 1453.023438 622.886719 1467.226562 605.371094 1467.242188 C 587.855469 1467.253906 573.640625 1453.074219 573.613281 1435.558594 C 573.585938 1418.046875 587.753906 1403.820312 605.269531 1403.777344 C 622.785156 1403.738281 637.019531 1417.894531 637.078125 1435.410156 M 2267.792969 1284.679688 C 2267.792969 1302.265625 2253.542969 1316.527344 2235.957031 1316.542969 C 2218.367188 1316.554688 2204.097656 1302.316406 2204.066406 1284.730469 C 2204.039062 1267.144531 2218.265625 1252.859375 2235.855469 1252.820312 C 2253.441406 1252.777344 2267.734375 1266.992188 2267.792969 1284.578125 M 1663.007812 689.574219 C 1663.007812 695.410156 1658.277344 700.144531 1652.4375 700.152344 C 1646.601562 700.15625 1641.859375 695.429688 1641.851562 689.589844 C 1641.84375 683.75 1646.566406 679.007812 1652.40625 678.996094 C 1658.242188 678.980469 1662.988281 683.699219 1663.007812 689.539062 M 972.199219 2151.351562 C 972.199219 2156.582031 967.960938 2160.820312 962.730469 2160.824219 C 957.5 2160.828125 953.257812 2156.59375 953.25 2151.363281 C 953.238281 2146.136719 957.472656 2141.886719 962.703125 2141.875 C 967.929688 2141.863281 972.183594 2146.089844 972.199219 2151.320312 M 406.933594 971.996094 C 406.933594 979.875 400.550781 986.261719 392.675781 986.269531 C 384.796875 986.273438 378.40625 979.898438 378.390625 972.019531 C 378.378906 964.144531 384.75 957.746094 392.628906 957.726562 C 400.507812 957.707031 406.910156 964.074219 406.933594 971.953125 M 1200.28125 1641.730469 C 1200.28125 1647.054688 1195.96875 1651.367188 1190.648438 1651.375 C 1185.324219 1651.378906 1181.003906 1647.066406 1180.996094 1641.746094 C 1180.988281 1636.421875 1185.292969 1632.097656 1190.617188 1632.085938 C 1195.941406 1632.074219 1200.265625 1636.375 1200.28125 1641.699219 M 1797.046875 1251.171875 C 1797.046875 1267.527344 1783.792969 1280.792969 1767.433594 1280.804688 C 1751.074219 1280.820312 1737.800781 1267.574219 1737.773438 1251.21875 C 1737.75 1234.859375 1750.980469 1221.574219 1767.339844 1221.535156 C 1783.695312 1221.496094 1796.992188 1234.71875 1797.046875 1251.074219 M 1642.234375 2627.558594 C 1642.234375 2632.453125 1638.269531 2636.417969 1633.378906 2636.421875 C 1628.484375 2636.425781 1624.515625 2632.464844 1624.507812 2627.574219 C 1624.5 2622.683594 1628.457031 2618.707031 1633.347656 2618.695312 C 1638.242188 2618.683594 1642.21875 2622.640625 1642.234375 2627.53125 M 1990.488281 2317.960938 C 1990.488281 2322.808594 1986.558594 2326.742188 1981.707031 2326.746094 C 1976.855469 2326.75 1972.921875 2322.824219 1972.914062 2317.972656 C 1972.90625 2313.125 1976.828125 2309.183594 1981.679688 2309.171875 C 1986.527344 2309.160156 1990.472656 2313.082031 1990.488281 2317.933594 M 1243.191406 1891.410156 C 1243.191406 1911.226562 1227.136719 1927.296875 1207.320312 1927.3125 C 1187.503906 1927.328125 1171.421875 1911.285156 1171.390625 1891.46875 C 1171.359375 1871.652344 1187.386719 1855.554688 1207.203125 1855.507812 C 1227.019531 1855.460938 1243.128906 1871.480469 1243.191406 1891.296875 M 2210.5 1039.589844 C 2210.5 1049.011719 2202.867188 1056.652344 2193.445312 1056.660156 C 2184.019531 1056.667969 2176.375 1049.039062 2176.359375 1039.617188 C 2176.34375 1030.195312 2183.964844 1022.539062 2193.390625 1022.519531 C 2202.8125 1022.496094 2210.472656 1030.113281 2210.5 1039.535156 M 1894.746094 1519.179688 C 1894.746094 1533.246094 1883.347656 1544.65625 1869.28125 1544.664062 C 1855.210938 1544.675781 1843.796875 1533.289062 1843.773438 1519.21875 C 1843.75 1505.152344 1855.132812 1493.726562 1869.199219 1493.695312 C 1883.265625 1493.660156 1894.699219 1505.03125 1894.746094 1519.097656 M 2081.597656 2333.21875 C 2081.597656 2337.308594 2078.285156 2340.625 2074.195312 2340.628906 C 2070.105469 2340.628906 2066.789062 2337.320312 2066.78125 2333.230469 C 2066.777344 2329.144531 2070.082031 2325.824219 2074.171875 2325.8125 C 2078.261719 2325.804688 2081.585938 2329.109375 2081.597656 2333.195312 M 617.800781 1679.480469 C 617.800781 1684.269531 613.917969 1688.15625 609.128906 1688.160156 C 604.339844 1688.164062 600.449219 1684.285156 600.441406 1679.492188 C 600.433594 1674.703125 604.308594 1670.8125 609.101562 1670.800781 C 613.890625 1670.789062 617.785156 1674.660156 617.800781 1679.453125 M 2075.945312 1546.640625 C 2075.945312 1563.3125 2062.4375 1576.832031 2045.765625 1576.84375 C 2029.09375 1576.859375 2015.5625 1563.359375 2015.535156 1546.6875 C 2015.507812 1530.015625 2028.996094 1516.476562 2045.667969 1516.4375 C 2062.339844 1516.394531 2075.890625 1529.871094 2075.945312 1546.542969 M 2164.558594 910.257812 C 2164.558594 916.300781 2159.660156 921.199219 2153.617188 921.207031 C 2147.574219 921.210938 2142.671875 916.316406 2142.660156 910.273438 C 2142.652344 904.230469 2147.539062 899.324219 2153.582031 899.308594 C 2159.628906 899.292969 2164.539062 904.179688 2164.558594 910.222656 M 269.179688 1524.648438 C 269.179688 1530.972656 264.054688 1536.101562 257.734375 1536.105469 C 251.410156 1536.109375 246.277344 1530.992188 246.269531 1524.667969 C 246.257812 1518.34375 251.375 1513.210938 257.695312 1513.195312 C 264.019531 1513.179688 269.160156 1518.289062 269.179688 1524.613281 M 1224.078125 1787.660156 C 1224.078125 1803.5 1211.242188 1816.34375 1195.402344 1816.355469 C 1179.5625 1816.371094 1166.707031 1803.546875 1166.683594 1787.707031 C 1166.65625 1771.867188 1179.472656 1759 1195.3125 1758.964844 C 1211.152344 1758.925781 1224.027344 1771.730469 1224.078125 1787.570312 M 1014.582031 1841.441406 C 1014.582031 1850.980469 1006.851562 1858.714844 997.3125 1858.722656 C 987.773438 1858.730469 980.03125 1851.007812 980.015625 1841.46875 C 980 1831.925781 987.71875 1824.179688 997.257812 1824.15625 C 1006.796875 1824.132812 1014.550781 1831.84375 1014.582031 1841.386719 M 2156.613281 1223.230469 C 2156.613281 1244.304688 2139.535156 1261.394531 2118.460938 1261.410156 C 2097.386719 1261.429688 2080.28125 1244.367188 2080.25 1223.289062 C 2080.214844 1202.214844 2097.261719 1185.097656 2118.339844 1185.046875 C 2139.414062 1185 2156.542969 1202.03125 2156.613281 1223.109375 M 369.882812 2515.808594 C 369.882812 2527.101562 360.730469 2536.261719 349.4375 2536.269531 C 338.144531 2536.277344 328.980469 2527.136719 328.964844 2515.84375 C 328.945312 2504.550781 338.082031 2495.378906 349.375 2495.351562 C 360.667969 2495.324219 369.847656 2504.453125 369.882812 2515.746094 M 444.601562 1183.058594 C 444.601562 1202.542969 428.816406 1218.34375 409.332031 1218.359375 C 389.847656 1218.375 374.039062 1202.601562 374.007812 1183.117188 C 373.976562 1163.632812 389.734375 1147.808594 409.21875 1147.761719 C 428.703125 1147.714844 444.539062 1163.464844 444.601562 1182.949219 M 1264.183594 816.179688 C 1264.183594 832.480469 1250.976562 845.703125 1234.671875 845.714844 C 1218.371094 845.726562 1205.140625 832.527344 1205.113281 816.226562 C 1205.089844 799.921875 1218.277344 786.683594 1234.578125 786.644531 C 1250.882812 786.605469 1264.132812 799.78125 1264.183594 816.085938 M 1370.714844 2459.269531 C 1370.714844 2463.433594 1367.339844 2466.808594 1363.175781 2466.8125 C 1359.011719 2466.816406 1355.632812 2463.445312 1355.625 2459.28125 C 1355.621094 2455.117188 1358.988281 2451.738281 1363.152344 2451.726562 C 1367.316406 2451.714844 1370.699219 2455.082031 1370.714844 2459.246094 M 876.5 1125.449219 C 876.5 1134.234375 869.382812 1141.359375 860.597656 1141.367188 C 851.8125 1141.375 844.679688 1134.261719 844.667969 1125.476562 C 844.652344 1116.691406 851.761719 1109.554688 860.546875 1109.535156 C 869.332031 1109.511719 876.472656 1116.613281 876.5 1125.398438 M 1876.09375 1464.789062 C 1876.09375 1480.152344 1863.644531 1492.609375 1848.28125 1492.621094 C 1832.917969 1492.632812 1820.453125 1480.195312 1820.425781 1464.835938 C 1820.402344 1449.472656 1832.832031 1436.996094 1848.195312 1436.957031 C 1863.554688 1436.921875 1876.042969 1449.339844 1876.09375 1464.703125 M 2074.46875 2443.03125 C 2074.46875 2450.414062 2068.484375 2456.402344 2061.101562 2456.40625 C 2053.71875 2456.414062 2047.726562 2450.433594 2047.714844 2443.050781 C 2047.703125 2435.667969 2053.675781 2429.671875 2061.058594 2429.652344 C 2068.441406 2429.636719 2074.445312 2435.605469 2074.46875 2442.988281 M 753.171875 2604.890625 C 753.171875 2620.453125 740.558594 2633.074219 724.996094 2633.089844 C 709.429688 2633.101562 696.796875 2620.5 696.773438 2604.933594 C 696.75 2589.371094 709.339844 2576.730469 724.90625 2576.691406 C 740.46875 2576.65625 753.121094 2589.234375 753.167969 2604.800781 M 1811.414062 2501.378906 C 1811.414062 2511.429688 1803.273438 2519.578125 1793.222656 2519.585938 C 1783.175781 2519.59375 1775.019531 2511.457031 1775.003906 2501.410156 C 1774.988281 2491.359375 1783.117188 2483.199219 1793.167969 2483.175781 C 1803.214844 2483.152344 1811.382812 2491.273438 1811.414062 2501.320312 M 1983.226562 2649.820312 C 1983.226562 2675.039062 1962.792969 2695.488281 1937.578125 2695.507812 C 1912.359375 2695.527344 1891.894531 2675.109375 1891.851562 2649.894531 C 1891.8125 2624.675781 1912.210938 2604.191406 1937.429688 2604.132812 C 1962.648438 2604.074219 1983.148438 2624.457031 1983.226562 2649.675781 M 1529.515625 793.601562 C 1529.515625 803.070312 1521.84375 810.75 1512.375 810.757812 C 1502.902344 810.765625 1495.21875 803.097656 1495.203125 793.628906 C 1495.1875 784.160156 1502.847656 776.46875 1512.320312 776.445312 C 1521.789062 776.421875 1529.484375 784.078125 1529.515625 793.546875 M 1182.527344 983.503906 C 1182.527344 986.949219 1179.730469 989.746094 1176.285156 989.75 C 1172.835938 989.75 1170.039062 986.960938 1170.035156 983.511719 C 1170.027344 980.066406 1172.816406 977.265625 1176.265625 977.257812 C 1179.710938 977.25 1182.515625 980.035156 1182.527344 983.484375 M 934.472656 1849.640625 C 934.472656 1854.222656 930.761719 1857.9375 926.179688 1857.941406 C 921.597656 1857.945312 917.878906 1854.234375 917.871094 1849.652344 C 917.863281 1845.070312 921.570312 1841.351562 926.152344 1841.339844 C 930.734375 1841.328125 934.457031 1845.03125 934.472656 1849.613281 M 1922.988281 2349.890625 C 1922.988281 2355.535156 1918.414062 2360.113281 1912.769531 2360.117188 C 1907.121094 2360.125 1902.539062 2355.550781 1902.53125 2349.90625 C 1902.523438 2344.261719 1907.089844 2339.675781 1912.734375 2339.660156 C 1918.382812 2339.648438 1922.96875 2344.210938 1922.988281 2349.855469 M 1319.886719 2265.359375 C 1319.886719 2276.851562 1310.578125 2286.167969 1299.085938 2286.175781 C 1287.597656 2286.183594 1278.273438 2276.882812 1278.253906 2265.394531 C 1278.234375 2253.902344 1287.53125 2244.570312 1299.019531 2244.542969 C 1310.511719 2244.515625 1319.847656 2253.804688 1319.886719 2265.292969 M 674.832031 860.117188 C 674.832031 864.390625 671.371094 867.855469 667.097656 867.855469 C 662.824219 867.859375 659.359375 864.402344 659.351562 860.128906 C 659.34375 855.855469 662.800781 852.386719 667.074219 852.375 C 671.347656 852.367188 674.820312 855.820312 674.832031 860.09375 M 1513.890625 2149.398438 C 1513.890625 2167.285156 1499.398438 2181.785156 1481.515625 2181.800781 C 1463.632812 2181.816406 1449.117188 2167.335938 1449.089844 2149.453125 C 1449.0625 2131.566406 1463.527344 2117.042969 1481.414062 2117 C 1499.296875 2116.957031 1513.832031 2131.414062 1513.890625 2149.296875 M 856.019531 2064.789062 C 856.019531 2069.945312 851.84375 2074.121094 846.6875 2074.125 C 841.535156 2074.128906 837.355469 2069.957031 837.347656 2064.804688 C 837.335938 2059.652344 841.507812 2055.464844 846.660156 2055.453125 C 851.8125 2055.441406 856 2059.605469 856.019531 2064.761719 M 1188.445312 704.460938 C 1188.445312 721.699219 1174.476562 735.679688 1157.234375 735.695312 C 1139.996094 735.707031 1126.003906 721.75 1125.976562 704.511719 C 1125.949219 687.269531 1139.894531 673.269531 1157.136719 673.226562 C 1174.375 673.1875 1188.386719 687.121094 1188.441406 704.363281 M 1984.449219 1425.101562 C 1984.449219 1446.207031 1967.347656 1463.324219 1946.242188 1463.339844 C 1925.132812 1463.355469 1908.003906 1446.269531 1907.96875 1425.160156 C 1907.9375 1404.054688 1925.011719 1386.910156 1946.117188 1386.859375 C 1967.226562 1386.808594 1984.382812 1403.871094 1984.449219 1424.976562 M 2289.109375 1505.320312 C 2289.109375 1512.292969 2283.460938 1517.945312 2276.488281 1517.949219 C 2269.519531 1517.957031 2263.859375 1512.3125 2263.851562 1505.339844 C 2263.839844 1498.367188 2269.476562 1492.707031 2276.449219 1492.691406 C 2283.421875 1492.671875 2289.085938 1498.308594 2289.109375 1505.28125 M 521.703125 2647.910156 C 521.703125 2663.136719 509.363281 2675.488281 494.136719 2675.5 C 478.90625 2675.511719 466.546875 2663.183594 466.523438 2647.953125 C 466.5 2632.726562 478.820312 2620.359375 494.046875 2620.320312 C 509.273438 2620.285156 521.652344 2632.59375 521.703125 2647.820312 M 1814.820312 1592.949219 C 1814.820312 1598.742188 1810.128906 1603.4375 1804.339844 1603.441406 C 1798.546875 1603.445312 1793.847656 1598.757812 1793.839844 1592.964844 C 1793.828125 1587.175781 1798.515625 1582.472656 1804.304688 1582.460938 C 1810.09375 1582.445312 1814.800781 1587.125 1814.820312 1592.917969 M 686.40625 2592.621094 C 686.40625 2610.59375 671.84375 2625.167969 653.871094 2625.183594 C 635.894531 2625.199219 621.308594 2610.644531 621.28125 2592.671875 C 621.25 2574.699219 635.792969 2560.097656 653.765625 2560.054688 C 671.742188 2560.011719 686.351562 2574.542969 686.40625 2592.515625 M 1621.164062 2543.488281 C 1621.164062 2546.941406 1618.367188 2549.742188 1614.914062 2549.742188 C 1611.464844 2549.746094 1608.664062 2546.953125 1608.65625 2543.5 C 1608.652344 2540.046875 1611.445312 2537.246094 1614.894531 2537.238281 C 1618.347656 2537.230469 1621.152344 2540.019531 1621.164062 2543.46875 M 675.421875 1460.351562 C 675.421875 1471.628906 666.285156 1480.773438 655.007812 1480.785156 C 643.726562 1480.792969 634.574219 1471.660156 634.558594 1460.382812 C 634.539062 1449.105469 643.664062 1439.945312 654.941406 1439.917969 C 666.21875 1439.890625 675.386719 1449.007812 675.421875 1460.285156 M 2281.378906 1571.378906 C 2281.378906 1576.695312 2277.070312 1581.003906 2271.757812 1581.007812 C 2266.445312 1581.011719 2262.132812 1576.710938 2262.121094 1571.394531 C 2262.113281 1566.082031 2266.414062 1561.765625 2271.726562 1561.753906 C 2277.039062 1561.742188 2281.359375 1566.035156 2281.375 1571.347656 M 1749.507812 1481.648438 C 1749.507812 1489.382812 1743.242188 1495.652344 1735.511719 1495.660156 C 1727.777344 1495.664062 1721.503906 1489.40625 1721.492188 1481.671875 C 1721.480469 1473.941406 1727.734375 1467.660156 1735.464844 1467.640625 C 1743.199219 1467.621094 1749.484375 1473.871094 1749.507812 1481.605469 M 2144.492188 1643.660156 C 2144.492188 1648.519531 2140.554688 1652.457031 2135.695312 1652.460938 C 2130.839844 1652.464844 2126.894531 1648.53125 2126.886719 1643.675781 C 2126.878906 1638.816406 2130.8125 1634.871094 2135.667969 1634.859375 C 2140.527344 1634.847656 2144.476562 1638.773438 2144.492188 1643.632812 M 1674.960938 1110.289062 C 1674.960938 1117.085938 1669.457031 1122.597656 1662.660156 1122.601562 C 1655.863281 1122.605469 1650.347656 1117.105469 1650.339844 1110.308594 C 1650.328125 1103.515625 1655.824219 1097.996094 1662.621094 1097.980469 C 1669.417969 1097.960938 1674.941406 1103.457031 1674.960938 1110.25 M 1159.480469 2127.800781 C 1159.480469 2150.511719 1141.074219 2168.929688 1118.363281 2168.949219 C 1095.648438 2168.96875 1077.21875 2150.578125 1077.179688 2127.867188 C 1077.144531 2105.152344 1095.519531 2086.703125 1118.230469 2086.652344 C 1140.945312 2086.597656 1159.40625 2104.957031 1159.480469 2127.667969 M 1225.847656 1551.011719 C 1225.847656 1554.972656 1222.636719 1558.183594 1218.675781 1558.1875 C 1214.714844 1558.191406 1211.5 1554.984375 1211.492188 1551.019531 C 1211.484375 1547.058594 1214.691406 1543.839844 1218.652344 1543.832031 C 1222.613281 1543.824219 1225.835938 1547.023438 1225.847656 1550.988281 M 1918.570312 2464.988281 C 1918.570312 2478.441406 1907.671875 2489.347656 1894.21875 2489.359375 C 1880.769531 2489.371094 1869.851562 2478.480469 1869.832031 2465.027344 C 1869.808594 2451.578125 1880.691406 2440.652344 1894.140625 2440.621094 C 1907.59375 2440.589844 1918.527344 2451.460938 1918.570312 2464.914062 M 1897.328125 1318.300781 C 1897.328125 1341.371094 1878.636719 1360.082031 1855.5625 1360.097656 C 1832.492188 1360.117188 1813.769531 1341.4375 1813.730469 1318.367188 C 1813.695312 1295.292969 1832.359375 1276.554688 1855.429688 1276.5 C 1878.5 1276.445312 1897.253906 1295.09375 1897.328125 1318.167969 M 1869.203125 1058.101562 C 1869.203125 1073.425781 1856.785156 1085.851562 1841.460938 1085.863281 C 1826.136719 1085.875 1813.703125 1073.46875 1813.675781 1058.144531 C 1813.652344 1042.820312 1826.050781 1030.375 1841.375 1030.335938 C 1856.699219 1030.300781 1869.152344 1042.6875 1869.203125 1058.011719 M 1325.222656 892.148438 C 1325.222656 902.140625 1317.125 910.242188 1307.132812 910.25 C 1297.144531 910.257812 1289.035156 902.167969 1289.019531 892.175781 C 1289.003906 882.183594 1297.085938 874.070312 1307.078125 874.046875 C 1317.070312 874.023438 1325.191406 882.097656 1325.222656 892.089844 M 1456.25 1864.808594 C 1456.25 1878.289062 1445.328125 1889.21875 1431.847656 1889.230469 C 1418.371094 1889.242188 1407.429688 1878.328125 1407.410156 1864.847656 C 1407.386719 1851.371094 1418.292969 1840.421875 1431.773438 1840.390625 C 1445.25 1840.359375 1456.207031 1851.253906 1456.25 1864.730469 M 932.304688 1375.839844 C 932.304688 1382.859375 926.617188 1388.550781 919.597656 1388.558594 C 912.578125 1388.5625 906.882812 1382.878906 906.871094 1375.859375 C 906.859375 1368.839844 912.539062 1363.140625 919.558594 1363.125 C 926.578125 1363.105469 932.285156 1368.78125 932.304688 1375.800781 "/>
</g>
</svg>
