<?xml version="1.0" encoding="UTF-8"?>
<svg xmlns="http://www.w3.org/2000/svg" xmlns:xlink="http://www.w3.org/1999/xlink" width="2550pt" height="3300pt" viewBox="0 0 2550 3300" version="1.1">
<g id="surface1">
<path style="fill:none;stroke-width:2;stroke-linecap:butt;stroke-linejoin:miter;stroke:rgb(0%,0%,0%);stroke-opacity:1;stroke-miterlimit:10;" d="M 533.363281 649.652344 C 533.363281 672.992188 514.453125 691.917969 491.113281 691.933594 C 467.773438 691.953125 448.835938 673.058594 448.796875 649.71875 C 448.757812 626.378906 467.640625 607.421875 490.980469 607.367188 C 514.320312 607.3125 533.289062 626.175781 533.363281 649.515625 M 2260.46875 679.640625 C 2260.46875 703.925781 2240.789062 723.617188 2216.503906 723.636719 C 2192.21875 723.65625 2172.511719 703.996094 2172.472656 679.710938 C 2172.433594 655.425781 2192.078125 635.699219 2216.363281 635.640625 C 2240.652344 635.582031 2260.390625 655.214844 2260.46875 679.5 M 2300.203125 2327.960938 C 2300.203125 2351.277344 2281.308594 2370.183594 2257.992188 2370.203125 C 2234.675781 2370.222656 2215.753906 2351.34375 2215.71875 2328.027344 C 2215.679688 2304.710938 2234.542969 2285.773438 2257.859375 2285.71875 C 2281.175781 2285.660156 2300.128906 2304.507812 2300.203125 2327.824219 M 2018.574219 2650.210938 C 2018.574219 2673.765625 1999.488281 2692.863281 1975.933594 2692.882812 C 1952.378906 2692.902344 1933.265625 2673.832031 1933.226562 2650.277344 C 1933.191406 2626.722656 1952.242188 2607.59375 1975.796875 2607.539062 C 1999.351562 2607.480469 2018.496094 2626.519531 2018.570312 2650.074219 M 2174.035156 787.058594 C 2174.035156 810.535156 2155.015625 829.566406 2131.542969 829.585938 C 2108.070312 829.605469 2089.019531 810.601562 2088.984375 787.128906 C 2088.945312 763.65625 2107.933594 744.589844 2131.410156 744.535156 C 2154.882812 744.476562 2173.960938 763.453125 2174.035156 786.925781 M 326.261719 2548.851562 C 326.261719 2571.839844 307.632812 2590.484375 284.640625 2590.5 C 261.652344 2590.519531 242.996094 2571.90625 242.957031 2548.917969 C 242.921875 2525.925781 261.519531 2507.253906 284.507812 2507.199219 C 307.5 2507.144531 326.1875 2525.726562 326.257812 2548.71875 M 2220.308594 843.980469 C 2220.308594 866.863281 2201.765625 885.417969 2178.882812 885.4375 C 2156 885.457031 2137.429688 866.929688 2137.394531 844.046875 C 2137.355469 821.164062 2155.867188 802.578125 2178.75 802.523438 C 2201.632812 802.46875 2220.234375 820.964844 2220.304688 843.847656 M 2308.777344 995.585938 C 2308.777344 1018.253906 2290.410156 1036.632812 2267.742188 1036.652344 C 2245.074219 1036.667969 2226.679688 1018.316406 2226.640625 995.648438 C 2226.605469 972.980469 2244.945312 954.570312 2267.613281 954.515625 C 2290.28125 954.460938 2308.707031 972.785156 2308.777344 995.453125 M 361.335938 966.214844 C 361.335938 988.921875 342.9375 1007.332031 320.234375 1007.351562 C 297.527344 1007.367188 279.097656 988.984375 279.0625 966.28125 C 279.027344 943.574219 297.394531 925.132812 320.101562 925.078125 C 342.808594 925.023438 361.265625 943.375 361.335938 966.082031 M 2311.074219 658.382812 C 2311.074219 681.054688 2292.703125 699.4375 2270.03125 699.457031 C 2247.363281 699.472656 2228.964844 681.121094 2228.925781 658.449219 C 2228.890625 635.777344 2247.230469 617.363281 2269.902344 617.308594 C 2292.574219 617.257812 2311 635.582031 2311.074219 658.253906 M 2084.875 789.613281 C 2084.875 812.238281 2066.539062 830.589844 2043.914062 830.605469 C 2021.285156 830.625 2002.921875 812.304688 2002.886719 789.675781 C 2002.847656 767.050781 2021.152344 748.671875 2043.78125 748.617188 C 2066.410156 748.5625 2084.800781 766.855469 2084.875 789.480469 "/>
</g>
</svg>
