<?xml version="1.0" encoding="UTF-8"?>
<svg xmlns="http://www.w3.org/2000/svg" xmlns:xlink="http://www.w3.org/1999/xlink" width="2550pt" height="3300pt" viewBox="0 0 2550 3300" version="1.1">
<g id="surface1">
<path style="fill:none;stroke-width:2;stroke-linecap:butt;stroke-linejoin:miter;stroke:rgb(90.1961%,92.1569%,56.0784%);stroke-opacity:1;stroke-miterlimit:10;" d="M 1205.308594 1716.851562 C 1205.308594 1724.941406 1198.753906 1731.5 1190.660156 1731.507812 C 1182.570312 1731.515625 1176.003906 1724.964844 1175.992188 1716.875 C 1175.980469 1708.78125 1182.523438 1702.210938 1190.613281 1702.191406 C 1198.707031 1702.171875 1205.28125 1708.714844 1205.308594 1716.804688 M 2192.804688 1412.339844 C 2192.804688 1429.472656 2178.925781 1443.363281 2161.792969 1443.375 C 2144.664062 1443.390625 2130.761719 1429.519531 2130.734375 1412.390625 C 2130.707031 1395.257812 2144.566406 1381.34375 2161.695312 1381.304688 C 2178.828125 1381.261719 2192.75 1395.109375 2192.804688 1412.242188 M 1364.648438 1999.140625 C 1364.648438 2015.179688 1351.652344 2028.183594 1335.613281 2028.195312 C 1319.574219 2028.210938 1306.558594 2015.226562 1306.53125 1999.1875 C 1306.507812 1983.148438 1319.480469 1970.121094 1335.519531 1970.082031 C 1351.558594 1970.042969 1364.597656 1983.007812 1364.648438 1999.046875 M 1052.234375 766.359375 C 1052.234375 774.671875 1045.496094 781.414062 1037.183594 781.421875 C 1028.867188 781.429688 1022.121094 774.695312 1022.105469 766.382812 C 1022.09375 758.066406 1028.820312 751.3125 1037.132812 751.292969 C 1045.449219 751.273438 1052.207031 757.996094 1052.234375 766.308594 M 1664.433594 1831.511719 C 1664.433594 1836.152344 1660.671875 1839.917969 1656.027344 1839.921875 C 1651.382812 1839.925781 1647.613281 1836.167969 1647.605469 1831.523438 C 1647.597656 1826.878906 1651.355469 1823.109375 1656 1823.097656 C 1660.644531 1823.085938 1664.417969 1826.839844 1664.433594 1831.484375 M 1987.292969 1704.929688 C 1987.292969 1708.304688 1984.558594 1711.042969 1981.183594 1711.042969 C 1977.808594 1711.046875 1975.070312 1708.316406 1975.066406 1704.941406 C 1975.058594 1701.566406 1977.789062 1698.824219 1981.164062 1698.816406 C 1984.539062 1698.808594 1987.285156 1701.535156 1987.292969 1704.910156 M 1567.957031 2173.078125 C 1567.957031 2185.429688 1557.949219 2195.445312 1545.597656 2195.457031 C 1533.246094 2195.464844 1523.222656 2185.464844 1523.203125 2173.117188 C 1523.183594 2160.765625 1533.175781 2150.734375 1545.527344 2150.703125 C 1557.878906 2150.675781 1567.917969 2160.65625 1567.957031 2173.007812 M 825.089844 1520.28125 C 825.089844 1527.875 818.933594 1534.035156 811.339844 1534.042969 C 803.742188 1534.046875 797.578125 1527.898438 797.566406 1520.300781 C 797.554688 1512.707031 803.699219 1506.535156 811.296875 1506.519531 C 818.890625 1506.5 825.066406 1512.640625 825.089844 1520.234375 M 2102.035156 2484.78125 C 2102.035156 2493.511719 2094.964844 2500.589844 2086.234375 2500.597656 C 2077.503906 2500.605469 2070.417969 2493.535156 2070.402344 2484.804688 C 2070.390625 2476.074219 2077.453125 2468.984375 2086.183594 2468.964844 C 2094.914062 2468.941406 2102.007812 2476 2102.035156 2484.730469 M 2111.027344 1659.230469 C 2111.027344 1665.046875 2106.3125 1669.761719 2100.5 1669.765625 C 2094.683594 1669.769531 2089.964844 1665.0625 2089.953125 1659.246094 C 2089.945312 1653.429688 2094.648438 1648.707031 2100.464844 1648.695312 C 2106.28125 1648.679688 2111.007812 1653.382812 2111.027344 1659.195312 M 917.09375 2642.75 C 917.09375 2648.96875 912.054688 2654.011719 905.835938 2654.015625 C 899.617188 2654.023438 894.570312 2648.988281 894.558594 2642.769531 C 894.550781 2636.546875 899.582031 2631.496094 905.800781 2631.484375 C 912.019531 2631.46875 917.074219 2636.496094 917.09375 2642.714844 M 414.09375 1651.441406 C 414.09375 1656.214844 410.226562 1660.082031 405.453125 1660.085938 C 400.683594 1660.089844 396.808594 1656.226562 396.800781 1651.453125 C 396.792969 1646.679688 400.652344 1642.804688 405.425781 1642.792969 C 410.199219 1642.78125 414.078125 1646.640625 414.09375 1651.414062 M 830.367188 2494.191406 C 830.367188 2499.773438 825.839844 2504.304688 820.253906 2504.308594 C 814.667969 2504.3125 810.136719 2499.792969 810.128906 2494.207031 C 810.121094 2488.621094 814.636719 2484.085938 820.222656 2484.070312 C 825.808594 2484.058594 830.347656 2488.574219 830.367188 2494.15625 M 1761.863281 2668.890625 C 1761.863281 2683.804688 1749.777344 2695.902344 1734.863281 2695.914062 C 1719.945312 2695.925781 1707.839844 2683.847656 1707.816406 2668.933594 C 1707.792969 2654.015625 1719.859375 2641.902344 1734.777344 2641.867188 C 1749.691406 2641.832031 1761.816406 2653.886719 1761.863281 2668.804688 M 760.0625 1254.898438 C 760.0625 1271.097656 746.941406 1284.234375 730.742188 1284.246094 C 714.542969 1284.257812 701.398438 1271.144531 701.371094 1254.945312 C 701.347656 1238.75 714.449219 1225.59375 730.648438 1225.554688 C 746.847656 1225.515625 760.011719 1238.609375 760.0625 1254.804688 M 1343.132812 1835.871094 C 1343.132812 1858.53125 1324.773438 1876.90625 1302.113281 1876.921875 C 1279.453125 1876.941406 1261.0625 1858.59375 1261.027344 1835.933594 C 1260.992188 1813.273438 1279.320312 1794.871094 1301.980469 1794.816406 C 1324.640625 1794.761719 1343.0625 1813.078125 1343.132812 1835.738281 M 1104.179688 2346.679688 C 1104.179688 2351.394531 1100.359375 2355.214844 1095.648438 2355.21875 C 1090.933594 2355.222656 1087.105469 2351.40625 1087.097656 2346.695312 C 1087.09375 2341.980469 1090.90625 2338.152344 1095.621094 2338.140625 C 1100.332031 2338.128906 1104.164062 2341.9375 1104.179688 2346.652344 M 1116.261719 1726.101562 C 1116.261719 1733.746094 1110.066406 1739.945312 1102.421875 1739.953125 C 1094.773438 1739.960938 1088.570312 1733.769531 1088.558594 1726.121094 C 1088.546875 1718.476562 1094.730469 1712.265625 1102.375 1712.246094 C 1110.023438 1712.230469 1116.238281 1718.410156 1116.261719 1726.054688 M 1434.648438 2266.910156 C 1434.648438 2274.34375 1428.625 2280.371094 1421.191406 2280.378906 C 1413.757812 2280.382812 1407.726562 2274.363281 1407.714844 2266.929688 C 1407.703125 2259.496094 1413.714844 2253.460938 1421.148438 2253.441406 C 1428.582031 2253.425781 1434.625 2259.433594 1434.648438 2266.867188 M 1360.492188 1646.898438 C 1360.492188 1655.296875 1353.6875 1662.105469 1345.292969 1662.109375 C 1336.894531 1662.117188 1330.082031 1655.320312 1330.070312 1646.925781 C 1330.054688 1638.527344 1336.847656 1631.710938 1345.242188 1631.6875 C 1353.640625 1631.667969 1360.464844 1638.457031 1360.492188 1646.851562 M 465.625 1190.160156 C 465.625 1203.960938 454.441406 1215.15625 440.640625 1215.164062 C 426.835938 1215.175781 415.636719 1204.003906 415.613281 1190.199219 C 415.59375 1176.398438 426.757812 1165.1875 440.558594 1165.152344 C 454.363281 1165.121094 465.582031 1176.277344 465.625 1190.082031 M 1132.910156 684.828125 C 1132.910156 702.90625 1118.261719 717.5625 1100.1875 717.578125 C 1082.109375 717.59375 1067.4375 702.957031 1067.410156 684.878906 C 1067.382812 666.804688 1082.003906 652.121094 1100.082031 652.078125 C 1118.160156 652.035156 1132.851562 666.648438 1132.910156 684.722656 M 2189.394531 1119.421875 C 2189.394531 1131.058594 2179.964844 1140.492188 2168.328125 1140.503906 C 2156.691406 1140.511719 2147.246094 1131.089844 2147.226562 1119.453125 C 2147.207031 1107.816406 2156.621094 1098.363281 2168.257812 1098.335938 C 2179.898438 1098.308594 2189.355469 1107.714844 2189.394531 1119.351562 M 1462.96875 2354.96875 C 1462.96875 2360.550781 1458.449219 2365.074219 1452.867188 2365.082031 C 1447.289062 2365.085938 1442.757812 2360.566406 1442.75 2354.984375 C 1442.742188 2349.40625 1447.253906 2344.871094 1452.835938 2344.859375 C 1458.417969 2344.847656 1462.953125 2349.355469 1462.96875 2354.9375 M 2273.726562 1463.878906 C 2273.726562 1470.9375 2268.007812 1476.660156 2260.949219 1476.664062 C 2253.894531 1476.671875 2248.164062 1470.957031 2248.152344 1463.898438 C 2248.144531 1456.84375 2253.851562 1451.109375 2260.910156 1451.09375 C 2267.96875 1451.078125 2273.703125 1456.78125 2273.726562 1463.839844 M 705.542969 1281.269531 C 705.542969 1305.027344 686.292969 1324.289062 662.539062 1324.308594 C 638.785156 1324.328125 619.503906 1305.09375 619.46875 1281.339844 C 619.429688 1257.582031 638.648438 1238.289062 662.402344 1238.234375 C 686.15625 1238.175781 705.464844 1257.378906 705.542969 1281.132812 M 1925.261719 1135.601562 C 1925.261719 1153.257812 1910.953125 1167.578125 1893.296875 1167.59375 C 1875.636719 1167.605469 1861.304688 1153.308594 1861.277344 1135.652344 C 1861.25 1117.992188 1875.535156 1103.648438 1893.195312 1103.609375 C 1910.851562 1103.566406 1925.207031 1117.839844 1925.261719 1135.5 M 2115.023438 1500.050781 C 2115.023438 1511.429688 2105.804688 1520.65625 2094.425781 1520.664062 C 2083.046875 1520.675781 2073.8125 1511.460938 2073.796875 1500.082031 C 2073.777344 1488.703125 2082.980469 1479.460938 2094.359375 1479.433594 C 2105.738281 1479.40625 2114.988281 1488.605469 2115.023438 1499.984375 M 2205.597656 1467.039062 C 2205.597656 1476.824219 2197.667969 1484.761719 2187.882812 1484.769531 C 2178.097656 1484.777344 2170.15625 1476.855469 2170.140625 1467.066406 C 2170.125 1457.28125 2178.042969 1449.335938 2187.828125 1449.3125 C 2197.613281 1449.289062 2205.566406 1457.199219 2205.597656 1466.984375 M 428.632812 1375.289062 C 428.632812 1391.109375 415.8125 1403.941406 399.992188 1403.953125 C 384.171875 1403.964844 371.332031 1391.15625 371.308594 1375.335938 C 371.28125 1359.515625 384.082031 1346.664062 399.902344 1346.628906 C 415.722656 1346.589844 428.582031 1359.378906 428.632812 1375.199219 M 2030.066406 1591.378906 C 2030.066406 1601.820312 2021.605469 1610.289062 2011.164062 1610.296875 C 2000.722656 1610.304688 1992.25 1601.851562 1992.230469 1591.410156 C 1992.214844 1580.96875 2000.664062 1572.488281 2011.105469 1572.460938 C 2021.546875 1572.4375 2030.035156 1580.878906 2030.066406 1591.320312 M 1494.429688 2297.828125 C 1494.429688 2305.90625 1487.886719 2312.453125 1479.8125 2312.460938 C 1471.738281 2312.464844 1465.183594 2305.929688 1465.171875 2297.851562 C 1465.15625 2289.777344 1471.691406 2283.21875 1479.765625 2283.199219 C 1487.839844 2283.179688 1494.402344 2289.707031 1494.429688 2297.785156 M 1169.535156 2312.378906 C 1169.535156 2322.484375 1161.347656 2330.675781 1151.246094 2330.683594 C 1141.140625 2330.695312 1132.941406 2322.511719 1132.925781 2312.410156 C 1132.910156 2302.304688 1141.082031 2294.097656 1151.1875 2294.074219 C 1161.289062 2294.050781 1169.503906 2302.21875 1169.535156 2312.320312 M 1707.507812 2643.78125 C 1707.507812 2654.824219 1698.558594 2663.777344 1687.515625 2663.785156 C 1676.472656 2663.792969 1667.511719 2654.855469 1667.492188 2643.8125 C 1667.476562 2632.769531 1676.410156 2623.800781 1687.453125 2623.773438 C 1698.496094 2623.746094 1707.472656 2632.671875 1707.507812 2643.714844 M 2035.742188 1220.210938 C 2035.742188 1244.582031 2015.996094 1264.339844 1991.625 1264.359375 C 1967.253906 1264.378906 1947.476562 1244.652344 1947.4375 1220.28125 C 1947.398438 1195.910156 1967.113281 1176.117188 1991.484375 1176.058594 C 2015.855469 1176 2035.664062 1195.699219 2035.742188 1220.070312 M 1324.191406 841.003906 C 1324.191406 851.902344 1315.363281 860.738281 1304.464844 860.746094 C 1293.566406 860.757812 1284.726562 851.933594 1284.707031 841.035156 C 1284.691406 830.140625 1293.503906 821.289062 1304.402344 821.261719 C 1315.300781 821.238281 1324.15625 830.042969 1324.191406 840.941406 M 1437.550781 2418.191406 C 1437.550781 2421.53125 1434.84375 2424.238281 1431.503906 2424.238281 C 1428.164062 2424.242188 1425.457031 2421.539062 1425.449219 2418.199219 C 1425.445312 2414.859375 1428.144531 2412.148438 1431.484375 2412.140625 C 1434.824219 2412.132812 1437.539062 2414.832031 1437.550781 2418.171875 M 1749.710938 2403.300781 C 1749.710938 2406.625 1747.019531 2409.320312 1743.695312 2409.320312 C 1740.371094 2409.324219 1737.671875 2406.632812 1737.667969 2403.308594 C 1737.664062 2399.984375 1740.351562 2397.285156 1743.675781 2397.277344 C 1747 2397.269531 1749.703125 2399.957031 1749.710938 2403.28125 M 301.773438 2437.5 C 301.773438 2441.820312 298.273438 2445.324219 293.957031 2445.324219 C 289.636719 2445.328125 286.128906 2441.832031 286.125 2437.511719 C 286.117188 2433.191406 289.609375 2429.683594 293.929688 2429.675781 C 298.25 2429.664062 301.761719 2433.15625 301.773438 2437.476562 M 1232.855469 762.996094 C 1232.855469 781.03125 1218.242188 795.65625 1200.207031 795.671875 C 1182.167969 795.6875 1167.53125 781.082031 1167.503906 763.046875 C 1167.472656 745.011719 1182.066406 730.359375 1200.101562 730.316406 C 1218.140625 730.273438 1232.800781 744.855469 1232.855469 762.890625 M 1301.699219 1992.070312 C 1301.699219 2019.261719 1279.667969 2041.308594 1252.480469 2041.332031 C 1225.289062 2041.351562 1203.222656 2019.339844 1203.179688 1992.148438 C 1203.136719 1964.957031 1225.132812 1942.875 1252.324219 1942.808594 C 1279.511719 1942.746094 1301.613281 1964.722656 1301.699219 1991.914062 M 689.710938 2499.929688 C 689.710938 2515.175781 677.359375 2527.539062 662.113281 2527.550781 C 646.867188 2527.5625 634.496094 2515.21875 634.472656 2499.972656 C 634.449219 2484.726562 646.78125 2472.347656 662.027344 2472.308594 C 677.273438 2472.273438 689.664062 2484.597656 689.710938 2499.84375 M 2078.355469 1527.039062 C 2078.355469 1540.886719 2067.136719 1552.113281 2053.289062 1552.125 C 2039.445312 1552.136719 2028.207031 1540.925781 2028.183594 1527.078125 C 2028.164062 1513.234375 2039.363281 1501.988281 2053.210938 1501.957031 C 2067.054688 1501.921875 2078.3125 1513.113281 2078.355469 1526.960938 M 1931.050781 1374.921875 C 1931.050781 1391.742188 1917.417969 1405.386719 1900.59375 1405.398438 C 1883.769531 1405.414062 1870.117188 1391.792969 1870.089844 1374.96875 C 1870.0625 1358.144531 1883.671875 1344.480469 1900.496094 1344.441406 C 1917.320312 1344.398438 1930.996094 1358 1931.050781 1374.824219 M 1529.15625 631.214844 C 1529.15625 640.492188 1521.640625 648.015625 1512.363281 648.019531 C 1503.085938 648.027344 1495.558594 640.519531 1495.542969 631.242188 C 1495.527344 621.964844 1503.03125 614.429688 1512.308594 614.40625 C 1521.585938 614.382812 1529.128906 621.882812 1529.15625 631.160156 M 1146.144531 2022.289062 C 1146.144531 2043.808594 1128.710938 2061.257812 1107.191406 2061.273438 C 1085.671875 2061.292969 1068.210938 2043.871094 1068.175781 2022.351562 C 1068.140625 2000.832031 1085.546875 1983.355469 1107.066406 1983.304688 C 1128.585938 1983.253906 1146.078125 2000.648438 1146.144531 2022.164062 M 681.640625 2336.300781 C 681.640625 2340.664062 678.105469 2344.203125 673.742188 2344.207031 C 669.375 2344.210938 665.835938 2340.675781 665.828125 2336.3125 C 665.820312 2331.949219 669.351562 2328.402344 673.714844 2328.394531 C 678.078125 2328.382812 681.625 2331.910156 681.640625 2336.273438 M 2218.386719 2562.988281 C 2218.386719 2574.570312 2209.007812 2583.957031 2197.425781 2583.96875 C 2185.847656 2583.976562 2176.449219 2574.601562 2176.433594 2563.023438 C 2176.414062 2551.445312 2185.78125 2542.039062 2197.359375 2542.011719 C 2208.9375 2541.984375 2218.351562 2551.34375 2218.386719 2562.921875 M 676.710938 2635.800781 C 676.710938 2652.574219 663.117188 2666.175781 646.34375 2666.1875 C 629.570312 2666.203125 615.960938 2652.621094 615.933594 2635.847656 C 615.90625 2619.074219 629.476562 2605.453125 646.25 2605.410156 C 663.023438 2605.371094 676.65625 2618.929688 676.710938 2635.703125 M 1937.257812 908.367188 C 1937.257812 913.898438 1932.777344 918.382812 1927.246094 918.386719 C 1921.71875 918.390625 1917.230469 913.914062 1917.222656 908.382812 C 1917.210938 902.855469 1921.6875 898.363281 1927.214844 898.347656 C 1932.746094 898.335938 1937.242188 902.804688 1937.257812 908.335938 M 610.84375 2645.390625 C 610.84375 2664.195312 595.605469 2679.445312 576.800781 2679.460938 C 557.992188 2679.476562 542.730469 2664.25 542.699219 2645.445312 C 542.671875 2626.636719 557.882812 2611.363281 576.691406 2611.320312 C 595.496094 2611.273438 610.78125 2626.476562 610.84375 2645.28125 M 1576.28125 2049.851562 C 1576.28125 2064.457031 1564.445312 2076.300781 1549.839844 2076.3125 C 1535.234375 2076.324219 1523.382812 2064.496094 1523.359375 2049.890625 C 1523.335938 2035.285156 1535.152344 2023.425781 1549.757812 2023.390625 C 1564.363281 2023.355469 1576.234375 2035.160156 1576.28125 2049.765625 M 1682.753906 2166 C 1682.753906 2170.09375 1679.4375 2173.410156 1675.347656 2173.414062 C 1671.253906 2173.417969 1667.933594 2170.105469 1667.925781 2166.011719 C 1667.917969 2161.917969 1671.230469 2158.59375 1675.324219 2158.585938 C 1679.414062 2158.574219 1682.742188 2161.882812 1682.753906 2165.976562 M 1562.628906 745.140625 C 1562.628906 753.65625 1555.730469 760.5625 1547.210938 760.570312 C 1538.695312 760.574219 1531.785156 753.679688 1531.769531 745.164062 C 1531.757812 736.648438 1538.644531 729.730469 1547.164062 729.707031 C 1555.679688 729.6875 1562.601562 736.574219 1562.628906 745.089844 M 756.921875 1280.308594 C 756.921875 1301.738281 739.558594 1319.117188 718.125 1319.132812 C 696.695312 1319.152344 679.304688 1301.800781 679.269531 1280.371094 C 679.238281 1258.941406 696.574219 1241.535156 718.003906 1241.484375 C 739.433594 1241.433594 756.851562 1258.757812 756.921875 1280.1875 M 1410.742188 1829.5 C 1410.742188 1843.71875 1399.21875 1855.25 1385 1855.261719 C 1370.78125 1855.273438 1359.242188 1843.761719 1359.21875 1829.542969 C 1359.195312 1815.320312 1370.699219 1803.773438 1384.917969 1803.738281 C 1399.136719 1803.707031 1410.695312 1815.199219 1410.742188 1829.417969 M 1259.878906 2384.859375 C 1259.878906 2393.039062 1253.25 2399.671875 1245.070312 2399.675781 C 1236.894531 2399.683594 1230.253906 2393.0625 1230.242188 2384.882812 C 1230.230469 2376.703125 1236.84375 2370.0625 1245.023438 2370.042969 C 1253.203125 2370.023438 1259.851562 2376.632812 1259.878906 2384.8125 M 1421.214844 2137.550781 C 1421.214844 2154.261719 1407.675781 2167.8125 1390.964844 2167.828125 C 1374.253906 2167.839844 1360.691406 2154.308594 1360.664062 2137.597656 C 1360.636719 2120.886719 1374.15625 2107.3125 1390.867188 2107.273438 C 1407.578125 2107.234375 1421.164062 2120.742188 1421.214844 2137.453125 M 538.269531 1708.238281 C 538.269531 1712.210938 535.054688 1715.429688 531.082031 1715.433594 C 527.113281 1715.4375 523.890625 1712.222656 523.886719 1708.25 C 523.878906 1704.28125 527.089844 1701.054688 531.0625 1701.046875 C 535.03125 1701.039062 538.257812 1704.246094 538.269531 1708.21875 M 1464.640625 1686.890625 C 1464.640625 1692.34375 1460.222656 1696.769531 1454.769531 1696.773438 C 1449.3125 1696.777344 1444.886719 1692.359375 1444.878906 1686.90625 C 1444.867188 1681.449219 1449.28125 1677.019531 1454.738281 1677.007812 C 1460.191406 1676.996094 1464.625 1681.402344 1464.640625 1686.859375 M 805.269531 1385.261719 C 805.269531 1397.53125 795.328125 1407.484375 783.058594 1407.492188 C 770.785156 1407.503906 760.828125 1397.566406 760.808594 1385.296875 C 760.789062 1373.023438 770.714844 1363.058594 782.984375 1363.027344 C 795.257812 1363 805.230469 1372.917969 805.269531 1385.1875 M 1173.28125 1600.828125 C 1173.28125 1604.511719 1170.296875 1607.496094 1166.617188 1607.5 C 1162.933594 1607.503906 1159.945312 1604.523438 1159.9375 1600.839844 C 1159.933594 1597.160156 1162.910156 1594.167969 1166.59375 1594.160156 C 1170.277344 1594.148438 1173.269531 1597.125 1173.28125 1600.808594 M 1349.980469 2116.359375 C 1349.980469 2142.054688 1329.160156 2162.890625 1303.46875 2162.910156 C 1277.773438 2162.929688 1256.921875 2142.128906 1256.878906 2116.433594 C 1256.839844 2090.738281 1277.625 2069.871094 1303.320312 2069.808594 C 1329.011719 2069.75 1349.898438 2090.519531 1349.980469 2116.210938 M 2200.679688 1569.820312 C 2200.679688 1579.964844 2192.457031 1588.191406 2182.316406 1588.199219 C 2172.171875 1588.207031 2163.9375 1579.992188 2163.921875 1569.847656 C 2163.90625 1559.707031 2172.113281 1551.464844 2182.257812 1551.441406 C 2192.398438 1551.417969 2200.644531 1559.617188 2200.675781 1569.761719 M 1610.753906 1449.738281 C 1610.753906 1453.375 1607.808594 1456.320312 1604.175781 1456.324219 C 1600.539062 1456.328125 1597.589844 1453.386719 1597.585938 1449.75 C 1597.578125 1446.117188 1600.519531 1443.164062 1604.152344 1443.15625 C 1607.789062 1443.148438 1610.742188 1446.085938 1610.753906 1449.71875 M 1576.296875 1744.121094 C 1576.296875 1749.429688 1571.996094 1753.734375 1566.6875 1753.738281 C 1561.378906 1753.742188 1557.070312 1749.445312 1557.0625 1744.136719 C 1557.054688 1738.828125 1561.347656 1734.515625 1566.65625 1734.5 C 1571.964844 1734.488281 1576.28125 1738.78125 1576.296875 1744.089844 M 815.566406 2608.980469 C 815.566406 2618.183594 808.109375 2625.648438 798.902344 2625.65625 C 789.699219 2625.660156 782.230469 2618.210938 782.214844 2609.007812 C 782.203125 2599.804688 789.648438 2592.328125 798.851562 2592.304688 C 808.054688 2592.285156 815.535156 2599.722656 815.566406 2608.925781 M 1704.671875 2073.96875 C 1704.671875 2078.105469 1701.320312 2081.457031 1697.1875 2081.460938 C 1693.050781 2081.464844 1689.695312 2078.117188 1689.6875 2073.980469 C 1689.679688 2069.847656 1693.027344 2066.488281 1697.160156 2066.476562 C 1701.296875 2066.46875 1704.660156 2069.8125 1704.671875 2073.945312 M 1480.117188 2163.488281 C 1480.117188 2183.898438 1463.578125 2200.449219 1443.167969 2200.464844 C 1422.757812 2200.484375 1406.195312 2183.960938 1406.164062 2163.550781 C 1406.128906 2143.140625 1422.640625 2126.5625 1443.050781 2126.511719 C 1463.460938 2126.464844 1480.050781 2142.960938 1480.117188 2163.371094 M 1691.34375 1200.199219 C 1691.34375 1209.667969 1683.671875 1217.347656 1674.203125 1217.355469 C 1664.734375 1217.363281 1657.050781 1209.695312 1657.035156 1200.226562 C 1657.019531 1190.757812 1664.679688 1183.066406 1674.148438 1183.046875 C 1683.617188 1183.023438 1691.3125 1190.675781 1691.34375 1200.144531 M 435.367188 962.683594 C 435.367188 972.253906 427.613281 980.015625 418.042969 980.023438 C 408.472656 980.03125 400.707031 972.285156 400.691406 962.710938 C 400.675781 953.140625 408.417969 945.367188 417.988281 945.347656 C 427.558594 945.324219 435.339844 953.058594 435.367188 962.628906 M 728.789062 1416.96875 C 728.789062 1435.464844 713.804688 1450.460938 695.3125 1450.476562 C 676.816406 1450.492188 661.808594 1435.519531 661.777344 1417.023438 C 661.75 1398.527344 676.710938 1383.507812 695.203125 1383.464844 C 713.699219 1383.417969 728.730469 1398.367188 728.789062 1416.863281 M 1615.894531 2077.011719 C 1615.894531 2086.078125 1608.550781 2093.429688 1599.484375 2093.4375 C 1590.417969 2093.445312 1583.058594 2086.101562 1583.042969 2077.035156 C 1583.03125 2067.96875 1590.363281 2060.605469 1599.429688 2060.582031 C 1608.496094 2060.5625 1615.867188 2067.890625 1615.894531 2076.957031 M 1664.183594 1262.738281 C 1664.183594 1268 1659.917969 1272.269531 1654.65625 1272.273438 C 1649.394531 1272.277344 1645.125 1268.015625 1645.117188 1262.753906 C 1645.109375 1257.492188 1649.367188 1253.222656 1654.628906 1253.207031 C 1659.886719 1253.195312 1664.164062 1257.449219 1664.183594 1262.710938 M 476.691406 1692.761719 C 476.691406 1698.25 472.242188 1702.703125 466.753906 1702.707031 C 461.265625 1702.710938 456.808594 1698.265625 456.800781 1692.777344 C 456.792969 1687.285156 461.234375 1682.828125 466.722656 1682.8125 C 472.210938 1682.800781 476.675781 1687.238281 476.691406 1692.726562 M 368.542969 1604.71875 C 368.542969 1610.414062 363.929688 1615.03125 358.238281 1615.035156 C 352.542969 1615.039062 347.925781 1610.429688 347.914062 1604.738281 C 347.90625 1599.042969 352.511719 1594.417969 358.203125 1594.40625 C 363.898438 1594.390625 368.523438 1598.992188 368.542969 1604.6875 M 1465.398438 2019.578125 C 1465.398438 2037.097656 1451.203125 2051.304688 1433.683594 2051.320312 C 1416.164062 2051.332031 1401.949219 2037.148438 1401.921875 2019.628906 C 1401.894531 2002.109375 1416.066406 1987.882812 1433.585938 1987.839844 C 1451.101562 1987.796875 1465.34375 2001.960938 1465.398438 2019.480469 M 404.023438 2643.238281 C 404.023438 2660.777344 389.8125 2675 372.273438 2675.015625 C 354.738281 2675.027344 340.503906 2660.828125 340.476562 2643.289062 C 340.449219 2625.753906 354.636719 2611.507812 372.175781 2611.464844 C 389.710938 2611.425781 403.96875 2625.601562 404.023438 2643.140625 M 682.125 1346.691406 C 682.125 1370.449219 662.875 1389.714844 639.117188 1389.734375 C 615.359375 1389.75 596.078125 1370.515625 596.039062 1346.757812 C 596.003906 1323 615.222656 1303.703125 638.980469 1303.648438 C 662.738281 1303.589844 682.050781 1322.792969 682.125 1346.554688 M 1502.699219 886.902344 C 1502.699219 891.410156 1499.042969 895.066406 1494.535156 895.070312 C 1490.027344 895.074219 1486.371094 891.425781 1486.363281 886.914062 C 1486.355469 882.40625 1490.003906 878.746094 1494.511719 878.734375 C 1499.019531 878.722656 1502.683594 882.367188 1502.699219 886.878906 M 2237.9375 1358.128906 C 2237.9375 1378.398438 2221.515625 1394.832031 2201.25 1394.847656 C 2180.980469 1394.863281 2164.535156 1378.457031 2164.5 1358.1875 C 2164.46875 1337.921875 2180.863281 1321.460938 2201.132812 1321.410156 C 2221.398438 1321.363281 2237.875 1337.746094 2237.9375 1358.011719 M 2261.144531 1158.390625 C 2261.144531 1168.695312 2252.792969 1177.054688 2242.484375 1177.0625 C 2232.179688 1177.070312 2223.8125 1168.726562 2223.796875 1158.417969 C 2223.78125 1148.113281 2232.117188 1139.742188 2242.425781 1139.71875 C 2252.730469 1139.691406 2261.109375 1148.023438 2261.144531 1158.332031 M 1141.914062 2288.621094 C 1141.914062 2300.355469 1132.402344 2309.871094 1120.667969 2309.882812 C 1108.929688 2309.890625 1099.40625 2300.390625 1099.386719 2288.652344 C 1099.367188 2276.917969 1108.863281 2267.386719 1120.597656 2267.359375 C 1132.335938 2267.328125 1141.875 2276.816406 1141.910156 2288.550781 M 513.003906 1057.511719 C 513.003906 1068.660156 503.972656 1077.703125 492.820312 1077.710938 C 481.671875 1077.71875 472.621094 1068.691406 472.605469 1057.542969 C 472.585938 1046.390625 481.605469 1037.335938 492.757812 1037.308594 C 503.90625 1037.28125 512.96875 1046.296875 513.003906 1057.445312 M 1401.011719 642.402344 C 1401.011719 659.0625 1387.511719 672.570312 1370.855469 672.582031 C 1354.195312 672.597656 1340.675781 659.109375 1340.648438 642.449219 C 1340.621094 625.789062 1354.097656 612.261719 1370.757812 612.21875 C 1387.417969 612.179688 1400.957031 625.644531 1401.011719 642.304688 M 1672.167969 1395.628906 C 1672.167969 1403.820312 1665.53125 1410.464844 1657.34375 1410.46875 C 1649.152344 1410.476562 1642.503906 1403.84375 1642.492188 1395.652344 C 1642.476562 1387.460938 1649.101562 1380.808594 1657.292969 1380.789062 C 1665.484375 1380.769531 1672.144531 1387.390625 1672.167969 1395.582031 M 533.367188 2615.628906 C 533.367188 2630.0625 521.671875 2641.765625 507.242188 2641.777344 C 492.808594 2641.789062 481.097656 2630.101562 481.074219 2615.671875 C 481.050781 2601.238281 492.726562 2589.519531 507.15625 2589.484375 C 521.589844 2589.449219 533.320312 2601.113281 533.367188 2615.546875 M 431.878906 1638.261719 C 431.878906 1645.414062 426.085938 1651.214844 418.929688 1651.21875 C 411.777344 1651.226562 405.972656 1645.433594 405.960938 1638.28125 C 405.949219 1631.125 411.734375 1625.316406 418.890625 1625.300781 C 426.042969 1625.28125 431.859375 1631.066406 431.878906 1638.21875 M 2187.011719 1140.320312 C 2187.011719 1155 2175.121094 1166.902344 2160.441406 1166.914062 C 2145.761719 1166.925781 2133.851562 1155.039062 2133.828125 1140.363281 C 2133.804688 1125.683594 2145.679688 1113.761719 2160.355469 1113.726562 C 2175.035156 1113.691406 2186.964844 1125.558594 2187.011719 1140.234375 M 1832.90625 1649.910156 C 1832.90625 1654.832031 1828.917969 1658.820312 1823.996094 1658.824219 C 1819.078125 1658.828125 1815.082031 1654.84375 1815.074219 1649.925781 C 1815.066406 1645.003906 1819.046875 1641.007812 1823.96875 1640.996094 C 1828.890625 1640.984375 1832.890625 1644.960938 1832.90625 1649.882812 M 1642.332031 2020.601562 C 1642.332031 2029.792969 1634.882812 2037.246094 1625.691406 2037.25 C 1616.5 2037.257812 1609.042969 2029.816406 1609.027344 2020.625 C 1609.011719 2011.433594 1616.449219 2003.96875 1625.640625 2003.949219 C 1634.832031 2003.925781 1642.300781 2011.355469 1642.332031 2020.546875 M 345.621094 1100.371094 C 345.621094 1109.441406 338.273438 1116.796875 329.203125 1116.800781 C 320.132812 1116.808594 312.773438 1109.464844 312.757812 1100.394531 C 312.742188 1091.324219 320.082031 1083.960938 329.152344 1083.9375 C 338.222656 1083.914062 345.59375 1091.246094 345.621094 1100.316406 M 1443.347656 1961.351562 C 1443.347656 1983.78125 1425.171875 2001.96875 1402.742188 2001.988281 C 1380.3125 2002.003906 1362.109375 1983.84375 1362.074219 1961.414062 C 1362.039062 1938.984375 1380.183594 1920.765625 1402.613281 1920.714844 C 1425.042969 1920.660156 1443.273438 1938.789062 1443.347656 1961.21875 M 542.785156 2566.28125 C 542.785156 2584.4375 528.070312 2599.160156 509.914062 2599.175781 C 491.757812 2599.191406 477.019531 2584.488281 476.992188 2566.332031 C 476.964844 2548.175781 491.652344 2533.425781 509.808594 2533.382812 C 527.96875 2533.339844 542.726562 2548.015625 542.785156 2566.175781 M 1495.597656 2102.621094 C 1495.597656 2119.050781 1482.285156 2132.375 1465.855469 2132.386719 C 1449.421875 2132.398438 1436.089844 2119.097656 1436.0625 2102.667969 C 1436.035156 2086.238281 1449.328125 2072.890625 1465.757812 2072.851562 C 1482.191406 2072.8125 1495.542969 2086.09375 1495.597656 2102.523438 M 382.402344 1530.929688 C 382.402344 1540.792969 374.414062 1548.789062 364.550781 1548.796875 C 354.691406 1548.804688 346.6875 1540.820312 346.671875 1530.957031 C 346.65625 1521.097656 354.632812 1513.089844 364.496094 1513.066406 C 374.355469 1513.042969 382.371094 1521.011719 382.402344 1530.875 M 2256.152344 1584.191406 C 2256.152344 1588.441406 2252.707031 1591.886719 2248.457031 1591.890625 C 2244.207031 1591.894531 2240.753906 1588.453125 2240.75 1584.203125 C 2240.742188 1579.953125 2244.179688 1576.5 2248.429688 1576.488281 C 2252.683594 1576.480469 2256.136719 1579.914062 2256.152344 1584.164062 M 1192.1875 2146.28125 C 1192.1875 2161.453125 1179.894531 2173.757812 1164.722656 2173.769531 C 1149.550781 2173.78125 1137.234375 2161.496094 1137.210938 2146.324219 C 1137.1875 2131.152344 1149.460938 2118.828125 1164.632812 2118.792969 C 1179.808594 2118.753906 1192.140625 2131.019531 1192.1875 2146.191406 M 655.457031 1389.941406 C 655.457031 1418.003906 632.71875 1440.757812 604.65625 1440.78125 C 576.589844 1440.804688 553.816406 1418.085938 553.773438 1390.019531 C 553.726562 1361.957031 576.429688 1339.164062 604.492188 1339.097656 C 632.554688 1339.03125 655.367188 1361.714844 655.457031 1389.777344 M 2240.324219 1150.109375 C 2240.324219 1159.507812 2232.710938 1167.125 2223.3125 1167.132812 C 2213.917969 1167.140625 2206.292969 1159.535156 2206.277344 1150.136719 C 2206.261719 1140.742188 2213.863281 1133.109375 2223.257812 1133.085938 C 2232.65625 1133.0625 2240.292969 1140.660156 2240.324219 1150.054688 M 514.113281 1703.730469 C 514.113281 1707.296875 511.222656 1710.1875 507.65625 1710.191406 C 504.089844 1710.195312 501.195312 1707.308594 501.1875 1703.742188 C 501.183594 1700.171875 504.070312 1697.277344 507.636719 1697.269531 C 511.203125 1697.257812 514.101562 1700.144531 514.113281 1703.710938 M 1336.195312 844.578125 C 1336.195312 858.417969 1324.980469 869.640625 1311.140625 869.652344 C 1297.300781 869.660156 1286.070312 858.457031 1286.046875 844.617188 C 1286.023438 830.777344 1297.21875 819.535156 1311.058594 819.503906 C 1324.898438 819.46875 1336.148438 830.65625 1336.195312 844.496094 M 1000.773438 1730.589844 C 1000.773438 1734.519531 997.585938 1737.707031 993.65625 1737.710938 C 989.726562 1737.714844 986.535156 1734.53125 986.53125 1730.601562 C 986.523438 1726.671875 989.703125 1723.476562 993.632812 1723.46875 C 997.566406 1723.460938 1000.761719 1726.636719 1000.773438 1730.566406 M 502.648438 1071.429688 C 502.648438 1089.929688 487.660156 1104.925781 469.164062 1104.941406 C 450.664062 1104.957031 435.65625 1089.980469 435.625 1071.484375 C 435.59375 1052.984375 450.558594 1037.960938 469.058594 1037.917969 C 487.554688 1037.875 502.589844 1052.824219 502.648438 1071.324219 M 1384.890625 1994.390625 C 1384.890625 2024.148438 1360.78125 2048.277344 1331.023438 2048.300781 C 1301.265625 2048.324219 1277.117188 2024.234375 1277.070312 1994.476562 C 1277.019531 1964.71875 1301.09375 1940.550781 1330.851562 1940.480469 C 1360.609375 1940.40625 1384.796875 1964.460938 1384.890625 1994.21875 M 1049.078125 795.25 C 1049.078125 802.492188 1043.210938 808.363281 1035.96875 808.367188 C 1028.730469 808.375 1022.855469 802.511719 1022.84375 795.273438 C 1022.832031 788.03125 1028.6875 782.152344 1035.929688 782.132812 C 1043.167969 782.117188 1049.054688 787.96875 1049.078125 795.210938 M 281.902344 1172.878906 C 281.902344 1184.09375 272.816406 1193.1875 261.601562 1193.195312 C 250.390625 1193.203125 241.289062 1184.125 241.273438 1172.914062 C 241.253906 1161.699219 250.324219 1152.59375 261.539062 1152.566406 C 272.75 1152.539062 281.867188 1161.601562 281.902344 1172.816406 M 534.539062 2253.550781 C 534.539062 2256.914062 531.8125 2259.644531 528.445312 2259.648438 C 525.078125 2259.652344 522.347656 2256.925781 522.34375 2253.558594 C 522.335938 2250.195312 525.058594 2247.460938 528.425781 2247.453125 C 531.792969 2247.445312 534.527344 2250.164062 534.539062 2253.53125 M 971.988281 1226.628906 C 971.988281 1231.105469 968.363281 1234.734375 963.890625 1234.738281 C 959.414062 1234.742188 955.78125 1231.117188 955.777344 1226.644531 C 955.769531 1222.167969 959.390625 1218.535156 963.863281 1218.523438 C 968.339844 1218.511719 971.976562 1222.128906 971.988281 1226.605469 M 1949.304688 2332.050781 C 1949.304688 2337.34375 1945.011719 2341.640625 1939.71875 2341.644531 C 1934.421875 2341.648438 1930.125 2337.359375 1930.117188 2332.066406 C 1930.109375 2326.769531 1934.390625 2322.46875 1939.6875 2322.457031 C 1944.980469 2322.445312 1949.285156 2326.722656 1949.304688 2332.019531 M 2170.09375 1079.851562 C 2170.09375 1090.679688 2161.316406 1099.464844 2150.484375 1099.472656 C 2139.65625 1099.480469 2130.863281 1090.710938 2130.847656 1079.882812 C 2130.832031 1069.050781 2139.59375 1060.253906 2150.421875 1060.226562 C 2161.253906 1060.203125 2170.058594 1068.957031 2170.09375 1079.789062 M 1151.898438 1587.78125 C 1151.898438 1591.789062 1148.652344 1595.035156 1144.644531 1595.039062 C 1140.636719 1595.042969 1137.386719 1591.800781 1137.378906 1587.792969 C 1137.375 1583.785156 1140.613281 1580.53125 1144.621094 1580.519531 C 1148.628906 1580.511719 1151.886719 1583.75 1151.898438 1587.757812 M 2256.96875 1536.820312 C 2256.96875 1541.457031 2253.214844 1545.214844 2248.578125 1545.21875 C 2243.941406 1545.222656 2240.175781 1541.46875 2240.167969 1536.832031 C 2240.164062 1532.195312 2243.914062 1528.429688 2248.550781 1528.417969 C 2253.1875 1528.410156 2256.957031 1532.15625 2256.96875 1536.792969 M 1366.546875 694.542969 C 1366.546875 718.308594 1347.289062 737.582031 1323.523438 737.597656 C 1299.757812 737.617188 1280.472656 718.378906 1280.433594 694.613281 C 1280.394531 670.84375 1299.621094 651.542969 1323.386719 651.488281 C 1347.152344 651.429688 1366.46875 670.640625 1366.546875 694.40625 M 1473.167969 2308.699219 C 1473.167969 2314.953125 1468.101562 2320.023438 1461.847656 2320.027344 C 1455.597656 2320.035156 1450.519531 2314.972656 1450.511719 2308.71875 C 1450.5 2302.464844 1455.558594 2297.386719 1461.8125 2297.371094 C 1468.066406 2297.355469 1473.148438 2302.410156 1473.167969 2308.664062 M 2002.957031 2399.730469 C 2002.957031 2406.839844 1997.199219 2412.601562 1990.089844 2412.609375 C 1982.980469 2412.613281 1977.214844 2406.859375 1977.203125 2399.75 C 1977.191406 2392.640625 1982.941406 2386.871094 1990.050781 2386.851562 C 1997.15625 2386.835938 2002.933594 2392.582031 2002.957031 2399.6875 M 603.921875 2665.101562 C 603.921875 2690.605469 583.257812 2711.285156 557.753906 2711.304688 C 532.25 2711.324219 511.550781 2690.675781 511.511719 2665.171875 C 511.472656 2639.671875 532.101562 2618.957031 557.605469 2618.894531 C 583.109375 2618.835938 603.839844 2639.449219 603.921875 2664.953125 M 1924.472656 1734.730469 C 1924.472656 1738.066406 1921.769531 1740.769531 1918.433594 1740.773438 C 1915.097656 1740.777344 1912.390625 1738.074219 1912.386719 1734.738281 C 1912.382812 1731.402344 1915.078125 1728.695312 1918.414062 1728.6875 C 1921.75 1728.679688 1924.460938 1731.375 1924.472656 1734.710938 M 619.125 2558.308594 C 619.125 2580.015625 601.539062 2597.617188 579.832031 2597.632812 C 558.128906 2597.648438 540.511719 2580.078125 540.476562 2558.371094 C 540.445312 2536.667969 558 2519.039062 579.707031 2518.988281 C 601.414062 2518.933594 619.054688 2536.480469 619.125 2558.183594 M 1360.363281 2006.03125 C 1360.363281 2034.113281 1337.613281 2056.882812 1309.53125 2056.90625 C 1281.449219 2056.925781 1258.660156 2034.191406 1258.617188 2006.109375 C 1258.570312 1978.03125 1281.285156 1955.222656 1309.367188 1955.15625 C 1337.449219 1955.089844 1360.273438 1977.785156 1360.363281 2005.867188 M 1631.636719 1335.578125 C 1631.636719 1339.894531 1628.140625 1343.394531 1623.828125 1343.398438 C 1619.511719 1343.402344 1616.007812 1339.90625 1616 1335.59375 C 1615.996094 1331.277344 1619.484375 1327.773438 1623.800781 1327.761719 C 1628.117188 1327.75 1631.625 1331.238281 1631.636719 1335.554688 M 564.09375 2509.078125 C 564.09375 2521.246094 554.234375 2531.113281 542.066406 2531.125 C 529.898438 2531.132812 520.023438 2521.28125 520.003906 2509.113281 C 519.984375 2496.949219 529.828125 2487.066406 541.996094 2487.035156 C 554.164062 2487.007812 564.054688 2496.84375 564.09375 2509.011719 M 1043.714844 1825.46875 C 1043.714844 1832.804688 1037.773438 1838.75 1030.441406 1838.753906 C 1023.109375 1838.761719 1017.15625 1832.824219 1017.144531 1825.492188 C 1017.132812 1818.15625 1023.066406 1812.203125 1030.398438 1812.183594 C 1037.730469 1812.167969 1043.691406 1818.09375 1043.714844 1825.425781 M 2165.582031 2526.578125 C 2165.582031 2539.027344 2155.496094 2549.121094 2143.046875 2549.128906 C 2130.601562 2549.140625 2120.5 2539.0625 2120.480469 2526.617188 C 2120.460938 2514.167969 2130.527344 2504.058594 2142.976562 2504.027344 C 2155.421875 2504 2165.542969 2514.0625 2165.582031 2526.507812 M 1310.617188 2325.761719 C 1310.617188 2338.699219 1300.136719 2349.1875 1287.199219 2349.199219 C 1274.261719 2349.210938 1263.761719 2338.734375 1263.742188 2325.796875 C 1263.71875 2312.859375 1274.1875 2302.351562 1287.125 2302.320312 C 1300.0625 2302.289062 1310.578125 2312.746094 1310.617188 2325.683594 M 1510.511719 2106.628906 C 1510.511719 2122.179688 1497.910156 2134.789062 1482.363281 2134.800781 C 1466.8125 2134.8125 1454.195312 2122.222656 1454.167969 2106.675781 C 1454.144531 2091.125 1466.722656 2078.496094 1482.273438 2078.460938 C 1497.820312 2078.421875 1510.460938 2090.992188 1510.511719 2106.539062 M 1268.859375 959.296875 C 1268.859375 966.246094 1263.230469 971.878906 1256.28125 971.882812 C 1249.332031 971.890625 1243.691406 966.265625 1243.679688 959.316406 C 1243.671875 952.367188 1249.292969 946.722656 1256.238281 946.707031 C 1263.1875 946.691406 1268.835938 952.308594 1268.859375 959.257812 M 1686.972656 1990.78125 C 1686.972656 1994.59375 1683.878906 1997.6875 1680.066406 1997.691406 C 1676.25 1997.695312 1673.15625 1994.605469 1673.148438 1990.789062 C 1673.144531 1986.976562 1676.230469 1983.878906 1680.042969 1983.867188 C 1683.859375 1983.859375 1686.960938 1986.941406 1686.972656 1990.757812 M 1412.550781 1875.898438 C 1412.550781 1896.945312 1395.496094 1914.015625 1374.449219 1914.03125 C 1353.402344 1914.046875 1336.324219 1897.007812 1336.289062 1875.960938 C 1336.253906 1854.914062 1353.28125 1837.820312 1374.328125 1837.769531 C 1395.375 1837.71875 1412.484375 1854.730469 1412.550781 1875.777344 M 1295.808594 1796.03125 C 1295.808594 1813 1282.054688 1826.765625 1265.085938 1826.777344 C 1248.113281 1826.792969 1234.339844 1813.050781 1234.3125 1796.078125 C 1234.285156 1779.105469 1248.015625 1765.324219 1264.988281 1765.28125 C 1281.957031 1765.242188 1295.753906 1778.960938 1295.808594 1795.933594 M 1164.199219 938.480469 C 1164.199219 943.40625 1160.210938 947.398438 1155.285156 947.402344 C 1150.363281 947.40625 1146.367188 943.417969 1146.359375 938.496094 C 1146.351562 933.574219 1150.335938 929.574219 1155.257812 929.5625 C 1160.183594 929.550781 1164.183594 933.53125 1164.199219 938.453125 M 1414.296875 1848.21875 C 1414.296875 1866.746094 1399.285156 1881.769531 1380.757812 1881.785156 C 1362.230469 1881.800781 1347.195312 1866.800781 1347.164062 1848.273438 C 1347.136719 1829.746094 1362.121094 1814.699219 1380.648438 1814.65625 C 1399.175781 1814.609375 1414.234375 1829.585938 1414.296875 1848.113281 M 1296.648438 1956.261719 C 1296.648438 1983.207031 1274.816406 2005.058594 1247.867188 2005.078125 C 1220.921875 2005.101562 1199.054688 1983.285156 1199.011719 1956.335938 C 1198.96875 1929.390625 1220.765625 1907.507812 1247.714844 1907.441406 C 1274.660156 1907.378906 1296.5625 1929.15625 1296.648438 1956.105469 M 1128.894531 1848.851562 C 1128.894531 1865.609375 1115.316406 1879.203125 1098.554688 1879.214844 C 1081.792969 1879.230469 1068.191406 1865.660156 1068.164062 1848.898438 C 1068.136719 1832.136719 1081.695312 1818.523438 1098.457031 1818.484375 C 1115.21875 1818.445312 1128.84375 1831.992188 1128.894531 1848.753906 M 2128.429688 1142.898438 C 2128.429688 1164.101562 2111.253906 1181.292969 2090.050781 1181.3125 C 2068.847656 1181.328125 2051.640625 1164.164062 2051.609375 1142.960938 C 2051.574219 1121.757812 2068.726562 1104.539062 2089.929688 1104.488281 C 2111.128906 1104.4375 2128.363281 1121.574219 2128.429688 1142.777344 M 275.59375 2539.308594 C 275.59375 2545.253906 270.777344 2550.078125 264.832031 2550.082031 C 258.886719 2550.085938 254.0625 2545.273438 254.054688 2539.328125 C 254.042969 2533.382812 258.851562 2528.554688 264.796875 2528.539062 C 270.742188 2528.523438 275.574219 2533.332031 275.59375 2539.277344 M 2061.46875 1199.011719 C 2061.46875 1229.140625 2037.054688 1253.574219 2006.921875 1253.597656 C 1976.792969 1253.621094 1952.339844 1229.226562 1952.292969 1199.097656 C 1952.242188 1168.964844 1976.617188 1144.492188 2006.75 1144.421875 C 2036.878906 1144.351562 2061.371094 1168.703125 2061.46875 1198.835938 M 1304.699219 880.816406 C 1304.699219 889.53125 1297.636719 896.597656 1288.921875 896.605469 C 1280.207031 896.613281 1273.136719 889.558594 1273.121094 880.84375 C 1273.109375 872.128906 1280.15625 865.050781 1288.871094 865.03125 C 1297.585938 865.007812 1304.671875 872.054688 1304.699219 880.769531 M 968.019531 1236.011719 C 968.019531 1241.574219 963.511719 1246.089844 957.945312 1246.09375 C 952.378906 1246.097656 947.859375 1241.59375 947.851562 1236.027344 C 947.84375 1230.460938 952.347656 1225.941406 957.910156 1225.925781 C 963.476562 1225.914062 968 1230.410156 968.019531 1235.976562 M 952.476562 1304.75 C 952.476562 1308.566406 949.382812 1311.664062 945.566406 1311.664062 C 941.75 1311.667969 938.652344 1308.578125 938.644531 1304.761719 C 938.636719 1300.945312 941.726562 1297.84375 945.542969 1297.835938 C 949.359375 1297.824219 952.464844 1300.910156 952.476562 1304.726562 M 535.3125 2617.671875 C 535.3125 2643.496094 514.390625 2664.433594 488.566406 2664.457031 C 462.742188 2664.476562 441.785156 2643.570312 441.742188 2617.746094 C 441.703125 2591.921875 462.59375 2570.945312 488.417969 2570.886719 C 514.242188 2570.824219 535.230469 2591.695312 535.3125 2617.519531 M 597.164062 955.542969 C 597.164062 961.761719 592.125 966.808594 585.90625 966.8125 C 579.683594 966.816406 574.636719 961.78125 574.625 955.5625 C 574.617188 949.339844 579.648438 944.289062 585.867188 944.273438 C 592.089844 944.257812 597.144531 949.285156 597.164062 955.507812 M 577.4375 1584.929688 C 577.4375 1594.847656 569.402344 1602.886719 559.488281 1602.894531 C 549.570312 1602.902344 541.523438 1594.875 541.507812 1584.957031 C 541.492188 1575.042969 549.511719 1566.988281 559.429688 1566.964844 C 569.347656 1566.941406 577.40625 1574.957031 577.4375 1584.871094 M 2085.253906 1495.230469 C 2085.253906 1510.40625 2072.957031 1522.710938 2057.78125 1522.722656 C 2042.605469 1522.734375 2030.292969 1510.449219 2030.269531 1495.273438 C 2030.242188 1480.097656 2042.519531 1467.773438 2057.695312 1467.738281 C 2072.871094 1467.703125 2085.203125 1479.96875 2085.253906 1495.140625 M 1941.28125 2461.21875 C 1941.28125 2474.949219 1930.15625 2486.078125 1916.429688 2486.089844 C 1902.703125 2486.101562 1891.5625 2474.988281 1891.539062 2461.257812 C 1891.515625 2447.53125 1902.621094 2436.382812 1916.351562 2436.347656 C 1930.078125 2436.316406 1941.238281 2447.414062 1941.28125 2461.140625 M 1459.484375 694.0625 C 1459.484375 714.324219 1443.070312 730.753906 1422.808594 730.769531 C 1402.550781 730.785156 1386.109375 714.382812 1386.074219 694.121094 C 1386.042969 673.863281 1402.433594 657.40625 1422.691406 657.359375 C 1442.953125 657.3125 1459.421875 673.6875 1459.484375 693.945312 M 1330.359375 2387.710938 C 1330.359375 2393.25 1325.871094 2397.746094 1320.328125 2397.75 C 1314.785156 2397.753906 1310.289062 2393.265625 1310.28125 2387.726562 C 1310.273438 2382.183594 1314.753906 2377.683594 1320.296875 2377.671875 C 1325.835938 2377.65625 1330.339844 2382.136719 1330.359375 2387.679688 M 1920.847656 1702.371094 C 1920.847656 1707.65625 1916.566406 1711.945312 1911.277344 1711.949219 C 1905.992188 1711.953125 1901.699219 1707.671875 1901.691406 1702.386719 C 1901.683594 1697.097656 1905.960938 1692.804688 1911.246094 1692.792969 C 1916.535156 1692.777344 1920.832031 1697.050781 1920.847656 1702.339844 M 1139.101562 1812.921875 C 1139.101562 1827.945312 1126.929688 1840.132812 1111.902344 1840.144531 C 1096.875 1840.15625 1084.679688 1827.988281 1084.65625 1812.964844 C 1084.632812 1797.9375 1096.789062 1785.734375 1111.816406 1785.695312 C 1126.839844 1785.660156 1139.054688 1797.808594 1139.101562 1812.832031 M 2086.257812 1319.691406 C 2086.257812 1338.710938 2070.847656 1354.132812 2051.828125 1354.148438 C 2032.808594 1354.160156 2017.375 1338.765625 2017.34375 1319.746094 C 2017.3125 1300.726562 2032.699219 1285.277344 2051.71875 1285.234375 C 2070.738281 1285.1875 2086.195312 1300.5625 2086.257812 1319.582031 M 994.800781 813.300781 C 994.800781 816.980469 991.820312 819.960938 988.140625 819.964844 C 984.460938 819.96875 981.472656 816.988281 981.46875 813.3125 C 981.460938 809.632812 984.4375 806.644531 988.117188 806.632812 C 991.796875 806.625 994.789062 809.601562 994.800781 813.277344 M 1123.09375 826.714844 C 1123.09375 836.558594 1115.117188 844.539062 1105.273438 844.546875 C 1095.429688 844.554688 1087.441406 836.585938 1087.425781 826.742188 C 1087.410156 816.898438 1095.375 808.90625 1105.21875 808.882812 C 1115.058594 808.859375 1123.0625 816.8125 1123.09375 826.65625 M 1425.863281 2288.621094 C 1425.863281 2301.390625 1415.519531 2311.742188 1402.75 2311.753906 C 1389.980469 2311.765625 1379.617188 2301.425781 1379.597656 2288.65625 C 1379.574219 2275.886719 1389.90625 2265.515625 1402.675781 2265.484375 C 1415.445312 2265.457031 1425.824219 2275.777344 1425.863281 2288.546875 M 2058.210938 1622.398438 C 2058.210938 1628.609375 2053.179688 1633.648438 2046.96875 1633.652344 C 2040.757812 1633.65625 2035.71875 1628.628906 2035.707031 1622.417969 C 2035.699219 1616.207031 2040.722656 1611.164062 2046.933594 1611.148438 C 2053.144531 1611.132812 2058.191406 1616.152344 2058.210938 1622.363281 M 1264.507812 2075.519531 C 1264.507812 2094.90625 1248.800781 2110.625 1229.417969 2110.636719 C 1210.035156 2110.652344 1194.300781 2094.960938 1194.269531 2075.574219 C 1194.242188 2056.191406 1209.921875 2040.449219 1229.304688 2040.402344 C 1248.691406 2040.355469 1264.445312 2056.023438 1264.507812 2075.40625 M 414.527344 1647.210938 C 414.527344 1652.492188 410.25 1656.773438 404.96875 1656.777344 C 399.6875 1656.78125 395.402344 1652.507812 395.394531 1647.226562 C 395.386719 1641.945312 399.660156 1637.65625 404.9375 1637.644531 C 410.21875 1637.628906 414.511719 1641.898438 414.527344 1647.179688 M 1187.214844 1649.300781 C 1187.214844 1656.316406 1181.527344 1662.007812 1174.511719 1662.011719 C 1167.492188 1662.019531 1161.796875 1656.335938 1161.785156 1649.320312 C 1161.777344 1642.304688 1167.453125 1636.605469 1174.46875 1636.585938 C 1181.488281 1636.570312 1187.191406 1642.242188 1187.214844 1649.257812 M 2185.273438 1242.25 C 2185.273438 1257.304688 2173.074219 1269.511719 2158.023438 1269.523438 C 2142.96875 1269.535156 2130.75 1257.347656 2130.726562 1242.292969 C 2130.703125 1227.238281 2142.878906 1215.011719 2157.933594 1214.976562 C 2172.988281 1214.941406 2185.226562 1227.109375 2185.273438 1242.164062 M 1973.777344 1034.078125 C 1973.777344 1044.285156 1965.507812 1052.558594 1955.304688 1052.566406 C 1945.101562 1052.574219 1936.820312 1044.3125 1936.800781 1034.109375 C 1936.785156 1023.90625 1945.042969 1015.617188 1955.246094 1015.59375 C 1965.449219 1015.566406 1973.746094 1023.816406 1973.777344 1034.019531 M 697.167969 1321.800781 C 697.167969 1344.820312 678.519531 1363.484375 655.5 1363.503906 C 632.480469 1363.519531 613.800781 1344.886719 613.765625 1321.867188 C 613.726562 1298.847656 632.347656 1280.152344 655.367188 1280.097656 C 678.386719 1280.042969 697.09375 1298.648438 697.167969 1321.667969 M 1179.664062 1824.78125 C 1179.664062 1839.414062 1167.804688 1851.28125 1153.171875 1851.292969 C 1138.535156 1851.304688 1126.660156 1839.457031 1126.636719 1824.820312 C 1126.613281 1810.1875 1138.453125 1798.300781 1153.085938 1798.265625 C 1167.722656 1798.230469 1179.617188 1810.0625 1179.664062 1824.695312 M 1140.402344 933.527344 C 1140.402344 938.648438 1136.25 942.804688 1131.128906 942.808594 C 1126.003906 942.8125 1121.84375 938.664062 1121.835938 933.539062 C 1121.828125 928.417969 1125.972656 924.253906 1131.097656 924.242188 C 1136.222656 924.230469 1140.386719 928.371094 1140.402344 933.496094 M 2291.6875 2054.058594 C 2291.6875 2057.410156 2288.972656 2060.125 2285.625 2060.128906 C 2282.277344 2060.128906 2279.558594 2057.417969 2279.554688 2054.070312 C 2279.546875 2050.722656 2282.257812 2048 2285.605469 2047.992188 C 2288.953125 2047.984375 2291.675781 2050.691406 2291.6875 2054.039062 M 1995.886719 2301.839844 C 1995.886719 2306.453125 1992.148438 2310.191406 1987.535156 2310.195312 C 1982.925781 2310.199219 1979.183594 2306.464844 1979.175781 2301.851562 C 1979.167969 2297.242188 1982.898438 2293.496094 1987.511719 2293.484375 C 1992.121094 2293.472656 1995.871094 2297.203125 1995.886719 2301.8125 M 1040.328125 649.601562 C 1040.328125 661.664062 1030.554688 671.449219 1018.488281 671.460938 C 1006.421875 671.46875 996.628906 661.699219 996.609375 649.636719 C 996.589844 637.570312 1006.351562 627.769531 1018.417969 627.742188 C 1030.484375 627.710938 1040.289062 637.464844 1040.328125 649.53125 M 1580.925781 1948.851562 C 1580.925781 1961.128906 1570.976562 1971.085938 1558.699219 1971.09375 C 1546.417969 1971.105469 1536.453125 1961.164062 1536.433594 1948.886719 C 1536.414062 1936.605469 1546.347656 1926.632812 1558.625 1926.605469 C 1570.90625 1926.574219 1580.886719 1936.5 1580.925781 1948.777344 M 1916.546875 1399.820312 C 1916.546875 1417.214844 1902.453125 1431.324219 1885.054688 1431.335938 C 1867.660156 1431.351562 1853.539062 1417.265625 1853.511719 1399.871094 C 1853.484375 1382.472656 1867.558594 1368.34375 1884.953125 1368.304688 C 1902.351562 1368.261719 1916.492188 1382.324219 1916.546875 1399.71875 M 598.761719 1224.710938 C 598.761719 1251.300781 577.21875 1272.859375 550.628906 1272.878906 C 524.039062 1272.902344 502.460938 1251.375 502.421875 1224.785156 C 502.378906 1198.199219 523.886719 1176.601562 550.476562 1176.539062 C 577.066406 1176.476562 598.675781 1197.96875 598.761719 1224.554688 M 2031.417969 1271.988281 C 2031.417969 1290.484375 2016.433594 1305.484375 1997.9375 1305.496094 C 1979.441406 1305.511719 1964.433594 1290.539062 1964.402344 1272.042969 C 1964.375 1253.546875 1979.335938 1238.527344 1997.828125 1238.484375 C 2016.324219 1238.4375 2031.359375 1253.386719 2031.417969 1271.882812 M 1519.402344 641.398438 C 1519.402344 661.167969 1503.386719 677.195312 1483.617188 677.210938 C 1463.851562 677.226562 1447.8125 661.222656 1447.78125 641.457031 C 1447.746094 621.691406 1463.738281 605.636719 1483.503906 605.589844 C 1503.269531 605.542969 1519.335938 621.519531 1519.402344 641.285156 M 1040.28125 1683.71875 C 1040.28125 1687.082031 1037.558594 1689.808594 1034.195312 1689.8125 C 1030.832031 1689.8125 1028.105469 1687.089844 1028.097656 1683.730469 C 1028.09375 1680.367188 1030.8125 1677.636719 1034.175781 1677.628906 C 1037.539062 1677.621094 1040.269531 1680.339844 1040.28125 1683.699219 M 823.714844 1223.640625 C 823.714844 1240.136719 810.351562 1253.511719 793.855469 1253.523438 C 777.359375 1253.539062 763.972656 1240.183594 763.949219 1223.6875 C 763.921875 1207.191406 777.265625 1193.796875 793.761719 1193.757812 C 810.253906 1193.714844 823.664062 1207.050781 823.714844 1223.542969 M 427.628906 1043 C 427.628906 1055.128906 417.800781 1064.964844 405.671875 1064.976562 C 393.542969 1064.984375 383.699219 1055.164062 383.679688 1043.035156 C 383.660156 1030.90625 393.472656 1021.054688 405.601562 1021.023438 C 417.730469 1020.996094 427.589844 1030.800781 427.628906 1042.929688 M 1987.546875 1492.011719 C 1987.546875 1512.011719 1971.339844 1528.230469 1951.339844 1528.246094 C 1931.339844 1528.261719 1915.105469 1512.070312 1915.074219 1492.066406 C 1915.042969 1472.066406 1931.222656 1455.824219 1951.222656 1455.773438 C 1971.222656 1455.726562 1987.480469 1471.894531 1987.546875 1491.894531 M 1249.671875 1910.769531 C 1249.671875 1938.386719 1227.296875 1960.78125 1199.679688 1960.804688 C 1172.0625 1960.824219 1149.652344 1938.464844 1149.605469 1910.851562 C 1149.5625 1883.234375 1171.902344 1860.804688 1199.519531 1860.738281 C 1227.136719 1860.671875 1249.585938 1882.992188 1249.671875 1910.609375 M 1104.984375 732.980469 C 1104.984375 745.226562 1095.0625 755.15625 1082.816406 755.164062 C 1070.574219 755.175781 1060.636719 745.261719 1060.617188 733.015625 C 1060.597656 720.773438 1070.503906 710.828125 1082.746094 710.796875 C 1094.992188 710.769531 1104.945312 720.667969 1104.984375 732.910156 M 1502.648438 2156.550781 C 1502.648438 2174.1875 1488.355469 2188.492188 1470.714844 2188.507812 C 1453.074219 2188.519531 1438.761719 2174.242188 1438.734375 2156.601562 C 1438.703125 2138.960938 1452.972656 2124.636719 1470.613281 2124.59375 C 1488.253906 2124.550781 1502.589844 2138.808594 1502.648438 2156.449219 M 530.09375 843.34375 C 530.09375 847.652344 526.601562 851.144531 522.292969 851.148438 C 517.984375 851.152344 514.488281 847.664062 514.480469 843.355469 C 514.472656 839.046875 517.960938 835.546875 522.269531 835.535156 C 526.578125 835.523438 530.078125 839.007812 530.09375 843.316406 M 686.292969 2604.160156 C 686.292969 2623.007812 671.019531 2638.292969 652.171875 2638.308594 C 633.324219 2638.324219 618.027344 2623.0625 617.996094 2604.214844 C 617.96875 2585.367188 633.214844 2570.058594 652.0625 2570.011719 C 670.910156 2569.96875 686.230469 2585.203125 686.292969 2604.050781 M 829.832031 2098.378906 C 829.832031 2101.742188 827.109375 2104.464844 823.746094 2104.46875 C 820.386719 2104.472656 817.660156 2101.75 817.65625 2098.390625 C 817.648438 2095.027344 820.367188 2092.300781 823.726562 2092.292969 C 827.089844 2092.285156 829.820312 2095 829.832031 2098.359375 M 1972.335938 2332.769531 C 1972.335938 2338.117188 1968.003906 2342.453125 1962.65625 2342.457031 C 1957.308594 2342.460938 1952.972656 2338.132812 1952.960938 2332.785156 C 1952.953125 2327.4375 1957.28125 2323.09375 1962.625 2323.082031 C 1967.972656 2323.070312 1972.320312 2327.390625 1972.335938 2332.738281 M 1383.625 1984.859375 C 1383.625 2005.542969 1366.863281 2022.316406 1346.179688 2022.332031 C 1325.496094 2022.347656 1308.710938 2005.605469 1308.675781 1984.917969 C 1308.644531 1964.234375 1325.375 1947.4375 1346.058594 1947.386719 C 1366.746094 1947.335938 1383.558594 1964.054688 1383.621094 1984.742188 M 2060.78125 1532.441406 C 2060.78125 1550.457031 2046.183594 1565.066406 2028.164062 1565.082031 C 2010.148438 1565.09375 1995.527344 1550.507812 1995.5 1532.492188 C 1995.472656 1514.476562 2010.046875 1499.84375 2028.0625 1499.800781 C 2046.078125 1499.757812 2060.722656 1514.320312 2060.78125 1532.335938 M 830.921875 2571.578125 C 830.921875 2577.941406 825.769531 2583.097656 819.410156 2583.101562 C 813.050781 2583.105469 807.890625 2577.957031 807.878906 2571.597656 C 807.871094 2565.238281 813.015625 2560.074219 819.375 2560.058594 C 825.734375 2560.042969 830.902344 2565.183594 830.921875 2571.542969 M 1118.554688 2336.210938 C 1118.554688 2344.433594 1111.894531 2351.097656 1103.671875 2351.105469 C 1095.449219 2351.113281 1088.777344 2344.457031 1088.765625 2336.234375 C 1088.75 2328.011719 1095.402344 2321.332031 1103.625 2321.3125 C 1111.847656 2321.292969 1118.53125 2327.941406 1118.554688 2336.164062 M 1954.082031 2526.980469 C 1954.082031 2543.617188 1940.601562 2557.109375 1923.964844 2557.125 C 1907.324219 2557.136719 1893.824219 2543.667969 1893.796875 2527.027344 C 1893.769531 2510.390625 1907.230469 2496.875 1923.867188 2496.835938 C 1940.507812 2496.796875 1954.03125 2510.246094 1954.082031 2526.882812 M 772.765625 2550.511719 C 772.765625 2562.421875 763.113281 2572.082031 751.203125 2572.089844 C 739.292969 2572.097656 729.625 2562.457031 729.605469 2550.542969 C 729.585938 2538.632812 739.222656 2528.957031 751.132812 2528.929688 C 763.046875 2528.902344 772.726562 2538.53125 772.765625 2550.441406 M 557.566406 1133.828125 C 557.566406 1158.921875 537.234375 1179.265625 512.144531 1179.285156 C 487.054688 1179.304688 466.691406 1158.992188 466.652344 1133.902344 C 466.613281 1108.8125 486.910156 1088.433594 512 1088.375 C 537.089844 1088.3125 557.484375 1108.59375 557.566406 1133.683594 M 672.882812 962.433594 C 672.882812 972.191406 664.976562 980.105469 655.21875 980.113281 C 645.460938 980.121094 637.539062 972.21875 637.523438 962.460938 C 637.507812 952.703125 645.402344 944.777344 655.160156 944.753906 C 664.917969 944.734375 672.851562 952.621094 672.882812 962.378906 M 1516.195312 1901.410156 C 1516.195312 1919.230469 1501.753906 1933.679688 1483.9375 1933.695312 C 1466.117188 1933.707031 1451.65625 1919.28125 1451.625 1901.460938 C 1451.597656 1883.640625 1466.011719 1869.167969 1483.832031 1869.125 C 1501.652344 1869.085938 1516.136719 1883.488281 1516.191406 1901.308594 M 1635.449219 1428.769531 C 1635.449219 1434.449219 1630.847656 1439.054688 1625.167969 1439.058594 C 1619.488281 1439.066406 1614.878906 1434.464844 1614.871094 1428.785156 C 1614.859375 1423.105469 1619.457031 1418.492188 1625.136719 1418.480469 C 1630.816406 1418.464844 1635.433594 1423.058594 1635.449219 1428.738281 M 1645.257812 1912.660156 C 1645.257812 1918.78125 1640.300781 1923.742188 1634.179688 1923.746094 C 1628.058594 1923.753906 1623.09375 1918.796875 1623.082031 1912.675781 C 1623.074219 1906.558594 1628.023438 1901.585938 1634.144531 1901.574219 C 1640.261719 1901.558594 1645.238281 1906.503906 1645.257812 1912.625 M 1453.730469 695.828125 C 1453.730469 710.765625 1441.628906 722.878906 1426.691406 722.890625 C 1411.753906 722.902344 1399.632812 710.808594 1399.609375 695.871094 C 1399.585938 680.933594 1411.667969 668.804688 1426.605469 668.769531 C 1441.542969 668.734375 1453.683594 680.804688 1453.730469 695.742188 M 2044.636719 1386.511719 C 2044.636719 1411.496094 2024.390625 1431.753906 1999.40625 1431.773438 C 1974.421875 1431.796875 1954.144531 1411.566406 1954.105469 1386.582031 C 1954.066406 1361.597656 1974.277344 1341.304688 1999.261719 1341.246094 C 2024.246094 1341.183594 2044.554688 1361.378906 2044.636719 1386.367188 M 1459.324219 752.316406 C 1459.324219 767.996094 1446.621094 780.710938 1430.941406 780.722656 C 1415.261719 780.738281 1402.539062 768.042969 1402.515625 752.363281 C 1402.488281 736.683594 1415.171875 723.949219 1430.851562 723.910156 C 1446.53125 723.875 1459.277344 736.546875 1459.324219 752.226562 M 832.816406 1532.949219 C 832.816406 1537.171875 829.394531 1540.597656 825.171875 1540.597656 C 820.949219 1540.601562 817.523438 1537.183594 817.515625 1532.960938 C 817.511719 1528.738281 820.925781 1525.3125 825.148438 1525.300781 C 829.371094 1525.289062 832.800781 1528.703125 832.816406 1532.925781 M 467.089844 2460.378906 C 467.089844 2474.078125 455.992188 2485.183594 442.292969 2485.195312 C 428.597656 2485.207031 417.480469 2474.117188 417.460938 2460.417969 C 417.4375 2446.722656 428.519531 2435.597656 442.214844 2435.566406 C 455.910156 2435.53125 467.046875 2446.605469 467.089844 2460.300781 M 1496.433594 697.328125 C 1496.433594 713.527344 1483.304688 726.667969 1467.101562 726.679688 C 1450.902344 726.691406 1437.753906 713.574219 1437.726562 697.375 C 1437.703125 681.171875 1450.808594 668.011719 1467.011719 667.972656 C 1483.210938 667.933594 1496.382812 681.03125 1496.433594 697.234375 M 1284.6875 1791.449219 C 1284.6875 1811.199219 1268.6875 1827.210938 1248.9375 1827.226562 C 1229.191406 1827.242188 1213.164062 1811.253906 1213.132812 1791.507812 C 1213.101562 1771.757812 1229.074219 1755.71875 1248.824219 1755.671875 C 1268.574219 1755.625 1284.625 1771.585938 1284.6875 1791.335938 M 1171.925781 2034.730469 C 1171.925781 2051.582031 1158.269531 2065.25 1141.414062 2065.265625 C 1124.558594 2065.277344 1110.882812 2051.632812 1110.855469 2034.777344 C 1110.828125 2017.925781 1124.464844 2004.238281 1141.316406 2004.195312 C 1158.171875 2004.15625 1171.871094 2017.777344 1171.925781 2034.632812 M 775.179688 2574.648438 C 775.179688 2586.6875 765.425781 2596.445312 753.390625 2596.457031 C 741.351562 2596.464844 731.585938 2586.722656 731.566406 2574.683594 C 731.546875 2562.648438 741.28125 2552.871094 753.320312 2552.84375 C 765.355469 2552.816406 775.140625 2562.542969 775.179688 2574.582031 M 558.785156 2591.328125 C 558.785156 2615.90625 538.871094 2635.839844 514.292969 2635.859375 C 489.714844 2635.878906 469.769531 2615.980469 469.730469 2591.402344 C 469.691406 2566.824219 489.574219 2546.859375 514.152344 2546.800781 C 538.730469 2546.742188 558.707031 2566.609375 558.785156 2591.1875 M 385.550781 2588.511719 C 385.550781 2603.824219 373.140625 2616.246094 357.824219 2616.257812 C 342.507812 2616.269531 330.078125 2603.871094 330.054688 2588.554688 C 330.03125 2573.238281 342.421875 2560.800781 357.734375 2560.761719 C 373.050781 2560.726562 385.5 2573.105469 385.550781 2588.421875 M 1432.140625 909.671875 C 1432.140625 913.753906 1428.828125 917.066406 1424.746094 917.070312 C 1420.660156 917.074219 1417.347656 913.765625 1417.339844 909.683594 C 1417.335938 905.597656 1420.636719 902.28125 1424.722656 902.273438 C 1428.804688 902.261719 1432.125 905.5625 1432.140625 909.648438 M 1950.128906 1653.78125 C 1950.128906 1660.894531 1944.367188 1666.664062 1937.25 1666.671875 C 1930.136719 1666.675781 1924.359375 1660.914062 1924.351562 1653.800781 C 1924.339844 1646.683594 1930.09375 1640.90625 1937.210938 1640.890625 C 1944.324219 1640.871094 1950.109375 1646.625 1950.128906 1653.738281 M 1298.972656 1703.96875 C 1298.972656 1711.507812 1292.867188 1717.617188 1285.332031 1717.625 C 1277.792969 1717.628906 1271.675781 1711.527344 1271.664062 1703.992188 C 1271.652344 1696.453125 1277.75 1690.332031 1285.289062 1690.316406 C 1292.824219 1690.296875 1298.949219 1696.390625 1298.972656 1703.925781 M 1005.566406 2220.5 C 1005.566406 2228.335938 999.21875 2234.6875 991.386719 2234.691406 C 983.550781 2234.699219 977.195312 2228.355469 977.179688 2220.523438 C 977.167969 2212.6875 983.507812 2206.324219 991.339844 2206.308594 C 999.175781 2206.289062 1005.542969 2212.621094 1005.566406 2220.453125 M 1621.972656 1815.179688 C 1621.972656 1819.371094 1618.578125 1822.769531 1614.386719 1822.773438 C 1610.195312 1822.777344 1606.792969 1819.382812 1606.789062 1815.191406 C 1606.78125 1811 1610.171875 1807.597656 1614.363281 1807.585938 C 1618.550781 1807.578125 1621.957031 1810.964844 1621.972656 1815.15625 M 609.152344 1225.871094 C 609.152344 1244.394531 594.144531 1259.414062 575.621094 1259.425781 C 557.097656 1259.441406 542.066406 1244.445312 542.039062 1225.921875 C 542.007812 1207.402344 556.992188 1192.355469 575.515625 1192.3125 C 594.039062 1192.269531 609.09375 1207.242188 609.152344 1225.761719 M 1193.515625 2057.261719 C 1193.515625 2082.953125 1172.699219 2103.785156 1147.007812 2103.804688 C 1121.316406 2103.828125 1100.464844 2083.027344 1100.421875 2057.335938 C 1100.382812 2031.640625 1121.167969 2010.773438 1146.859375 2010.714844 C 1172.550781 2010.652344 1193.433594 2031.417969 1193.515625 2057.113281 M 1877.828125 2362.101562 C 1877.828125 2366.070312 1874.613281 2369.285156 1870.644531 2369.289062 C 1866.675781 2369.292969 1863.457031 2366.082031 1863.449219 2362.113281 C 1863.445312 2358.144531 1866.652344 2354.917969 1870.621094 2354.910156 C 1874.589844 2354.902344 1877.816406 2358.109375 1877.828125 2362.078125 M 802.792969 976.71875 C 802.792969 981.070312 799.269531 984.601562 794.917969 984.605469 C 790.5625 984.609375 787.03125 981.085938 787.023438 976.734375 C 787.019531 972.378906 790.539062 968.84375 794.890625 968.835938 C 799.242188 968.824219 802.78125 972.34375 802.792969 976.695312 M 445.644531 2667.421875 C 445.644531 2690.242188 427.152344 2708.75 404.328125 2708.769531 C 381.503906 2708.785156 362.984375 2690.308594 362.945312 2667.484375 C 362.910156 2644.664062 381.371094 2626.125 404.195312 2626.070312 C 427.019531 2626.015625 445.570312 2644.464844 445.644531 2667.289062 M 520.527344 965.78125 C 520.527344 974.722656 513.285156 981.972656 504.34375 981.980469 C 495.402344 981.988281 488.144531 974.75 488.132812 965.808594 C 488.117188 956.867188 495.351562 949.605469 504.292969 949.585938 C 513.230469 949.5625 520.5 956.789062 520.527344 965.730469 M 1852.269531 1065.679688 C 1852.269531 1076.6875 1843.351562 1085.609375 1832.347656 1085.617188 C 1821.339844 1085.628906 1812.410156 1076.71875 1812.390625 1065.710938 C 1812.375 1054.707031 1821.277344 1045.765625 1832.28125 1045.742188 C 1843.289062 1045.714844 1852.234375 1054.609375 1852.269531 1065.617188 M 334.730469 2525.820312 C 334.730469 2532.582031 329.25 2538.066406 322.488281 2538.074219 C 315.722656 2538.078125 310.234375 2532.601562 310.222656 2525.839844 C 310.214844 2519.074219 315.683594 2513.582031 322.449219 2513.566406 C 329.210938 2513.550781 334.710938 2519.015625 334.730469 2525.78125 M 805.796875 1613.378906 C 805.796875 1617.558594 802.410156 1620.949219 798.230469 1620.953125 C 794.050781 1620.957031 790.660156 1617.574219 790.652344 1613.390625 C 790.644531 1609.210938 794.027344 1605.816406 798.207031 1605.808594 C 802.386719 1605.796875 805.785156 1609.175781 805.796875 1613.355469 M 793.644531 1066.390625 C 793.644531 1073.730469 787.699219 1079.679688 780.359375 1079.6875 C 773.023438 1079.691406 767.066406 1073.75 767.054688 1066.410156 C 767.042969 1059.070312 772.980469 1053.113281 780.316406 1053.09375 C 787.65625 1053.078125 793.621094 1059.007812 793.644531 1066.347656 M 305.066406 2495.308594 C 305.066406 2502.917969 298.902344 2509.089844 291.292969 2509.09375 C 283.683594 2509.101562 277.507812 2502.941406 277.496094 2495.332031 C 277.484375 2487.722656 283.640625 2481.542969 291.25 2481.527344 C 298.859375 2481.507812 305.042969 2487.65625 305.066406 2495.265625 M 1089.375 2119.171875 C 1089.375 2136.6875 1075.183594 2150.890625 1057.664062 2150.90625 C 1040.148438 2150.921875 1025.929688 2136.738281 1025.902344 2119.21875 C 1025.875 2101.703125 1040.046875 2087.476562 1057.5625 2087.433594 C 1075.082031 2087.390625 1089.320312 2101.550781 1089.375 2119.070312 M 2055 894.402344 C 2055 899.53125 2050.84375 903.6875 2045.71875 903.691406 C 2040.589844 903.695312 2036.429688 899.546875 2036.421875 894.417969 C 2036.410156 889.289062 2040.558594 885.125 2045.6875 885.113281 C 2050.816406 885.101562 2054.984375 889.246094 2055 894.375 M 2205.703125 1368.871094 C 2205.703125 1384.8125 2192.785156 1397.738281 2176.84375 1397.753906 C 2160.902344 1397.765625 2147.964844 1384.859375 2147.9375 1368.914062 C 2147.914062 1352.972656 2160.808594 1340.027344 2176.75 1339.988281 C 2192.691406 1339.949219 2205.652344 1352.835938 2205.703125 1368.777344 M 1994.144531 1636.320312 C 1994.144531 1645.6875 1986.550781 1653.285156 1977.183594 1653.292969 C 1967.816406 1653.300781 1960.210938 1645.714844 1960.195312 1636.347656 C 1960.179688 1626.976562 1967.761719 1619.367188 1977.128906 1619.347656 C 1986.5 1619.324219 1994.113281 1626.898438 1994.144531 1636.265625 M 976.757812 1204.351562 C 976.757812 1209.582031 972.519531 1213.820312 967.289062 1213.828125 C 962.058594 1213.832031 957.8125 1209.597656 957.804688 1204.363281 C 957.796875 1199.132812 962.027344 1194.886719 967.257812 1194.875 C 972.488281 1194.859375 976.738281 1199.089844 976.757812 1204.320312 M 1547.632812 2148.941406 C 1547.632812 2157.375 1540.796875 2164.214844 1532.363281 2164.222656 C 1523.925781 2164.226562 1517.082031 2157.398438 1517.070312 2148.964844 C 1517.054688 2140.53125 1523.878906 2133.679688 1532.3125 2133.660156 C 1540.75 2133.640625 1547.605469 2140.457031 1547.632812 2148.890625 M 1869.710938 1143.988281 C 1869.710938 1161.003906 1855.925781 1174.796875 1838.914062 1174.8125 C 1821.902344 1174.824219 1808.09375 1161.050781 1808.070312 1144.039062 C 1808.042969 1127.027344 1821.804688 1113.210938 1838.816406 1113.167969 C 1855.828125 1113.128906 1869.65625 1126.878906 1869.710938 1143.890625 M 2045.496094 1271.800781 C 2045.496094 1297.800781 2024.429688 1318.882812 1998.425781 1318.90625 C 1972.425781 1318.925781 1951.328125 1297.875 1951.285156 1271.875 C 1951.242188 1245.875 1972.277344 1224.757812 1998.277344 1224.695312 C 2024.277344 1224.632812 2045.410156 1245.648438 2045.496094 1271.648438 M 542.125 1392.269531 C 542.125 1408.964844 528.601562 1422.503906 511.90625 1422.515625 C 495.210938 1422.527344 481.660156 1409.011719 481.636719 1392.316406 C 481.609375 1375.625 495.113281 1362.0625 511.808594 1362.023438 C 528.503906 1361.984375 542.074219 1375.480469 542.125 1392.171875 M 2236.75 1108.738281 C 2236.75 1117.976562 2229.269531 1125.464844 2220.035156 1125.472656 C 2210.796875 1125.480469 2203.304688 1118.003906 2203.289062 1108.765625 C 2203.273438 1099.53125 2210.746094 1092.03125 2219.980469 1092.007812 C 2229.214844 1091.984375 2236.722656 1099.453125 2236.75 1108.6875 M 577.21875 875.160156 C 577.21875 881.226562 572.304688 886.148438 566.238281 886.152344 C 560.167969 886.15625 555.246094 881.246094 555.234375 875.175781 C 555.226562 869.109375 560.132812 864.183594 566.203125 864.167969 C 572.269531 864.152344 577.199219 869.058594 577.21875 875.125 "/>
</g>
</svg>
