<?xml version="1.0" encoding="UTF-8"?>
<svg xmlns="http://www.w3.org/2000/svg" xmlns:xlink="http://www.w3.org/1999/xlink" width="2550pt" height="3300pt" viewBox="0 0 2550 3300" version="1.1">
<g id="surface1">
<path style="fill:none;stroke-width:2;stroke-linecap:butt;stroke-linejoin:miter;stroke:rgb(0%,0%,0%);stroke-opacity:1;stroke-miterlimit:10;" d="M 271.027344 1273.371094 C 271.027344 1282.128906 263.929688 1289.230469 255.171875 1289.238281 C 246.414062 1289.246094 239.304688 1282.152344 239.292969 1273.394531 C 239.277344 1264.636719 246.363281 1257.523438 255.121094 1257.503906 C 263.878906 1257.480469 271 1264.5625 271.027344 1273.320312 M 1225.890625 2238.839844 C 1225.890625 2245.011719 1220.890625 2250.015625 1214.71875 2250.019531 C 1208.546875 2250.023438 1203.539062 2245.027344 1203.53125 2238.859375 C 1203.519531 2232.6875 1208.511719 2227.675781 1214.683594 2227.660156 C 1220.855469 2227.644531 1225.871094 2232.632812 1225.890625 2238.804688 M 971.703125 2333.441406 C 971.703125 2338.390625 967.691406 2342.40625 962.742188 2342.410156 C 957.792969 2342.414062 953.773438 2338.40625 953.765625 2333.453125 C 953.757812 2328.503906 957.761719 2324.480469 962.714844 2324.46875 C 967.664062 2324.457031 971.6875 2328.460938 971.703125 2333.410156 M 895.132812 1335.269531 C 895.132812 1339.929688 891.359375 1343.703125 886.699219 1343.707031 C 882.042969 1343.710938 878.261719 1339.941406 878.253906 1335.285156 C 878.246094 1330.625 882.015625 1326.84375 886.671875 1326.832031 C 891.332031 1326.820312 895.117188 1330.585938 895.132812 1335.242188 M 1965.617188 1993.578125 C 1965.617188 1998.511719 1961.621094 2002.511719 1956.6875 2002.515625 C 1951.753906 2002.519531 1947.75 1998.527344 1947.742188 1993.59375 C 1947.734375 1988.660156 1951.726562 1984.65625 1956.660156 1984.644531 C 1961.589844 1984.632812 1965.601562 1988.617188 1965.617188 1993.550781 M 2038.523438 2445.121094 C 2038.523438 2452.496094 2032.546875 2458.476562 2025.171875 2458.484375 C 2017.792969 2458.488281 2011.808594 2452.515625 2011.796875 2445.140625 C 2011.785156 2437.765625 2017.75 2431.773438 2025.128906 2431.757812 C 2032.503906 2431.738281 2038.5 2437.703125 2038.523438 2445.078125 M 1207.007812 1179.351562 C 1207.007812 1184.984375 1202.441406 1189.550781 1196.808594 1189.554688 C 1191.175781 1189.5625 1186.601562 1185 1186.59375 1179.367188 C 1186.585938 1173.734375 1191.140625 1169.15625 1196.777344 1169.144531 C 1202.410156 1169.128906 1206.988281 1173.683594 1207.007812 1179.316406 M 478.988281 1898.839844 C 478.988281 1906.261719 472.976562 1912.277344 465.554688 1912.28125 C 458.136719 1912.289062 452.113281 1906.28125 452.101562 1898.863281 C 452.089844 1891.441406 458.09375 1885.414062 465.511719 1885.398438 C 472.933594 1885.378906 478.964844 1891.378906 478.988281 1898.796875 M 929.460938 1780.769531 C 929.460938 1785.535156 925.601562 1789.402344 920.832031 1789.40625 C 916.066406 1789.410156 912.199219 1785.550781 912.191406 1780.785156 C 912.183594 1776.015625 916.039062 1772.144531 920.804688 1772.132812 C 925.574219 1772.125 929.449219 1775.976562 929.460938 1780.742188 M 726.355469 1718.460938 C 726.355469 1723.472656 722.292969 1727.539062 717.277344 1727.542969 C 712.265625 1727.546875 708.195312 1723.488281 708.1875 1718.472656 C 708.179688 1713.460938 712.234375 1709.386719 717.25 1709.375 C 722.265625 1709.363281 726.339844 1713.417969 726.355469 1718.429688 M 1749.359375 1275.351562 C 1749.359375 1281.734375 1744.183594 1286.914062 1737.800781 1286.917969 C 1731.414062 1286.925781 1726.230469 1281.753906 1726.222656 1275.367188 C 1726.210938 1268.984375 1731.375 1263.796875 1737.761719 1263.78125 C 1744.148438 1263.765625 1749.339844 1268.925781 1749.359375 1275.3125 M 1747.96875 1372.789062 C 1747.96875 1378.136719 1743.636719 1382.472656 1738.289062 1382.476562 C 1732.941406 1382.484375 1728.601562 1378.152344 1728.589844 1372.804688 C 1728.582031 1367.457031 1732.910156 1363.113281 1738.257812 1363.101562 C 1743.605469 1363.089844 1747.953125 1367.410156 1747.96875 1372.757812 M 1852.003906 1400.601562 C 1852.003906 1406.824219 1846.960938 1411.871094 1840.738281 1411.875 C 1834.515625 1411.878906 1829.464844 1406.839844 1829.457031 1400.617188 C 1829.445312 1394.394531 1834.480469 1389.339844 1840.703125 1389.324219 C 1846.925781 1389.308594 1851.984375 1394.339844 1852.003906 1400.5625 M 1472.570312 1986.75 C 1472.570312 1991.476562 1468.742188 1995.304688 1464.015625 1995.308594 C 1459.292969 1995.3125 1455.457031 1991.488281 1455.449219 1986.761719 C 1455.441406 1982.039062 1459.265625 1978.203125 1463.988281 1978.191406 C 1468.714844 1978.179688 1472.554688 1981.996094 1472.570312 1986.722656 M 2265.8125 817.84375 C 2265.8125 828.125 2257.484375 836.460938 2247.203125 836.46875 C 2236.925781 836.476562 2228.585938 828.152344 2228.566406 817.875 C 2228.550781 807.59375 2236.867188 799.246094 2247.144531 799.222656 C 2257.425781 799.199219 2265.78125 807.507812 2265.8125 817.785156 M 363.410156 722.265625 C 363.410156 729.710938 357.378906 735.75 349.933594 735.753906 C 342.488281 735.761719 336.449219 729.734375 336.433594 722.289062 C 336.421875 714.84375 342.445312 708.796875 349.890625 708.78125 C 357.335938 708.761719 363.386719 714.78125 363.410156 722.222656 M 661.367188 2397.5 C 661.367188 2407.488281 653.277344 2415.589844 643.285156 2415.597656 C 633.296875 2415.605469 625.191406 2407.519531 625.175781 2397.527344 C 625.160156 2387.539062 633.238281 2379.425781 643.230469 2379.402344 C 653.21875 2379.378906 661.335938 2387.453125 661.367188 2397.441406 M 1617.132812 2480.949219 C 1617.132812 2488.003906 1611.414062 2493.726562 1604.359375 2493.734375 C 1597.304688 2493.738281 1591.578125 2488.027344 1591.566406 2480.96875 C 1591.554688 2473.914062 1597.265625 2468.183594 1604.320312 2468.167969 C 1611.375 2468.152344 1617.109375 2473.855469 1617.132812 2480.910156 M 1778.683594 644.425781 C 1778.683594 655.027344 1770.097656 663.621094 1759.496094 663.628906 C 1748.894531 663.640625 1740.292969 655.054688 1740.273438 644.457031 C 1740.257812 633.855469 1748.832031 625.246094 1759.433594 625.21875 C 1770.035156 625.195312 1778.652344 633.761719 1778.683594 644.363281 M 1838.984375 911.875 C 1838.984375 918.234375 1833.835938 923.386719 1827.480469 923.390625 C 1821.121094 923.398438 1815.964844 918.25 1815.953125 911.894531 C 1815.945312 905.539062 1821.085938 900.375 1827.441406 900.359375 C 1833.800781 900.34375 1838.964844 905.484375 1838.984375 911.839844 M 788.226562 953.699219 C 788.226562 962.40625 781.171875 969.46875 772.464844 969.472656 C 763.761719 969.480469 756.695312 962.433594 756.679688 953.726562 C 756.667969 945.019531 763.710938 937.949219 772.417969 937.929688 C 781.121094 937.90625 788.199219 944.945312 788.226562 953.652344 M 1655.378906 1232.691406 C 1655.378906 1237.183594 1651.738281 1240.824219 1647.246094 1240.828125 C 1642.753906 1240.832031 1639.109375 1237.195312 1639.101562 1232.703125 C 1639.09375 1228.210938 1642.730469 1224.5625 1647.21875 1224.550781 C 1651.710938 1224.542969 1655.363281 1228.171875 1655.378906 1232.664062 M 793.230469 2658.941406 C 793.230469 2669.882812 784.363281 2678.757812 773.421875 2678.765625 C 762.476562 2678.773438 753.597656 2669.914062 753.578125 2658.972656 C 753.5625 2648.027344 762.414062 2639.140625 773.359375 2639.113281 C 784.300781 2639.085938 793.195312 2647.933594 793.230469 2658.875 M 945.976562 758.964844 C 945.976562 766.582031 939.804688 772.757812 932.1875 772.765625 C 924.570312 772.769531 918.390625 766.605469 918.375 758.988281 C 918.363281 751.371094 924.527344 745.183594 932.144531 745.164062 C 939.761719 745.148438 945.949219 751.304688 945.976562 758.921875 M 541.109375 2488.71875 C 541.109375 2497.179688 534.253906 2504.035156 525.796875 2504.042969 C 517.339844 2504.050781 510.472656 2497.203125 510.460938 2488.746094 C 510.445312 2480.285156 517.289062 2473.417969 525.746094 2473.394531 C 534.207031 2473.375 541.082031 2480.214844 541.109375 2488.671875 M 514.726562 1476.820312 C 514.726562 1484.148438 508.789062 1490.089844 501.457031 1490.097656 C 494.128906 1490.101562 488.183594 1484.167969 488.171875 1476.839844 C 488.160156 1469.511719 494.085938 1463.558594 501.417969 1463.542969 C 508.746094 1463.523438 514.703125 1469.449219 514.726562 1476.777344 M 581.671875 1391 C 581.671875 1397.964844 576.027344 1403.613281 569.058594 1403.621094 C 562.09375 1403.625 556.441406 1397.984375 556.429688 1391.019531 C 556.417969 1384.054688 562.054688 1378.398438 569.019531 1378.378906 C 575.984375 1378.363281 581.648438 1383.992188 581.671875 1390.960938 M 2048.167969 2227.890625 C 2048.167969 2235.640625 2041.890625 2241.921875 2034.140625 2241.929688 C 2026.390625 2241.933594 2020.105469 2235.660156 2020.089844 2227.914062 C 2020.078125 2220.164062 2026.347656 2213.871094 2034.097656 2213.851562 C 2041.84375 2213.832031 2048.144531 2220.097656 2048.167969 2227.84375 M 1730.109375 679.078125 C 1730.109375 686.445312 1724.140625 692.421875 1716.769531 692.425781 C 1709.402344 692.433594 1703.421875 686.46875 1703.410156 679.097656 C 1703.398438 671.730469 1709.359375 665.746094 1716.726562 665.726562 C 1724.097656 665.710938 1730.085938 671.664062 1730.109375 679.035156 M 973.015625 2638.988281 C 973.015625 2647.402344 966.199219 2654.222656 957.789062 2654.230469 C 949.378906 2654.234375 942.550781 2647.425781 942.539062 2639.015625 C 942.523438 2630.601562 949.328125 2623.769531 957.742188 2623.75 C 966.152344 2623.730469 972.988281 2630.53125 973.015625 2638.941406 M 771.199219 1487.609375 C 771.199219 1492.730469 767.054688 1496.882812 761.933594 1496.886719 C 756.8125 1496.890625 752.660156 1492.746094 752.652344 1487.625 C 752.644531 1482.503906 756.785156 1478.347656 761.902344 1478.335938 C 767.023438 1478.324219 771.183594 1482.460938 771.199219 1487.582031 M 528.007812 930.082031 C 528.007812 937.191406 522.25 942.957031 515.140625 942.960938 C 508.03125 942.96875 502.265625 937.210938 502.253906 930.101562 C 502.242188 922.996094 507.992188 917.222656 515.101562 917.203125 C 522.207031 917.1875 527.988281 922.933594 528.007812 930.042969 M 2120.78125 2151.601562 C 2120.78125 2156.886719 2116.496094 2161.175781 2111.207031 2161.179688 C 2105.917969 2161.183594 2101.628906 2156.902344 2101.621094 2151.617188 C 2101.613281 2146.328125 2105.890625 2142.03125 2111.175781 2142.019531 C 2116.464844 2142.007812 2120.761719 2146.28125 2120.78125 2151.570312 M 555.855469 1178.28125 C 555.855469 1183.398438 551.707031 1187.546875 546.589844 1187.550781 C 541.472656 1187.554688 537.320312 1183.414062 537.3125 1178.292969 C 537.304688 1173.175781 541.441406 1169.019531 546.5625 1169.007812 C 551.679688 1168.996094 555.839844 1173.132812 555.855469 1178.25 M 627.300781 2404.609375 C 627.300781 2412.609375 620.820312 2419.097656 612.820312 2419.105469 C 604.820312 2419.109375 598.324219 2412.632812 598.3125 2404.632812 C 598.300781 2396.632812 604.773438 2390.136719 612.773438 2390.117188 C 620.773438 2390.097656 627.273438 2396.5625 627.300781 2404.5625 M 1294.132812 2289.460938 C 1294.132812 2296.246094 1288.636719 2301.75 1281.851562 2301.753906 C 1275.0625 2301.757812 1269.558594 2296.265625 1269.546875 2289.480469 C 1269.535156 2282.695312 1275.023438 2277.183594 1281.8125 2277.167969 C 1288.597656 2277.148438 1294.113281 2282.636719 1294.132812 2289.421875 M 2061.710938 2664.71875 C 2061.710938 2674.164062 2054.058594 2681.824219 2044.613281 2681.832031 C 2035.167969 2681.839844 2027.503906 2674.191406 2027.488281 2664.746094 C 2027.472656 2655.300781 2035.113281 2647.632812 2044.558594 2647.609375 C 2054.003906 2647.585938 2061.679688 2655.222656 2061.710938 2664.664062 M 2048.082031 1559.738281 C 2048.082031 1567.726562 2041.609375 1574.203125 2033.621094 1574.210938 C 2025.632812 1574.214844 2019.152344 1567.75 2019.140625 1559.761719 C 2019.125 1551.777344 2025.589844 1545.289062 2033.574219 1545.269531 C 2041.5625 1545.25 2048.054688 1551.707031 2048.082031 1559.695312 M 1968.816406 808.839844 C 1968.816406 816.785156 1962.378906 823.230469 1954.429688 823.234375 C 1946.484375 823.242188 1940.039062 816.808594 1940.023438 808.863281 C 1940.011719 800.917969 1946.441406 794.464844 1954.386719 794.445312 C 1962.332031 794.425781 1968.789062 800.847656 1968.816406 808.796875 M 2304.328125 1022.691406 C 2304.328125 1030.570312 2297.941406 1036.960938 2290.0625 1036.96875 C 2282.179688 1036.976562 2275.785156 1030.59375 2275.769531 1022.710938 C 2275.757812 1014.832031 2282.132812 1008.429688 2290.015625 1008.410156 C 2297.898438 1008.390625 2304.304688 1014.761719 2304.328125 1022.644531 M 333.863281 1605.96875 C 333.863281 1614.898438 326.628906 1622.136719 317.703125 1622.144531 C 308.773438 1622.148438 301.53125 1614.921875 301.515625 1605.996094 C 301.503906 1597.070312 308.722656 1589.820312 317.648438 1589.796875 C 326.578125 1589.777344 333.832031 1596.992188 333.863281 1605.917969 M 2091.734375 696.308594 C 2091.734375 704.433594 2085.148438 711.023438 2077.023438 711.03125 C 2068.894531 711.035156 2062.300781 704.457031 2062.285156 696.332031 C 2062.273438 688.203125 2068.847656 681.601562 2076.976562 681.585938 C 2085.101562 681.566406 2091.707031 688.132812 2091.734375 696.261719 M 303.726562 1170.550781 C 303.726562 1178.601562 297.203125 1185.128906 289.152344 1185.136719 C 281.101562 1185.140625 274.566406 1178.625 274.554688 1170.574219 C 274.539062 1162.523438 281.054688 1155.984375 289.105469 1155.964844 C 297.15625 1155.945312 303.699219 1162.453125 303.726562 1170.503906 M 1234.210938 840.386719 C 1234.210938 846.171875 1229.523438 850.863281 1223.738281 850.867188 C 1217.953125 850.871094 1213.257812 846.1875 1213.25 840.402344 C 1213.238281 834.617188 1217.917969 829.917969 1223.703125 829.902344 C 1229.492188 829.890625 1234.191406 834.566406 1234.210938 840.351562 M 2019.28125 2510.339844 C 2019.28125 2519.75 2011.65625 2527.382812 2002.242188 2527.390625 C 1992.832031 2527.398438 1985.195312 2519.777344 1985.179688 2510.367188 C 1985.164062 2500.957031 1992.777344 2493.3125 2002.1875 2493.289062 C 2011.601562 2493.265625 2019.25 2500.875 2019.28125 2510.285156 M 1713.503906 1962.921875 C 1713.503906 1967.78125 1709.566406 1971.722656 1704.707031 1971.722656 C 1699.847656 1971.726562 1695.902344 1967.792969 1695.894531 1962.933594 C 1695.886719 1958.074219 1699.820312 1954.128906 1704.679688 1954.117188 C 1709.539062 1954.105469 1713.488281 1958.03125 1713.503906 1962.890625 M 982.773438 2326.320312 C 982.773438 2332.691406 977.609375 2337.855469 971.238281 2337.859375 C 964.871094 2337.867188 959.699219 2332.707031 959.691406 2326.339844 C 959.679688 2319.96875 964.832031 2314.792969 971.203125 2314.777344 C 977.574219 2314.761719 982.75 2319.914062 982.773438 2326.285156 M 1893.335938 812.007812 C 1893.335938 820.097656 1886.78125 826.65625 1878.691406 826.664062 C 1870.601562 826.667969 1864.035156 820.121094 1864.023438 812.03125 C 1864.011719 803.941406 1870.554688 797.371094 1878.644531 797.351562 C 1886.734375 797.332031 1893.308594 803.871094 1893.335938 811.960938 M 280.445312 988.253906 C 280.445312 997.863281 272.65625 1005.660156 263.046875 1005.667969 C 253.433594 1005.675781 245.636719 997.894531 245.621094 988.28125 C 245.605469 978.671875 253.378906 970.863281 262.992188 970.839844 C 272.601562 970.820312 280.414062 978.585938 280.445312 988.199219 M 1068.644531 1133.828125 C 1068.644531 1140.070312 1063.589844 1145.128906 1057.347656 1145.132812 C 1051.109375 1145.140625 1046.046875 1140.085938 1046.035156 1133.847656 C 1046.027344 1127.609375 1051.074219 1122.542969 1057.3125 1122.527344 C 1063.550781 1122.511719 1068.625 1127.554688 1068.644531 1133.792969 M 317.585938 2407.769531 C 317.585938 2417.46875 309.726562 2425.332031 300.03125 2425.339844 C 290.332031 2425.347656 282.460938 2417.496094 282.445312 2407.796875 C 282.429688 2398.101562 290.277344 2390.222656 299.972656 2390.199219 C 309.671875 2390.175781 317.554688 2398.015625 317.585938 2407.714844 M 1311.785156 2452.050781 C 1311.785156 2458.058594 1306.917969 2462.929688 1300.910156 2462.933594 C 1294.902344 2462.9375 1290.027344 2458.074219 1290.015625 2452.066406 C 1290.007812 2446.058594 1294.867188 2441.179688 1300.875 2441.167969 C 1306.882812 2441.152344 1311.765625 2446.007812 1311.785156 2452.015625 M 562.082031 700.050781 C 562.082031 707.015625 556.441406 712.660156 549.476562 712.667969 C 542.515625 712.671875 536.863281 707.035156 536.851562 700.070312 C 536.839844 693.109375 542.472656 687.453125 549.4375 687.4375 C 556.398438 687.421875 562.058594 693.050781 562.082031 700.011719 M 1830.730469 2191.941406 C 1830.730469 2197.851562 1825.941406 2202.648438 1820.027344 2202.652344 C 1814.117188 2202.65625 1809.316406 2197.871094 1809.308594 2191.957031 C 1809.300781 2186.042969 1814.082031 2181.242188 1819.996094 2181.230469 C 1825.90625 2181.214844 1830.710938 2185.992188 1830.730469 2191.90625 M 286.132812 763.324219 C 286.132812 772.394531 278.78125 779.753906 269.707031 779.761719 C 260.636719 779.765625 253.273438 772.421875 253.257812 763.351562 C 253.246094 754.277344 260.582031 746.910156 269.65625 746.886719 C 278.726562 746.867188 286.101562 754.199219 286.132812 763.273438 M 656.042969 2385.03125 C 656.042969 2391.410156 650.875 2396.582031 644.496094 2396.589844 C 638.113281 2396.59375 632.9375 2391.429688 632.925781 2385.046875 C 632.917969 2378.667969 638.078125 2373.488281 644.457031 2373.472656 C 650.835938 2373.457031 656.023438 2378.613281 656.042969 2384.992188 M 2084.878906 2010.648438 C 2084.878906 2019.171875 2077.972656 2026.082031 2069.453125 2026.085938 C 2060.929688 2026.09375 2054.015625 2019.195312 2054.003906 2010.675781 C 2053.988281 2002.152344 2060.882812 1995.234375 2069.402344 1995.210938 C 2077.925781 1995.191406 2084.851562 2002.078125 2084.878906 2010.601562 M 2304.582031 969.332031 C 2304.582031 979.632812 2296.234375 987.984375 2285.933594 987.992188 C 2275.632812 988 2267.273438 979.660156 2267.257812 969.359375 C 2267.242188 959.058594 2275.574219 950.695312 2285.875 950.667969 C 2296.175781 950.644531 2304.546875 958.972656 2304.582031 969.273438 M 2102.664062 1526.550781 C 2102.664062 1532.777344 2097.617188 1537.828125 2091.390625 1537.832031 C 2085.160156 1537.835938 2080.109375 1532.796875 2080.097656 1526.566406 C 2080.089844 1520.339844 2085.125 1515.28125 2091.351562 1515.269531 C 2097.582031 1515.253906 2102.640625 1520.285156 2102.664062 1526.515625 M 1291.246094 2453 C 1291.246094 2458.054688 1287.152344 2462.152344 1282.097656 2462.15625 C 1277.042969 2462.160156 1272.941406 2458.066406 1272.933594 2453.015625 C 1272.925781 2447.960938 1277.015625 2443.855469 1282.066406 2443.84375 C 1287.121094 2443.832031 1291.230469 2447.917969 1291.246094 2452.972656 M 1202.054688 950.941406 C 1202.054688 955.453125 1198.398438 959.113281 1193.886719 959.117188 C 1189.375 959.121094 1185.710938 955.464844 1185.703125 950.953125 C 1185.699219 946.441406 1189.347656 942.777344 1193.859375 942.765625 C 1198.371094 942.753906 1202.039062 946.402344 1202.054688 950.914062 M 1929.253906 1440.398438 C 1929.253906 1446.789062 1924.078125 1451.96875 1917.6875 1451.972656 C 1911.300781 1451.976562 1906.117188 1446.804688 1906.105469 1440.417969 C 1906.097656 1434.03125 1911.265625 1428.84375 1917.652344 1428.828125 C 1924.039062 1428.8125 1929.234375 1433.976562 1929.253906 1440.363281 M 400.6875 1959.21875 C 400.6875 1964.757812 396.203125 1969.246094 390.664062 1969.25 C 385.128906 1969.253906 380.636719 1964.773438 380.628906 1959.234375 C 380.617188 1953.699219 385.097656 1949.203125 390.632812 1949.1875 C 396.171875 1949.175781 400.671875 1953.652344 400.6875 1959.1875 M 2289.425781 1723.53125 C 2289.425781 1730.398438 2283.859375 1735.96875 2276.988281 1735.976562 C 2270.121094 1735.980469 2264.546875 1730.417969 2264.535156 1723.550781 C 2264.523438 1716.679688 2270.082031 1711.101562 2276.949219 1711.085938 C 2283.820312 1711.070312 2289.402344 1716.621094 2289.425781 1723.492188 M 599.902344 642.140625 C 599.902344 648.40625 594.824219 653.488281 588.554688 653.492188 C 582.289062 653.5 577.203125 648.425781 577.191406 642.15625 C 577.183594 635.890625 582.253906 630.800781 588.519531 630.785156 C 594.789062 630.769531 599.882812 635.835938 599.902344 642.101562 M 1759.496094 1187.628906 C 1759.496094 1192.109375 1755.867188 1195.742188 1751.386719 1195.746094 C 1746.90625 1195.75 1743.269531 1192.125 1743.261719 1187.644531 C 1743.253906 1183.164062 1746.878906 1179.523438 1751.359375 1179.511719 C 1755.839844 1179.503906 1759.484375 1183.125 1759.496094 1187.605469 M 632.769531 2312.878906 C 632.769531 2321.824219 625.519531 2329.078125 616.578125 2329.085938 C 607.632812 2329.089844 600.375 2321.851562 600.359375 2312.90625 C 600.34375 2303.960938 607.582031 2296.695312 616.523438 2296.675781 C 625.46875 2296.652344 632.738281 2303.882812 632.769531 2312.828125 M 372.285156 1372.96875 C 372.285156 1378.460938 367.839844 1382.910156 362.351562 1382.914062 C 356.859375 1382.917969 352.40625 1378.476562 352.398438 1372.984375 C 352.386719 1367.496094 356.828125 1363.039062 362.316406 1363.023438 C 367.808594 1363.011719 372.269531 1367.449219 372.285156 1372.9375 M 858.011719 2558.800781 C 858.011719 2568.386719 850.242188 2576.164062 840.65625 2576.171875 C 831.066406 2576.179688 823.285156 2568.414062 823.269531 2558.828125 C 823.257812 2549.238281 831.011719 2541.453125 840.601562 2541.429688 C 850.1875 2541.40625 857.980469 2549.15625 858.011719 2558.746094 M 548.945312 2283.640625 C 548.945312 2293.347656 541.078125 2301.222656 531.367188 2301.230469 C 521.660156 2301.238281 513.78125 2293.378906 513.765625 2283.667969 C 513.75 2273.957031 521.601562 2266.074219 531.3125 2266.050781 C 541.023438 2266.027344 548.914062 2273.875 548.945312 2283.582031 M 1683.660156 2510.25 C 1683.660156 2519.457031 1676.199219 2526.921875 1666.992188 2526.929688 C 1657.789062 2526.9375 1650.316406 2519.484375 1650.300781 2510.277344 C 1650.285156 2501.070312 1657.734375 2493.59375 1666.941406 2493.570312 C 1676.144531 2493.550781 1683.628906 2500.992188 1683.660156 2510.195312 M 1833.535156 2340.851562 C 1833.535156 2346.632812 1828.851562 2351.320312 1823.066406 2351.324219 C 1817.285156 2351.332031 1812.59375 2346.648438 1812.582031 2340.867188 C 1812.574219 2335.085938 1817.253906 2330.386719 1823.035156 2330.375 C 1828.816406 2330.359375 1833.519531 2335.035156 1833.535156 2340.816406 M 1942.546875 2546.941406 C 1942.546875 2553.324219 1937.375 2558.5 1930.988281 2558.503906 C 1924.605469 2558.511719 1919.425781 2553.34375 1919.414062 2546.957031 C 1919.40625 2540.574219 1924.570312 2535.390625 1930.953125 2535.375 C 1937.335938 2535.359375 1942.523438 2540.519531 1942.546875 2546.902344 M 2142.929688 2328.011719 C 2142.929688 2336.136719 2136.347656 2342.722656 2128.222656 2342.730469 C 2120.097656 2342.738281 2113.503906 2336.160156 2113.488281 2328.035156 C 2113.476562 2319.910156 2120.050781 2313.308594 2128.175781 2313.289062 C 2136.300781 2313.269531 2142.902344 2319.839844 2142.929688 2327.964844 M 671.109375 1373.679688 C 671.109375 1381.242188 664.984375 1387.371094 657.421875 1387.378906 C 649.863281 1387.382812 643.726562 1381.261719 643.714844 1373.703125 C 643.703125 1366.140625 649.820312 1360 657.378906 1359.984375 C 664.941406 1359.964844 671.085938 1366.074219 671.109375 1373.636719 M 289.238281 2198.359375 C 289.238281 2205.882812 283.140625 2211.984375 275.617188 2211.992188 C 268.09375 2211.996094 261.988281 2205.90625 261.976562 2198.382812 C 261.964844 2190.859375 268.050781 2184.746094 275.574219 2184.730469 C 283.097656 2184.710938 289.210938 2190.792969 289.238281 2198.316406 M 1445.007812 2423.910156 C 1445.007812 2430.691406 1439.511719 2436.191406 1432.730469 2436.199219 C 1425.945312 2436.203125 1420.441406 2430.710938 1420.429688 2423.929688 C 1420.421875 2417.148438 1425.90625 2411.636719 1432.691406 2411.621094 C 1439.472656 2411.605469 1444.988281 2417.089844 1445.007812 2423.871094 M 952.167969 663.402344 C 952.167969 669.882812 946.914062 675.140625 940.433594 675.144531 C 933.953125 675.148438 928.691406 669.902344 928.679688 663.421875 C 928.671875 656.9375 933.914062 651.675781 940.394531 651.660156 C 946.878906 651.644531 952.148438 656.882812 952.167969 663.363281 M 981.566406 2588.550781 C 981.566406 2598.667969 973.367188 2606.875 963.25 2606.882812 C 953.132812 2606.890625 944.921875 2598.699219 944.90625 2588.578125 C 944.886719 2578.460938 953.074219 2570.242188 963.191406 2570.21875 C 973.3125 2570.195312 981.535156 2578.375 981.566406 2588.492188 M 2233.710938 1709.980469 C 2233.710938 1718.460938 2226.839844 1725.335938 2218.363281 1725.34375 C 2209.882812 1725.347656 2203 1718.484375 2202.988281 1710.003906 C 2202.972656 1701.523438 2209.832031 1694.636719 2218.3125 1694.617188 C 2226.792969 1694.597656 2233.683594 1701.453125 2233.710938 1709.929688 M 945.695312 1781.390625 C 945.695312 1786.207031 941.792969 1790.109375 936.976562 1790.113281 C 932.160156 1790.117188 928.253906 1786.21875 928.246094 1781.402344 C 928.238281 1776.589844 932.132812 1772.675781 936.949219 1772.664062 C 941.765625 1772.65625 945.679688 1776.546875 945.695312 1781.363281 M 821.601562 1013.070312 C 821.601562 1021.703125 814.605469 1028.707031 805.96875 1028.714844 C 797.335938 1028.71875 790.328125 1021.730469 790.316406 1013.09375 C 790.300781 1004.460938 797.285156 997.449219 805.921875 997.425781 C 814.554688 997.40625 821.574219 1004.386719 821.601562 1013.019531 M 619.789062 1906.441406 C 619.789062 1911.449219 615.730469 1915.511719 610.71875 1915.515625 C 605.710938 1915.519531 601.644531 1911.464844 601.636719 1906.453125 C 601.628906 1901.445312 605.679688 1897.375 610.691406 1897.363281 C 615.703125 1897.351562 619.773438 1901.402344 619.789062 1906.410156 M 1364.816406 2424.96875 C 1364.816406 2430.503906 1360.332031 2434.992188 1354.796875 2434.996094 C 1349.261719 2435 1344.773438 2430.519531 1344.761719 2424.984375 C 1344.753906 2419.453125 1349.230469 2414.957031 1354.765625 2414.945312 C 1360.300781 2414.929688 1364.796875 2419.402344 1364.816406 2424.9375 M 330.949219 1508.121094 C 330.949219 1516.378906 324.257812 1523.078125 315.996094 1523.085938 C 307.734375 1523.089844 301.03125 1516.402344 301.019531 1508.144531 C 301.003906 1499.882812 307.6875 1493.175781 315.949219 1493.15625 C 324.207031 1493.136719 330.921875 1499.8125 330.949219 1508.074219 M 2004.125 1858.601562 C 2004.125 1863.289062 2000.328125 1867.09375 1995.636719 1867.097656 C 1990.945312 1867.101562 1987.140625 1863.304688 1987.132812 1858.613281 C 1987.125 1853.921875 1990.917969 1850.113281 1995.609375 1850.101562 C 2000.300781 1850.09375 2004.113281 1853.882812 2004.125 1858.574219 M 2065.210938 998.90625 C 2065.210938 1005.847656 2059.582031 1011.480469 2052.640625 1011.484375 C 2045.695312 1011.488281 2040.0625 1005.867188 2040.050781 998.925781 C 2040.039062 991.980469 2045.65625 986.34375 2052.601562 986.324219 C 2059.542969 986.308594 2065.1875 991.921875 2065.210938 998.863281 M 1465.238281 2062.621094 C 1465.238281 2068.054688 1460.835938 2072.464844 1455.398438 2072.46875 C 1449.960938 2072.472656 1445.550781 2068.070312 1445.542969 2062.636719 C 1445.53125 2057.199219 1449.929688 2052.785156 1455.367188 2052.769531 C 1460.804688 2052.757812 1465.222656 2057.152344 1465.238281 2062.589844 M 1221.882812 2178.28125 C 1221.882812 2184.25 1217.046875 2189.089844 1211.078125 2189.09375 C 1205.109375 2189.097656 1200.265625 2184.265625 1200.257812 2178.296875 C 1200.246094 2172.328125 1205.074219 2167.480469 1211.042969 2167.464844 C 1217.011719 2167.453125 1221.863281 2172.277344 1221.882812 2178.246094 M 1886.402344 2226.570312 C 1886.402344 2234.199219 1880.21875 2240.386719 1872.589844 2240.390625 C 1864.960938 2240.398438 1858.769531 2234.222656 1858.757812 2226.59375 C 1858.746094 2218.960938 1864.917969 2212.765625 1872.546875 2212.746094 C 1880.175781 2212.730469 1886.378906 2218.898438 1886.402344 2226.527344 M 1364.019531 2094.398438 C 1364.019531 2099.375 1359.992188 2103.40625 1355.015625 2103.410156 C 1350.042969 2103.414062 1346.007812 2099.386719 1346 2094.414062 C 1345.992188 2089.441406 1350.015625 2085.402344 1354.988281 2085.390625 C 1359.960938 2085.378906 1364.003906 2089.398438 1364.019531 2094.371094 M 549.378906 1213.609375 C 549.378906 1219.171875 544.871094 1223.679688 539.308594 1223.6875 C 533.75 1223.691406 529.234375 1219.1875 529.226562 1213.625 C 529.21875 1208.066406 533.714844 1203.546875 539.277344 1203.535156 C 544.839844 1203.519531 549.359375 1208.015625 549.378906 1213.578125 M 1516.765625 667.390625 C 1516.765625 672.976562 1512.242188 677.503906 1506.65625 677.507812 C 1501.074219 677.511719 1496.542969 672.992188 1496.535156 667.40625 C 1496.523438 661.824219 1501.042969 657.289062 1506.625 657.273438 C 1512.210938 657.261719 1516.75 661.773438 1516.765625 667.359375 M 2032.335938 1658.039062 C 2032.335938 1665.042969 2026.660156 1670.71875 2019.660156 1670.726562 C 2012.660156 1670.730469 2006.976562 1665.0625 2006.964844 1658.058594 C 2006.953125 1651.058594 2012.617188 1645.371094 2019.621094 1645.355469 C 2026.621094 1645.339844 2032.3125 1650.996094 2032.335938 1658 M 865.664062 934.992188 C 865.664062 942.828125 859.316406 949.179688 851.480469 949.1875 C 843.644531 949.191406 837.289062 942.851562 837.273438 935.015625 C 837.261719 927.179688 843.601562 920.816406 851.4375 920.796875 C 859.269531 920.777344 865.640625 927.113281 865.664062 934.945312 M 1622.351562 2059.769531 C 1622.351562 2064.429688 1618.578125 2068.210938 1613.917969 2068.214844 C 1609.257812 2068.21875 1605.472656 2064.445312 1605.46875 2059.785156 C 1605.460938 2055.121094 1609.230469 2051.339844 1613.890625 2051.328125 C 1618.550781 2051.316406 1622.339844 2055.082031 1622.351562 2059.742188 M 1165.730469 2548.078125 C 1165.730469 2555.605469 1159.632812 2561.703125 1152.109375 2561.710938 C 1144.585938 2561.714844 1138.480469 2555.625 1138.46875 2548.101562 C 1138.457031 2540.578125 1144.542969 2534.46875 1152.066406 2534.449219 C 1159.589844 2534.429688 1165.707031 2540.511719 1165.730469 2548.035156 M 617.597656 1080.511719 C 617.597656 1088.089844 611.457031 1094.234375 603.878906 1094.242188 C 596.300781 1094.246094 590.148438 1088.109375 590.136719 1080.53125 C 590.125 1072.953125 596.253906 1066.796875 603.835938 1066.78125 C 611.414062 1066.761719 617.574219 1072.886719 617.597656 1080.464844 M 412.265625 789.65625 C 412.265625 798.207031 405.339844 805.136719 396.792969 805.144531 C 388.242188 805.152344 381.304688 798.230469 381.289062 789.683594 C 381.277344 781.132812 388.191406 774.1875 396.742188 774.167969 C 405.292969 774.148438 412.238281 781.058594 412.265625 789.609375 M 1949.410156 1684.890625 C 1949.410156 1692.078125 1943.585938 1697.90625 1936.398438 1697.910156 C 1929.214844 1697.917969 1923.378906 1692.097656 1923.367188 1684.910156 C 1923.355469 1677.722656 1929.171875 1671.886719 1936.359375 1671.867188 C 1943.546875 1671.851562 1949.386719 1677.660156 1949.410156 1684.847656 M 2222.8125 2252.039062 C 2222.8125 2260.851562 2215.675781 2267.996094 2206.863281 2268.003906 C 2198.050781 2268.011719 2190.898438 2260.878906 2190.886719 2252.066406 C 2190.871094 2243.253906 2198 2236.097656 2206.8125 2236.078125 C 2215.625 2236.054688 2222.785156 2243.175781 2222.8125 2251.988281 M 1726.085938 716.78125 C 1726.085938 727.285156 1717.570312 735.804688 1707.066406 735.816406 C 1696.558594 735.824219 1688.03125 727.316406 1688.015625 716.808594 C 1688 706.304688 1696.496094 697.769531 1707.003906 697.746094 C 1717.511719 697.71875 1726.050781 706.210938 1726.085938 716.71875 M 1957.46875 1582.25 C 1957.46875 1587.453125 1953.253906 1591.675781 1948.046875 1591.679688 C 1942.84375 1591.683594 1938.621094 1587.46875 1938.609375 1582.265625 C 1938.601562 1577.058594 1942.8125 1572.832031 1948.015625 1572.820312 C 1953.222656 1572.808594 1957.453125 1577.015625 1957.46875 1582.21875 M 396.941406 2359.660156 C 396.941406 2366.597656 391.320312 2372.226562 384.378906 2372.230469 C 377.441406 2372.238281 371.808594 2366.617188 371.800781 2359.679688 C 371.789062 2352.742188 377.402344 2347.105469 384.339844 2347.089844 C 391.277344 2347.074219 396.917969 2352.679688 396.941406 2359.621094 M 1627.121094 1528.058594 C 1627.121094 1532.6875 1623.375 1536.4375 1618.746094 1536.441406 C 1614.121094 1536.445312 1610.367188 1532.699219 1610.359375 1528.074219 C 1610.351562 1523.445312 1614.09375 1519.6875 1618.71875 1519.679688 C 1623.347656 1519.667969 1627.105469 1523.40625 1627.121094 1528.035156 M 589.992188 2379.699219 C 589.992188 2386.402344 584.5625 2391.839844 577.859375 2391.84375 C 571.152344 2391.851562 565.714844 2386.421875 565.703125 2379.71875 C 565.691406 2373.015625 571.113281 2367.570312 577.820312 2367.554688 C 584.523438 2367.539062 589.972656 2372.957031 589.992188 2379.660156 M 1471.199219 820.125 C 1471.199219 826.480469 1466.054688 831.628906 1459.699219 831.636719 C 1453.34375 831.640625 1448.1875 826.496094 1448.179688 820.144531 C 1448.167969 813.789062 1453.308594 808.628906 1459.664062 808.613281 C 1466.015625 808.597656 1471.179688 813.734375 1471.199219 820.089844 M 1908.257812 955.015625 C 1908.257812 963.5 1901.386719 970.378906 1892.902344 970.382812 C 1884.417969 970.390625 1877.535156 963.523438 1877.523438 955.039062 C 1877.507812 946.558594 1884.371094 939.667969 1892.851562 939.648438 C 1901.335938 939.628906 1908.230469 946.484375 1908.257812 954.96875 M 2022.703125 837.445312 C 2022.703125 843.648438 2017.679688 848.675781 2011.480469 848.679688 C 2005.277344 848.683594 2000.246094 843.664062 2000.238281 837.464844 C 2000.226562 831.261719 2005.242188 826.226562 2011.441406 826.210938 C 2017.644531 826.199219 2022.683594 831.210938 2022.703125 837.410156 M 350.765625 1057.589844 C 350.765625 1067.691406 342.582031 1075.882812 332.480469 1075.890625 C 322.378906 1075.898438 314.179688 1067.722656 314.164062 1057.621094 C 314.148438 1047.515625 322.320312 1039.3125 332.421875 1039.289062 C 342.523438 1039.265625 350.734375 1047.429688 350.765625 1057.53125 M 687.832031 1757.691406 C 687.832031 1763.679688 682.976562 1768.539062 676.984375 1768.542969 C 670.996094 1768.550781 666.132812 1763.699219 666.121094 1757.707031 C 666.113281 1751.714844 670.960938 1746.851562 676.949219 1746.835938 C 682.941406 1746.820312 687.8125 1751.664062 687.832031 1757.65625 M 1496.605469 1114.78125 C 1496.605469 1121.410156 1491.230469 1126.789062 1484.597656 1126.796875 C 1477.96875 1126.800781 1472.585938 1121.429688 1472.574219 1114.800781 C 1472.5625 1108.167969 1477.929688 1102.78125 1484.5625 1102.765625 C 1491.191406 1102.75 1496.582031 1108.109375 1496.605469 1114.742188 M 1296.78125 2217.210938 C 1296.78125 2222.449219 1292.535156 2226.695312 1287.296875 2226.699219 C 1282.058594 2226.703125 1277.808594 2222.464844 1277.800781 2217.226562 C 1277.792969 2211.988281 1282.027344 2207.730469 1287.265625 2207.71875 C 1292.507812 2207.707031 1296.765625 2211.941406 1296.78125 2217.179688 M 672.433594 1578.390625 C 672.433594 1583.726562 668.109375 1588.050781 662.773438 1588.058594 C 657.4375 1588.0625 653.105469 1583.742188 653.097656 1578.40625 C 653.089844 1573.070312 657.40625 1568.734375 662.742188 1568.722656 C 668.078125 1568.710938 672.414062 1573.023438 672.433594 1578.359375 M 2023.757812 1317.121094 C 2023.757812 1325.695312 2016.808594 1332.652344 2008.230469 1332.65625 C 1999.65625 1332.664062 1992.695312 1325.722656 1992.683594 1317.144531 C 1992.667969 1308.570312 1999.605469 1301.601562 2008.183594 1301.582031 C 2016.757812 1301.5625 2023.730469 1308.496094 2023.757812 1317.070312 M 1852.535156 2285.761719 C 1852.535156 2291.777344 1847.65625 2296.660156 1841.640625 2296.664062 C 1835.621094 2296.667969 1830.734375 2291.796875 1830.726562 2285.777344 C 1830.714844 2279.757812 1835.585938 2274.871094 1841.605469 2274.855469 C 1847.621094 2274.839844 1852.515625 2279.707031 1852.535156 2285.726562 M 1438.382812 2402.410156 C 1438.382812 2408.417969 1433.515625 2413.285156 1427.507812 2413.292969 C 1421.503906 2413.296875 1416.628906 2408.433594 1416.617188 2402.425781 C 1416.609375 2396.421875 1421.46875 2391.542969 1427.472656 2391.527344 C 1433.480469 2391.515625 1438.363281 2396.371094 1438.382812 2402.375 M 301.039062 1776.328125 C 301.039062 1783.082031 295.570312 1788.554688 288.820312 1788.558594 C 282.070312 1788.566406 276.59375 1783.101562 276.582031 1776.347656 C 276.570312 1769.597656 282.03125 1764.117188 288.78125 1764.101562 C 295.53125 1764.085938 301.019531 1769.539062 301.039062 1776.292969 M 1853.554688 2458.890625 C 1853.554688 2468.011719 1846.164062 2475.40625 1837.042969 2475.414062 C 1827.921875 2475.421875 1820.519531 2468.039062 1820.503906 2458.917969 C 1820.492188 2449.796875 1827.871094 2442.386719 1836.992188 2442.367188 C 1846.113281 2442.34375 1853.527344 2449.714844 1853.554688 2458.835938 M 1058.773438 2248.378906 C 1058.773438 2253.355469 1054.742188 2257.390625 1049.765625 2257.394531 C 1044.792969 2257.398438 1040.753906 2253.371094 1040.746094 2248.394531 C 1040.738281 2243.417969 1044.761719 2239.378906 1049.738281 2239.367188 C 1054.714844 2239.355469 1058.757812 2243.375 1058.773438 2248.351562 M 992.371094 1089.140625 C 992.371094 1095.421875 987.28125 1100.515625 981 1100.523438 C 974.714844 1100.527344 969.617188 1095.441406 969.605469 1089.15625 C 969.597656 1082.875 974.679688 1077.773438 980.960938 1077.757812 C 987.246094 1077.742188 992.351562 1082.820312 992.371094 1089.105469 M 2064.675781 1676.898438 C 2064.675781 1681.78125 2060.71875 1685.742188 2055.835938 1685.746094 C 2050.953125 1685.75 2046.992188 1681.796875 2046.984375 1676.914062 C 2046.976562 1672.03125 2050.925781 1668.066406 2055.808594 1668.054688 C 2060.691406 1668.042969 2064.660156 1671.988281 2064.675781 1676.871094 M 424.726562 1159.03125 C 424.726562 1167.007812 418.261719 1173.476562 410.285156 1173.484375 C 402.308594 1173.488281 395.832031 1167.03125 395.820312 1159.054688 C 395.808594 1151.074219 402.261719 1144.597656 410.238281 1144.578125 C 418.21875 1144.558594 424.703125 1151.007812 424.726562 1158.984375 M 1778.421875 1833.890625 C 1778.421875 1838.675781 1774.542969 1842.558594 1769.757812 1842.5625 C 1764.96875 1842.566406 1761.085938 1838.691406 1761.078125 1833.902344 C 1761.070312 1829.117188 1764.941406 1825.230469 1769.730469 1825.21875 C 1774.515625 1825.207031 1778.40625 1829.074219 1778.421875 1833.863281 M 768.953125 896.179688 C 768.953125 905.839844 761.125 913.671875 751.464844 913.679688 C 741.804688 913.6875 733.96875 905.867188 733.953125 896.207031 C 733.9375 886.546875 741.75 878.703125 751.410156 878.679688 C 761.070312 878.65625 768.921875 886.464844 768.953125 896.125 M 604.488281 825.070312 C 604.488281 831.386719 599.371094 836.503906 593.058594 836.507812 C 586.746094 836.515625 581.621094 831.402344 581.609375 825.089844 C 581.601562 818.777344 586.707031 813.648438 593.023438 813.632812 C 599.335938 813.617188 604.46875 818.722656 604.488281 825.035156 M 1228.574219 754.019531 C 1228.574219 762.453125 1221.738281 769.296875 1213.300781 769.300781 C 1204.867188 769.308594 1198.019531 762.480469 1198.007812 754.042969 C 1197.992188 745.609375 1204.816406 738.757812 1213.253906 738.734375 C 1221.6875 738.714844 1228.546875 745.535156 1228.574219 753.96875 M 2300.324219 1280.929688 C 2300.324219 1291.082031 2292.097656 1299.316406 2281.945312 1299.324219 C 2271.789062 1299.332031 2263.550781 1291.113281 2263.535156 1280.960938 C 2263.519531 1270.804688 2271.730469 1262.558594 2281.886719 1262.535156 C 2292.039062 1262.511719 2300.292969 1270.71875 2300.324219 1280.871094 M 2050.34375 2166.328125 C 2050.34375 2173 2044.941406 2178.410156 2038.269531 2178.414062 C 2031.597656 2178.417969 2026.1875 2173.019531 2026.175781 2166.347656 C 2026.164062 2159.679688 2031.5625 2154.261719 2038.230469 2154.246094 C 2044.902344 2154.230469 2050.324219 2159.621094 2050.34375 2166.292969 M 746.597656 2126.261719 C 746.597656 2131.445312 742.394531 2135.652344 737.210938 2135.65625 C 732.023438 2135.660156 727.816406 2131.460938 727.808594 2126.273438 C 727.800781 2121.089844 731.992188 2116.878906 737.179688 2116.867188 C 742.363281 2116.851562 746.578125 2121.042969 746.597656 2126.230469 M 1911.578125 2552.589844 C 1911.578125 2562.183594 1903.804688 2569.960938 1894.214844 2569.96875 C 1884.621094 2569.976562 1876.835938 2562.210938 1876.820312 2552.617188 C 1876.804688 2543.023438 1884.566406 2535.234375 1894.160156 2535.210938 C 1903.75 2535.1875 1911.546875 2542.941406 1911.578125 2552.535156 M 1680.195312 2669.089844 C 1680.195312 2677.515625 1673.371094 2684.351562 1664.941406 2684.355469 C 1656.515625 2684.363281 1649.675781 2677.542969 1649.664062 2669.113281 C 1649.648438 2660.6875 1656.464844 2653.84375 1664.894531 2653.824219 C 1673.320312 2653.804688 1680.171875 2660.613281 1680.195312 2669.042969 M 1734.03125 2295.980469 C 1734.03125 2302.714844 1728.574219 2308.175781 1721.839844 2308.183594 C 1715.105469 2308.1875 1709.636719 2302.734375 1709.628906 2296 C 1709.617188 2289.265625 1715.066406 2283.792969 1721.800781 2283.777344 C 1728.535156 2283.761719 1734.011719 2289.207031 1734.03125 2295.941406 M 1722.128906 1135.941406 C 1722.128906 1141.035156 1718 1145.164062 1712.90625 1145.167969 C 1707.8125 1145.171875 1703.679688 1141.046875 1703.671875 1135.953125 C 1703.664062 1130.859375 1707.785156 1126.722656 1712.878906 1126.710938 C 1717.972656 1126.699219 1722.113281 1130.816406 1722.128906 1135.910156 M 774.175781 1632.808594 C 774.175781 1638.496094 769.570312 1643.105469 763.882812 1643.109375 C 758.199219 1643.113281 753.585938 1638.511719 753.578125 1632.828125 C 753.570312 1627.140625 758.167969 1622.527344 763.851562 1622.511719 C 769.535156 1622.5 774.15625 1627.09375 774.175781 1632.777344 M 694.988281 916.109375 C 694.988281 921.992188 690.222656 926.761719 684.339844 926.769531 C 678.457031 926.773438 673.683594 922.011719 673.671875 916.128906 C 673.664062 910.242188 678.421875 905.464844 684.304688 905.453125 C 690.1875 905.4375 694.96875 910.191406 694.988281 916.074219 M 2182.910156 1076.179688 C 2182.910156 1086.988281 2174.152344 1095.75 2163.34375 1095.761719 C 2152.539062 1095.769531 2143.765625 1087.019531 2143.75 1076.210938 C 2143.734375 1065.402344 2152.476562 1056.625 2163.285156 1056.601562 C 2174.089844 1056.574219 2182.875 1065.308594 2182.910156 1076.117188 M 1731.042969 1963.269531 C 1731.042969 1967.898438 1727.292969 1971.648438 1722.667969 1971.652344 C 1718.039062 1971.65625 1714.285156 1967.910156 1714.277344 1963.285156 C 1714.269531 1958.65625 1718.011719 1954.898438 1722.640625 1954.886719 C 1727.265625 1954.875 1731.027344 1958.617188 1731.042969 1963.242188 M 1838.253906 2011.921875 C 1838.253906 2016.761719 1834.328125 2020.6875 1829.488281 2020.691406 C 1824.644531 2020.695312 1820.714844 2016.777344 1820.707031 2011.933594 C 1820.699219 2007.09375 1824.617188 2003.160156 1829.460938 2003.148438 C 1834.300781 2003.136719 1838.238281 2007.050781 1838.253906 2011.890625 M 1720.316406 2109.398438 C 1720.316406 2114.464844 1716.210938 2118.574219 1711.148438 2118.578125 C 1706.082031 2118.582031 1701.972656 2114.480469 1701.964844 2109.414062 C 1701.957031 2104.347656 1706.054688 2100.234375 1711.117188 2100.222656 C 1716.183594 2100.210938 1720.300781 2104.304688 1720.316406 2109.371094 M 753.128906 1167.289062 C 753.128906 1173.703125 747.933594 1178.898438 741.523438 1178.90625 C 735.113281 1178.910156 729.910156 1173.71875 729.898438 1167.308594 C 729.890625 1160.898438 735.074219 1155.691406 741.488281 1155.675781 C 747.898438 1155.660156 753.109375 1160.84375 753.128906 1167.253906 M 631.113281 735.769531 C 631.113281 743.988281 624.457031 750.652344 616.238281 750.65625 C 608.023438 750.664062 601.355469 744.011719 601.339844 735.792969 C 601.328125 727.578125 607.972656 720.902344 616.191406 720.882812 C 624.410156 720.863281 631.085938 727.507812 631.113281 735.722656 M 1662.230469 1117.371094 C 1662.230469 1122.09375 1658.402344 1125.925781 1653.675781 1125.929688 C 1648.953125 1125.933594 1645.117188 1122.109375 1645.109375 1117.382812 C 1645.101562 1112.660156 1648.925781 1108.820312 1653.648438 1108.808594 C 1658.375 1108.796875 1662.214844 1112.617188 1662.230469 1117.34375 M 546.613281 2196.230469 C 546.613281 2204.65625 539.789062 2211.488281 531.359375 2211.496094 C 522.933594 2211.503906 516.097656 2204.679688 516.082031 2196.253906 C 516.070312 2187.828125 522.886719 2180.984375 531.3125 2180.964844 C 539.738281 2180.945312 546.589844 2187.753906 546.613281 2196.179688 M 1451.335938 1376.601562 C 1451.335938 1381.085938 1447.703125 1384.722656 1443.214844 1384.726562 C 1438.730469 1384.730469 1435.089844 1381.097656 1435.082031 1376.613281 C 1435.074219 1372.125 1438.703125 1368.484375 1443.191406 1368.472656 C 1447.675781 1368.460938 1451.324219 1372.089844 1451.335938 1376.574219 M 2080.609375 1348.929688 C 2080.609375 1353.777344 2076.683594 1357.707031 2071.835938 1357.710938 C 2066.992188 1357.714844 2063.058594 1353.789062 2063.050781 1348.945312 C 2063.042969 1344.097656 2066.960938 1340.160156 2071.808594 1340.148438 C 2076.65625 1340.136719 2080.59375 1344.054688 2080.609375 1348.902344 M 306.980469 1454.988281 C 306.980469 1464.628906 299.171875 1472.441406 289.535156 1472.449219 C 279.894531 1472.457031 272.074219 1464.65625 272.058594 1455.019531 C 272.042969 1445.378906 279.839844 1437.550781 289.476562 1437.53125 C 299.117188 1437.507812 306.949219 1445.296875 306.980469 1454.933594 M 709.253906 2106.550781 C 709.253906 2114.304688 702.96875 2120.59375 695.214844 2120.601562 C 687.460938 2120.605469 681.167969 2114.328125 681.152344 2106.574219 C 681.140625 2098.816406 687.414062 2092.519531 695.171875 2092.5 C 702.925781 2092.480469 709.230469 2098.75 709.253906 2106.503906 M 367.257812 964.277344 C 367.257812 970.285156 362.386719 975.160156 356.378906 975.164062 C 350.371094 975.167969 345.496094 970.304688 345.484375 964.292969 C 345.476562 958.285156 350.335938 953.40625 356.34375 953.390625 C 362.355469 953.375 367.238281 958.234375 367.257812 964.242188 M 825.058594 2033.941406 C 825.058594 2039.625 820.449219 2044.238281 814.765625 2044.242188 C 809.078125 2044.246094 804.464844 2039.640625 804.457031 2033.957031 C 804.445312 2028.269531 809.046875 2023.652344 814.730469 2023.640625 C 820.417969 2023.625 825.039062 2028.222656 825.058594 2033.90625 M 1160.367188 865.914062 C 1160.367188 873.011719 1154.617188 878.765625 1147.519531 878.769531 C 1140.425781 878.777344 1134.664062 873.03125 1134.652344 865.933594 C 1134.644531 858.839844 1140.382812 853.078125 1147.480469 853.058594 C 1154.574219 853.042969 1160.34375 858.777344 1160.367188 865.875 M 1958.730469 2282.511719 C 1958.730469 2290.332031 1952.390625 2296.671875 1944.570312 2296.679688 C 1936.75 2296.683594 1930.402344 2290.351562 1930.390625 2282.53125 C 1930.378906 2274.710938 1936.707031 2268.359375 1944.527344 2268.339844 C 1952.347656 2268.324219 1958.703125 2274.644531 1958.730469 2282.464844 M 943.496094 2575.191406 C 943.496094 2585.128906 935.441406 2593.191406 925.5 2593.199219 C 915.558594 2593.207031 907.492188 2585.160156 907.476562 2575.21875 C 907.460938 2565.277344 915.503906 2557.203125 925.441406 2557.179688 C 935.382812 2557.15625 943.464844 2565.191406 943.496094 2575.132812 M 336.632812 1978.828125 C 336.632812 1987.53125 329.582031 1994.589844 320.878906 1994.597656 C 312.175781 1994.605469 305.113281 1987.558594 305.101562 1978.855469 C 305.085938 1970.152344 312.125 1963.085938 320.828125 1963.0625 C 329.53125 1963.042969 336.605469 1970.078125 336.632812 1978.78125 M 783.195312 2401.21875 C 783.195312 2409.113281 776.800781 2415.511719 768.910156 2415.519531 C 761.015625 2415.523438 754.613281 2409.136719 754.601562 2401.242188 C 754.585938 2393.351562 760.972656 2386.941406 768.863281 2386.921875 C 776.757812 2386.902344 783.171875 2393.28125 783.195312 2401.175781 M 963.160156 2585.460938 C 963.160156 2593.058594 957.007812 2599.21875 949.410156 2599.222656 C 941.8125 2599.230469 935.648438 2593.078125 935.632812 2585.480469 C 935.621094 2577.886719 941.769531 2571.714844 949.363281 2571.695312 C 956.960938 2571.679688 963.136719 2577.820312 963.160156 2585.417969 M 1722.078125 752.425781 C 1722.078125 760.984375 1715.140625 767.925781 1706.582031 767.933594 C 1698.023438 767.941406 1691.074219 761.011719 1691.0625 752.449219 C 1691.046875 743.890625 1697.972656 736.9375 1706.53125 736.917969 C 1715.09375 736.898438 1722.050781 743.816406 1722.078125 752.375 M 1233.089844 2516.351562 C 1233.089844 2521.460938 1228.949219 2525.605469 1223.835938 2525.609375 C 1218.726562 2525.613281 1214.578125 2521.476562 1214.570312 2516.363281 C 1214.5625 2511.253906 1218.699219 2507.105469 1223.808594 2507.089844 C 1228.917969 2507.078125 1233.070312 2511.210938 1233.089844 2516.320312 M 868.648438 672.519531 C 868.648438 679.800781 862.75 685.703125 855.46875 685.710938 C 848.191406 685.714844 842.28125 679.820312 842.269531 672.542969 C 842.257812 665.261719 848.148438 659.347656 855.425781 659.332031 C 862.707031 659.316406 868.625 665.199219 868.648438 672.480469 M 2082.796875 2663.699219 C 2082.796875 2670.515625 2077.273438 2676.042969 2070.460938 2676.046875 C 2063.644531 2676.054688 2058.113281 2670.535156 2058.101562 2663.71875 C 2058.089844 2656.902344 2063.605469 2651.367188 2070.421875 2651.351562 C 2077.234375 2651.335938 2082.777344 2656.84375 2082.796875 2663.660156 M 2195.546875 1890.28125 C 2195.546875 1895.84375 2191.042969 1900.355469 2185.476562 1900.359375 C 2179.914062 1900.363281 2175.402344 1895.859375 2175.390625 1890.296875 C 2175.382812 1884.734375 2179.882812 1880.214844 2185.445312 1880.203125 C 2191.007812 1880.1875 2195.53125 1884.683594 2195.546875 1890.246094 M 1867.980469 643.148438 C 1867.980469 651.046875 1861.578125 657.449219 1853.679688 657.457031 C 1845.785156 657.464844 1839.375 651.070312 1839.359375 643.171875 C 1839.347656 635.273438 1845.738281 628.859375 1853.636719 628.839844 C 1861.535156 628.820312 1867.953125 635.203125 1867.980469 643.101562 M 1000.082031 2047.769531 C 1000.082031 2052.582031 996.183594 2056.484375 991.371094 2056.488281 C 986.558594 2056.492188 982.652344 2052.597656 982.644531 2047.785156 C 982.636719 2042.972656 986.53125 2039.0625 991.34375 2039.050781 C 996.152344 2039.039062 1000.066406 2042.929688 1000.082031 2047.742188 M 1838.761719 1538.191406 C 1838.761719 1542.660156 1835.136719 1546.289062 1830.667969 1546.289062 C 1826.195312 1546.292969 1822.566406 1542.675781 1822.558594 1538.203125 C 1822.550781 1533.730469 1826.167969 1530.101562 1830.640625 1530.089844 C 1835.113281 1530.078125 1838.746094 1533.691406 1838.761719 1538.164062 M 750.242188 1275.429688 C 750.242188 1281.117188 745.636719 1285.726562 739.953125 1285.730469 C 734.265625 1285.734375 729.652344 1281.132812 729.640625 1275.445312 C 729.632812 1269.761719 734.234375 1265.140625 739.917969 1265.128906 C 745.605469 1265.117188 750.226562 1269.710938 750.242188 1275.398438 M 2135.84375 1096.980469 C 2135.84375 1103.847656 2130.277344 1109.417969 2123.410156 1109.421875 C 2116.542969 1109.425781 2110.96875 1103.867188 2110.957031 1097 C 2110.945312 1090.132812 2116.503906 1084.554688 2123.371094 1084.539062 C 2130.238281 1084.523438 2135.820312 1090.074219 2135.84375 1096.941406 M 346.78125 2411.421875 C 346.78125 2421.757812 338.40625 2430.140625 328.070312 2430.148438 C 317.730469 2430.15625 309.34375 2421.789062 309.324219 2411.449219 C 309.308594 2401.113281 317.671875 2392.714844 328.007812 2392.691406 C 338.347656 2392.667969 346.75 2401.023438 346.78125 2411.359375 M 1255.097656 2621.011719 C 1255.097656 2628.152344 1249.3125 2633.941406 1242.171875 2633.949219 C 1235.027344 2633.953125 1229.234375 2628.171875 1229.222656 2621.03125 C 1229.210938 2613.890625 1234.988281 2608.089844 1242.128906 2608.074219 C 1249.269531 2608.054688 1255.074219 2613.828125 1255.097656 2620.96875 M 1654.542969 1281.058594 C 1654.542969 1287.035156 1649.703125 1291.878906 1643.730469 1291.882812 C 1637.753906 1291.886719 1632.90625 1287.050781 1632.898438 1281.078125 C 1632.886719 1275.105469 1637.71875 1270.253906 1643.695312 1270.238281 C 1649.667969 1270.222656 1654.523438 1275.050781 1654.542969 1281.027344 M 581.933594 1477.308594 C 581.933594 1484.285156 576.28125 1489.941406 569.308594 1489.945312 C 562.332031 1489.953125 556.671875 1484.304688 556.660156 1477.332031 C 556.652344 1470.355469 562.292969 1464.691406 569.269531 1464.675781 C 576.242188 1464.65625 581.910156 1470.296875 581.933594 1477.269531 M 473.070312 2599.378906 C 473.070312 2606.929688 466.953125 2613.046875 459.40625 2613.054688 C 451.859375 2613.058594 445.734375 2606.949219 445.722656 2599.402344 C 445.710938 2591.855469 451.816406 2585.722656 459.363281 2585.707031 C 466.910156 2585.6875 473.046875 2591.789062 473.070312 2599.335938 M 722.070312 1884.269531 C 722.070312 1889.792969 717.59375 1894.269531 712.070312 1894.277344 C 706.546875 1894.28125 702.066406 1889.808594 702.058594 1884.285156 C 702.046875 1878.761719 706.515625 1874.277344 712.039062 1874.265625 C 717.5625 1874.25 722.050781 1878.714844 722.066406 1884.238281 M 611.203125 2150.300781 C 611.203125 2156.527344 606.160156 2161.574219 599.933594 2161.578125 C 593.707031 2161.582031 588.65625 2156.542969 588.644531 2150.316406 C 588.636719 2144.09375 593.671875 2139.035156 599.898438 2139.019531 C 606.125 2139.007812 611.183594 2144.039062 611.203125 2150.265625 M 2283.882812 1095.109375 C 2283.882812 1106.308594 2274.804688 1115.390625 2263.605469 1115.402344 C 2252.40625 1115.410156 2243.316406 1106.34375 2243.296875 1095.140625 C 2243.28125 1083.941406 2252.339844 1074.84375 2263.542969 1074.820312 C 2274.742188 1074.792969 2283.847656 1083.84375 2283.882812 1095.046875 M 1711.519531 1565.78125 C 1711.519531 1570.363281 1707.808594 1574.078125 1703.226562 1574.082031 C 1698.644531 1574.082031 1694.925781 1570.375 1694.917969 1565.792969 C 1694.914062 1561.210938 1698.617188 1557.492188 1703.199219 1557.480469 C 1707.78125 1557.46875 1711.503906 1561.171875 1711.519531 1565.753906 M 1904.667969 2384.71875 C 1904.667969 2393.179688 1897.8125 2400.042969 1889.351562 2400.046875 C 1880.890625 2400.054688 1874.023438 2393.207031 1874.011719 2384.746094 C 1873.996094 2376.285156 1880.84375 2369.410156 1889.304688 2369.390625 C 1897.765625 2369.371094 1904.640625 2376.210938 1904.667969 2384.671875 M 807.335938 2488.980469 C 807.335938 2497.261719 800.625 2503.980469 792.34375 2503.984375 C 784.058594 2503.992188 777.335938 2497.285156 777.324219 2489.003906 C 777.3125 2480.722656 784.011719 2473.992188 792.292969 2473.972656 C 800.578125 2473.953125 807.308594 2480.648438 807.335938 2488.933594 M 551.308594 2207.421875 C 551.308594 2216.761719 543.738281 2224.335938 534.398438 2224.34375 C 525.058594 2224.351562 517.476562 2216.789062 517.460938 2207.445312 C 517.449219 2198.105469 525.003906 2190.519531 534.34375 2190.496094 C 543.683594 2190.476562 551.277344 2198.023438 551.308594 2207.367188 M 783.992188 1235.828125 C 783.992188 1240.648438 780.085938 1244.554688 775.269531 1244.558594 C 770.449219 1244.5625 766.539062 1240.664062 766.53125 1235.84375 C 766.523438 1231.023438 770.421875 1227.113281 775.242188 1227.101562 C 780.058594 1227.089844 783.976562 1230.984375 783.992188 1235.800781 M 387.878906 1267.621094 C 387.878906 1273.746094 382.917969 1278.714844 376.789062 1278.71875 C 370.660156 1278.726562 365.6875 1273.765625 365.679688 1267.636719 C 365.667969 1261.511719 370.625 1256.535156 376.753906 1256.519531 C 382.878906 1256.503906 387.859375 1261.457031 387.878906 1267.585938 M 300.90625 1116.261719 C 300.90625 1123.160156 295.316406 1128.753906 288.417969 1128.757812 C 281.519531 1128.765625 275.921875 1123.179688 275.910156 1116.28125 C 275.898438 1109.378906 281.480469 1103.777344 288.378906 1103.761719 C 295.277344 1103.746094 300.886719 1109.320312 300.90625 1116.21875 M 2122.492188 1882.960938 C 2122.492188 1891.140625 2115.863281 1897.777344 2107.683594 1897.785156 C 2099.5 1897.789062 2092.859375 1891.164062 2092.847656 1882.984375 C 2092.832031 1874.800781 2099.453125 1868.15625 2107.632812 1868.136719 C 2115.816406 1868.117188 2122.46875 1874.730469 2122.492188 1882.914062 M 1781.144531 2124.320312 C 1781.144531 2129.394531 1777.03125 2133.511719 1771.957031 2133.515625 C 1766.882812 2133.519531 1762.761719 2129.410156 1762.753906 2124.335938 C 1762.746094 2119.257812 1766.851562 2115.136719 1771.929688 2115.125 C 1777.003906 2115.113281 1781.128906 2119.214844 1781.144531 2124.289062 M 2285.132812 1997.808594 C 2285.132812 2008.597656 2276.394531 2017.34375 2265.605469 2017.355469 C 2254.816406 2017.363281 2246.0625 2008.628906 2246.046875 1997.839844 C 2246.027344 1987.054688 2254.753906 1978.292969 2265.542969 1978.265625 C 2276.332031 1978.242188 2285.097656 1986.960938 2285.132812 1997.746094 M 1262.507812 849.046875 C 1262.507812 856.382812 1256.566406 862.328125 1249.230469 862.335938 C 1241.894531 862.339844 1235.945312 856.402344 1235.933594 849.070312 C 1235.921875 841.734375 1241.855469 835.777344 1249.1875 835.761719 C 1256.523438 835.742188 1262.484375 841.671875 1262.507812 849.003906 M 2213.8125 2090.289062 C 2213.8125 2100.363281 2205.648438 2108.535156 2195.574219 2108.542969 C 2185.5 2108.550781 2177.324219 2100.394531 2177.308594 2090.320312 C 2177.289062 2080.242188 2185.441406 2072.0625 2195.515625 2072.035156 C 2205.589844 2072.011719 2213.78125 2080.15625 2213.8125 2090.230469 M 903.566406 1275.789062 C 903.566406 1280.617188 899.65625 1284.53125 894.828125 1284.535156 C 890.003906 1284.539062 886.085938 1280.628906 886.078125 1275.804688 C 886.070312 1270.976562 889.972656 1267.058594 894.800781 1267.046875 C 899.628906 1267.035156 903.550781 1270.933594 903.566406 1275.761719 M 716.054688 1051.101562 C 716.054688 1057.148438 711.152344 1062.054688 705.105469 1062.058594 C 699.054688 1062.0625 694.144531 1057.167969 694.136719 1051.117188 C 694.128906 1045.070312 699.019531 1040.15625 705.070312 1040.140625 C 711.117188 1040.128906 716.035156 1045.015625 716.054688 1051.066406 M 1191.511719 776.484375 C 1191.511719 785.101562 1184.53125 792.089844 1175.914062 792.09375 C 1167.292969 792.101562 1160.300781 785.125 1160.289062 776.507812 C 1160.273438 767.890625 1167.246094 760.890625 1175.863281 760.871094 C 1184.480469 760.851562 1191.484375 767.816406 1191.511719 776.433594 M 1322.546875 2612.238281 C 1322.546875 2617.882812 1317.972656 2622.460938 1312.328125 2622.464844 C 1306.683594 2622.472656 1302.101562 2617.902344 1302.09375 2612.257812 C 1302.085938 2606.613281 1306.652344 2602.027344 1312.296875 2602.015625 C 1317.941406 2602 1322.527344 2606.5625 1322.546875 2612.207031 M 2038.046875 1652.609375 C 2038.046875 1660.75 2031.453125 1667.351562 2023.3125 1667.359375 C 2015.171875 1667.363281 2008.566406 1660.773438 2008.550781 1652.632812 C 2008.539062 1644.492188 2015.125 1637.882812 2023.265625 1637.863281 C 2031.40625 1637.84375 2038.023438 1644.421875 2038.046875 1652.5625 M 427.960938 2401.730469 C 427.960938 2412.324219 419.378906 2420.914062 408.785156 2420.921875 C 398.191406 2420.929688 389.59375 2412.355469 389.578125 2401.761719 C 389.5625 2391.167969 398.128906 2382.5625 408.722656 2382.539062 C 419.316406 2382.511719 427.929688 2391.074219 427.960938 2401.667969 M 483.109375 1327.648438 C 483.109375 1335.890625 476.433594 1342.570312 468.191406 1342.578125 C 459.953125 1342.585938 453.265625 1335.914062 453.253906 1327.671875 C 453.238281 1319.433594 459.90625 1312.742188 468.144531 1312.722656 C 476.386719 1312.703125 483.082031 1319.363281 483.109375 1327.601562 M 378.585938 2264.121094 C 378.585938 2269.976562 373.84375 2274.722656 367.988281 2274.730469 C 362.132812 2274.734375 357.378906 2269.992188 357.371094 2264.136719 C 357.359375 2258.28125 362.097656 2253.523438 367.953125 2253.511719 C 373.808594 2253.496094 378.570312 2258.230469 378.585938 2264.085938 M 550.914062 2618.519531 C 550.914062 2629.90625 541.6875 2639.140625 530.296875 2639.152344 C 518.910156 2639.160156 509.667969 2629.941406 509.652344 2618.554688 C 509.632812 2607.164062 518.84375 2597.914062 530.234375 2597.886719 C 541.621094 2597.863281 550.878906 2607.066406 550.914062 2618.453125 M 678.53125 2292.421875 C 678.53125 2298.152344 673.886719 2302.800781 668.15625 2302.804688 C 662.425781 2302.808594 657.773438 2298.167969 657.761719 2292.4375 C 657.753906 2286.703125 662.390625 2282.050781 668.125 2282.035156 C 673.855469 2282.023438 678.515625 2286.65625 678.53125 2292.386719 M 823.414062 1247.5 C 823.414062 1252.570312 819.304688 1256.683594 814.230469 1256.6875 C 809.160156 1256.691406 805.046875 1252.585938 805.035156 1247.515625 C 805.027344 1242.441406 809.132812 1238.324219 814.203125 1238.3125 C 819.273438 1238.300781 823.398438 1242.398438 823.414062 1247.472656 M 2299.753906 1679.011719 C 2299.753906 1687.027344 2293.257812 1693.527344 2285.242188 1693.53125 C 2277.226562 1693.539062 2270.71875 1687.050781 2270.707031 1679.03125 C 2270.695312 1671.015625 2277.179688 1664.507812 2285.195312 1664.488281 C 2293.210938 1664.46875 2299.726562 1670.949219 2299.753906 1678.964844 M 369.410156 1363.089844 C 369.410156 1372.015625 362.179688 1379.253906 353.25 1379.261719 C 344.324219 1379.269531 337.078125 1372.042969 337.066406 1363.117188 C 337.050781 1354.1875 344.273438 1346.9375 353.199219 1346.917969 C 362.125 1346.894531 369.382812 1354.113281 369.410156 1363.039062 M 1463.625 2240.140625 C 1463.625 2245.550781 1459.242188 2249.941406 1453.828125 2249.945312 C 1448.414062 2249.949219 1444.023438 2245.566406 1444.015625 2240.15625 C 1444.003906 2234.742188 1448.382812 2230.347656 1453.796875 2230.332031 C 1459.210938 2230.320312 1463.609375 2234.695312 1463.625 2240.109375 M 405.558594 1098.171875 C 405.558594 1104.480469 400.445312 1109.597656 394.136719 1109.601562 C 387.824219 1109.609375 382.703125 1104.5 382.695312 1098.1875 C 382.683594 1091.878906 387.789062 1086.753906 394.101562 1086.738281 C 400.410156 1086.722656 405.539062 1091.824219 405.558594 1098.132812 M 315.71875 1374.421875 C 315.71875 1380.109375 311.113281 1384.71875 305.425781 1384.722656 C 299.738281 1384.730469 295.121094 1380.125 295.113281 1374.4375 C 295.101562 1368.75 299.703125 1364.128906 305.390625 1364.117188 C 311.078125 1364.101562 315.703125 1368.699219 315.71875 1374.386719 M 1619.175781 2667.261719 C 1619.175781 2675.101562 1612.820312 2681.457031 1604.980469 2681.464844 C 1597.140625 2681.472656 1590.777344 2675.125 1590.765625 2667.28125 C 1590.753906 2659.441406 1597.09375 2653.074219 1604.9375 2653.054688 C 1612.777344 2653.035156 1619.148438 2659.375 1619.175781 2667.214844 M 1178.910156 2610.109375 C 1178.910156 2618.140625 1172.402344 2624.65625 1164.371094 2624.660156 C 1156.339844 2624.667969 1149.820312 2618.164062 1149.808594 2610.132812 C 1149.796875 2602.101562 1156.292969 2595.578125 1164.324219 2595.558594 C 1172.355469 2595.539062 1178.886719 2602.03125 1178.910156 2610.0625 M 1048.625 1257.46875 C 1048.625 1261.898438 1045.035156 1265.492188 1040.605469 1265.496094 C 1036.175781 1265.5 1032.582031 1261.914062 1032.574219 1257.484375 C 1032.566406 1253.054688 1036.152344 1249.457031 1040.582031 1249.445312 C 1045.011719 1249.433594 1048.609375 1253.015625 1048.625 1257.445312 M 1756.527344 2369.839844 C 1756.527344 2374.585938 1752.683594 2378.433594 1747.9375 2378.4375 C 1743.191406 2378.441406 1739.339844 2374.601562 1739.332031 2369.855469 C 1739.324219 2365.109375 1743.164062 2361.253906 1747.910156 2361.242188 C 1752.65625 2361.230469 1756.511719 2365.066406 1756.527344 2369.8125 M 564.320312 2146.699219 C 564.320312 2154.449219 558.042969 2160.734375 550.292969 2160.738281 C 542.542969 2160.746094 536.253906 2154.472656 536.242188 2146.722656 C 536.230469 2138.972656 542.5 2132.679688 550.246094 2132.660156 C 557.996094 2132.640625 564.296875 2138.90625 564.320312 2146.65625 M 2137.882812 2004.851562 C 2137.882812 2010 2133.707031 2014.179688 2128.558594 2014.183594 C 2123.40625 2014.1875 2119.226562 2010.015625 2119.21875 2004.863281 C 2119.210938 1999.714844 2123.375 1995.53125 2128.527344 1995.519531 C 2133.679688 1995.503906 2137.867188 1999.667969 2137.882812 2004.820312 M 1267.777344 2019.269531 C 1267.777344 2023.714844 1264.179688 2027.316406 1259.738281 2027.320312 C 1255.292969 2027.324219 1251.6875 2023.726562 1251.679688 2019.28125 C 1251.671875 2014.839844 1255.269531 2011.230469 1259.710938 2011.222656 C 1264.152344 2011.210938 1267.765625 2014.800781 1267.777344 2019.246094 M 1972.046875 1122.320312 C 1972.046875 1127.546875 1967.8125 1131.78125 1962.585938 1131.785156 C 1957.363281 1131.789062 1953.121094 1127.558594 1953.113281 1122.335938 C 1953.105469 1117.109375 1957.332031 1112.867188 1962.558594 1112.851562 C 1967.78125 1112.839844 1972.03125 1117.066406 1972.046875 1122.289062 M 1314.707031 799.882812 C 1314.707031 807.222656 1308.761719 813.171875 1301.421875 813.179688 C 1294.082031 813.183594 1288.125 807.242188 1288.113281 799.902344 C 1288.101562 792.5625 1294.039062 786.601562 1301.378906 786.582031 C 1308.71875 786.566406 1314.683594 792.5 1314.707031 799.839844 M 562.488281 2622.199219 C 562.488281 2629.589844 556.496094 2635.585938 549.105469 2635.589844 C 541.714844 2635.597656 535.71875 2629.613281 535.707031 2622.222656 C 535.695312 2614.828125 541.671875 2608.828125 549.0625 2608.808594 C 556.457031 2608.792969 562.464844 2614.765625 562.488281 2622.15625 M 297.109375 2058.949219 C 297.109375 2068.480469 289.386719 2076.207031 279.859375 2076.210938 C 270.332031 2076.21875 262.597656 2068.507812 262.582031 2058.976562 C 262.566406 2049.449219 270.277344 2041.710938 279.804688 2041.6875 C 289.332031 2041.664062 297.078125 2049.367188 297.109375 2058.894531 M 719.546875 1887.078125 C 719.546875 1893.355469 714.460938 1898.441406 708.1875 1898.449219 C 701.914062 1898.453125 696.820312 1893.371094 696.8125 1887.097656 C 696.800781 1880.824219 701.878906 1875.726562 708.152344 1875.710938 C 714.425781 1875.699219 719.527344 1880.769531 719.546875 1887.042969 M 1688.390625 2401.980469 C 1688.390625 2410.652344 1681.363281 2417.683594 1672.691406 2417.691406 C 1664.019531 2417.699219 1656.984375 2410.675781 1656.96875 2402.003906 C 1656.953125 2393.332031 1663.96875 2386.289062 1672.640625 2386.269531 C 1681.316406 2386.246094 1688.363281 2393.257812 1688.390625 2401.929688 M 510.085938 1153.671875 C 510.085938 1160.523438 504.53125 1166.082031 497.675781 1166.089844 C 490.820312 1166.09375 485.257812 1160.542969 485.246094 1153.691406 C 485.238281 1146.835938 490.78125 1141.269531 497.636719 1141.25 C 504.492188 1141.234375 510.0625 1146.777344 510.085938 1153.628906 M 676.3125 2259.199219 C 676.3125 2266.117188 670.707031 2271.726562 663.785156 2271.734375 C 656.867188 2271.738281 651.253906 2266.136719 651.242188 2259.21875 C 651.230469 2252.300781 656.828125 2246.683594 663.746094 2246.667969 C 670.664062 2246.648438 676.289062 2252.242188 676.3125 2259.160156 M 1916.054688 1406.929688 C 1916.054688 1414.136719 1910.214844 1419.980469 1903.011719 1419.984375 C 1895.804688 1419.988281 1889.957031 1414.15625 1889.945312 1406.949219 C 1889.933594 1399.746094 1895.761719 1393.894531 1902.96875 1393.875 C 1910.175781 1393.859375 1916.03125 1399.683594 1916.054688 1406.886719 M 1146.765625 1015.960938 C 1146.765625 1022.582031 1141.398438 1027.949219 1134.78125 1027.953125 C 1128.160156 1027.960938 1122.785156 1022.601562 1122.773438 1015.980469 C 1122.765625 1009.359375 1128.121094 1003.980469 1134.742188 1003.964844 C 1141.363281 1003.949219 1146.742188 1009.300781 1146.765625 1015.921875 M 1757.652344 836.316406 C 1757.652344 845.214844 1750.441406 852.429688 1741.542969 852.4375 C 1732.644531 852.445312 1725.421875 845.242188 1725.410156 836.34375 C 1725.394531 827.445312 1732.59375 820.214844 1741.492188 820.195312 C 1750.390625 820.175781 1757.625 827.367188 1757.652344 836.265625 M 1479.515625 2463 C 1479.515625 2470.273438 1473.621094 2476.167969 1466.351562 2476.175781 C 1459.078125 2476.179688 1453.175781 2470.292969 1453.164062 2463.019531 C 1453.152344 2455.75 1459.035156 2449.84375 1466.308594 2449.824219 C 1473.582031 2449.808594 1479.492188 2455.6875 1479.515625 2462.957031 M 616.539062 2597.140625 C 616.539062 2607.570312 608.089844 2616.023438 597.660156 2616.035156 C 587.230469 2616.042969 578.769531 2607.597656 578.753906 2597.171875 C 578.734375 2586.742188 587.171875 2578.269531 597.601562 2578.246094 C 608.03125 2578.222656 616.507812 2586.652344 616.539062 2597.078125 M 1546.308594 896.15625 C 1546.308594 903.898438 1540.035156 910.175781 1532.292969 910.183594 C 1524.546875 910.191406 1518.265625 903.921875 1518.253906 896.179688 C 1518.238281 888.433594 1524.503906 882.148438 1532.246094 882.128906 C 1539.988281 882.109375 1546.28125 888.367188 1546.308594 896.109375 M 1680.710938 1348.191406 C 1680.710938 1354.128906 1675.898438 1358.949219 1669.957031 1358.953125 C 1664.019531 1358.957031 1659.195312 1354.148438 1659.1875 1348.207031 C 1659.179688 1342.265625 1663.984375 1337.441406 1669.925781 1337.425781 C 1675.863281 1337.414062 1680.695312 1342.214844 1680.710938 1348.15625 M 1864.847656 2394 C 1864.847656 2399.644531 1860.273438 2404.222656 1854.628906 2404.226562 C 1848.984375 2404.230469 1844.402344 2399.660156 1844.394531 2394.015625 C 1844.382812 2388.371094 1848.949219 2383.785156 1854.59375 2383.773438 C 1860.242188 2383.757812 1864.828125 2388.320312 1864.847656 2393.96875 M 1851.550781 2315.441406 C 1851.550781 2324.199219 1844.453125 2331.304688 1835.691406 2331.3125 C 1826.933594 2331.320312 1819.824219 2324.226562 1819.808594 2315.464844 C 1819.792969 2306.703125 1826.882812 2299.589844 1835.640625 2299.570312 C 1844.402344 2299.546875 1851.523438 2306.628906 1851.550781 2315.390625 M 709.75 2197.160156 C 709.75 2203.375 704.710938 2208.417969 698.496094 2208.421875 C 692.28125 2208.425781 687.234375 2203.394531 687.226562 2197.179688 C 687.214844 2190.960938 692.242188 2185.914062 698.460938 2185.898438 C 704.675781 2185.882812 709.730469 2190.90625 709.75 2197.125 M 1852.15625 805.195312 C 1852.15625 812.527344 1846.214844 818.472656 1838.878906 818.480469 C 1831.546875 818.484375 1825.597656 812.550781 1825.585938 805.214844 C 1825.574219 797.882812 1831.503906 791.925781 1838.839844 791.910156 C 1846.171875 791.890625 1852.132812 797.820312 1852.15625 805.152344 M 2122.835938 2177.96875 C 2122.835938 2184.65625 2117.417969 2190.078125 2110.730469 2190.085938 C 2104.042969 2190.089844 2098.617188 2184.675781 2098.605469 2177.988281 C 2098.59375 2171.300781 2104.003906 2165.871094 2110.691406 2165.855469 C 2117.378906 2165.839844 2122.8125 2171.246094 2122.835938 2177.929688 M 1927.617188 807.289062 C 1927.617188 816.207031 1920.390625 823.4375 1911.472656 823.445312 C 1902.554688 823.453125 1895.316406 816.230469 1895.304688 807.3125 C 1895.289062 798.394531 1902.503906 791.152344 1911.421875 791.132812 C 1920.339844 791.109375 1927.585938 798.320312 1927.617188 807.238281 M 1474.394531 2553.269531 C 1474.394531 2559.585938 1469.277344 2564.710938 1462.960938 2564.714844 C 1456.640625 2564.71875 1451.515625 2559.605469 1451.503906 2553.289062 C 1451.496094 2546.972656 1456.605469 2541.839844 1462.921875 2541.824219 C 1469.238281 2541.808594 1474.375 2546.917969 1474.394531 2553.234375 M 1773.585938 2642.058594 C 1773.585938 2652.53125 1765.105469 2661.019531 1754.636719 2661.027344 C 1744.164062 2661.035156 1735.667969 2652.558594 1735.652344 2642.089844 C 1735.636719 2631.621094 1744.105469 2623.117188 1754.574219 2623.09375 C 1765.042969 2623.066406 1773.554688 2631.53125 1773.585938 2642 M 1303.511719 2663.011719 C 1303.511719 2670.472656 1297.464844 2676.523438 1290 2676.53125 C 1282.539062 2676.535156 1276.480469 2670.492188 1276.46875 2663.03125 C 1276.457031 2655.570312 1282.496094 2649.507812 1289.957031 2649.492188 C 1297.421875 2649.472656 1303.484375 2655.503906 1303.507812 2662.96875 M 939.785156 632.484375 C 939.785156 640.640625 933.175781 647.253906 925.019531 647.261719 C 916.863281 647.269531 910.242188 640.664062 910.230469 632.507812 C 910.214844 624.351562 916.816406 617.726562 924.972656 617.707031 C 933.128906 617.6875 939.757812 624.28125 939.785156 632.4375 M 476.089844 2268.570312 C 476.089844 2277.792969 468.613281 2285.273438 459.390625 2285.28125 C 450.164062 2285.289062 442.679688 2277.820312 442.664062 2268.597656 C 442.652344 2259.371094 450.113281 2251.878906 459.335938 2251.859375 C 468.5625 2251.835938 476.058594 2259.292969 476.089844 2268.515625 M 435.824219 1413.570312 C 435.824219 1421.300781 429.5625 1427.566406 421.832031 1427.574219 C 414.101562 1427.578125 407.828125 1421.320312 407.816406 1413.59375 C 407.804688 1405.863281 414.058594 1399.585938 421.785156 1399.566406 C 429.515625 1399.546875 435.796875 1405.796875 435.824219 1413.527344 M 950.554688 2630.828125 C 950.554688 2637.832031 944.882812 2643.511719 937.878906 2643.515625 C 930.878906 2643.519531 925.195312 2637.851562 925.183594 2630.851562 C 925.171875 2623.847656 930.835938 2618.160156 937.839844 2618.144531 C 944.839844 2618.128906 950.535156 2623.789062 950.554688 2630.789062 M 2235.945312 1428.03125 C 2235.945312 1437.011719 2228.664062 1444.296875 2219.683594 1444.304688 C 2210.699219 1444.3125 2203.410156 1437.039062 2203.398438 1428.054688 C 2203.382812 1419.074219 2210.648438 1411.777344 2219.632812 1411.757812 C 2228.613281 1411.734375 2235.914062 1418.996094 2235.945312 1427.976562 M 1086.480469 2377.761719 C 1086.480469 2383.285156 1082.003906 2387.769531 1076.476562 2387.773438 C 1070.953125 2387.777344 1066.464844 2383.300781 1066.457031 2377.777344 C 1066.449219 2372.25 1070.917969 2367.761719 1076.445312 2367.746094 C 1081.972656 2367.734375 1086.464844 2372.203125 1086.480469 2377.726562 M 864.507812 1625.261719 C 864.507812 1629.820312 860.8125 1633.519531 856.25 1633.523438 C 851.6875 1633.527344 847.988281 1629.835938 847.980469 1625.273438 C 847.972656 1620.710938 851.664062 1617.007812 856.222656 1616.996094 C 860.785156 1616.984375 864.492188 1620.671875 864.507812 1625.234375 M 2213.085938 2630.558594 C 2213.085938 2637.136719 2207.757812 2642.46875 2201.179688 2642.476562 C 2194.601562 2642.480469 2189.265625 2637.15625 2189.253906 2630.578125 C 2189.242188 2624 2194.5625 2618.660156 2201.140625 2618.644531 C 2207.71875 2618.628906 2213.066406 2623.945312 2213.085938 2630.523438 M 1272.800781 1028.351562 C 1272.800781 1035.261719 1267.199219 1040.863281 1260.289062 1040.871094 C 1253.378906 1040.875 1247.769531 1035.28125 1247.757812 1028.371094 C 1247.75 1021.457031 1253.339844 1015.847656 1260.25 1015.828125 C 1267.160156 1015.8125 1272.777344 1021.398438 1272.800781 1028.308594 M 1786.210938 826 C 1786.210938 835.121094 1778.820312 842.511719 1769.703125 842.519531 C 1760.585938 842.527344 1753.183594 835.144531 1753.171875 826.027344 C 1753.15625 816.910156 1760.53125 809.503906 1769.652344 809.480469 C 1778.769531 809.460938 1786.179688 816.832031 1786.210938 825.949219 M 2292.125 2208.230469 C 2292.125 2217.511719 2284.605469 2225.035156 2275.324219 2225.042969 C 2266.042969 2225.050781 2258.511719 2217.539062 2258.496094 2208.257812 C 2258.480469 2198.976562 2265.988281 2191.4375 2275.269531 2191.414062 C 2284.550781 2191.394531 2292.09375 2198.894531 2292.125 2208.175781 M 2097.140625 1329.859375 C 2097.140625 1338.875 2089.839844 1346.183594 2080.824219 1346.191406 C 2071.808594 1346.199219 2064.492188 1338.902344 2064.476562 1329.886719 C 2064.464844 1320.871094 2071.757812 1313.550781 2080.769531 1313.527344 C 2089.785156 1313.507812 2097.113281 1320.792969 2097.140625 1329.808594 M 1184.804688 2497.121094 C 1184.804688 2504.789062 1178.589844 2511.007812 1170.921875 2511.015625 C 1163.25 2511.023438 1157.027344 2504.8125 1157.015625 2497.140625 C 1157.003906 2489.472656 1163.207031 2483.242188 1170.875 2483.222656 C 1178.546875 2483.207031 1184.78125 2489.40625 1184.804688 2497.074219 M 1374.578125 929.855469 C 1374.578125 935.667969 1369.871094 940.382812 1364.058594 940.386719 C 1358.246094 940.390625 1353.53125 935.6875 1353.519531 929.875 C 1353.511719 924.0625 1358.210938 919.339844 1364.023438 919.328125 C 1369.835938 919.3125 1374.5625 924.011719 1374.578125 929.824219 M 314.902344 744 C 314.902344 751.734375 308.632812 758.007812 300.898438 758.011719 C 293.164062 758.019531 286.886719 751.757812 286.875 744.019531 C 286.863281 736.285156 293.121094 730.003906 300.855469 729.984375 C 308.589844 729.964844 314.878906 736.21875 314.902344 743.953125 M 1939.957031 967.242188 C 1939.957031 974.460938 1934.109375 980.3125 1926.890625 980.316406 C 1919.671875 980.324219 1913.816406 974.480469 1913.804688 967.261719 C 1913.792969 960.046875 1919.632812 954.183594 1926.847656 954.167969 C 1934.066406 954.148438 1939.933594 959.984375 1939.957031 967.199219 M 1574.785156 2486.398438 C 1574.785156 2492.726562 1569.65625 2497.859375 1563.328125 2497.863281 C 1557 2497.867188 1551.867188 2492.746094 1551.855469 2486.417969 C 1551.847656 2480.089844 1556.964844 2474.953125 1563.292969 2474.9375 C 1569.621094 2474.921875 1574.761719 2480.035156 1574.785156 2486.363281 M 762.050781 1336.238281 C 762.050781 1341.472656 757.808594 1345.714844 752.578125 1345.71875 C 747.34375 1345.722656 743.097656 1341.488281 743.089844 1336.253906 C 743.082031 1331.023438 747.316406 1326.773438 752.546875 1326.761719 C 757.78125 1326.746094 762.03125 1330.976562 762.050781 1336.210938 M 1448.601562 2197.058594 C 1448.601562 2202.28125 1444.371094 2206.515625 1439.148438 2206.519531 C 1433.925781 2206.523438 1429.6875 2202.296875 1429.679688 2197.074219 C 1429.671875 2191.851562 1433.894531 2187.613281 1439.117188 2187.601562 C 1444.339844 2187.585938 1448.582031 2191.808594 1448.601562 2197.03125 M 2207.621094 1872.648438 C 2207.621094 1882.0625 2199.996094 1889.691406 2190.582031 1889.699219 C 2181.171875 1889.707031 2173.535156 1882.089844 2173.519531 1872.675781 C 2173.503906 1863.265625 2181.117188 1855.621094 2190.527344 1855.597656 C 2199.941406 1855.578125 2207.589844 1863.183594 2207.621094 1872.59375 M 582.613281 1050.46875 C 582.613281 1056.09375 578.058594 1060.652344 572.4375 1060.65625 C 566.8125 1060.660156 562.25 1056.109375 562.242188 1050.484375 C 562.234375 1044.863281 566.78125 1040.296875 572.402344 1040.285156 C 578.027344 1040.269531 582.597656 1044.816406 582.613281 1050.4375 M 654.601562 1487.699219 C 654.601562 1492.578125 650.652344 1496.53125 645.773438 1496.535156 C 640.898438 1496.539062 636.941406 1492.589844 636.933594 1487.714844 C 636.925781 1482.835938 640.867188 1478.875 645.746094 1478.863281 C 650.621094 1478.851562 654.585938 1482.796875 654.601562 1487.671875 M 1590.1875 2126.53125 C 1590.1875 2131.523438 1586.140625 2135.574219 1581.148438 2135.578125 C 1576.152344 2135.582031 1572.097656 2131.539062 1572.089844 2126.542969 C 1572.082031 2121.550781 1576.125 2117.492188 1581.117188 2117.480469 C 1586.113281 2117.46875 1590.171875 2121.507812 1590.1875 2126.5 M 1778.46875 679.96875 C 1778.46875 689.304688 1770.902344 696.878906 1761.5625 696.886719 C 1752.222656 696.894531 1744.644531 689.332031 1744.628906 679.992188 C 1744.613281 670.65625 1752.171875 663.070312 1761.507812 663.046875 C 1770.847656 663.023438 1778.441406 670.574219 1778.46875 679.914062 M 907.714844 1090.070312 C 907.714844 1095.382812 903.410156 1099.695312 898.09375 1099.699219 C 892.78125 1099.703125 888.46875 1095.398438 888.460938 1090.085938 C 888.449219 1084.769531 892.75 1080.453125 898.066406 1080.441406 C 903.378906 1080.429688 907.699219 1084.726562 907.714844 1090.039062 M 2169.121094 2286.390625 C 2169.121094 2295.238281 2161.949219 2302.414062 2153.101562 2302.417969 C 2144.253906 2302.425781 2137.074219 2295.261719 2137.0625 2286.414062 C 2137.046875 2277.566406 2144.203125 2270.382812 2153.050781 2270.359375 C 2161.898438 2270.339844 2169.089844 2277.492188 2169.117188 2286.339844 M 965.109375 2454.148438 C 965.109375 2462.019531 958.730469 2468.40625 950.859375 2468.410156 C 942.988281 2468.417969 936.597656 2462.042969 936.585938 2454.171875 C 936.574219 2446.300781 942.941406 2439.910156 950.8125 2439.890625 C 958.683594 2439.871094 965.082031 2446.234375 965.109375 2454.105469 M 1549.632812 1197.738281 C 1549.632812 1202.285156 1545.949219 1205.96875 1541.40625 1205.972656 C 1536.863281 1205.976562 1533.175781 1202.296875 1533.167969 1197.753906 C 1533.160156 1193.210938 1536.835938 1189.519531 1541.378906 1189.507812 C 1545.925781 1189.496094 1549.617188 1193.167969 1549.632812 1197.714844 M 385.667969 1659.828125 C 385.667969 1666.800781 380.019531 1672.449219 373.050781 1672.457031 C 366.082031 1672.460938 360.425781 1666.820312 360.414062 1659.851562 C 360.40625 1652.882812 366.042969 1647.222656 373.011719 1647.203125 C 379.980469 1647.1875 385.644531 1652.820312 385.667969 1659.789062 M 2226.6875 1615.550781 C 2226.6875 1623.707031 2220.078125 1630.320312 2211.921875 1630.324219 C 2203.765625 1630.332031 2197.148438 1623.730469 2197.132812 1615.574219 C 2197.121094 1607.417969 2203.71875 1600.792969 2211.875 1600.773438 C 2220.03125 1600.753906 2226.660156 1607.347656 2226.6875 1615.503906 M 903.628906 723.417969 C 903.628906 732.117188 896.582031 739.171875 887.882812 739.179688 C 879.183594 739.1875 872.125 732.144531 872.109375 723.445312 C 872.097656 714.746094 879.132812 707.679688 887.832031 707.660156 C 896.53125 707.636719 903.601562 714.667969 903.628906 723.367188 M 947.457031 2288.21875 C 947.457031 2294.59375 942.292969 2299.761719 935.917969 2299.769531 C 929.542969 2299.773438 924.371094 2294.613281 924.359375 2288.238281 C 924.351562 2281.863281 929.507812 2276.6875 935.878906 2276.671875 C 942.253906 2276.65625 947.4375 2281.808594 947.457031 2288.183594 M 1939.128906 1015.890625 C 1939.128906 1021.78125 1934.359375 1026.554688 1928.46875 1026.5625 C 1922.578125 1026.566406 1917.796875 1021.796875 1917.789062 1015.90625 C 1917.78125 1010.015625 1922.542969 1005.234375 1928.433594 1005.21875 C 1934.324219 1005.207031 1939.113281 1009.964844 1939.128906 1015.855469 M 2197.949219 2011.550781 C 2197.949219 2017.898438 2192.808594 2023.046875 2186.460938 2023.050781 C 2180.109375 2023.054688 2174.960938 2017.917969 2174.949219 2011.566406 C 2174.941406 2005.21875 2180.074219 2000.066406 2186.421875 2000.050781 C 2192.769531 2000.035156 2197.929688 2005.164062 2197.949219 2011.511719 M 1878.257812 1033.808594 C 1878.257812 1042.546875 1871.179688 1049.632812 1862.441406 1049.636719 C 1853.707031 1049.644531 1846.617188 1042.570312 1846.601562 1033.835938 C 1846.585938 1025.097656 1853.65625 1018.003906 1862.390625 1017.980469 C 1871.128906 1017.960938 1878.230469 1025.023438 1878.257812 1033.757812 M 593.703125 1372.058594 C 593.703125 1378.769531 588.269531 1384.207031 581.5625 1384.210938 C 574.851562 1384.21875 569.410156 1378.785156 569.398438 1372.078125 C 569.386719 1365.371094 574.8125 1359.925781 581.523438 1359.90625 C 588.230469 1359.890625 593.683594 1365.3125 593.703125 1372.019531 M 935.28125 1164.109375 C 935.28125 1168.824219 931.460938 1172.648438 926.746094 1172.652344 C 922.03125 1172.65625 918.203125 1168.839844 918.195312 1164.125 C 918.1875 1159.410156 922.003906 1155.578125 926.71875 1155.570312 C 931.433594 1155.558594 935.265625 1159.367188 935.28125 1164.082031 M 636.855469 1239.761719 C 636.855469 1246.640625 631.28125 1252.222656 624.398438 1252.226562 C 617.519531 1252.230469 611.933594 1246.660156 611.921875 1239.78125 C 611.914062 1232.898438 617.480469 1227.308594 624.359375 1227.292969 C 631.242188 1227.277344 636.835938 1232.839844 636.855469 1239.71875 M 796.25 1588.261719 C 796.25 1593.871094 791.703125 1598.417969 786.09375 1598.421875 C 780.484375 1598.425781 775.933594 1593.886719 775.921875 1588.277344 C 775.914062 1582.667969 780.453125 1578.109375 786.0625 1578.097656 C 791.671875 1578.085938 796.230469 1582.617188 796.25 1588.226562 M 2229.714844 1914.339844 C 2229.714844 1921.339844 2224.042969 1927.019531 2217.039062 1927.023438 C 2210.039062 1927.03125 2204.355469 1921.363281 2204.34375 1914.359375 C 2204.332031 1907.359375 2209.996094 1901.671875 2217 1901.65625 C 2224 1901.636719 2229.691406 1907.296875 2229.714844 1914.300781 M 318.503906 1104.148438 C 318.503906 1112.121094 312.046875 1118.582031 304.078125 1118.585938 C 296.105469 1118.59375 289.640625 1112.140625 289.628906 1104.171875 C 289.613281 1096.203125 296.0625 1089.730469 304.03125 1089.710938 C 312 1089.695312 318.476562 1096.136719 318.503906 1104.105469 M 1732.289062 2497.730469 C 1732.289062 2506.378906 1725.28125 2513.390625 1716.632812 2513.398438 C 1707.984375 2513.402344 1700.964844 2506.402344 1700.953125 2497.753906 C 1700.9375 2489.105469 1707.933594 2482.082031 1716.582031 2482.0625 C 1725.230469 2482.042969 1732.257812 2489.03125 1732.289062 2497.679688 M 1817.53125 1216.558594 C 1817.53125 1222.519531 1812.699219 1227.355469 1806.738281 1227.359375 C 1800.777344 1227.363281 1795.941406 1222.539062 1795.929688 1216.578125 C 1795.921875 1210.617188 1800.742188 1205.773438 1806.703125 1205.761719 C 1812.664062 1205.746094 1817.511719 1210.5625 1817.53125 1216.527344 M 1781.371094 1288.300781 C 1781.371094 1293.660156 1777.027344 1298.007812 1771.667969 1298.011719 C 1766.308594 1298.015625 1761.957031 1293.675781 1761.949219 1288.316406 C 1761.9375 1282.953125 1766.277344 1278.601562 1771.636719 1278.585938 C 1776.996094 1278.574219 1781.355469 1282.90625 1781.371094 1288.269531 M 1386.75 2075.078125 C 1386.75 2079.535156 1383.140625 2083.148438 1378.6875 2083.152344 C 1374.230469 2083.15625 1370.617188 2079.546875 1370.609375 2075.09375 C 1370.601562 2070.636719 1374.207031 2067.019531 1378.660156 2067.007812 C 1383.117188 2066.996094 1386.738281 2070.597656 1386.75 2075.054688 M 1822.996094 1853.179688 C 1822.996094 1858.050781 1819.050781 1862.003906 1814.175781 1862.007812 C 1809.304688 1862.011719 1805.351562 1858.066406 1805.34375 1853.195312 C 1805.335938 1848.320312 1809.277344 1844.367188 1814.148438 1844.355469 C 1819.019531 1844.34375 1822.980469 1848.28125 1822.996094 1853.152344 M 1888.058594 1499.519531 C 1888.058594 1505.8125 1882.960938 1510.914062 1876.667969 1510.917969 C 1870.375 1510.925781 1865.269531 1505.832031 1865.261719 1499.539062 C 1865.25 1493.246094 1870.339844 1488.136719 1876.632812 1488.121094 C 1882.925781 1488.105469 1888.039062 1493.191406 1888.058594 1499.484375 M 2150.058594 2613.789062 C 2150.058594 2626.109375 2140.074219 2636.097656 2127.757812 2636.105469 C 2115.441406 2636.117188 2105.441406 2626.144531 2105.421875 2613.824219 C 2105.402344 2601.507812 2115.367188 2591.503906 2127.6875 2591.472656 C 2140.003906 2591.445312 2150.015625 2601.402344 2150.058594 2613.71875 M 2193.457031 1303.269531 C 2193.457031 1312.988281 2185.582031 1320.871094 2175.863281 1320.878906 C 2166.144531 1320.886719 2158.257812 1313.015625 2158.242188 1303.296875 C 2158.226562 1293.578125 2166.089844 1285.683594 2175.808594 1285.660156 C 2185.527344 1285.640625 2193.425781 1293.496094 2193.457031 1303.214844 M 2050.453125 2044.53125 C 2050.453125 2053.542969 2043.148438 2060.855469 2034.132812 2060.863281 C 2025.117188 2060.867188 2017.804688 2053.570312 2017.789062 2044.554688 C 2017.773438 2035.542969 2025.066406 2028.21875 2034.082031 2028.199219 C 2043.09375 2028.175781 2050.421875 2035.464844 2050.453125 2044.476562 M 967.40625 2437.320312 C 967.40625 2442.039062 963.582031 2445.867188 958.863281 2445.867188 C 954.144531 2445.871094 950.316406 2442.050781 950.308594 2437.332031 C 950.300781 2432.613281 954.117188 2428.78125 958.835938 2428.769531 C 963.554688 2428.757812 967.390625 2432.574219 967.40625 2437.292969 M 1933.625 2107.828125 C 1933.625 2114.199219 1928.46875 2119.359375 1922.097656 2119.367188 C 1915.730469 2119.371094 1910.5625 2114.214844 1910.554688 2107.847656 C 1910.542969 2101.480469 1915.695312 2096.308594 1922.0625 2096.292969 C 1928.429688 2096.277344 1933.605469 2101.425781 1933.625 2107.792969 M 816.511719 1883.300781 C 816.511719 1888.226562 812.519531 1892.222656 807.59375 1892.226562 C 802.667969 1892.230469 798.667969 1888.242188 798.660156 1883.3125 C 798.652344 1878.386719 802.640625 1874.386719 807.566406 1874.375 C 812.492188 1874.363281 816.496094 1878.34375 816.511719 1883.273438 M 628.964844 772.960938 C 628.964844 783.339844 620.554688 791.757812 610.175781 791.765625 C 599.796875 791.773438 591.375 783.371094 591.359375 772.992188 C 591.339844 762.613281 599.738281 754.183594 610.117188 754.160156 C 620.496094 754.132812 628.929688 762.523438 628.964844 772.902344 M 773.570312 667.816406 C 773.570312 676.75 766.332031 683.992188 757.398438 684 C 748.464844 684.007812 741.214844 676.773438 741.203125 667.839844 C 741.1875 658.910156 748.414062 651.652344 757.347656 651.632812 C 766.28125 651.609375 773.542969 658.832031 773.570312 667.765625 M 369.78125 1169.671875 C 369.78125 1176.0625 364.605469 1181.246094 358.210938 1181.25 C 351.820312 1181.253906 346.632812 1176.078125 346.625 1169.6875 C 346.613281 1163.296875 351.785156 1158.105469 358.175781 1158.089844 C 364.566406 1158.074219 369.761719 1163.242188 369.78125 1169.632812 M 334.683594 2035.648438 C 334.683594 2045.214844 326.929688 2052.972656 317.363281 2052.980469 C 307.796875 2052.988281 300.035156 2045.242188 300.019531 2035.675781 C 300.003906 2026.113281 307.742188 2018.34375 317.308594 2018.320312 C 326.875 2018.296875 334.652344 2026.027344 334.683594 2035.59375 M 2037.648438 2496.46875 C 2037.648438 2504.097656 2031.46875 2510.28125 2023.839844 2510.289062 C 2016.214844 2510.296875 2010.023438 2504.121094 2010.011719 2496.492188 C 2010 2488.863281 2016.167969 2482.667969 2023.796875 2482.652344 C 2031.425781 2482.632812 2037.625 2488.796875 2037.648438 2496.425781 M 1249.816406 654.820312 C 1249.816406 662.589844 1243.523438 668.890625 1235.75 668.898438 C 1227.980469 668.902344 1221.675781 662.613281 1221.664062 654.84375 C 1221.648438 647.070312 1227.9375 640.761719 1235.707031 640.742188 C 1243.476562 640.722656 1249.792969 647.003906 1249.816406 654.773438 M 733.992188 743.472656 C 733.992188 753.875 725.566406 762.308594 715.164062 762.316406 C 704.765625 762.324219 696.324219 753.90625 696.308594 743.503906 C 696.292969 733.101562 704.707031 724.65625 715.105469 724.632812 C 725.507812 724.605469 733.960938 733.011719 733.992188 743.414062 M 1619.738281 2281.769531 C 1619.738281 2287.792969 1614.859375 2292.675781 1608.839844 2292.679688 C 1602.816406 2292.683594 1597.929688 2287.808594 1597.921875 2281.789062 C 1597.910156 2275.765625 1602.78125 2270.875 1608.804688 2270.859375 C 1614.824219 2270.847656 1619.71875 2275.714844 1619.738281 2281.734375 M 1435.269531 2508.648438 C 1435.269531 2516.554688 1428.867188 2522.964844 1420.960938 2522.96875 C 1413.058594 2522.976562 1406.644531 2516.578125 1406.628906 2508.671875 C 1406.617188 2500.769531 1413.011719 2494.347656 1420.914062 2494.332031 C 1428.820312 2494.3125 1435.246094 2500.699219 1435.269531 2508.605469 M 2032.785156 2248.988281 C 2032.785156 2256.152344 2026.980469 2261.957031 2019.820312 2261.964844 C 2012.660156 2261.96875 2006.847656 2256.171875 2006.835938 2249.011719 C 2006.824219 2241.847656 2012.617188 2236.035156 2019.777344 2236.015625 C 2026.941406 2236 2032.761719 2241.789062 2032.785156 2248.949219 M 1027.945312 2662.640625 C 1027.945312 2669.953125 1022.023438 2675.878906 1014.710938 2675.886719 C 1007.398438 2675.890625 1001.464844 2669.972656 1001.453125 2662.660156 C 1001.441406 2655.347656 1007.355469 2649.410156 1014.667969 2649.394531 C 1021.980469 2649.375 1027.921875 2655.285156 1027.945312 2662.597656 M 2146.660156 1630.980469 C 2146.660156 1639.382812 2139.855469 1646.195312 2131.453125 1646.203125 C 2123.050781 1646.207031 2116.230469 1639.40625 2116.21875 1631.003906 C 2116.207031 1622.601562 2123.003906 1615.777344 2131.402344 1615.757812 C 2139.804688 1615.738281 2146.632812 1622.53125 2146.660156 1630.929688 M 1763.429688 2644.210938 C 1763.429688 2652.753906 1756.507812 2659.683594 1747.960938 2659.6875 C 1739.417969 2659.695312 1732.484375 2652.777344 1732.472656 2644.234375 C 1732.457031 2635.691406 1739.367188 2628.75 1747.914062 2628.730469 C 1756.457031 2628.710938 1763.402344 2635.617188 1763.429688 2644.160156 M 716.589844 1947.828125 C 716.589844 1952.402344 712.882812 1956.109375 708.3125 1956.113281 C 703.738281 1956.117188 700.027344 1952.414062 700.019531 1947.84375 C 700.011719 1943.269531 703.710938 1939.558594 708.285156 1939.546875 C 712.855469 1939.535156 716.574219 1943.230469 716.589844 1947.804688 M 1759.78125 906.78125 C 1759.78125 913.101562 1754.660156 918.226562 1748.339844 918.234375 C 1742.019531 918.238281 1736.890625 913.121094 1736.878906 906.800781 C 1736.871094 900.480469 1741.984375 895.347656 1748.300781 895.332031 C 1754.621094 895.316406 1759.757812 900.425781 1759.78125 906.746094 M 1621.453125 2303.789062 C 1621.453125 2311.628906 1615.101562 2317.984375 1607.261719 2317.992188 C 1599.421875 2318 1593.058594 2311.652344 1593.046875 2303.8125 C 1593.035156 2295.972656 1599.375 2289.605469 1607.214844 2289.589844 C 1615.054688 2289.570312 1621.425781 2295.90625 1621.453125 2303.746094 M 1442.214844 913.882812 C 1442.214844 921.453125 1436.082031 927.589844 1428.511719 927.59375 C 1420.941406 927.601562 1414.796875 921.472656 1414.785156 913.902344 C 1414.773438 906.335938 1420.898438 900.1875 1428.46875 900.167969 C 1436.035156 900.152344 1442.1875 906.269531 1442.214844 913.839844 M 1912.609375 795.714844 C 1912.609375 802.785156 1906.882812 808.519531 1899.808594 808.527344 C 1892.738281 808.53125 1887 802.808594 1886.988281 795.738281 C 1886.976562 788.664062 1892.699219 782.921875 1899.769531 782.90625 C 1906.839844 782.886719 1912.589844 788.605469 1912.609375 795.675781 M 1574.949219 967.886719 C 1574.949219 975.089844 1569.113281 980.929688 1561.910156 980.933594 C 1554.707031 980.941406 1548.863281 975.109375 1548.851562 967.90625 C 1548.839844 960.707031 1554.667969 954.855469 1561.867188 954.839844 C 1569.070312 954.820312 1574.925781 960.644531 1574.949219 967.84375 M 1420.957031 790.09375 C 1420.957031 799.332031 1413.472656 806.824219 1404.234375 806.832031 C 1394.996094 806.835938 1387.5 799.359375 1387.484375 790.121094 C 1387.46875 780.882812 1394.941406 773.382812 1404.179688 773.359375 C 1413.417969 773.335938 1420.925781 780.804688 1420.957031 790.042969 M 563.40625 2489.269531 C 563.40625 2500.65625 554.179688 2509.890625 542.792969 2509.898438 C 531.40625 2509.910156 522.164062 2500.691406 522.148438 2489.304688 C 522.128906 2477.917969 531.339844 2468.667969 542.726562 2468.640625 C 554.113281 2468.613281 563.367188 2477.816406 563.40625 2489.203125 M 2205.210938 1744.429688 C 2205.210938 1751.578125 2199.417969 1757.375 2192.269531 1757.378906 C 2185.121094 1757.386719 2179.320312 1751.597656 2179.308594 1744.449219 C 2179.296875 1737.300781 2185.082031 1731.496094 2192.230469 1731.480469 C 2199.378906 1731.460938 2205.1875 1737.242188 2205.210938 1744.390625 M 1948.402344 937.003906 C 1948.402344 943.726562 1942.953125 949.179688 1936.230469 949.1875 C 1929.503906 949.191406 1924.046875 943.746094 1924.039062 937.023438 C 1924.027344 930.296875 1929.464844 924.835938 1936.191406 924.820312 C 1942.914062 924.804688 1948.382812 930.238281 1948.402344 936.964844 M 635.136719 923.109375 C 635.136719 932.671875 627.390625 940.425781 617.828125 940.433594 C 608.269531 940.4375 600.507812 932.699219 600.496094 923.136719 C 600.480469 913.578125 608.214844 905.8125 617.773438 905.789062 C 627.335938 905.765625 635.105469 913.492188 635.136719 923.054688 M 2173.644531 1241.660156 C 2173.644531 1248.417969 2168.167969 1253.898438 2161.410156 1253.902344 C 2154.652344 1253.910156 2149.167969 1248.4375 2149.15625 1241.679688 C 2149.144531 1234.921875 2154.613281 1229.433594 2161.371094 1229.414062 C 2168.128906 1229.398438 2173.621094 1234.863281 2173.644531 1241.621094 "/>
</g>
</svg>
