<?xml version="1.0" encoding="UTF-8"?>
<svg xmlns="http://www.w3.org/2000/svg" xmlns:xlink="http://www.w3.org/1999/xlink" width="2550pt" height="3300pt" viewBox="0 0 2550 3300" version="1.1">
<g id="surface1">
<path style="fill:none;stroke-width:2;stroke-linecap:butt;stroke-linejoin:miter;stroke:rgb(91.7647%,96.0784%,92.9412%);stroke-opacity:1;stroke-miterlimit:10;" d="M 276.589844 1273.371094 C 276.589844 1285.199219 267.003906 1294.789062 255.175781 1294.800781 C 243.347656 1294.808594 233.75 1285.234375 233.730469 1273.402344 C 233.710938 1261.574219 243.28125 1251.96875 255.109375 1251.941406 C 266.9375 1251.914062 276.550781 1261.472656 276.589844 1273.300781 M 1247.417969 2238.839844 C 1247.417969 2256.894531 1232.789062 2271.535156 1214.734375 2271.546875 C 1196.683594 2271.5625 1182.03125 2256.945312 1182.003906 2238.890625 C 1181.972656 2220.839844 1196.578125 2206.175781 1214.632812 2206.132812 C 1232.6875 2206.089844 1247.359375 2220.683594 1247.417969 2238.734375 M 901.613281 1335.269531 C 901.613281 1343.507812 894.941406 1350.183594 886.703125 1350.191406 C 878.46875 1350.199219 871.785156 1343.53125 871.769531 1335.292969 C 871.757812 1327.058594 878.421875 1320.367188 886.65625 1320.347656 C 894.894531 1320.328125 901.589844 1326.984375 901.613281 1335.222656 M 2042.105469 2445.121094 C 2042.105469 2454.472656 2034.527344 2462.058594 2025.171875 2462.066406 C 2015.820312 2462.074219 2008.226562 2454.5 2008.214844 2445.148438 C 2008.199219 2435.792969 2015.765625 2428.195312 2025.121094 2428.171875 C 2034.472656 2428.152344 2042.078125 2435.710938 2042.105469 2445.066406 M 928.246094 1780.769531 C 928.246094 1784.867188 924.929688 1788.1875 920.832031 1788.1875 C 916.738281 1788.191406 913.414062 1784.878906 913.40625 1780.78125 C 913.402344 1776.6875 916.714844 1773.359375 920.808594 1773.351562 C 924.90625 1773.339844 928.234375 1776.652344 928.246094 1780.746094 M 1766.511719 1275.351562 C 1766.511719 1291.203125 1753.667969 1304.058594 1737.8125 1304.074219 C 1721.957031 1304.085938 1709.09375 1291.25 1709.066406 1275.394531 C 1709.042969 1259.542969 1721.867188 1246.664062 1737.722656 1246.628906 C 1753.574219 1246.589844 1766.460938 1259.40625 1766.511719 1275.257812 M 1761.976562 1372.789062 C 1761.976562 1385.871094 1751.378906 1396.476562 1738.300781 1396.488281 C 1725.21875 1396.496094 1714.605469 1385.90625 1714.582031 1372.828125 C 1714.5625 1359.746094 1725.144531 1349.125 1738.222656 1349.09375 C 1751.304688 1349.0625 1761.933594 1359.632812 1761.976562 1372.714844 M 1876.675781 1400.601562 C 1876.675781 1420.441406 1860.597656 1436.527344 1840.757812 1436.546875 C 1820.917969 1436.5625 1804.816406 1420.496094 1804.785156 1400.65625 C 1804.753906 1380.816406 1820.804688 1364.703125 1840.644531 1364.65625 C 1860.484375 1364.609375 1876.613281 1380.644531 1876.675781 1400.484375 M 1504.097656 1986.75 C 1504.097656 2008.878906 1486.171875 2026.820312 1464.042969 2026.839844 C 1441.914062 2026.855469 1423.957031 2008.941406 1423.921875 1986.8125 C 1423.886719 1964.683594 1441.785156 1946.714844 1463.914062 1946.660156 C 1486.042969 1946.609375 1504.027344 1964.492188 1504.097656 1986.621094 M 659.597656 2397.5 C 659.597656 2406.511719 652.296875 2413.820312 643.285156 2413.828125 C 634.273438 2413.835938 626.960938 2406.539062 626.945312 2397.527344 C 626.929688 2388.515625 634.222656 2381.195312 643.234375 2381.171875 C 652.246094 2381.152344 659.570312 2388.4375 659.597656 2397.449219 M 1833.753906 911.875 C 1833.753906 915.34375 1830.945312 918.15625 1827.476562 918.160156 C 1824.007812 918.164062 1821.191406 915.355469 1821.1875 911.886719 C 1821.179688 908.417969 1823.984375 905.601562 1827.453125 905.589844 C 1830.921875 905.582031 1833.742188 908.386719 1833.753906 911.855469 M 1532.472656 2062.171875 C 1532.472656 2074.636719 1522.375 2084.742188 1509.90625 2084.753906 C 1497.441406 2084.761719 1487.328125 2074.671875 1487.308594 2062.207031 C 1487.285156 2049.742188 1497.371094 2039.617188 1509.835938 2039.585938 C 1522.300781 2039.558594 1532.433594 2049.632812 1532.472656 2062.097656 M 781.867188 953.699219 C 781.867188 958.898438 777.65625 963.113281 772.460938 963.117188 C 767.265625 963.121094 763.046875 958.914062 763.039062 953.714844 C 763.03125 948.519531 767.234375 944.300781 772.429688 944.285156 C 777.628906 944.273438 781.851562 948.472656 781.867188 953.671875 M 1659.058594 1232.691406 C 1659.058594 1239.210938 1653.773438 1244.5 1647.25 1244.507812 C 1640.726562 1244.511719 1635.433594 1239.230469 1635.421875 1232.707031 C 1635.414062 1226.1875 1640.6875 1220.886719 1647.210938 1220.871094 C 1653.734375 1220.855469 1659.035156 1226.128906 1659.058594 1232.652344 M 805.800781 2658.941406 C 805.800781 2676.820312 791.3125 2691.320312 773.429688 2691.335938 C 755.550781 2691.351562 741.039062 2676.871094 741.007812 2658.992188 C 740.980469 2641.109375 755.445312 2626.585938 773.328125 2626.542969 C 791.207031 2626.503906 805.742188 2640.957031 805.800781 2658.835938 M 940.214844 758.964844 C 940.214844 763.402344 936.621094 767 932.183594 767.003906 C 927.746094 767.007812 924.144531 763.414062 924.136719 758.976562 C 924.128906 754.539062 927.71875 750.9375 932.15625 750.925781 C 936.59375 750.917969 940.199219 754.503906 940.214844 758.9375 M 549.667969 2488.71875 C 549.667969 2501.90625 538.988281 2512.59375 525.804688 2512.605469 C 512.617188 2512.617188 501.917969 2501.941406 501.898438 2488.757812 C 501.878906 2475.574219 512.542969 2464.867188 525.726562 2464.835938 C 538.910156 2464.800781 549.628906 2475.460938 549.667969 2488.644531 M 537.082031 1476.820312 C 537.082031 1496.488281 521.144531 1512.4375 501.476562 1512.453125 C 481.808594 1512.46875 465.84375 1496.546875 465.8125 1476.875 C 465.78125 1457.207031 481.695312 1441.234375 501.363281 1441.1875 C 521.03125 1441.136719 537.019531 1457.039062 537.082031 1476.707031 M 614.195312 1391 C 614.195312 1415.917969 594.003906 1436.125 569.085938 1436.144531 C 544.167969 1436.164062 523.945312 1415.992188 523.90625 1391.070312 C 523.867188 1366.152344 544.023438 1345.914062 568.941406 1345.855469 C 593.859375 1345.796875 614.113281 1365.9375 614.195312 1390.855469 M 965.414062 2638.988281 C 965.414062 2643.203125 961.996094 2646.621094 957.78125 2646.625 C 953.566406 2646.628906 950.148438 2643.21875 950.140625 2639.003906 C 950.132812 2634.789062 953.542969 2631.363281 957.757812 2631.355469 C 961.972656 2631.34375 965.398438 2634.75 965.414062 2638.964844 M 1268.792969 1743.511719 C 1268.792969 1759.308594 1255.992188 1772.121094 1240.191406 1772.132812 C 1224.394531 1772.148438 1211.570312 1759.355469 1211.546875 1743.554688 C 1211.519531 1727.753906 1224.300781 1714.921875 1240.101562 1714.886719 C 1255.902344 1714.847656 1268.742188 1727.617188 1268.792969 1743.417969 M 781.699219 1487.609375 C 781.699219 1498.523438 772.855469 1507.375 761.941406 1507.382812 C 751.027344 1507.390625 742.171875 1498.554688 742.152344 1487.640625 C 742.136719 1476.726562 750.964844 1467.863281 761.878906 1467.835938 C 772.792969 1467.8125 781.664062 1476.632812 781.699219 1487.546875 M 526.980469 930.082031 C 526.980469 936.625 521.679688 941.925781 515.140625 941.933594 C 508.601562 941.9375 503.292969 936.640625 503.28125 930.101562 C 503.269531 923.5625 508.5625 918.25 515.101562 918.234375 C 521.644531 918.21875 526.960938 923.503906 526.980469 930.046875 M 576.214844 1178.28125 C 576.214844 1194.636719 562.964844 1207.898438 546.605469 1207.914062 C 530.25 1207.925781 516.976562 1194.683594 516.949219 1178.328125 C 516.925781 1161.96875 530.15625 1148.6875 546.511719 1148.648438 C 562.867188 1148.609375 576.164062 1161.828125 576.214844 1178.1875 M 627.292969 2404.609375 C 627.292969 2412.605469 620.8125 2419.089844 612.820312 2419.09375 C 604.824219 2419.101562 598.335938 2412.628906 598.320312 2404.632812 C 598.308594 2396.636719 604.777344 2390.144531 612.773438 2390.125 C 620.769531 2390.105469 627.265625 2396.570312 627.292969 2404.5625 M 1309.667969 2289.460938 C 1309.667969 2304.820312 1297.222656 2317.277344 1281.863281 2317.289062 C 1266.5 2317.300781 1254.035156 2304.867188 1254.011719 2289.503906 C 1253.984375 2274.144531 1266.414062 2261.667969 1281.773438 2261.628906 C 1297.136719 2261.59375 1309.621094 2274.011719 1309.667969 2289.371094 M 2085.625 2664.71875 C 2085.625 2687.363281 2067.277344 2705.726562 2044.632812 2705.746094 C 2021.988281 2705.761719 2003.613281 2687.429688 2003.574219 2664.785156 C 2003.539062 2642.140625 2021.859375 2623.75 2044.503906 2623.695312 C 2067.144531 2623.640625 2085.550781 2641.945312 2085.625 2664.589844 M 2061.792969 1559.738281 C 2061.792969 1575.296875 2049.1875 1587.910156 2033.632812 1587.921875 C 2018.074219 1587.9375 2005.453125 1575.339844 2005.425781 1559.785156 C 2005.402344 1544.226562 2017.984375 1531.59375 2033.542969 1531.554688 C 2049.097656 1531.519531 2061.742188 1544.09375 2061.792969 1559.648438 M 1408.238281 1775.378906 C 1408.238281 1788.019531 1397.996094 1798.265625 1385.359375 1798.277344 C 1372.71875 1798.285156 1362.464844 1788.054688 1362.445312 1775.417969 C 1362.421875 1762.777344 1372.648438 1752.515625 1385.285156 1752.484375 C 1397.921875 1752.453125 1408.195312 1762.667969 1408.234375 1775.308594 M 1575.121094 1876.339844 C 1575.121094 1884.015625 1568.90625 1890.234375 1561.230469 1890.242188 C 1553.558594 1890.25 1547.328125 1884.035156 1547.316406 1876.363281 C 1547.304688 1868.6875 1553.511719 1862.457031 1561.1875 1862.4375 C 1568.859375 1862.417969 1575.097656 1868.621094 1575.121094 1876.296875 M 2297.335938 1022.691406 C 2297.335938 1026.710938 2294.078125 1029.972656 2290.054688 1029.976562 C 2286.035156 1029.976562 2282.769531 1026.722656 2282.765625 1022.703125 C 2282.757812 1018.679688 2286.011719 1015.414062 2290.03125 1015.40625 C 2294.054688 1015.394531 2297.320312 1018.644531 2297.335938 1022.667969 M 327.300781 1605.96875 C 327.300781 1611.273438 323 1615.574219 317.695312 1615.582031 C 312.390625 1615.585938 308.085938 1611.289062 308.078125 1605.984375 C 308.070312 1600.679688 312.363281 1596.371094 317.667969 1596.359375 C 322.96875 1596.347656 327.28125 1600.636719 327.300781 1605.9375 M 309.152344 1170.550781 C 309.152344 1181.597656 300.203125 1190.554688 289.15625 1190.5625 C 278.109375 1190.570312 269.144531 1181.628906 269.125 1170.582031 C 269.109375 1159.535156 278.042969 1150.5625 289.089844 1150.535156 C 300.136719 1150.511719 309.117188 1159.441406 309.152344 1170.484375 M 1241.710938 840.386719 C 1241.710938 850.308594 1233.667969 858.359375 1223.746094 858.367188 C 1213.820312 858.375 1205.765625 850.339844 1205.75 840.414062 C 1205.734375 830.488281 1213.761719 822.429688 1223.6875 822.40625 C 1233.613281 822.382812 1241.679688 830.40625 1241.710938 840.328125 M 2031.660156 2510.339844 C 2031.660156 2526.585938 2018.5 2539.757812 2002.253906 2539.769531 C 1986.007812 2539.785156 1972.824219 2526.632812 1972.800781 2510.386719 C 1972.773438 2494.140625 1985.914062 2480.949219 2002.160156 2480.910156 C 2018.40625 2480.871094 2031.609375 2494 2031.660156 2510.246094 M 1712.308594 1962.921875 C 1712.308594 1967.121094 1708.90625 1970.527344 1704.707031 1970.53125 C 1700.503906 1970.53125 1697.097656 1967.132812 1697.089844 1962.933594 C 1697.082031 1958.730469 1700.480469 1955.320312 1704.683594 1955.308594 C 1708.882812 1955.300781 1712.296875 1958.695312 1712.308594 1962.894531 M 1278.039062 1696.921875 C 1278.039062 1703.957031 1272.335938 1709.664062 1265.300781 1709.667969 C 1258.261719 1709.671875 1252.554688 1703.976562 1252.542969 1696.941406 C 1252.53125 1689.902344 1258.222656 1684.1875 1265.257812 1684.171875 C 1272.296875 1684.15625 1278.015625 1689.84375 1278.039062 1696.878906 M 1515.828125 2083.75 C 1515.828125 2094.398438 1507.203125 2103.03125 1496.554688 2103.039062 C 1485.910156 2103.046875 1477.269531 2094.425781 1477.25 2083.78125 C 1477.234375 2073.132812 1485.847656 2064.488281 1496.492188 2064.460938 C 1507.140625 2064.4375 1515.792969 2073.042969 1515.828125 2083.6875 M 269.867188 988.253906 C 269.867188 992.027344 266.808594 995.085938 263.039062 995.089844 C 259.265625 995.09375 256.203125 992.039062 256.195312 988.265625 C 256.191406 984.492188 259.242188 981.429688 263.015625 981.417969 C 266.789062 981.410156 269.855469 984.460938 269.867188 988.230469 M 306.445312 2407.769531 C 306.445312 2411.316406 303.570312 2414.195312 300.019531 2414.199219 C 296.472656 2414.203125 293.59375 2411.328125 293.585938 2407.78125 C 293.582031 2404.230469 296.453125 2401.351562 300 2401.339844 C 303.550781 2401.332031 306.433594 2404.203125 306.445312 2407.75 M 1307.574219 2452.050781 C 1307.574219 2455.734375 1304.589844 2458.71875 1300.90625 2458.722656 C 1297.222656 2458.726562 1294.234375 2455.742188 1294.226562 2452.0625 C 1294.222656 2448.378906 1297.199219 2445.386719 1300.882812 2445.378906 C 1304.566406 2445.367188 1307.5625 2448.34375 1307.574219 2452.027344 M 868.660156 2042.980469 C 868.660156 2046.738281 865.617188 2049.785156 861.859375 2049.785156 C 858.101562 2049.789062 855.050781 2046.75 855.046875 2042.992188 C 855.039062 2039.234375 858.078125 2036.183594 861.835938 2036.171875 C 865.59375 2036.164062 868.648438 2039.199219 868.660156 2042.957031 M 654.058594 2385.03125 C 654.058594 2390.3125 649.777344 2394.597656 644.492188 2394.601562 C 639.210938 2394.605469 634.921875 2390.328125 634.914062 2385.046875 C 634.90625 2379.761719 639.179688 2375.46875 644.460938 2375.457031 C 649.746094 2375.445312 654.039062 2379.714844 654.058594 2385 M 1563.402344 1959.960938 C 1563.402344 1969.136719 1555.96875 1976.574219 1546.792969 1976.582031 C 1537.617188 1976.589844 1530.171875 1969.160156 1530.15625 1959.988281 C 1530.140625 1950.8125 1537.566406 1943.359375 1546.742188 1943.335938 C 1555.914062 1943.316406 1563.375 1950.730469 1563.402344 1959.90625 M 2292.140625 969.332031 C 2292.140625 972.765625 2289.359375 975.550781 2285.925781 975.550781 C 2282.492188 975.554688 2279.703125 972.773438 2279.699219 969.339844 C 2279.691406 965.90625 2282.472656 963.117188 2285.90625 963.109375 C 2289.339844 963.101562 2292.128906 965.878906 2292.140625 969.3125 M 2113.875 1526.550781 C 2113.875 1538.964844 2103.8125 1549.035156 2091.398438 1549.042969 C 2078.980469 1549.054688 2068.90625 1539 2068.886719 1526.585938 C 2068.867188 1514.167969 2078.910156 1504.085938 2091.328125 1504.054688 C 2103.742188 1504.027344 2113.835938 1514.0625 2113.875 1526.476562 M 1200.898438 950.941406 C 1200.898438 954.816406 1197.757812 957.957031 1193.886719 957.957031 C 1190.011719 957.960938 1186.867188 954.824219 1186.863281 950.953125 C 1186.855469 947.078125 1189.988281 943.933594 1193.863281 943.921875 C 1197.738281 943.914062 1200.886719 947.046875 1200.898438 950.917969 M 1955.121094 1440.398438 C 1955.121094 1461.066406 1938.375 1477.824219 1917.710938 1477.839844 C 1897.042969 1477.855469 1880.273438 1461.125 1880.238281 1440.460938 C 1880.207031 1419.792969 1896.925781 1403.007812 1917.589844 1402.960938 C 1938.257812 1402.910156 1955.054688 1419.613281 1955.121094 1440.28125 M 1769.132812 1187.628906 C 1769.132812 1197.429688 1761.195312 1205.375 1751.394531 1205.382812 C 1741.59375 1205.390625 1733.640625 1197.457031 1733.625 1187.660156 C 1733.609375 1177.859375 1741.539062 1169.898438 1751.335938 1169.875 C 1761.136719 1169.851562 1769.101562 1177.773438 1769.132812 1187.574219 M 624.996094 2312.878906 C 624.996094 2317.535156 621.226562 2321.308594 616.570312 2321.3125 C 611.917969 2321.316406 608.140625 2317.546875 608.132812 2312.894531 C 608.125 2308.238281 611.890625 2304.460938 616.542969 2304.449219 C 621.199219 2304.4375 624.980469 2308.199219 624.996094 2312.851562 M 384.621094 1372.96875 C 384.621094 1385.269531 374.65625 1395.242188 362.359375 1395.25 C 350.0625 1395.261719 340.082031 1385.304688 340.0625 1373.003906 C 340.042969 1360.707031 349.992188 1350.71875 362.289062 1350.6875 C 374.585938 1350.660156 384.582031 1360.601562 384.621094 1372.898438 M 856.007812 2558.800781 C 856.007812 2567.28125 849.136719 2574.160156 840.652344 2574.167969 C 832.171875 2574.171875 825.289062 2567.304688 825.277344 2558.824219 C 825.261719 2550.34375 832.125 2543.453125 840.605469 2543.433594 C 849.085938 2543.414062 855.980469 2550.269531 856.007812 2558.75 M 538.9375 2283.640625 C 538.9375 2287.824219 535.546875 2291.21875 531.359375 2291.222656 C 527.175781 2291.226562 523.777344 2287.835938 523.773438 2283.652344 C 523.765625 2279.464844 527.152344 2276.066406 531.335938 2276.058594 C 535.523438 2276.046875 538.925781 2279.429688 538.9375 2283.617188 M 1329.847656 1599.921875 C 1329.847656 1605.875 1325.023438 1610.703125 1319.070312 1610.707031 C 1313.113281 1610.710938 1308.28125 1605.890625 1308.273438 1599.9375 C 1308.261719 1593.984375 1313.078125 1589.144531 1319.035156 1589.132812 C 1324.988281 1589.117188 1329.828125 1593.929688 1329.847656 1599.886719 M 1675.222656 2510.25 C 1675.222656 2514.800781 1671.535156 2518.488281 1666.988281 2518.492188 C 1662.4375 2518.496094 1658.742188 2514.8125 1658.738281 2510.261719 C 1658.730469 2505.714844 1662.410156 2502.019531 1666.960938 2502.007812 C 1671.511719 2501.996094 1675.207031 2505.671875 1675.222656 2510.222656 M 1953.0625 2546.941406 C 1953.0625 2559.128906 1943.1875 2569.015625 1930.996094 2569.023438 C 1918.808594 2569.035156 1908.914062 2559.164062 1908.894531 2546.976562 C 1908.878906 2534.785156 1918.738281 2524.886719 1930.925781 2524.855469 C 1943.117188 2524.828125 1953.023438 2534.679688 1953.0625 2546.871094 M 2134.566406 2328.011719 C 2134.566406 2331.519531 2131.722656 2334.363281 2128.214844 2334.367188 C 2124.707031 2334.367188 2121.859375 2331.527344 2121.855469 2328.019531 C 2121.847656 2324.511719 2124.6875 2321.664062 2128.195312 2321.65625 C 2131.703125 2321.644531 2134.554688 2324.480469 2134.566406 2327.988281 M 706.574219 1373.679688 C 706.574219 1400.816406 684.585938 1422.820312 657.449219 1422.84375 C 630.316406 1422.863281 608.292969 1400.894531 608.25 1373.757812 C 608.207031 1346.621094 630.15625 1324.582031 657.292969 1324.515625 C 684.429688 1324.453125 706.488281 1346.386719 706.574219 1373.523438 M 1438.953125 2423.910156 C 1438.953125 2427.351562 1436.164062 2430.140625 1432.726562 2430.144531 C 1429.285156 2430.144531 1426.492188 2427.359375 1426.488281 2423.921875 C 1426.480469 2420.480469 1429.265625 2417.683594 1432.707031 2417.675781 C 1436.144531 2417.667969 1438.941406 2420.449219 1438.953125 2423.890625 M 951.085938 663.402344 C 951.085938 669.285156 946.316406 674.058594 940.433594 674.0625 C 934.546875 674.070312 929.773438 669.304688 929.761719 663.417969 C 929.753906 657.535156 934.511719 652.753906 940.398438 652.742188 C 946.285156 652.726562 951.066406 657.484375 951.085938 663.367188 M 970.414062 2588.550781 C 970.414062 2592.511719 967.203125 2595.726562 963.242188 2595.730469 C 959.277344 2595.730469 956.0625 2592.523438 956.058594 2588.5625 C 956.050781 2584.597656 959.257812 2581.378906 963.21875 2581.371094 C 967.179688 2581.363281 970.402344 2584.566406 970.414062 2588.527344 M 945.90625 1781.390625 C 945.90625 1786.320312 941.910156 1790.320312 936.976562 1790.324219 C 932.046875 1790.328125 928.042969 1786.335938 928.035156 1781.402344 C 928.027344 1776.472656 932.015625 1772.46875 936.949219 1772.457031 C 941.878906 1772.445312 945.890625 1776.429688 945.90625 1781.363281 M 818.542969 1013.070312 C 818.542969 1020.015625 812.914062 1025.648438 805.96875 1025.652344 C 799.023438 1025.660156 793.386719 1020.035156 793.375 1013.089844 C 793.363281 1006.144531 798.980469 1000.503906 805.929688 1000.484375 C 812.875 1000.46875 818.519531 1006.082031 818.542969 1013.03125 M 1361.886719 2424.96875 C 1361.886719 2428.886719 1358.710938 2432.0625 1354.796875 2432.066406 C 1350.878906 2432.070312 1347.699219 2428.898438 1347.695312 2424.980469 C 1347.6875 2421.0625 1350.855469 2417.882812 1354.773438 2417.875 C 1358.691406 2417.863281 1361.875 2421.03125 1361.886719 2424.949219 M 332.917969 1508.121094 C 332.917969 1517.46875 325.34375 1525.046875 315.996094 1525.054688 C 306.652344 1525.0625 299.066406 1517.492188 299.050781 1508.148438 C 299.035156 1498.800781 306.597656 1491.207031 315.945312 1491.1875 C 325.289062 1491.164062 332.886719 1498.71875 332.917969 1508.066406 M 2070.546875 998.90625 C 2070.546875 1008.792969 2062.53125 1016.8125 2052.644531 1016.820312 C 2042.753906 1016.828125 2034.730469 1008.824219 2034.714844 998.933594 C 2034.699219 989.042969 2042.699219 981.011719 2052.585938 980.988281 C 2062.476562 980.964844 2070.515625 988.960938 2070.546875 998.847656 M 1497.46875 2062.621094 C 1497.46875 2085.847656 1478.648438 2104.679688 1455.421875 2104.699219 C 1432.199219 2104.71875 1413.347656 2085.914062 1413.3125 2062.6875 C 1413.273438 2039.460938 1432.0625 2020.597656 1455.289062 2020.542969 C 1478.515625 2020.484375 1497.394531 2039.261719 1497.46875 2062.484375 M 1253.511719 2178.28125 C 1253.511719 2201.707031 1234.53125 2220.703125 1211.105469 2220.71875 C 1187.679688 2220.738281 1168.667969 2201.773438 1168.628906 2178.347656 C 1168.59375 2154.921875 1187.542969 2135.894531 1210.96875 2135.839844 C 1234.394531 2135.785156 1253.4375 2154.71875 1253.511719 2178.144531 M 1401.957031 2094.398438 C 1401.957031 2120.3125 1380.960938 2141.328125 1355.046875 2141.347656 C 1329.132812 2141.371094 1308.101562 2120.390625 1308.0625 2094.476562 C 1308.019531 2068.558594 1328.984375 2047.511719 1354.898438 2047.453125 C 1380.8125 2047.390625 1401.875 2068.335938 1401.957031 2094.25 M 573.753906 1213.609375 C 573.753906 1232.625 558.34375 1248.046875 539.328125 1248.0625 C 520.3125 1248.074219 504.882812 1232.679688 504.851562 1213.664062 C 504.820312 1194.648438 520.203125 1179.203125 539.21875 1179.160156 C 558.234375 1179.113281 573.691406 1194.484375 573.753906 1213.5 M 1198.867188 1868.230469 C 1198.867188 1885.289062 1185.046875 1899.125 1167.984375 1899.140625 C 1150.921875 1899.152344 1137.078125 1885.339844 1137.050781 1868.277344 C 1137.023438 1851.21875 1150.824219 1837.363281 1167.886719 1837.320312 C 1184.945312 1837.28125 1198.816406 1851.070312 1198.867188 1868.132812 M 1523.511719 667.390625 C 1523.511719 676.699219 1515.96875 684.242188 1506.664062 684.25 C 1497.355469 684.257812 1489.804688 676.722656 1489.789062 667.417969 C 1489.773438 658.113281 1497.304688 650.554688 1506.609375 650.53125 C 1515.917969 650.507812 1523.480469 658.03125 1523.511719 667.335938 M 2033.390625 1658.039062 C 2033.390625 1665.625 2027.246094 1671.773438 2019.660156 1671.78125 C 2012.078125 1671.785156 2005.921875 1665.644531 2005.910156 1658.0625 C 2005.898438 1650.476562 2012.03125 1644.316406 2019.617188 1644.300781 C 2027.203125 1644.28125 2033.367188 1650.410156 2033.390625 1657.996094 M 1628.539062 2059.769531 C 1628.539062 2067.84375 1621.996094 2074.394531 1613.921875 2074.398438 C 1605.847656 2074.40625 1599.292969 2067.867188 1599.28125 2059.792969 C 1599.265625 2051.71875 1605.800781 2045.160156 1613.875 2045.140625 C 1621.949219 2045.121094 1628.515625 2051.648438 1628.539062 2059.722656 M 635.625 1080.511719 C 635.625 1098.039062 621.421875 1112.253906 603.890625 1112.269531 C 586.363281 1112.285156 572.136719 1098.089844 572.105469 1080.5625 C 572.078125 1063.03125 586.261719 1048.792969 603.792969 1048.75 C 621.320312 1048.707031 635.570312 1062.878906 635.625 1080.410156 M 1948.109375 1684.890625 C 1948.109375 1691.359375 1942.867188 1696.605469 1936.398438 1696.609375 C 1929.929688 1696.613281 1924.679688 1691.378906 1924.671875 1684.910156 C 1924.660156 1678.441406 1929.894531 1673.1875 1936.363281 1673.171875 C 1942.832031 1673.15625 1948.089844 1678.382812 1948.109375 1684.851562 M 1713.21875 716.78125 C 1713.21875 720.183594 1710.460938 722.945312 1707.054688 722.949219 C 1703.648438 722.953125 1700.886719 720.195312 1700.882812 716.789062 C 1700.875 713.386719 1703.628906 710.621094 1707.035156 710.609375 C 1710.441406 710.601562 1713.207031 713.355469 1713.21875 716.761719 M 1965.382812 1582.25 C 1965.382812 1591.820312 1957.625 1599.582031 1948.054688 1599.589844 C 1938.480469 1599.597656 1930.714844 1591.847656 1930.699219 1582.277344 C 1930.683594 1572.707031 1938.425781 1564.929688 1948 1564.910156 C 1957.570312 1564.886719 1965.351562 1572.621094 1965.382812 1582.195312 M 588.550781 2379.699219 C 588.550781 2385.609375 583.765625 2390.398438 577.855469 2390.402344 C 571.949219 2390.410156 567.152344 2385.625 567.144531 2379.71875 C 567.136719 2373.808594 571.914062 2369.011719 577.824219 2368.996094 C 583.730469 2368.980469 588.53125 2373.757812 588.550781 2379.664062 M 1474.042969 820.125 C 1474.042969 828.046875 1467.625 834.472656 1459.703125 834.480469 C 1451.777344 834.484375 1445.347656 828.070312 1445.335938 820.148438 C 1445.324219 812.222656 1451.730469 805.789062 1459.65625 805.769531 C 1467.578125 805.75 1474.019531 812.15625 1474.042969 820.078125 M 1908.539062 955.015625 C 1908.539062 963.652344 1901.539062 970.65625 1892.902344 970.664062 C 1884.265625 970.671875 1877.257812 963.679688 1877.242188 955.039062 C 1877.230469 946.402344 1884.214844 939.390625 1892.851562 939.367188 C 1901.488281 939.347656 1908.511719 946.328125 1908.539062 954.964844 M 352.085938 1057.589844 C 352.085938 1068.421875 343.3125 1077.203125 332.480469 1077.210938 C 321.648438 1077.21875 312.859375 1068.453125 312.84375 1057.621094 C 312.828125 1046.789062 321.585938 1037.996094 332.417969 1037.96875 C 343.25 1037.941406 352.050781 1046.695312 352.085938 1057.527344 M 1319.714844 2217.210938 C 1319.714844 2235.105469 1305.214844 2249.621094 1287.316406 2249.632812 C 1269.417969 2249.648438 1254.894531 2235.160156 1254.867188 2217.261719 C 1254.835938 2199.363281 1269.316406 2184.828125 1287.210938 2184.785156 C 1305.109375 2184.742188 1319.65625 2199.210938 1319.714844 2217.105469 M 679.800781 1578.390625 C 679.800781 1587.792969 672.183594 1595.417969 662.777344 1595.425781 C 653.375 1595.433594 645.742188 1587.820312 645.730469 1578.417969 C 645.714844 1569.015625 653.320312 1561.375 662.722656 1561.355469 C 672.128906 1561.332031 679.769531 1568.933594 679.800781 1578.335938 M 2065.515625 1317.121094 C 2065.515625 1348.746094 2039.890625 1374.390625 2008.265625 1374.414062 C 1976.640625 1374.4375 1950.976562 1348.835938 1950.925781 1317.210938 C 1950.875 1285.585938 1976.457031 1259.902344 2008.082031 1259.824219 C 2039.707031 1259.75 2065.414062 1285.3125 2065.515625 1316.9375 M 1434.515625 2402.410156 C 1434.515625 2406.28125 1431.378906 2409.421875 1427.503906 2409.425781 C 1423.632812 2409.429688 1420.492188 2406.292969 1420.484375 2402.421875 C 1420.480469 2398.550781 1423.609375 2395.402344 1427.484375 2395.394531 C 1431.355469 2395.386719 1434.503906 2398.515625 1434.515625 2402.386719 M 1854.339844 2458.890625 C 1854.339844 2468.445312 1846.597656 2476.191406 1837.042969 2476.199219 C 1827.488281 2476.207031 1819.734375 2468.472656 1819.71875 2458.917969 C 1819.707031 2449.363281 1827.433594 2441.601562 1836.988281 2441.582031 C 1846.542969 2441.558594 1854.308594 2449.28125 1854.339844 2458.835938 M 1063.53125 2248.378906 C 1063.53125 2255.980469 1057.371094 2262.144531 1049.769531 2262.152344 C 1042.167969 2262.15625 1036 2256.003906 1035.988281 2248.402344 C 1035.976562 2240.800781 1042.125 2234.625 1049.726562 2234.609375 C 1057.328125 2234.589844 1063.507812 2240.734375 1063.53125 2248.335938 M 2063.53125 1676.898438 C 2063.53125 1681.152344 2060.085938 1684.597656 2055.835938 1684.601562 C 2051.585938 1684.605469 2048.136719 1681.164062 2048.128906 1676.914062 C 2048.121094 1672.660156 2051.5625 1669.207031 2055.8125 1669.199219 C 2060.0625 1669.1875 2063.519531 1672.625 2063.53125 1676.875 M 443.605469 1159.03125 C 443.605469 1177.429688 428.699219 1192.347656 410.300781 1192.363281 C 391.902344 1192.378906 376.96875 1177.480469 376.941406 1159.082031 C 376.910156 1140.683594 391.796875 1125.742188 410.195312 1125.699219 C 428.59375 1125.652344 443.546875 1140.523438 443.605469 1158.921875 M 1381.550781 1791.269531 C 1381.550781 1804.722656 1370.652344 1815.628906 1357.199219 1815.640625 C 1343.746094 1815.652344 1332.832031 1804.761719 1332.808594 1791.308594 C 1332.789062 1777.855469 1343.671875 1766.933594 1357.121094 1766.898438 C 1370.574219 1766.867188 1381.507812 1777.742188 1381.550781 1791.191406 M 758.332031 896.179688 C 758.332031 899.976562 755.253906 903.054688 751.457031 903.058594 C 747.660156 903.0625 744.578125 899.988281 744.574219 896.191406 C 744.566406 892.394531 747.636719 889.308594 751.4375 889.300781 C 755.234375 889.289062 758.320312 892.359375 758.332031 896.15625 M 1207.023438 1866.589844 C 1207.023438 1890.03125 1188.035156 1909.035156 1164.59375 1909.054688 C 1141.152344 1909.074219 1122.132812 1890.097656 1122.09375 1866.65625 C 1122.058594 1843.21875 1141.019531 1824.179688 1164.457031 1824.125 C 1187.898438 1824.070312 1206.949219 1843.015625 1207.023438 1866.453125 M 1358.375 1927.851562 C 1358.375 1953.023438 1337.980469 1973.4375 1312.804688 1973.457031 C 1287.632812 1973.476562 1267.203125 1953.097656 1267.164062 1927.921875 C 1267.125 1902.75 1287.488281 1882.304688 1312.660156 1882.242188 C 1337.835938 1882.183594 1358.296875 1902.53125 1358.375 1927.703125 M 1248.683594 754.019531 C 1248.683594 773.554688 1232.855469 789.398438 1213.316406 789.414062 C 1193.78125 789.429688 1177.929688 773.613281 1177.898438 754.074219 C 1177.867188 734.539062 1193.667969 718.671875 1213.207031 718.625 C 1232.742188 718.578125 1248.621094 734.371094 1248.683594 753.90625 M 2308.914062 1280.929688 C 2308.914062 1295.824219 2296.847656 1307.902344 2281.953125 1307.914062 C 2267.054688 1307.925781 2254.96875 1295.867188 2254.945312 1280.972656 C 2254.921875 1266.078125 2266.96875 1253.980469 2281.867188 1253.945312 C 2296.761719 1253.910156 2308.867188 1265.949219 2308.914062 1280.84375 M 1926.171875 2552.589844 C 1926.171875 2570.238281 1911.875 2584.546875 1894.226562 2584.5625 C 1876.578125 2584.578125 1862.253906 2570.289062 1862.226562 2552.640625 C 1862.199219 2534.992188 1876.476562 2520.660156 1894.125 2520.617188 C 1911.773438 2520.574219 1926.117188 2534.839844 1926.171875 2552.488281 M 1678.9375 2669.089844 C 1678.9375 2676.820312 1672.671875 2683.089844 1664.941406 2683.097656 C 1657.210938 2683.101562 1650.9375 2676.84375 1650.921875 2669.113281 C 1650.910156 2661.382812 1657.164062 2655.101562 1664.898438 2655.082031 C 1672.628906 2655.066406 1678.910156 2661.3125 1678.9375 2669.046875 M 1726.578125 1135.941406 C 1726.578125 1143.488281 1720.460938 1149.613281 1712.910156 1149.617188 C 1705.359375 1149.625 1699.234375 1143.511719 1699.222656 1135.960938 C 1699.210938 1128.410156 1705.316406 1122.28125 1712.867188 1122.261719 C 1720.417969 1122.242188 1726.554688 1128.347656 1726.578125 1135.894531 M 1377.457031 1974.921875 C 1377.457031 1997.558594 1359.113281 2015.917969 1336.472656 2015.9375 C 1313.832031 2015.953125 1295.460938 1997.625 1295.425781 1974.984375 C 1295.386719 1952.347656 1313.703125 1933.957031 1336.34375 1933.90625 C 1358.980469 1933.851562 1377.382812 1952.148438 1377.457031 1974.789062 M 772.367188 1632.808594 C 772.367188 1637.496094 768.570312 1641.296875 763.882812 1641.300781 C 759.195312 1641.304688 755.390625 1637.511719 755.382812 1632.824219 C 755.375 1628.136719 759.167969 1624.328125 763.855469 1624.320312 C 768.542969 1624.308594 772.351562 1628.097656 772.367188 1632.78125 M 691.566406 916.109375 C 691.566406 920.101562 688.328125 923.339844 684.335938 923.34375 C 680.34375 923.347656 677.105469 920.113281 677.097656 916.121094 C 677.089844 912.128906 680.320312 908.886719 684.3125 908.875 C 688.304688 908.867188 691.550781 912.09375 691.566406 916.085938 M 2193.53125 1076.179688 C 2193.53125 1092.851562 2180.023438 1106.367188 2163.355469 1106.382812 C 2146.683594 1106.394531 2133.15625 1092.898438 2133.128906 1076.226562 C 2133.101562 1059.558594 2146.585938 1046.019531 2163.257812 1045.976562 C 2179.929688 1045.9375 2193.480469 1059.414062 2193.53125 1076.082031 M 1728.777344 1963.269531 C 1728.777344 1966.648438 1726.042969 1969.386719 1722.664062 1969.386719 C 1719.289062 1969.390625 1716.546875 1966.65625 1716.542969 1963.28125 C 1716.535156 1959.902344 1719.269531 1957.160156 1722.644531 1957.152344 C 1726.023438 1957.144531 1728.765625 1959.875 1728.777344 1963.25 M 1586.195312 1751.128906 C 1586.195312 1755.667969 1582.515625 1759.351562 1577.976562 1759.355469 C 1573.4375 1759.359375 1569.753906 1755.683594 1569.746094 1751.144531 C 1569.738281 1746.601562 1573.410156 1742.917969 1577.949219 1742.90625 C 1582.488281 1742.894531 1586.179688 1746.5625 1586.195312 1751.105469 M 770.746094 1167.289062 C 770.746094 1183.425781 757.671875 1196.507812 741.539062 1196.519531 C 725.402344 1196.53125 712.308594 1183.472656 712.285156 1167.335938 C 712.257812 1151.203125 725.3125 1138.097656 741.445312 1138.058594 C 757.578125 1138.019531 770.695312 1151.0625 770.746094 1167.195312 M 1661.488281 1117.371094 C 1661.488281 1121.6875 1657.992188 1125.1875 1653.675781 1125.191406 C 1649.359375 1125.191406 1645.855469 1121.699219 1645.851562 1117.382812 C 1645.84375 1113.066406 1649.335938 1109.558594 1653.652344 1109.550781 C 1657.96875 1109.539062 1661.476562 1113.027344 1661.488281 1117.34375 M 2101.039062 1348.929688 C 2101.039062 1365.054688 2087.976562 1378.128906 2071.851562 1378.140625 C 2055.730469 1378.152344 2042.644531 1365.101562 2042.621094 1348.976562 C 2042.59375 1332.851562 2055.636719 1319.757812 2071.761719 1319.71875 C 2087.882812 1319.679688 2100.988281 1332.714844 2101.039062 1348.835938 M 310.878906 1454.988281 C 310.878906 1466.78125 301.328125 1476.339844 289.535156 1476.347656 C 277.746094 1476.359375 268.179688 1466.8125 268.160156 1455.023438 C 268.140625 1443.234375 277.679688 1433.660156 289.46875 1433.632812 C 301.257812 1433.601562 310.839844 1443.132812 310.878906 1454.921875 M 363.457031 964.277344 C 363.457031 968.1875 360.289062 971.359375 356.375 971.363281 C 352.464844 971.367188 349.289062 968.199219 349.285156 964.289062 C 349.277344 960.375 352.441406 957.199219 356.355469 957.191406 C 360.265625 957.179688 363.445312 960.34375 363.457031 964.253906 M 821.355469 2033.941406 C 821.355469 2037.582031 818.40625 2040.535156 814.761719 2040.539062 C 811.121094 2040.542969 808.164062 2037.59375 808.15625 2033.949219 C 808.152344 2030.308594 811.097656 2027.347656 814.742188 2027.339844 C 818.382812 2027.332031 821.34375 2030.277344 821.355469 2033.917969 M 1163.605469 865.914062 C 1163.605469 874.800781 1156.40625 882.003906 1147.523438 882.011719 C 1138.636719 882.015625 1131.429688 874.824219 1131.414062 865.941406 C 1131.402344 857.054688 1138.585938 849.839844 1147.472656 849.820312 C 1156.355469 849.796875 1163.578125 856.980469 1163.605469 865.863281 M 934.605469 2575.191406 C 934.605469 2580.222656 930.527344 2584.304688 925.492188 2584.308594 C 920.460938 2584.3125 916.375 2580.238281 916.367188 2575.203125 C 916.359375 2570.171875 920.429688 2566.082031 925.464844 2566.070312 C 930.496094 2566.058594 934.589844 2570.128906 934.605469 2575.160156 M 776.4375 2401.21875 C 776.4375 2405.382812 773.066406 2408.757812 768.902344 2408.761719 C 764.742188 2408.765625 761.363281 2405.394531 761.359375 2401.230469 C 761.351562 2397.070312 764.71875 2393.6875 768.878906 2393.679688 C 773.042969 2393.667969 776.425781 2397.035156 776.4375 2401.195312 M 955.382812 2585.460938 C 955.382812 2588.761719 952.707031 2591.441406 949.402344 2591.445312 C 946.101562 2591.445312 943.417969 2588.773438 943.414062 2585.46875 C 943.410156 2582.167969 946.082031 2579.484375 949.382812 2579.476562 C 952.6875 2579.46875 955.371094 2582.136719 955.382812 2585.441406 M 804.246094 1330.5 C 804.246094 1342.742188 794.324219 1352.671875 782.082031 1352.679688 C 769.839844 1352.6875 759.90625 1342.777344 759.886719 1330.535156 C 759.867188 1318.292969 769.769531 1308.351562 782.011719 1308.320312 C 794.253906 1308.292969 804.207031 1318.1875 804.246094 1330.429688 M 1632.226562 1889.320312 C 1632.226562 1894.339844 1628.160156 1898.414062 1623.136719 1898.417969 C 1618.117188 1898.421875 1614.039062 1894.355469 1614.03125 1889.335938 C 1614.023438 1884.3125 1618.085938 1880.234375 1623.109375 1880.222656 C 1628.128906 1880.210938 1632.210938 1884.269531 1632.226562 1889.292969 M 855.757812 1048.519531 C 855.757812 1051.886719 853.027344 1054.617188 849.660156 1054.621094 C 846.292969 1054.625 843.5625 1051.898438 843.554688 1048.53125 C 843.550781 1045.164062 846.273438 1042.425781 849.640625 1042.417969 C 853.007812 1042.410156 855.746094 1045.132812 855.757812 1048.5 M 2099.289062 2663.699219 C 2099.289062 2679.617188 2086.390625 2692.527344 2070.472656 2692.539062 C 2054.554688 2692.550781 2041.636719 2679.664062 2041.609375 2663.746094 C 2041.585938 2647.828125 2054.460938 2634.898438 2070.382812 2634.859375 C 2086.300781 2634.824219 2099.238281 2647.691406 2099.289062 2663.609375 M 1014.078125 2047.769531 C 1014.078125 2060.308594 1003.917969 2070.472656 991.382812 2070.484375 C 978.84375 2070.492188 968.667969 2060.34375 968.648438 2047.804688 C 968.628906 2035.269531 978.773438 2025.085938 991.308594 2025.058594 C 1003.847656 2025.027344 1014.035156 2035.160156 1014.074219 2047.699219 M 1846.253906 1538.191406 C 1846.253906 1546.796875 1839.28125 1553.777344 1830.671875 1553.785156 C 1822.066406 1553.789062 1815.082031 1546.820312 1815.066406 1538.214844 C 1815.054688 1529.609375 1822.015625 1522.617188 1830.621094 1522.597656 C 1839.230469 1522.574219 1846.226562 1529.535156 1846.253906 1538.140625 M 772.433594 1275.429688 C 772.433594 1293.363281 757.902344 1307.90625 739.96875 1307.921875 C 722.035156 1307.933594 707.480469 1293.414062 707.453125 1275.480469 C 707.421875 1257.546875 721.929688 1242.980469 739.867188 1242.9375 C 757.800781 1242.898438 772.375 1257.394531 772.433594 1275.328125 M 2147.765625 1096.980469 C 2147.765625 1110.429688 2136.867188 1121.332031 2123.417969 1121.34375 C 2109.972656 1121.355469 2099.058594 1110.46875 2099.035156 1097.019531 C 2099.015625 1083.570312 2109.894531 1072.648438 2123.339844 1072.617188 C 2136.789062 1072.585938 2147.722656 1083.453125 2147.765625 1096.902344 M 919.335938 1375.179688 C 919.335938 1380.667969 914.890625 1385.117188 909.402344 1385.121094 C 903.914062 1385.125 899.460938 1380.683594 899.449219 1375.195312 C 899.441406 1369.707031 903.882812 1365.25 909.371094 1365.238281 C 914.855469 1365.226562 919.316406 1369.660156 919.335938 1375.148438 M 336.855469 2411.421875 C 336.855469 2416.277344 332.921875 2420.21875 328.0625 2420.222656 C 323.203125 2420.226562 319.257812 2416.292969 319.25 2411.433594 C 319.242188 2406.574219 323.175781 2402.628906 328.03125 2402.617188 C 332.890625 2402.605469 336.839844 2406.53125 336.855469 2411.390625 M 1318.503906 2007.289062 C 1318.503906 2025.332031 1303.886719 2039.960938 1285.847656 2039.972656 C 1267.804688 2039.988281 1253.164062 2025.382812 1253.136719 2007.34375 C 1253.105469 1989.300781 1267.699219 1974.648438 1285.742188 1974.605469 C 1303.78125 1974.5625 1318.445312 1989.144531 1318.503906 2007.1875 M 1660.542969 1281.058594 C 1660.542969 1290.347656 1653.019531 1297.875 1643.734375 1297.882812 C 1634.449219 1297.890625 1626.910156 1290.371094 1626.898438 1281.085938 C 1626.882812 1271.800781 1634.394531 1264.257812 1643.679688 1264.238281 C 1652.964844 1264.214844 1660.511719 1271.71875 1660.542969 1281.007812 M 606.101562 1477.308594 C 606.101562 1497.625 589.640625 1514.097656 569.328125 1514.113281 C 549.011719 1514.128906 532.527344 1497.683594 532.492188 1477.367188 C 532.460938 1457.054688 548.894531 1440.554688 569.210938 1440.507812 C 589.523438 1440.457031 606.039062 1456.878906 606.101562 1477.191406 M 486.753906 2599.378906 C 486.753906 2614.480469 474.519531 2626.726562 459.417969 2626.738281 C 444.316406 2626.75 432.0625 2614.523438 432.039062 2599.421875 C 432.011719 2584.324219 444.230469 2572.058594 459.332031 2572.023438 C 474.433594 2571.984375 486.707031 2584.191406 486.753906 2599.292969 M 2283.703125 1095.109375 C 2283.703125 1106.210938 2274.707031 1115.214844 2263.605469 1115.222656 C 2252.503906 1115.230469 2243.496094 1106.242188 2243.476562 1095.140625 C 2243.460938 1084.039062 2252.441406 1075.023438 2263.542969 1074.996094 C 2274.644531 1074.972656 2283.667969 1083.945312 2283.703125 1095.046875 M 1710.296875 1565.78125 C 1710.296875 1569.6875 1707.132812 1572.855469 1703.226562 1572.859375 C 1699.320312 1572.859375 1696.148438 1569.699219 1696.140625 1565.792969 C 1696.136719 1561.882812 1699.296875 1558.710938 1703.203125 1558.703125 C 1707.109375 1558.691406 1710.285156 1561.851562 1710.296875 1565.757812 M 1901.449219 2384.71875 C 1901.449219 2391.402344 1896.035156 2396.824219 1889.351562 2396.828125 C 1882.664062 2396.835938 1877.242188 2391.421875 1877.230469 2384.738281 C 1877.21875 2378.054688 1882.625 2372.625 1889.3125 2372.609375 C 1895.996094 2372.59375 1901.429688 2377.996094 1901.449219 2384.679688 M 804.886719 2488.980469 C 804.886719 2495.910156 799.269531 2501.53125 792.339844 2501.535156 C 785.410156 2501.542969 779.785156 2495.929688 779.773438 2489 C 779.761719 2482.070312 785.367188 2476.441406 792.300781 2476.421875 C 799.230469 2476.40625 804.863281 2482.007812 804.886719 2488.941406 M 798.742188 1235.828125 C 798.742188 1248.792969 788.242188 1259.300781 775.28125 1259.3125 C 762.320312 1259.320312 751.800781 1248.828125 751.78125 1235.867188 C 751.757812 1222.90625 762.246094 1212.378906 775.207031 1212.347656 C 788.167969 1212.316406 798.703125 1222.792969 798.742188 1235.753906 M 404.328125 1267.621094 C 404.328125 1282.828125 392.007812 1295.15625 376.800781 1295.167969 C 361.59375 1295.179688 349.253906 1282.871094 349.230469 1267.664062 C 349.207031 1252.457031 361.507812 1240.105469 376.714844 1240.070312 C 391.921875 1240.035156 404.28125 1252.324219 404.328125 1267.53125 M 302.308594 1116.261719 C 302.308594 1123.933594 296.089844 1130.152344 288.417969 1130.160156 C 280.746094 1130.167969 274.519531 1123.953125 274.507812 1116.28125 C 274.496094 1108.609375 280.703125 1102.378906 288.375 1102.359375 C 296.046875 1102.339844 302.285156 1108.542969 302.308594 1116.214844 M 2272.996094 1997.808594 C 2272.996094 2001.898438 2269.683594 2005.210938 2265.597656 2005.214844 C 2261.507812 2005.21875 2258.191406 2001.910156 2258.183594 1997.820312 C 2258.175781 1993.734375 2261.484375 1990.414062 2265.574219 1990.402344 C 2269.660156 1990.394531 2272.984375 1993.699219 2272.996094 1997.785156 M 1271.707031 849.046875 C 1271.707031 861.460938 1261.648438 871.523438 1249.238281 871.535156 C 1236.828125 871.542969 1226.753906 861.496094 1226.734375 849.082031 C 1226.714844 836.671875 1236.753906 826.59375 1249.167969 826.5625 C 1261.578125 826.53125 1271.664062 836.566406 1271.707031 848.976562 M 1104.3125 1674.820312 C 1104.3125 1678.421875 1101.394531 1681.339844 1097.796875 1681.34375 C 1094.195312 1681.34375 1091.273438 1678.429688 1091.265625 1674.832031 C 1091.261719 1671.230469 1094.175781 1668.304688 1097.773438 1668.296875 C 1101.375 1668.289062 1104.300781 1671.199219 1104.3125 1674.800781 M 909.277344 1275.789062 C 909.277344 1283.769531 902.8125 1290.242188 894.832031 1290.246094 C 886.855469 1290.253906 880.378906 1283.792969 880.363281 1275.8125 C 880.351562 1267.832031 886.808594 1261.351562 894.789062 1261.332031 C 902.765625 1261.3125 909.253906 1267.765625 909.277344 1275.742188 M 723.460938 1051.101562 C 723.460938 1061.238281 715.246094 1069.457031 705.109375 1069.464844 C 694.972656 1069.472656 686.746094 1061.265625 686.730469 1051.128906 C 686.710938 1040.992188 694.914062 1032.757812 705.050781 1032.734375 C 715.1875 1032.710938 723.429688 1040.902344 723.460938 1051.042969 M 1207.4375 776.484375 C 1207.4375 793.890625 1193.332031 808.003906 1175.925781 808.019531 C 1158.519531 808.035156 1144.390625 793.941406 1144.363281 776.535156 C 1144.335938 759.125 1158.417969 744.988281 1175.824219 744.945312 C 1193.230469 744.90625 1207.382812 758.976562 1207.4375 776.382812 M 987.507812 2099.421875 C 987.507812 2106.804688 981.527344 2112.792969 974.140625 2112.796875 C 966.757812 2112.804688 960.765625 2106.824219 960.753906 2099.441406 C 960.742188 2092.058594 966.714844 2086.058594 974.097656 2086.042969 C 981.484375 2086.023438 987.484375 2091.992188 987.507812 2099.378906 M 2039.820312 1652.609375 C 2039.820312 1661.726562 2032.429688 1669.121094 2023.3125 1669.128906 C 2014.195312 1669.136719 2006.796875 1661.753906 2006.78125 1652.636719 C 2006.765625 1643.519531 2014.140625 1636.113281 2023.261719 1636.089844 C 2032.378906 1636.070312 2039.789062 1643.4375 2039.820312 1652.558594 M 422.40625 2401.730469 C 422.40625 2409.257812 416.308594 2415.359375 408.78125 2415.367188 C 401.253906 2415.371094 395.144531 2409.277344 395.132812 2401.75 C 395.121094 2394.222656 401.210938 2388.109375 408.738281 2388.09375 C 416.265625 2388.074219 422.382812 2394.160156 422.40625 2401.6875 M 517.414062 1327.648438 C 517.414062 1354.824219 495.394531 1376.859375 468.21875 1376.882812 C 441.046875 1376.902344 418.992188 1354.902344 418.949219 1327.726562 C 418.90625 1300.554688 440.890625 1278.484375 468.0625 1278.417969 C 495.238281 1278.355469 517.324219 1300.320312 517.414062 1327.492188 M 888.613281 1410.378906 C 888.613281 1416.796875 883.414062 1422 876.996094 1422.007812 C 870.578125 1422.011719 865.371094 1416.816406 865.359375 1410.398438 C 865.351562 1403.980469 870.542969 1398.769531 876.960938 1398.753906 C 883.375 1398.738281 888.59375 1403.925781 888.613281 1410.34375 M 577.601562 2618.519531 C 577.601562 2644.640625 556.4375 2665.816406 530.320312 2665.839844 C 504.199219 2665.859375 483.003906 2644.714844 482.964844 2618.59375 C 482.921875 2592.476562 504.050781 2571.261719 530.167969 2571.199219 C 556.289062 2571.136719 577.519531 2592.25 577.601562 2618.371094 M 835.996094 1247.5 C 835.996094 1259.515625 826.257812 1269.261719 814.242188 1269.269531 C 802.226562 1269.28125 792.472656 1259.550781 792.453125 1247.535156 C 792.433594 1235.519531 802.15625 1225.757812 814.171875 1225.730469 C 826.191406 1225.699219 835.957031 1235.414062 835.996094 1247.429688 M 388.566406 1363.089844 C 388.566406 1382.589844 372.765625 1398.402344 353.265625 1398.417969 C 333.765625 1398.433594 317.941406 1382.644531 317.910156 1363.144531 C 317.878906 1343.648438 333.65625 1327.808594 353.152344 1327.761719 C 372.652344 1327.71875 388.503906 1343.476562 388.5625 1362.976562 M 1473.914062 2240.140625 C 1473.914062 2251.230469 1464.929688 2260.226562 1453.835938 2260.234375 C 1442.742188 2260.246094 1433.742188 2251.265625 1433.722656 2240.171875 C 1433.707031 2229.078125 1442.679688 2220.070312 1453.773438 2220.042969 C 1464.863281 2220.019531 1473.878906 2228.984375 1473.914062 2240.074219 M 414.191406 1098.171875 C 414.191406 1109.246094 405.21875 1118.226562 394.144531 1118.234375 C 383.066406 1118.242188 374.078125 1109.277344 374.0625 1098.203125 C 374.042969 1087.125 383.003906 1078.132812 394.078125 1078.105469 C 405.15625 1078.078125 414.15625 1087.03125 414.191406 1098.105469 M 322.871094 1374.421875 C 322.871094 1384.054688 315.066406 1391.867188 305.429688 1391.875 C 295.796875 1391.882812 287.976562 1384.082031 287.960938 1374.449219 C 287.945312 1364.8125 295.738281 1356.988281 305.375 1356.964844 C 315.007812 1356.941406 322.839844 1364.730469 322.871094 1374.363281 M 1613.414062 2667.261719 C 1613.414062 2671.921875 1609.636719 2675.699219 1604.976562 2675.703125 C 1600.316406 2675.707031 1596.53125 2671.933594 1596.523438 2667.273438 C 1596.519531 2662.613281 1600.289062 2658.828125 1604.949219 2658.816406 C 1609.609375 2658.804688 1613.398438 2662.570312 1613.414062 2667.234375 M 1543.078125 1845.429688 C 1543.078125 1855.984375 1534.527344 1864.539062 1523.976562 1864.546875 C 1513.421875 1864.554688 1504.859375 1856.011719 1504.84375 1845.460938 C 1504.824219 1834.90625 1513.363281 1826.335938 1523.914062 1826.3125 C 1534.464844 1826.289062 1543.042969 1834.816406 1543.078125 1845.367188 M 1312.621094 2019.269531 C 1312.621094 2048.464844 1288.96875 2072.140625 1259.773438 2072.164062 C 1230.578125 2072.1875 1206.882812 2048.550781 1206.835938 2019.355469 C 1206.789062 1990.160156 1230.410156 1966.445312 1259.605469 1966.378906 C 1288.800781 1966.308594 1312.53125 1989.90625 1312.621094 2019.101562 M 1988.570312 1122.320312 C 1988.570312 1136.667969 1976.949219 1148.300781 1962.601562 1148.3125 C 1948.253906 1148.324219 1936.609375 1136.707031 1936.589844 1122.363281 C 1936.566406 1108.015625 1948.171875 1096.363281 1962.519531 1096.328125 C 1976.863281 1096.292969 1988.527344 1107.890625 1988.570312 1122.238281 M 1328.953125 799.882812 C 1328.953125 815.085938 1316.636719 827.414062 1301.433594 827.425781 C 1286.226562 827.4375 1273.890625 815.128906 1273.867188 799.925781 C 1273.839844 784.722656 1286.140625 772.375 1301.34375 772.335938 C 1316.546875 772.300781 1328.90625 784.589844 1328.953125 799.792969 M 580.308594 2622.199219 C 580.308594 2639.429688 566.347656 2653.398438 549.121094 2653.410156 C 531.894531 2653.425781 517.910156 2639.476562 517.882812 2622.25 C 517.855469 2605.023438 531.792969 2591.03125 549.019531 2590.988281 C 566.25 2590.945312 580.253906 2604.871094 580.308594 2622.101562 M 286.289062 2058.949219 C 286.289062 2062.507812 283.40625 2065.390625 279.851562 2065.394531 C 276.292969 2065.394531 273.410156 2062.515625 273.402344 2058.960938 C 273.398438 2055.402344 276.273438 2052.515625 279.832031 2052.507812 C 283.386719 2052.5 286.277344 2055.375 286.289062 2058.929688 M 1748.457031 1270.640625 C 1748.457031 1279.269531 1741.460938 1286.269531 1732.832031 1286.273438 C 1724.203125 1286.28125 1717.199219 1279.296875 1717.183594 1270.664062 C 1717.171875 1262.035156 1724.152344 1255.027344 1732.78125 1255.003906 C 1741.414062 1254.984375 1748.425781 1261.960938 1748.457031 1270.589844 M 532.726562 1153.671875 C 532.726562 1173.023438 517.046875 1188.714844 497.695312 1188.730469 C 478.339844 1188.746094 462.636719 1173.078125 462.605469 1153.726562 C 462.574219 1134.371094 478.230469 1118.65625 497.582031 1118.609375 C 516.933594 1118.5625 532.664062 1134.207031 532.726562 1153.558594 M 1947.976562 1406.929688 C 1947.976562 1431.753906 1927.863281 1451.886719 1903.035156 1451.90625 C 1878.210938 1451.925781 1858.0625 1431.828125 1858.023438 1407 C 1857.984375 1382.175781 1878.066406 1362.011719 1902.890625 1361.953125 C 1927.71875 1361.894531 1947.898438 1381.960938 1947.976562 1406.785156 M 639.464844 2597.140625 C 639.464844 2620.222656 620.761719 2638.9375 597.679688 2638.957031 C 574.597656 2638.976562 555.863281 2620.289062 555.828125 2597.207031 C 555.792969 2574.125 574.464844 2555.378906 597.546875 2555.324219 C 620.628906 2555.265625 639.390625 2573.925781 639.464844 2597.007812 M 1538.773438 896.15625 C 1538.773438 899.738281 1535.871094 902.644531 1532.285156 902.648438 C 1528.699219 902.652344 1525.792969 899.75 1525.785156 896.167969 C 1525.78125 892.582031 1528.679688 889.671875 1532.265625 889.664062 C 1535.847656 889.652344 1538.761719 892.550781 1538.773438 896.136719 M 1689.511719 1348.191406 C 1689.511719 1358.988281 1680.761719 1367.742188 1669.964844 1367.75 C 1659.167969 1367.761719 1650.40625 1359.019531 1650.390625 1348.222656 C 1650.371094 1337.425781 1659.105469 1328.65625 1669.902344 1328.628906 C 1680.699219 1328.601562 1689.476562 1337.332031 1689.511719 1348.128906 M 1862.226562 2394 C 1862.226562 2398.199219 1858.824219 2401.605469 1854.625 2401.609375 C 1850.425781 2401.609375 1847.019531 2398.210938 1847.011719 2394.011719 C 1847.007812 2389.8125 1850.402344 2386.402344 1854.601562 2386.394531 C 1858.800781 2386.382812 1862.214844 2389.777344 1862.226562 2393.976562 M 1782.113281 2642.058594 C 1782.113281 2657.234375 1769.816406 2669.539062 1754.640625 2669.550781 C 1739.46875 2669.5625 1727.152344 2657.277344 1727.128906 2642.105469 C 1727.105469 2626.929688 1739.378906 2614.605469 1754.554688 2614.570312 C 1769.730469 2614.53125 1782.0625 2626.796875 1782.113281 2641.972656 M 937.757812 632.484375 C 937.757812 639.523438 932.054688 645.230469 925.015625 645.234375 C 917.980469 645.242188 912.265625 639.542969 912.257812 632.503906 C 912.246094 625.464844 917.9375 619.75 924.976562 619.734375 C 932.015625 619.714844 937.734375 625.40625 937.757812 632.445312 M 458.210938 1413.570312 C 458.210938 1433.65625 441.9375 1449.945312 421.847656 1449.960938 C 401.761719 1449.976562 385.460938 1433.714844 385.425781 1413.628906 C 385.394531 1393.539062 401.644531 1377.226562 421.734375 1377.175781 C 441.820312 1377.128906 458.148438 1393.367188 458.210938 1413.453125 M 945.148438 2630.828125 C 945.148438 2634.847656 941.894531 2638.105469 937.875 2638.109375 C 933.859375 2638.113281 930.597656 2634.859375 930.589844 2630.839844 C 930.582031 2626.824219 933.835938 2623.558594 937.851562 2623.550781 C 941.871094 2623.539062 945.136719 2626.789062 945.148438 2630.808594 M 2247.367188 1428.03125 C 2247.367188 1443.316406 2234.980469 1455.714844 2219.691406 1455.726562 C 2204.402344 1455.738281 2191.996094 1443.363281 2191.972656 1428.074219 C 2191.949219 1412.785156 2204.316406 1400.371094 2219.605469 1400.332031 C 2234.890625 1400.296875 2247.320312 1412.652344 2247.367188 1427.941406 M 1082.636719 2377.761719 C 1082.636719 2381.164062 1079.878906 2383.921875 1076.476562 2383.925781 C 1073.070312 2383.929688 1070.308594 2381.171875 1070.304688 2377.769531 C 1070.296875 2374.367188 1073.050781 2371.601562 1076.457031 2371.59375 C 1079.859375 2371.585938 1082.625 2374.335938 1082.636719 2377.742188 M 2220.097656 2630.558594 C 2220.097656 2641.007812 2211.632812 2649.480469 2201.183594 2649.488281 C 2190.738281 2649.496094 2182.257812 2641.039062 2182.242188 2630.589844 C 2182.222656 2620.140625 2190.675781 2611.65625 2201.125 2611.632812 C 2211.574219 2611.605469 2220.066406 2620.050781 2220.097656 2630.5 M 1267.308594 1028.351562 C 1267.308594 1032.230469 1264.164062 1035.375 1260.285156 1035.378906 C 1256.40625 1035.382812 1253.257812 1032.242188 1253.25 1028.359375 C 1253.246094 1024.480469 1256.382812 1021.332031 1260.261719 1021.320312 C 1264.144531 1021.3125 1267.296875 1024.449219 1267.308594 1028.328125 M 2134.742188 1329.859375 C 2134.742188 1359.628906 2110.621094 1383.769531 2080.851562 1383.792969 C 2051.082031 1383.816406 2026.925781 1359.714844 2026.875 1329.945312 C 2026.828125 1300.175781 2050.910156 1275.996094 2080.679688 1275.925781 C 2110.449219 1275.855469 2134.648438 1299.917969 2134.742188 1329.6875 M 1374.222656 929.855469 C 1374.222656 935.472656 1369.675781 940.027344 1364.058594 940.03125 C 1358.441406 940.035156 1353.886719 935.488281 1353.875 929.875 C 1353.867188 924.257812 1358.410156 919.695312 1364.027344 919.683594 C 1369.640625 919.667969 1374.207031 924.207031 1374.222656 929.824219 M 1942.484375 967.242188 C 1942.484375 975.855469 1935.503906 982.839844 1926.890625 982.84375 C 1918.28125 982.851562 1911.289062 975.878906 1911.277344 967.265625 C 1911.261719 958.65625 1918.230469 951.660156 1926.84375 951.640625 C 1935.457031 951.617188 1942.457031 958.578125 1942.484375 967.191406 M 781.882812 1336.238281 C 781.882812 1352.417969 768.773438 1365.539062 752.59375 1365.550781 C 736.414062 1365.5625 723.285156 1352.464844 723.257812 1336.285156 C 723.234375 1320.109375 736.320312 1306.96875 752.5 1306.929688 C 768.679688 1306.890625 781.828125 1319.96875 781.882812 1336.148438 M 1465.3125 2197.058594 C 1465.3125 2211.507812 1453.605469 2223.21875 1439.160156 2223.230469 C 1424.714844 2223.242188 1412.992188 2211.546875 1412.96875 2197.101562 C 1412.945312 2182.65625 1424.632812 2170.921875 1439.078125 2170.886719 C 1453.523438 2170.855469 1465.265625 2182.53125 1465.3125 2196.976562 M 1423.378906 1975.851562 C 1423.378906 1991.8125 1410.445312 2004.757812 1394.484375 2004.769531 C 1378.519531 2004.78125 1365.566406 1991.859375 1365.539062 1975.894531 C 1365.515625 1959.933594 1378.429688 1946.96875 1394.390625 1946.929688 C 1410.355469 1946.890625 1423.328125 1959.796875 1423.378906 1975.757812 M 593.039062 1050.46875 C 593.039062 1061.847656 583.820312 1071.070312 572.445312 1071.082031 C 561.066406 1071.089844 551.835938 1061.878906 551.816406 1050.503906 C 551.800781 1039.125 561.003906 1029.886719 572.378906 1029.859375 C 583.753906 1029.832031 593.003906 1039.027344 593.039062 1050.40625 M 670.226562 1487.699219 C 670.226562 1501.203125 659.289062 1512.148438 645.785156 1512.160156 C 632.285156 1512.171875 621.328125 1501.242188 621.308594 1487.738281 C 621.285156 1474.238281 632.207031 1463.273438 645.707031 1463.238281 C 659.210938 1463.207031 670.183594 1474.121094 670.226562 1487.621094 M 1597.144531 2126.53125 C 1597.144531 2135.363281 1589.984375 2142.527344 1581.152344 2142.535156 C 1572.320312 2142.539062 1565.152344 2135.390625 1565.136719 2126.554688 C 1565.121094 2117.722656 1572.269531 2110.546875 1581.101562 2110.527344 C 1589.933594 2110.503906 1597.113281 2117.644531 1597.144531 2126.480469 M 905.300781 1090.070312 C 905.300781 1094.050781 902.074219 1097.28125 898.09375 1097.285156 C 894.113281 1097.285156 890.882812 1094.0625 890.875 1090.082031 C 890.867188 1086.101562 894.089844 1082.867188 898.070312 1082.855469 C 902.050781 1082.847656 905.289062 1086.066406 905.300781 1090.046875 M 380.183594 1659.828125 C 380.183594 1663.773438 376.988281 1666.96875 373.046875 1666.972656 C 369.105469 1666.976562 365.90625 1663.785156 365.898438 1659.839844 C 365.894531 1655.898438 369.082031 1652.699219 373.023438 1652.6875 C 376.964844 1652.679688 380.171875 1655.867188 380.183594 1659.808594 M 2221.382812 1615.550781 C 2221.382812 1620.78125 2217.148438 1625.019531 2211.917969 1625.023438 C 2206.6875 1625.027344 2202.445312 1620.792969 2202.4375 1615.566406 C 2202.429688 1610.335938 2206.65625 1606.089844 2211.886719 1606.078125 C 2217.117188 1606.0625 2221.367188 1610.289062 2221.382812 1615.519531 M 895.355469 723.417969 C 895.355469 727.550781 892.007812 730.902344 887.875 730.90625 C 883.742188 730.910156 880.390625 727.5625 880.382812 723.429688 C 880.378906 719.296875 883.71875 715.941406 887.851562 715.933594 C 891.984375 715.921875 895.34375 719.261719 895.355469 723.394531 M 1945.902344 1015.890625 C 1945.902344 1025.519531 1938.101562 1033.324219 1928.472656 1033.332031 C 1918.847656 1033.339844 1911.03125 1025.546875 1911.015625 1015.917969 C 1911 1006.289062 1918.789062 998.46875 1928.417969 998.445312 C 1938.046875 998.425781 1945.871094 1006.207031 1945.902344 1015.835938 M 1887.675781 1033.808594 C 1887.675781 1047.746094 1876.386719 1059.046875 1862.449219 1059.058594 C 1848.515625 1059.066406 1837.203125 1047.785156 1837.183594 1033.851562 C 1837.160156 1019.914062 1848.433594 1008.597656 1862.371094 1008.5625 C 1876.304688 1008.53125 1887.632812 1019.792969 1887.675781 1033.730469 M 883.882812 1507.738281 C 883.882812 1512.011719 880.421875 1515.476562 876.148438 1515.480469 C 871.875 1515.484375 868.410156 1512.023438 868.402344 1507.753906 C 868.394531 1503.480469 871.851562 1500.007812 876.125 1500 C 880.398438 1499.988281 883.871094 1503.441406 883.882812 1507.714844 M 980.648438 1938.601562 C 980.648438 1946.425781 974.308594 1952.769531 966.484375 1952.777344 C 958.660156 1952.78125 952.3125 1946.445312 952.296875 1938.621094 C 952.285156 1930.796875 958.617188 1924.441406 966.441406 1924.425781 C 974.265625 1924.40625 980.625 1930.730469 980.648438 1938.554688 M 1672.714844 1494.351562 C 1672.714844 1497.816406 1669.902344 1500.628906 1666.433594 1500.632812 C 1662.964844 1500.636719 1660.152344 1497.828125 1660.148438 1494.359375 C 1660.140625 1490.890625 1662.945312 1488.074219 1666.414062 1488.066406 C 1669.882812 1488.058594 1672.703125 1490.863281 1672.714844 1494.328125 M 626.386719 1372.058594 C 626.386719 1396.808594 606.335938 1416.875 581.585938 1416.894531 C 556.839844 1416.914062 536.753906 1396.878906 536.714844 1372.132812 C 536.675781 1347.382812 556.695312 1327.285156 581.445312 1327.226562 C 606.191406 1327.164062 626.308594 1347.167969 626.386719 1371.917969 M 934.878906 1164.109375 C 934.878906 1168.605469 931.238281 1172.25 926.746094 1172.25 C 922.25 1172.253906 918.601562 1168.617188 918.597656 1164.121094 C 918.589844 1159.628906 922.222656 1155.980469 926.71875 1155.96875 C 931.210938 1155.957031 934.867188 1159.589844 934.878906 1164.085938 M 669.542969 1239.761719 C 669.542969 1264.683594 649.351562 1284.894531 624.425781 1284.914062 C 599.5 1284.933594 579.273438 1264.757812 579.234375 1239.832031 C 579.195312 1214.90625 599.359375 1194.664062 624.28125 1194.605469 C 649.207031 1194.546875 669.464844 1214.691406 669.542969 1239.617188 M 796.761719 1588.261719 C 796.761719 1594.152344 791.984375 1598.929688 786.09375 1598.933594 C 780.203125 1598.9375 775.421875 1594.167969 775.414062 1588.277344 C 775.402344 1582.386719 780.167969 1577.601562 786.058594 1577.585938 C 791.953125 1577.570312 796.742188 1582.335938 796.757812 1588.226562 M 320.777344 1104.148438 C 320.777344 1113.375 313.300781 1120.855469 304.078125 1120.863281 C 294.855469 1120.867188 287.367188 1113.402344 287.351562 1104.175781 C 287.339844 1094.953125 294.800781 1087.460938 304.023438 1087.4375 C 313.25 1087.417969 320.746094 1094.871094 320.777344 1104.097656 M 1727.152344 2497.730469 C 1727.152344 2503.542969 1722.441406 2508.257812 1716.628906 2508.261719 C 1710.8125 2508.269531 1706.097656 2503.5625 1706.085938 2497.746094 C 1706.078125 2491.933594 1710.78125 2487.210938 1716.59375 2487.195312 C 1722.410156 2487.183594 1727.132812 2491.882812 1727.152344 2497.695312 M 1837.605469 1216.558594 C 1837.605469 1233.601562 1823.796875 1247.421875 1806.753906 1247.4375 C 1789.710938 1247.449219 1775.882812 1233.652344 1775.855469 1216.609375 C 1775.828125 1199.566406 1789.613281 1185.722656 1806.65625 1185.683594 C 1823.699219 1185.644531 1837.550781 1199.417969 1837.605469 1216.460938 M 1799.277344 1288.300781 C 1799.277344 1303.542969 1786.925781 1315.90625 1771.683594 1315.917969 C 1756.4375 1315.929688 1744.066406 1303.589844 1744.042969 1288.34375 C 1744.015625 1273.097656 1756.347656 1260.71875 1771.59375 1260.683594 C 1786.839844 1260.644531 1799.230469 1272.96875 1799.277344 1288.210938 M 1421.054688 2075.078125 C 1421.054688 2098.46875 1402.105469 2117.4375 1378.714844 2117.457031 C 1355.324219 2117.472656 1336.34375 2098.539062 1336.304688 2075.148438 C 1336.265625 2051.757812 1355.1875 2032.761719 1378.578125 2032.703125 C 1401.96875 2032.648438 1420.980469 2051.554688 1421.054688 2074.945312 M 1905.773438 1499.519531 C 1905.773438 1515.589844 1892.753906 1528.621094 1876.683594 1528.632812 C 1860.613281 1528.648438 1847.570312 1515.636719 1847.546875 1499.566406 C 1847.519531 1483.496094 1860.519531 1470.445312 1876.589844 1470.40625 C 1892.660156 1470.367188 1905.722656 1483.355469 1905.773438 1499.425781 M 2170.4375 2613.789062 C 2170.4375 2637.359375 2151.339844 2656.46875 2127.773438 2656.488281 C 2104.207031 2656.503906 2085.082031 2637.425781 2085.042969 2613.859375 C 2085.003906 2590.289062 2104.070312 2571.148438 2127.636719 2571.09375 C 2151.207031 2571.039062 2170.363281 2590.085938 2170.4375 2613.652344 M 2219.597656 1303.269531 C 2219.597656 1327.417969 2200.03125 1346.996094 2175.886719 1347.015625 C 2151.738281 1347.035156 2132.140625 1327.488281 2132.105469 1303.339844 C 2132.066406 1279.191406 2151.597656 1259.582031 2175.746094 1259.523438 C 2199.890625 1259.464844 2219.519531 1278.984375 2219.597656 1303.128906 M 1178.246094 1716.550781 C 1178.246094 1727.328125 1169.515625 1736.066406 1158.734375 1736.078125 C 1147.957031 1736.085938 1139.210938 1727.359375 1139.191406 1716.582031 C 1139.175781 1705.804688 1147.894531 1697.050781 1158.671875 1697.023438 C 1169.453125 1696.996094 1178.210938 1705.710938 1178.246094 1716.488281 M 1316.601562 1855.121094 C 1316.601562 1873.65625 1301.582031 1888.6875 1283.046875 1888.703125 C 1264.511719 1888.71875 1249.46875 1873.710938 1249.4375 1855.171875 C 1249.410156 1836.636719 1264.402344 1821.582031 1282.941406 1821.539062 C 1301.476562 1821.492188 1316.542969 1836.476562 1316.601562 1855.011719 M 1771.488281 1386.710938 C 1771.488281 1397.269531 1762.933594 1405.832031 1752.375 1405.839844 C 1741.816406 1405.847656 1733.25 1397.300781 1733.230469 1386.742188 C 1733.214844 1376.183594 1741.753906 1367.605469 1752.3125 1367.582031 C 1762.871094 1367.554688 1771.453125 1376.089844 1771.488281 1386.648438 M 380.730469 1169.671875 C 380.730469 1182.105469 370.65625 1192.1875 358.222656 1192.199219 C 345.785156 1192.207031 335.695312 1182.140625 335.675781 1169.707031 C 335.65625 1157.269531 345.714844 1147.171875 358.148438 1147.140625 C 370.582031 1147.113281 380.691406 1157.164062 380.730469 1169.597656 M 2046.085938 2496.46875 C 2046.085938 2508.753906 2036.132812 2518.714844 2023.847656 2518.726562 C 2011.5625 2518.734375 2001.59375 2508.789062 2001.574219 2496.503906 C 2001.554688 2484.21875 2011.492188 2474.242188 2023.777344 2474.214844 C 2036.0625 2474.183594 2046.046875 2484.113281 2046.085938 2496.398438 M 1275.824219 654.820312 C 1275.824219 676.945312 1257.898438 694.886719 1235.773438 694.902344 C 1213.648438 694.921875 1195.691406 677.007812 1195.65625 654.882812 C 1195.621094 632.757812 1213.519531 614.789062 1235.644531 614.734375 C 1257.769531 614.683594 1275.753906 632.566406 1275.824219 654.691406 M 1510.433594 2255.03125 C 1510.433594 2261.484375 1505.203125 2266.71875 1498.75 2266.726562 C 1492.292969 2266.730469 1487.054688 2261.503906 1487.042969 2255.046875 C 1487.035156 2248.59375 1492.257812 2243.351562 1498.710938 2243.335938 C 1505.167969 2243.320312 1510.414062 2248.539062 1510.433594 2254.992188 M 2145.511719 1630.980469 C 2145.511719 1638.746094 2139.21875 1645.046875 2131.453125 1645.050781 C 2123.683594 1645.058594 2117.378906 1638.769531 2117.367188 1631.003906 C 2117.355469 1623.234375 2123.640625 1616.925781 2131.40625 1616.90625 C 2139.171875 1616.890625 2145.488281 1623.167969 2145.511719 1630.933594 M 1591.203125 2057.199219 C 1591.203125 2066.640625 1583.554688 2074.292969 1574.113281 2074.300781 C 1564.671875 2074.308594 1557.011719 2066.667969 1556.996094 2057.226562 C 1556.984375 2047.789062 1564.621094 2040.121094 1574.058594 2040.097656 C 1583.5 2040.074219 1591.171875 2047.707031 1591.203125 2057.144531 M 1769.773438 2644.210938 C 1769.773438 2656.257812 1760.015625 2666.023438 1747.96875 2666.035156 C 1735.921875 2666.042969 1726.144531 2656.292969 1726.125 2644.246094 C 1726.105469 2632.199219 1735.851562 2622.414062 1747.898438 2622.386719 C 1759.945312 2622.355469 1769.734375 2632.09375 1769.773438 2644.140625 M 937.257812 1228.160156 C 937.257812 1232.289062 933.914062 1235.640625 929.78125 1235.644531 C 925.652344 1235.644531 922.300781 1232.300781 922.292969 1228.171875 C 922.285156 1224.042969 925.628906 1220.6875 929.757812 1220.675781 C 933.886719 1220.667969 937.246094 1224.007812 937.257812 1228.136719 M 1439.855469 913.882812 C 1439.855469 920.152344 1434.777344 925.234375 1428.507812 925.238281 C 1422.238281 925.246094 1417.152344 920.167969 1417.144531 913.898438 C 1417.132812 907.632812 1422.203125 902.539062 1428.472656 902.523438 C 1434.742188 902.507812 1439.835938 907.578125 1439.855469 913.847656 M 1433.90625 790.09375 C 1433.90625 806.480469 1420.628906 819.769531 1404.242188 819.78125 C 1387.855469 819.796875 1374.558594 806.53125 1374.53125 790.140625 C 1374.503906 773.753906 1387.761719 760.445312 1404.148438 760.40625 C 1420.535156 760.367188 1433.855469 773.613281 1433.90625 790 M 575.425781 2489.269531 C 575.425781 2507.292969 560.824219 2521.90625 542.800781 2521.917969 C 524.78125 2521.933594 510.15625 2507.34375 510.128906 2489.320312 C 510.097656 2471.300781 524.675781 2456.664062 542.699219 2456.621094 C 560.71875 2456.578125 575.367188 2471.144531 575.425781 2489.164062 M 639.144531 1608.570312 C 639.144531 1615.09375 633.859375 1620.382812 627.335938 1620.386719 C 620.8125 1620.394531 615.515625 1615.113281 615.507812 1608.589844 C 615.496094 1602.066406 620.773438 1596.769531 627.296875 1596.753906 C 633.820312 1596.738281 639.121094 1602.007812 639.144531 1608.53125 M 1948.046875 937.003906 C 1948.046875 943.53125 1942.757812 948.824219 1936.230469 948.828125 C 1929.703125 948.835938 1924.402344 943.550781 1924.394531 937.023438 C 1924.382812 930.492188 1929.664062 925.191406 1936.191406 925.175781 C 1942.71875 925.160156 1948.027344 930.4375 1948.046875 936.964844 M 632.820312 923.109375 C 632.820312 931.390625 626.109375 938.109375 617.828125 938.113281 C 609.546875 938.121094 602.824219 931.417969 602.8125 923.132812 C 602.796875 914.851562 609.496094 908.125 617.78125 908.105469 C 626.0625 908.085938 632.792969 914.78125 632.820312 923.0625 M 2192.386719 1241.660156 C 2192.386719 1258.765625 2178.53125 1272.636719 2161.425781 1272.648438 C 2144.320312 1272.664062 2130.4375 1258.8125 2130.410156 1241.710938 C 2130.382812 1224.605469 2144.222656 1210.710938 2161.324219 1210.671875 C 2178.429688 1210.628906 2192.332031 1224.457031 2192.386719 1241.5625 M 1874.988281 1234.03125 C 1874.988281 1252.210938 1860.257812 1266.953125 1842.078125 1266.96875 C 1823.894531 1266.980469 1809.140625 1252.261719 1809.113281 1234.082031 C 1809.082031 1215.902344 1823.789062 1201.136719 1841.972656 1201.09375 C 1860.152344 1201.050781 1874.929688 1215.746094 1874.988281 1233.925781 M 1144.652344 1898.710938 C 1144.652344 1916.058594 1130.59375 1930.128906 1113.246094 1930.140625 C 1095.894531 1930.15625 1081.816406 1916.109375 1081.789062 1898.761719 C 1081.761719 1881.410156 1095.796875 1867.320312 1113.144531 1867.277344 C 1130.492188 1867.238281 1144.597656 1881.261719 1144.652344 1898.609375 M 1275.214844 2293.511719 C 1275.214844 2303.121094 1267.425781 2310.914062 1257.8125 2310.921875 C 1248.203125 2310.929688 1240.402344 2303.148438 1240.386719 2293.539062 C 1240.371094 2283.925781 1248.148438 2276.121094 1257.757812 2276.097656 C 1267.371094 2276.074219 1275.183594 2283.84375 1275.214844 2293.453125 M 801.117188 1539.429688 C 801.117188 1546.386719 795.476562 1552.03125 788.519531 1552.035156 C 781.5625 1552.042969 775.914062 1546.410156 775.902344 1539.449219 C 775.890625 1532.492188 781.519531 1526.839844 788.480469 1526.824219 C 795.4375 1526.808594 801.09375 1532.429688 801.117188 1539.390625 M 1376.554688 927.992188 C 1376.554688 932.21875 1373.132812 935.644531 1368.90625 935.648438 C 1364.679688 935.652344 1361.253906 932.230469 1361.246094 928.003906 C 1361.238281 923.78125 1364.65625 920.347656 1368.882812 920.339844 C 1373.105469 920.328125 1376.539062 923.742188 1376.554688 927.96875 M 1331.496094 2077.378906 C 1331.496094 2102.652344 1311.019531 2123.144531 1285.746094 2123.164062 C 1260.472656 2123.1875 1239.964844 2102.726562 1239.925781 2077.453125 C 1239.882812 2052.179688 1260.328125 2031.65625 1285.601562 2031.59375 C 1310.871094 2031.535156 1331.414062 2051.960938 1331.496094 2077.234375 M 1552.8125 1337.390625 C 1552.8125 1341.605469 1549.394531 1345.027344 1545.175781 1345.03125 C 1540.957031 1345.035156 1537.535156 1341.621094 1537.53125 1337.402344 C 1537.523438 1333.183594 1540.933594 1329.757812 1545.152344 1329.75 C 1549.367188 1329.738281 1552.796875 1333.148438 1552.8125 1337.367188 M 1973.828125 2289.058594 C 1973.828125 2292.554688 1971 2295.386719 1967.503906 2295.390625 C 1964.011719 2295.390625 1961.175781 2292.5625 1961.171875 2289.070312 C 1961.164062 2285.578125 1963.992188 2282.738281 1967.484375 2282.730469 C 1970.976562 2282.722656 1973.816406 2285.546875 1973.828125 2289.039062 "/>
</g>
</svg>
