<?xml version="1.0" encoding="UTF-8"?>
<svg xmlns="http://www.w3.org/2000/svg" xmlns:xlink="http://www.w3.org/1999/xlink" width="2550pt" height="3300pt" viewBox="0 0 2550 3300" version="1.1">
<g id="surface1">
<path style="fill:none;stroke-width:2;stroke-linecap:butt;stroke-linejoin:miter;stroke:rgb(0%,0%,0%);stroke-opacity:1;stroke-miterlimit:10;" d="M 2170.628906 2613.789062 C 2170.628906 2637.464844 2151.449219 2656.660156 2127.773438 2656.679688 C 2104.101562 2656.699219 2084.886719 2637.53125 2084.851562 2613.859375 C 2084.8125 2590.183594 2103.964844 2570.957031 2127.636719 2570.898438 C 2151.3125 2570.84375 2170.554688 2589.980469 2170.628906 2613.652344 M 460.078125 2458.558594 C 460.078125 2481.453125 441.53125 2500.015625 418.636719 2500.035156 C 395.746094 2500.050781 377.167969 2481.519531 377.132812 2458.625 C 377.09375 2435.734375 395.613281 2417.140625 418.507812 2417.085938 C 441.398438 2417.03125 460.003906 2435.535156 460.078125 2458.429688 M 2162.875 705.234375 C 2162.875 727.640625 2144.722656 745.8125 2122.3125 745.828125 C 2099.902344 745.847656 2081.71875 727.707031 2081.683594 705.296875 C 2081.648438 682.890625 2099.773438 664.691406 2122.183594 664.636719 C 2144.589844 664.582031 2162.804688 682.695312 2162.875 705.105469 M 2272.980469 710.09375 C 2272.980469 733.113281 2254.332031 751.777344 2231.3125 751.796875 C 2208.292969 751.816406 2189.613281 733.179688 2189.578125 710.160156 C 2189.539062 687.140625 2208.160156 668.445312 2231.179688 668.390625 C 2254.199219 668.335938 2272.910156 686.941406 2272.980469 709.960938 M 2208.15625 707.425781 C 2208.15625 730.773438 2189.242188 749.707031 2165.894531 749.722656 C 2142.546875 749.742188 2123.601562 730.839844 2123.5625 707.496094 C 2123.527344 684.148438 2142.414062 665.1875 2165.757812 665.128906 C 2189.105469 665.074219 2208.082031 683.945312 2208.15625 707.292969 M 2101.613281 671.507812 C 2101.613281 695.742188 2081.976562 715.394531 2057.746094 715.410156 C 2033.511719 715.429688 2013.84375 695.8125 2013.808594 671.578125 C 2013.769531 647.34375 2033.371094 627.664062 2057.605469 627.605469 C 2081.839844 627.546875 2101.535156 647.136719 2101.613281 671.371094 M 470.902344 2521.429688 C 470.902344 2544.667969 452.074219 2563.507812 428.835938 2563.527344 C 405.601562 2563.546875 386.746094 2544.734375 386.707031 2521.496094 C 386.671875 2498.261719 405.46875 2479.390625 428.703125 2479.332031 C 451.941406 2479.277344 470.828125 2498.058594 470.902344 2521.296875 M 532.4375 711.078125 C 532.4375 734.910156 513.128906 754.234375 489.296875 754.253906 C 465.46875 754.273438 446.128906 734.980469 446.089844 711.148438 C 446.054688 687.320312 465.332031 667.964844 489.160156 667.90625 C 512.992188 667.851562 532.359375 687.113281 532.4375 710.941406 M 2254.929688 2569.109375 C 2254.929688 2591.480469 2236.804688 2609.625 2214.433594 2609.640625 C 2192.058594 2609.660156 2173.90625 2591.546875 2173.867188 2569.175781 C 2173.832031 2546.800781 2191.929688 2528.632812 2214.304688 2528.578125 C 2236.675781 2528.527344 2254.859375 2546.609375 2254.929688 2568.980469 M 442.972656 690.914062 C 442.972656 713.804688 424.429688 732.363281 401.539062 732.382812 C 378.652344 732.398438 360.078125 713.871094 360.039062 690.980469 C 360.003906 668.09375 378.519531 649.503906 401.40625 649.449219 C 424.296875 649.394531 442.898438 667.894531 442.972656 690.78125 M 479.828125 641.28125 C 479.828125 665.152344 460.488281 684.507812 436.617188 684.527344 C 412.746094 684.546875 393.375 665.21875 393.335938 641.351562 C 393.296875 617.480469 412.609375 598.09375 436.480469 598.035156 C 460.347656 597.976562 479.75 617.273438 479.828125 641.144531 M 2078.785156 2577.511719 C 2078.785156 2600.609375 2060.070312 2619.335938 2036.972656 2619.355469 C 2013.875 2619.375 1995.128906 2600.675781 1995.09375 2577.578125 C 1995.058594 2554.480469 2013.742188 2535.71875 2036.839844 2535.664062 C 2059.9375 2535.609375 2078.710938 2554.277344 2078.785156 2577.375 "/>
</g>
</svg>
