<?xml version="1.0" encoding="UTF-8"?>
<svg xmlns="http://www.w3.org/2000/svg" xmlns:xlink="http://www.w3.org/1999/xlink" width="2550pt" height="3300pt" viewBox="0 0 2550 3300" version="1.1">
<g id="surface1">
<path style="fill:none;stroke-width:2;stroke-linecap:butt;stroke-linejoin:miter;stroke:rgb(0%,0%,0%);stroke-opacity:1;stroke-miterlimit:10;" d="M 370.242188 879.914062 C 370.242188 903.453125 351.171875 922.539062 327.632812 922.554688 C 304.09375 922.574219 284.996094 903.519531 284.957031 879.980469 C 284.917969 856.445312 303.960938 837.328125 327.496094 837.273438 C 351.035156 837.214844 370.164062 856.242188 370.242188 879.777344 M 529.621094 2617.671875 C 529.621094 2640.351562 511.242188 2658.746094 488.5625 2658.761719 C 465.878906 2658.78125 447.472656 2640.417969 447.433594 2617.734375 C 447.398438 2595.054688 465.746094 2576.632812 488.429688 2576.578125 C 511.113281 2576.523438 529.546875 2594.855469 529.621094 2617.539062 M 520.367188 793.855469 C 520.367188 816.449219 502.0625 834.765625 479.46875 834.785156 C 456.878906 834.804688 438.546875 816.511719 438.511719 793.921875 C 438.472656 771.332031 456.75 752.984375 479.339844 752.929688 C 501.929688 752.875 520.292969 771.136719 520.367188 793.726562 M 2301.179688 668.589844 C 2301.179688 692.230469 2282.023438 711.398438 2258.382812 711.417969 C 2234.742188 711.4375 2215.558594 692.296875 2215.519531 668.65625 C 2215.484375 645.015625 2234.605469 625.816406 2258.246094 625.757812 C 2281.886719 625.703125 2301.105469 644.8125 2301.179688 668.453125 M 483.394531 2460.378906 C 483.394531 2483.078125 465.003906 2501.480469 442.308594 2501.5 C 419.609375 2501.519531 401.191406 2483.140625 401.152344 2460.445312 C 401.117188 2437.75 419.480469 2419.316406 442.175781 2419.261719 C 464.871094 2419.207031 483.320312 2437.550781 483.394531 2460.25 M 516.828125 2617.910156 C 516.828125 2640.765625 498.308594 2659.300781 475.453125 2659.320312 C 452.59375 2659.335938 434.046875 2640.832031 434.007812 2617.976562 C 433.972656 2595.117188 452.464844 2576.554688 475.320312 2576.5 C 498.175781 2576.445312 516.753906 2594.921875 516.828125 2617.777344 M 345.71875 691.28125 C 345.71875 714.488281 326.914062 733.304688 303.710938 733.324219 C 280.503906 733.34375 261.671875 714.554688 261.632812 691.347656 C 261.597656 668.140625 280.367188 649.292969 303.574219 649.238281 C 326.78125 649.183594 345.644531 667.941406 345.71875 691.148438 M 534.851562 715.445312 C 534.851562 738.796875 515.929688 757.734375 492.574219 757.753906 C 469.222656 757.773438 450.269531 738.867188 450.234375 715.511719 C 450.195312 692.160156 469.085938 673.191406 492.441406 673.136719 C 515.792969 673.082031 534.777344 691.957031 534.851562 715.308594 M 2099 776.136719 C 2099 799.0625 2080.425781 817.648438 2057.503906 817.667969 C 2034.582031 817.683594 2015.976562 799.125 2015.941406 776.203125 C 2015.90625 753.28125 2034.449219 734.664062 2057.371094 734.609375 C 2080.292969 734.554688 2098.925781 753.082031 2099 776.003906 M 2308.558594 2576.878906 C 2308.558594 2599.308594 2290.390625 2617.492188 2267.960938 2617.511719 C 2245.535156 2617.527344 2227.335938 2599.371094 2227.300781 2576.945312 C 2227.265625 2554.519531 2245.40625 2536.304688 2267.832031 2536.25 C 2290.257812 2536.195312 2308.488281 2554.324219 2308.558594 2576.75 M 2253.523438 2615.128906 C 2253.523438 2638.734375 2234.398438 2657.875 2210.792969 2657.890625 C 2187.191406 2657.910156 2168.035156 2638.800781 2168 2615.199219 C 2167.960938 2591.59375 2187.054688 2572.425781 2210.65625 2572.367188 C 2234.261719 2572.3125 2253.445312 2591.390625 2253.523438 2614.992188 M 384.382812 2577.488281 C 384.382812 2599.933594 366.199219 2618.132812 343.753906 2618.152344 C 321.308594 2618.171875 303.09375 2600 303.058594 2577.554688 C 303.023438 2555.109375 321.179688 2536.882812 343.625 2536.828125 C 366.070312 2536.773438 384.3125 2554.917969 384.382812 2577.359375 M 1969.203125 675.390625 C 1969.203125 698.089844 1950.8125 716.496094 1928.113281 716.515625 C 1905.414062 716.535156 1886.992188 698.15625 1886.957031 675.457031 C 1886.921875 652.757812 1905.28125 634.324219 1927.980469 634.269531 C 1950.679688 634.214844 1969.132812 652.5625 1969.203125 675.261719 M 2208.140625 2533.921875 C 2208.140625 2557 2189.441406 2575.714844 2166.363281 2575.730469 C 2143.285156 2575.75 2124.554688 2557.066406 2124.519531 2533.988281 C 2124.480469 2510.90625 2143.152344 2492.164062 2166.230469 2492.109375 C 2189.308594 2492.054688 2208.066406 2510.707031 2208.140625 2533.785156 M 416.78125 854.425781 C 416.78125 877.65625 397.957031 896.496094 374.726562 896.515625 C 351.492188 896.535156 332.640625 877.726562 332.601562 854.492188 C 332.566406 831.257812 351.359375 812.390625 374.589844 812.335938 C 397.824219 812.28125 416.707031 831.058594 416.78125 854.289062 M 2176.570312 2634.550781 C 2176.570312 2658.890625 2156.847656 2678.628906 2132.503906 2678.648438 C 2108.164062 2678.667969 2088.410156 2658.960938 2088.371094 2634.621094 C 2088.332031 2610.277344 2108.023438 2590.507812 2132.363281 2590.449219 C 2156.707031 2590.390625 2176.492188 2610.066406 2176.570312 2634.410156 M 2309.355469 2397.019531 C 2309.355469 2420.828125 2290.0625 2440.136719 2266.253906 2440.15625 C 2242.445312 2440.171875 2223.125 2420.898438 2223.085938 2397.089844 C 2223.046875 2373.28125 2242.308594 2353.941406 2266.117188 2353.886719 C 2289.925781 2353.828125 2309.277344 2373.074219 2309.355469 2396.882812 M 2178.378906 706.9375 C 2178.378906 729.859375 2159.804688 748.449219 2136.882812 748.464844 C 2113.960938 748.484375 2095.355469 729.925781 2095.320312 707.003906 C 2095.285156 684.082031 2113.828125 665.460938 2136.75 665.40625 C 2159.671875 665.351562 2178.304688 683.882812 2178.378906 706.804688 M 475.582031 2567.550781 C 475.582031 2590.824219 456.726562 2609.695312 433.453125 2609.710938 C 410.179688 2609.730469 391.292969 2590.890625 391.257812 2567.617188 C 391.222656 2544.34375 410.046875 2525.445312 433.320312 2525.386719 C 456.589844 2525.332031 475.507812 2544.144531 475.582031 2567.414062 M 1994.828125 2669.871094 C 1994.828125 2693.183594 1975.9375 2712.089844 1952.625 2712.109375 C 1929.308594 2712.128906 1910.386719 2693.253906 1910.351562 2669.9375 C 1910.3125 2646.621094 1929.175781 2627.6875 1952.488281 2627.628906 C 1975.804688 2627.574219 1994.753906 2646.421875 1994.828125 2669.734375 "/>
</g>
</svg>
